# MagicaVoxel @ ephtracy

# material
mtllib spider.mtl
usemtl palette

# normals
vn -1 0 0
vn 1 0 0
vn 0 0 1
vn 0 0 -1
vn 0 -1 0
vn 0 1 0

# texcoords
vt 0.537109 0.5
vt 0.560547 0.5
vt 0.701172 0.5

# verts
v -8 0 7
v -8 0 6
v -8 0 1
v -8 0 -0
v -8 0 -5
v -8 0 -6
v -8 1 7
v -8 1 6
v -8 1 1
v -8 1 -0
v -8 1 -5
v -8 1 -6
v -7 1 6
v -7 1 5
v -7 1 1
v -7 1 -0
v -7 1 -4
v -7 1 -5
v -7 2 6
v -7 2 5
v -7 2 1
v -7 2 -0
v -7 2 -4
v -7 2 -5
v -6 2 5
v -6 2 4
v -6 2 1
v -6 2 -0
v -6 2 -3
v -6 2 -4
v -6 3 5
v -6 3 4
v -6 3 1
v -6 3 -0
v -6 3 -3
v -6 3 -4
v -5 2 4
v -5 2 3
v -5 2 -2
v -5 2 -3
v -5 3 4
v -5 3 3
v -5 3 -2
v -5 3 -3
v -4 1 3
v -4 1 2
v -4 1 1
v -4 1 -0
v -4 1 -1
v -4 1 -2
v -4 2 3
v -4 2 2
v -4 2 1
v -4 2 -0
v -4 2 -1
v -4 2 -2
v -3 0 3
v -3 0 2
v -3 0 1
v -3 0 -0
v -3 0 -1
v -3 0 -2
v -3 1 3
v -3 1 2
v -3 1 1
v -3 1 -0
v -3 1 -1
v -3 1 -2
v -2 0 5
v -2 0 3
v -2 0 -2
v -2 0 -5
v -2 0 -6
v -2 0 -7
v -2 1 7
v -2 1 5
v -2 1 3
v -2 1 2
v -2 1 -2
v -2 2 7
v -2 2 5
v -2 3 5
v -2 3 3
v -2 4 5
v -2 4 3
v -2 4 2
v -2 4 -2
v -2 4 -5
v -2 4 -6
v -2 4 -7
v -2 5 5
v -2 5 3
v -1 0 2
v -1 0 1
v -1 0 -0
v -1 0 -1
v -1 1 1
v -1 1 -0
v -1 1 -1
v -1 1 -2
v -1 2 2
v -1 2 -2
v 1 1 7
v 1 1 5
v 1 2 7
v 1 2 5
v 1 3 3
v 1 3 2
v 1 4 5
v 1 4 3
v 1 4 2
v 1 5 5
v 1 5 3
v 3 1 3
v 3 1 2
v 3 1 1
v 3 1 -0
v 3 1 -1
v 3 1 -2
v 3 2 3
v 3 2 2
v 3 2 1
v 3 2 -0
v 3 2 -1
v 3 2 -2
v 4 2 4
v 4 2 3
v 4 2 1
v 4 2 -0
v 4 2 -2
v 4 2 -3
v 4 3 4
v 4 3 3
v 4 3 1
v 4 3 -0
v 4 3 -2
v 4 3 -3
v 5 2 5
v 5 2 4
v 5 2 -3
v 5 2 -4
v 5 3 5
v 5 3 4
v 5 3 -3
v 5 3 -4
v 6 1 6
v 6 1 5
v 6 1 1
v 6 1 -0
v 6 1 -4
v 6 1 -5
v 6 2 6
v 6 2 5
v 6 2 1
v 6 2 -0
v 6 2 -4
v 6 2 -5
v 7 0 7
v 7 0 6
v 7 0 1
v 7 0 -0
v 7 0 -5
v 7 0 -6
v 7 1 7
v 7 1 6
v 7 1 1
v 7 1 -0
v 7 1 -5
v 7 1 -6
v -7 0 7
v -7 0 6
v -7 0 1
v -7 0 -0
v -7 0 -5
v -7 0 -6
v -7 1 7
v -7 1 6
v -7 1 1
v -7 1 -0
v -7 1 -5
v -7 1 -6
v -6 1 6
v -6 1 5
v -6 1 1
v -6 1 -0
v -6 1 -4
v -6 1 -5
v -6 2 6
v -6 2 5
v -6 2 1
v -6 2 -0
v -6 2 -4
v -6 2 -5
v -5 2 5
v -5 2 4
v -5 2 -3
v -5 2 -4
v -5 3 5
v -5 3 4
v -5 3 -3
v -5 3 -4
v -4 2 4
v -4 2 3
v -4 2 1
v -4 2 -0
v -4 2 -2
v -4 2 -3
v -4 3 4
v -4 3 3
v -4 3 1
v -4 3 -0
v -4 3 -2
v -4 3 -3
v -3 1 3
v -3 1 2
v -3 1 1
v -3 1 -0
v -3 1 -1
v -3 1 -2
v -3 2 3
v -3 2 2
v -3 2 1
v -3 2 -0
v -3 2 -1
v -3 2 -2
v -1 1 7
v -1 1 5
v -1 2 7
v -1 2 5
v -1 3 3
v -1 3 2
v -1 4 5
v -1 4 3
v -1 4 2
v -1 5 5
v -1 5 3
v 1 0 2
v 1 0 1
v 1 0 -0
v 1 0 -1
v 1 1 1
v 1 1 -0
v 1 1 -1
v 1 1 -2
v 1 2 2
v 1 2 -2
v 2 0 5
v 2 0 3
v 2 0 -2
v 2 0 -5
v 2 0 -6
v 2 0 -7
v 2 1 7
v 2 1 5
v 2 1 3
v 2 1 2
v 2 1 -2
v 2 2 7
v 2 2 5
v 2 3 5
v 2 3 3
v 2 4 5
v 2 4 3
v 2 4 2
v 2 4 -2
v 2 4 -5
v 2 4 -6
v 2 4 -7
v 2 5 5
v 2 5 3
v 3 0 3
v 3 0 2
v 3 0 1
v 3 0 -0
v 3 0 -1
v 3 0 -2
v 3 1 3
v 3 1 2
v 3 1 1
v 3 1 -0
v 3 1 -1
v 3 1 -2
v 4 1 3
v 4 1 2
v 4 1 1
v 4 1 -0
v 4 1 -1
v 4 1 -2
v 4 2 3
v 4 2 2
v 4 2 1
v 4 2 -0
v 4 2 -1
v 4 2 -2
v 5 2 4
v 5 2 3
v 5 2 -2
v 5 2 -3
v 5 3 4
v 5 3 3
v 5 3 -2
v 5 3 -3
v 6 2 5
v 6 2 4
v 6 2 1
v 6 2 -0
v 6 2 -3
v 6 2 -4
v 6 3 5
v 6 3 4
v 6 3 1
v 6 3 -0
v 6 3 -3
v 6 3 -4
v 7 1 6
v 7 1 5
v 7 1 1
v 7 1 -0
v 7 1 -4
v 7 1 -5
v 7 2 6
v 7 2 5
v 7 2 1
v 7 2 -0
v 7 2 -4
v 7 2 -5
v 8 0 7
v 8 0 6
v 8 0 1
v 8 0 -0
v 8 0 -5
v 8 0 -6
v 8 1 7
v 8 1 6
v 8 1 1
v 8 1 -0
v 8 1 -5
v 8 1 -6
v -8 0 7
v -8 1 7
v -7 0 7
v -7 1 7
v -2 1 7
v -2 2 7
v -1 1 7
v -1 2 7
v 1 1 7
v 1 2 7
v 2 1 7
v 2 2 7
v 7 0 7
v 7 1 7
v 8 0 7
v 8 1 7
v -7 1 6
v -7 2 6
v -6 1 6
v -6 2 6
v 6 1 6
v 6 2 6
v 7 1 6
v 7 2 6
v -6 2 5
v -6 3 5
v -5 2 5
v -5 3 5
v -2 0 5
v -2 1 5
v -2 2 5
v -2 3 5
v -2 4 5
v -2 5 5
v -1 1 5
v -1 2 5
v -1 3 5
v -1 4 5
v -1 5 5
v 1 1 5
v 1 2 5
v 1 3 5
v 1 4 5
v 1 5 5
v 2 0 5
v 2 1 5
v 2 2 5
v 2 3 5
v 2 4 5
v 2 5 5
v 5 2 5
v 5 3 5
v 6 2 5
v 6 3 5
v -5 2 4
v -5 3 4
v -4 2 4
v -4 3 4
v 4 2 4
v 4 3 4
v 5 2 4
v 5 3 4
v -4 1 3
v -4 2 3
v -3 0 3
v -3 1 3
v -3 2 3
v -2 0 3
v -2 1 3
v -2 3 3
v -2 4 3
v -1 3 3
v -1 4 3
v 1 3 3
v 1 4 3
v 2 0 3
v 2 1 3
v 2 3 3
v 2 4 3
v 3 0 3
v 3 1 3
v 3 2 3
v 4 1 3
v 4 2 3
v -8 0 1
v -8 1 1
v -7 0 1
v -7 1 1
v -7 2 1
v -6 1 1
v -6 2 1
v -6 3 1
v -4 1 1
v -4 2 1
v -4 3 1
v -3 0 1
v -3 1 1
v -3 2 1
v -1 0 1
v -1 1 1
v 1 0 1
v 1 1 1
v 3 0 1
v 3 1 1
v 3 2 1
v 4 1 1
v 4 2 1
v 4 3 1
v 6 1 1
v 6 2 1
v 6 3 1
v 7 0 1
v 7 1 1
v 7 2 1
v 8 0 1
v 8 1 1
v -4 1 -1
v -4 2 -1
v -3 0 -1
v -3 1 -1
v -3 2 -1
v -1 0 -1
v -1 1 -1
v 1 0 -1
v 1 1 -1
v 3 0 -1
v 3 1 -1
v 3 2 -1
v 4 1 -1
v 4 2 -1
v -5 2 -2
v -5 3 -2
v -4 2 -2
v -4 3 -2
v -2 1 -2
v -2 4 -2
v -1 1 -2
v -1 2 -2
v 1 1 -2
v 1 2 -2
v 2 1 -2
v 2 4 -2
v 4 2 -2
v 4 3 -2
v 5 2 -2
v 5 3 -2
v -6 2 -3
v -6 3 -3
v -5 2 -3
v -5 3 -3
v 5 2 -3
v 5 3 -3
v 6 2 -3
v 6 3 -3
v -7 1 -4
v -7 2 -4
v -6 1 -4
v -6 2 -4
v 6 1 -4
v 6 2 -4
v 7 1 -4
v 7 2 -4
v -8 0 -5
v -8 1 -5
v -7 0 -5
v -7 1 -5
v 7 0 -5
v 7 1 -5
v 8 0 -5
v 8 1 -5
v -8 0 6
v -8 1 6
v -7 0 6
v -7 1 6
v 7 0 6
v 7 1 6
v 8 0 6
v 8 1 6
v -7 1 5
v -7 2 5
v -6 1 5
v -6 2 5
v 6 1 5
v 6 2 5
v 7 1 5
v 7 2 5
v -6 2 4
v -6 3 4
v -5 2 4
v -5 3 4
v 5 2 4
v 5 3 4
v 6 2 4
v 6 3 4
v -5 2 3
v -5 3 3
v -4 2 3
v -4 3 3
v -2 4 3
v -2 5 3
v -1 4 3
v -1 5 3
v 1 4 3
v 1 5 3
v 2 4 3
v 2 5 3
v 4 2 3
v 4 3 3
v 5 2 3
v 5 3 3
v -4 1 2
v -4 2 2
v -3 0 2
v -3 1 2
v -3 2 2
v -2 0 2
v -2 1 2
v -2 4 2
v -1 0 2
v -1 2 2
v -1 3 2
v -1 4 2
v 1 0 2
v 1 2 2
v 1 3 2
v 1 4 2
v 2 0 2
v 2 1 2
v 2 4 2
v 3 0 2
v 3 1 2
v 3 2 2
v 4 1 2
v 4 2 2
v -8 0 -0
v -8 1 -0
v -7 0 -0
v -7 1 -0
v -7 2 -0
v -6 1 -0
v -6 2 -0
v -6 3 -0
v -4 1 -0
v -4 2 -0
v -4 3 -0
v -3 0 -0
v -3 1 -0
v -3 2 -0
v -1 0 -0
v -1 1 -0
v 1 0 -0
v 1 1 -0
v 3 0 -0
v 3 1 -0
v 3 2 -0
v 4 1 -0
v 4 2 -0
v 4 3 -0
v 6 1 -0
v 6 2 -0
v 6 3 -0
v 7 0 -0
v 7 1 -0
v 7 2 -0
v 8 0 -0
v 8 1 -0
v -4 1 -2
v -4 2 -2
v -3 0 -2
v -3 1 -2
v -3 2 -2
v -2 0 -2
v -2 1 -2
v 2 0 -2
v 2 1 -2
v 3 0 -2
v 3 1 -2
v 3 2 -2
v 4 1 -2
v 4 2 -2
v -5 2 -3
v -5 3 -3
v -4 2 -3
v -4 3 -3
v 4 2 -3
v 4 3 -3
v 5 2 -3
v 5 3 -3
v -6 2 -4
v -6 3 -4
v -5 2 -4
v -5 3 -4
v 5 2 -4
v 5 3 -4
v 6 2 -4
v 6 3 -4
v -7 1 -5
v -7 2 -5
v -6 1 -5
v -6 2 -5
v 6 1 -5
v 6 2 -5
v 7 1 -5
v 7 2 -5
v -8 0 -6
v -8 1 -6
v -7 0 -6
v -7 1 -6
v 7 0 -6
v 7 1 -6
v 8 0 -6
v 8 1 -6
v -2 0 -7
v -2 4 -7
v 2 0 -7
v 2 4 -7
v -8 0 7
v -7 0 7
v 7 0 7
v 8 0 7
v -8 0 6
v -7 0 6
v 7 0 6
v 8 0 6
v -2 0 5
v 2 0 5
v -3 0 3
v -2 0 3
v 2 0 3
v 3 0 3
v -3 0 2
v -2 0 2
v -1 0 2
v 1 0 2
v 2 0 2
v 3 0 2
v -8 0 1
v -7 0 1
v -3 0 1
v -1 0 1
v 1 0 1
v 3 0 1
v 7 0 1
v 8 0 1
v -8 0 -0
v -7 0 -0
v -3 0 -0
v -1 0 -0
v 1 0 -0
v 3 0 -0
v 7 0 -0
v 8 0 -0
v -3 0 -1
v -1 0 -1
v 1 0 -1
v 3 0 -1
v -3 0 -2
v -2 0 -2
v -1 0 -2
v 1 0 -2
v 2 0 -2
v 3 0 -2
v -8 0 -5
v -7 0 -5
v -2 0 -5
v -1 0 -5
v 1 0 -5
v 2 0 -5
v 7 0 -5
v 8 0 -5
v -8 0 -6
v -7 0 -6
v -2 0 -6
v -1 0 -6
v 1 0 -6
v 2 0 -6
v 7 0 -6
v 8 0 -6
v -2 0 -7
v 2 0 -7
v -2 1 7
v -1 1 7
v 1 1 7
v 2 1 7
v -7 1 6
v -6 1 6
v 6 1 6
v 7 1 6
v -7 1 5
v -6 1 5
v -2 1 5
v -1 1 5
v 1 1 5
v 2 1 5
v 6 1 5
v 7 1 5
v -4 1 3
v -3 1 3
v 3 1 3
v 4 1 3
v -4 1 2
v -3 1 2
v 3 1 2
v 4 1 2
v -7 1 1
v -6 1 1
v -4 1 1
v -3 1 1
v 3 1 1
v 4 1 1
v 6 1 1
v 7 1 1
v -7 1 -0
v -6 1 -0
v -4 1 -0
v -3 1 -0
v 3 1 -0
v 4 1 -0
v 6 1 -0
v 7 1 -0
v -4 1 -1
v -3 1 -1
v 3 1 -1
v 4 1 -1
v -4 1 -2
v -3 1 -2
v 3 1 -2
v 4 1 -2
v -7 1 -4
v -6 1 -4
v 6 1 -4
v 7 1 -4
v -7 1 -5
v -6 1 -5
v 6 1 -5
v 7 1 -5
v -6 2 5
v -5 2 5
v 5 2 5
v 6 2 5
v -6 2 4
v -5 2 4
v -4 2 4
v 4 2 4
v 5 2 4
v 6 2 4
v -5 2 3
v -4 2 3
v 4 2 3
v 5 2 3
v -6 2 1
v -4 2 1
v 4 2 1
v 6 2 1
v -6 2 -0
v -4 2 -0
v 4 2 -0
v 6 2 -0
v -5 2 -2
v -4 2 -2
v 4 2 -2
v 5 2 -2
v -6 2 -3
v -5 2 -3
v -4 2 -3
v 4 2 -3
v 5 2 -3
v 6 2 -3
v -6 2 -4
v -5 2 -4
v 5 2 -4
v 6 2 -4
v -2 4 5
v -1 4 5
v 1 4 5
v 2 4 5
v -2 4 3
v -1 4 3
v 1 4 3
v 2 4 3
v -8 1 7
v -7 1 7
v 7 1 7
v 8 1 7
v -8 1 6
v -7 1 6
v 7 1 6
v 8 1 6
v -3 1 3
v -2 1 3
v 2 1 3
v 3 1 3
v -3 1 2
v -2 1 2
v 2 1 2
v 3 1 2
v -8 1 1
v -7 1 1
v -3 1 1
v -1 1 1
v 1 1 1
v 3 1 1
v 7 1 1
v 8 1 1
v -8 1 -0
v -7 1 -0
v -3 1 -0
v -1 1 -0
v 1 1 -0
v 3 1 -0
v 7 1 -0
v 8 1 -0
v -3 1 -1
v -1 1 -1
v 1 1 -1
v 3 1 -1
v -3 1 -2
v -2 1 -2
v -1 1 -2
v 1 1 -2
v 2 1 -2
v 3 1 -2
v -8 1 -5
v -7 1 -5
v 7 1 -5
v 8 1 -5
v -8 1 -6
v -7 1 -6
v 7 1 -6
v 8 1 -6
v -2 2 7
v -1 2 7
v 1 2 7
v 2 2 7
v -7 2 6
v -6 2 6
v 6 2 6
v 7 2 6
v -7 2 5
v -6 2 5
v -2 2 5
v -1 2 5
v 1 2 5
v 2 2 5
v 6 2 5
v 7 2 5
v -4 2 3
v -3 2 3
v 3 2 3
v 4 2 3
v -4 2 2
v -3 2 2
v -1 2 2
v 1 2 2
v 3 2 2
v 4 2 2
v -7 2 1
v -6 2 1
v -4 2 1
v -3 2 1
v 3 2 1
v 4 2 1
v 6 2 1
v 7 2 1
v -7 2 -0
v -6 2 -0
v -4 2 -0
v -3 2 -0
v 3 2 -0
v 4 2 -0
v 6 2 -0
v 7 2 -0
v -4 2 -1
v -3 2 -1
v 3 2 -1
v 4 2 -1
v -4 2 -2
v -3 2 -2
v -1 2 -2
v 1 2 -2
v 3 2 -2
v 4 2 -2
v -7 2 -4
v -6 2 -4
v 6 2 -4
v 7 2 -4
v -7 2 -5
v -6 2 -5
v 6 2 -5
v 7 2 -5
v -6 3 5
v -5 3 5
v -2 3 5
v -1 3 5
v 1 3 5
v 2 3 5
v 5 3 5
v 6 3 5
v -6 3 4
v -5 3 4
v -4 3 4
v 4 3 4
v 5 3 4
v 6 3 4
v -5 3 3
v -4 3 3
v -2 3 3
v -1 3 3
v 1 3 3
v 2 3 3
v 4 3 3
v 5 3 3
v -1 3 2
v 1 3 2
v -6 3 1
v -4 3 1
v 4 3 1
v 6 3 1
v -6 3 -0
v -4 3 -0
v 4 3 -0
v 6 3 -0
v -5 3 -2
v -4 3 -2
v 4 3 -2
v 5 3 -2
v -6 3 -3
v -5 3 -3
v -4 3 -3
v 4 3 -3
v 5 3 -3
v 6 3 -3
v -6 3 -4
v -5 3 -4
v 5 3 -4
v 6 3 -4
v -2 4 3
v -1 4 3
v 1 4 3
v 2 4 3
v -2 4 2
v -1 4 2
v 1 4 2
v 2 4 2
v -2 4 -2
v 2 4 -2
v -2 4 -5
v 2 4 -5
v -2 4 -6
v 2 4 -6
v -2 4 -7
v 2 4 -7
v -2 5 5
v -1 5 5
v 1 5 5
v 2 5 5
v -2 5 3
v -1 5 3
v 1 5 3
v 2 5 3

# faces
f 7/2/1 2/2/1 1/2/1
f 8/2/1 2/2/1 7/2/1
f 9/2/1 4/2/1 3/2/1
f 10/2/1 4/2/1 9/2/1
f 11/2/1 6/2/1 5/2/1
f 12/2/1 6/2/1 11/2/1
f 19/2/1 14/2/1 13/2/1
f 20/2/1 14/2/1 19/2/1
f 21/2/1 16/2/1 15/2/1
f 22/2/1 16/2/1 21/2/1
f 23/2/1 18/2/1 17/2/1
f 24/2/1 18/2/1 23/2/1
f 31/2/1 26/2/1 25/2/1
f 32/2/1 26/2/1 31/2/1
f 33/2/1 28/2/1 27/2/1
f 34/2/1 28/2/1 33/2/1
f 35/2/1 30/2/1 29/2/1
f 36/2/1 30/2/1 35/2/1
f 41/2/1 38/2/1 37/2/1
f 42/2/1 38/2/1 41/2/1
f 43/2/1 40/2/1 39/2/1
f 44/2/1 40/2/1 43/2/1
f 51/2/1 46/2/1 45/2/1
f 52/2/1 46/2/1 51/2/1
f 53/2/1 48/2/1 47/2/1
f 54/2/1 48/2/1 53/2/1
f 55/2/1 50/2/1 49/2/1
f 56/2/1 50/2/1 55/2/1
f 63/2/1 58/2/1 57/2/1
f 64/2/1 58/2/1 63/2/1
f 65/2/1 60/2/1 59/2/1
f 66/2/1 60/2/1 65/2/1
f 67/2/1 62/2/1 61/2/1
f 68/2/1 62/2/1 67/2/1
f 76/3/1 70/3/1 69/3/1
f 77/3/1 70/3/1 76/3/1
f 79/3/1 72/3/1 71/3/1
f 80/1/1 76/1/1 75/1/1
f 81/2/1 77/2/1 76/2/1
f 81/1/1 76/1/1 80/1/1
f 82/2/1 77/2/1 81/2/1
f 83/3/1 78/3/1 77/3/1
f 83/2/1 77/2/1 82/2/1
f 85/3/1 78/3/1 83/3/1
f 86/3/1 78/3/1 85/3/1
f 87/3/1 72/3/1 79/3/1
f 88/2/1 73/2/1 72/2/1
f 88/3/1 72/3/1 87/3/1
f 89/3/1 74/3/1 73/3/1
f 89/2/1 73/2/1 88/2/1
f 90/3/1 74/3/1 89/3/1
f 91/3/1 85/3/1 84/3/1
f 92/3/1 85/3/1 91/3/1
f 97/3/1 94/3/1 93/3/1
f 98/3/1 96/3/1 95/3/1
f 99/3/1 96/3/1 98/3/1
f 101/3/1 97/3/1 93/3/1
f 101/3/1 100/3/1 99/3/1
f 101/3/1 99/3/1 98/3/1
f 101/3/1 98/3/1 97/3/1
f 102/3/1 100/3/1 101/3/1
f 105/1/1 104/1/1 103/1/1
f 106/1/1 104/1/1 105/1/1
f 110/3/1 108/3/1 107/3/1
f 111/3/1 108/3/1 110/3/1
f 112/3/1 110/3/1 109/3/1
f 113/3/1 110/3/1 112/3/1
f 120/2/1 115/2/1 114/2/1
f 121/2/1 115/2/1 120/2/1
f 122/2/1 117/2/1 116/2/1
f 123/2/1 117/2/1 122/2/1
f 124/2/1 119/2/1 118/2/1
f 125/2/1 119/2/1 124/2/1
f 132/2/1 127/2/1 126/2/1
f 133/2/1 127/2/1 132/2/1
f 134/2/1 129/2/1 128/2/1
f 135/2/1 129/2/1 134/2/1
f 136/2/1 131/2/1 130/2/1
f 137/2/1 131/2/1 136/2/1
f 142/2/1 139/2/1 138/2/1
f 143/2/1 139/2/1 142/2/1
f 144/2/1 141/2/1 140/2/1
f 145/2/1 141/2/1 144/2/1
f 152/2/1 147/2/1 146/2/1
f 153/2/1 147/2/1 152/2/1
f 154/2/1 149/2/1 148/2/1
f 155/2/1 149/2/1 154/2/1
f 156/2/1 151/2/1 150/2/1
f 157/2/1 151/2/1 156/2/1
f 164/2/1 159/2/1 158/2/1
f 165/2/1 159/2/1 164/2/1
f 166/2/1 161/2/1 160/2/1
f 167/2/1 161/2/1 166/2/1
f 168/2/1 163/2/1 162/2/1
f 169/2/1 163/2/1 168/2/1
f 170/2/2 171/2/2 176/2/2
f 176/2/2 171/2/2 177/2/2
f 172/2/2 173/2/2 178/2/2
f 178/2/2 173/2/2 179/2/2
f 174/2/2 175/2/2 180/2/2
f 180/2/2 175/2/2 181/2/2
f 182/2/2 183/2/2 188/2/2
f 188/2/2 183/2/2 189/2/2
f 184/2/2 185/2/2 190/2/2
f 190/2/2 185/2/2 191/2/2
f 186/2/2 187/2/2 192/2/2
f 192/2/2 187/2/2 193/2/2
f 194/2/2 195/2/2 198/2/2
f 198/2/2 195/2/2 199/2/2
f 196/2/2 197/2/2 200/2/2
f 200/2/2 197/2/2 201/2/2
f 202/2/2 203/2/2 208/2/2
f 208/2/2 203/2/2 209/2/2
f 204/2/2 205/2/2 210/2/2
f 210/2/2 205/2/2 211/2/2
f 206/2/2 207/2/2 212/2/2
f 212/2/2 207/2/2 213/2/2
f 214/2/2 215/2/2 220/2/2
f 220/2/2 215/2/2 221/2/2
f 216/2/2 217/2/2 222/2/2
f 222/2/2 217/2/2 223/2/2
f 218/2/2 219/2/2 224/2/2
f 224/2/2 219/2/2 225/2/2
f 226/1/2 227/1/2 228/1/2
f 228/1/2 227/1/2 229/1/2
f 230/3/2 231/3/2 233/3/2
f 233/3/2 231/3/2 234/3/2
f 232/3/2 233/3/2 235/3/2
f 235/3/2 233/3/2 236/3/2
f 237/3/2 238/3/2 241/3/2
f 239/3/2 240/3/2 242/3/2
f 242/3/2 240/3/2 243/3/2
f 237/3/2 241/3/2 245/3/2
f 243/3/2 244/3/2 245/3/2
f 242/3/2 243/3/2 245/3/2
f 241/3/2 242/3/2 245/3/2
f 245/3/2 244/3/2 246/3/2
f 247/3/2 248/3/2 254/3/2
f 254/3/2 248/3/2 255/3/2
f 249/3/2 250/3/2 257/3/2
f 253/1/2 254/1/2 258/1/2
f 254/2/2 255/2/2 259/2/2
f 258/1/2 254/1/2 259/1/2
f 259/2/2 255/2/2 260/2/2
f 255/3/2 256/3/2 261/3/2
f 260/2/2 255/2/2 261/2/2
f 261/3/2 256/3/2 263/3/2
f 263/3/2 256/3/2 264/3/2
f 257/3/2 250/3/2 265/3/2
f 250/2/2 251/2/2 266/2/2
f 265/3/2 250/3/2 266/3/2
f 251/3/2 252/3/2 267/3/2
f 266/2/2 251/2/2 267/2/2
f 267/3/2 252/3/2 268/3/2
f 262/3/2 263/3/2 269/3/2
f 269/3/2 263/3/2 270/3/2
f 271/2/2 272/2/2 277/2/2
f 277/2/2 272/2/2 278/2/2
f 273/2/2 274/2/2 279/2/2
f 279/2/2 274/2/2 280/2/2
f 275/2/2 276/2/2 281/2/2
f 281/2/2 276/2/2 282/2/2
f 283/2/2 284/2/2 289/2/2
f 289/2/2 284/2/2 290/2/2
f 285/2/2 286/2/2 291/2/2
f 291/2/2 286/2/2 292/2/2
f 287/2/2 288/2/2 293/2/2
f 293/2/2 288/2/2 294/2/2
f 295/2/2 296/2/2 299/2/2
f 299/2/2 296/2/2 300/2/2
f 297/2/2 298/2/2 301/2/2
f 301/2/2 298/2/2 302/2/2
f 303/2/2 304/2/2 309/2/2
f 309/2/2 304/2/2 310/2/2
f 305/2/2 306/2/2 311/2/2
f 311/2/2 306/2/2 312/2/2
f 307/2/2 308/2/2 313/2/2
f 313/2/2 308/2/2 314/2/2
f 315/2/2 316/2/2 321/2/2
f 321/2/2 316/2/2 322/2/2
f 317/2/2 318/2/2 323/2/2
f 323/2/2 318/2/2 324/2/2
f 319/2/2 320/2/2 325/2/2
f 325/2/2 320/2/2 326/2/2
f 327/2/2 328/2/2 333/2/2
f 333/2/2 328/2/2 334/2/2
f 329/2/2 330/2/2 335/2/2
f 335/2/2 330/2/2 336/2/2
f 331/2/2 332/2/2 337/2/2
f 337/2/2 332/2/2 338/2/2
f 341/2/3 340/2/3 339/2/3
f 342/2/3 340/2/3 341/2/3
f 345/1/3 344/1/3 343/1/3
f 346/1/3 344/1/3 345/1/3
f 349/1/3 348/1/3 347/1/3
f 350/1/3 348/1/3 349/1/3
f 353/2/3 352/2/3 351/2/3
f 354/2/3 352/2/3 353/2/3
f 357/2/3 356/2/3 355/2/3
f 358/2/3 356/2/3 357/2/3
f 361/2/3 360/2/3 359/2/3
f 362/2/3 360/2/3 361/2/3
f 365/2/3 364/2/3 363/2/3
f 366/2/3 364/2/3 365/2/3
f 373/3/3 368/3/3 367/3/3
f 374/2/3 370/2/3 369/2/3
f 375/2/3 370/2/3 374/2/3
f 376/3/3 372/3/3 371/3/3
f 377/3/3 372/3/3 376/3/3
f 378/3/3 373/3/3 367/3/3
f 378/3/3 375/3/3 374/3/3
f 378/3/3 374/3/3 373/3/3
f 379/3/3 375/3/3 378/3/3
f 380/3/3 375/3/3 379/3/3
f 383/3/3 378/3/3 367/3/3
f 384/3/3 378/3/3 383/3/3
f 385/2/3 380/2/3 379/2/3
f 386/2/3 380/2/3 385/2/3
f 387/3/3 382/3/3 381/3/3
f 388/3/3 382/3/3 387/3/3
f 391/2/3 390/2/3 389/2/3
f 392/2/3 390/2/3 391/2/3
f 395/2/3 394/2/3 393/2/3
f 396/2/3 394/2/3 395/2/3
f 399/2/3 398/2/3 397/2/3
f 400/2/3 398/2/3 399/2/3
f 404/2/3 402/2/3 401/2/3
f 405/2/3 402/2/3 404/2/3
f 406/2/3 404/2/3 403/2/3
f 407/2/3 404/2/3 406/2/3
f 410/3/3 409/3/3 408/3/3
f 411/3/3 409/3/3 410/3/3
f 416/3/3 413/3/3 412/3/3
f 417/3/3 413/3/3 416/3/3
f 418/2/3 415/2/3 414/2/3
f 419/2/3 415/2/3 418/2/3
f 421/2/3 420/2/3 419/2/3
f 422/2/3 420/2/3 421/2/3
f 425/2/3 424/2/3 423/2/3
f 426/2/3 424/2/3 425/2/3
f 428/2/3 427/2/3 426/2/3
f 429/2/3 427/2/3 428/2/3
f 432/2/3 430/2/3 429/2/3
f 433/2/3 430/2/3 432/2/3
f 435/2/3 432/2/3 431/2/3
f 436/2/3 432/2/3 435/2/3
f 437/2/3 435/2/3 434/2/3
f 438/2/3 435/2/3 437/2/3
f 441/2/3 440/2/3 439/2/3
f 442/2/3 440/2/3 441/2/3
f 444/2/3 443/2/3 442/2/3
f 445/2/3 443/2/3 444/2/3
f 448/2/3 446/2/3 445/2/3
f 449/2/3 446/2/3 448/2/3
f 451/2/3 448/2/3 447/2/3
f 452/2/3 448/2/3 451/2/3
f 453/2/3 451/2/3 450/2/3
f 454/2/3 451/2/3 453/2/3
f 458/2/3 456/2/3 455/2/3
f 459/2/3 456/2/3 458/2/3
f 460/2/3 458/2/3 457/2/3
f 461/2/3 458/2/3 460/2/3
f 464/2/3 463/2/3 462/2/3
f 465/2/3 463/2/3 464/2/3
f 467/2/3 466/2/3 465/2/3
f 468/2/3 466/2/3 467/2/3
f 471/2/3 470/2/3 469/2/3
f 472/2/3 470/2/3 471/2/3
f 475/3/3 474/3/3 473/3/3
f 476/3/3 474/3/3 475/3/3
f 478/3/3 474/3/3 476/3/3
f 479/3/3 478/3/3 477/3/3
f 480/3/3 474/3/3 478/3/3
f 480/3/3 478/3/3 479/3/3
f 483/2/3 482/2/3 481/2/3
f 484/2/3 482/2/3 483/2/3
f 487/2/3 486/2/3 485/2/3
f 488/2/3 486/2/3 487/2/3
f 491/2/3 490/2/3 489/2/3
f 492/2/3 490/2/3 491/2/3
f 495/2/3 494/2/3 493/2/3
f 496/2/3 494/2/3 495/2/3
f 499/2/3 498/2/3 497/2/3
f 500/2/3 498/2/3 499/2/3
f 503/2/3 502/2/3 501/2/3
f 504/2/3 502/2/3 503/2/3
f 507/2/3 506/2/3 505/2/3
f 508/2/3 506/2/3 507/2/3
f 509/2/4 510/2/4 511/2/4
f 511/2/4 510/2/4 512/2/4
f 513/2/4 514/2/4 515/2/4
f 515/2/4 514/2/4 516/2/4
f 517/2/4 518/2/4 519/2/4
f 519/2/4 518/2/4 520/2/4
f 521/2/4 522/2/4 523/2/4
f 523/2/4 522/2/4 524/2/4
f 525/2/4 526/2/4 527/2/4
f 527/2/4 526/2/4 528/2/4
f 529/2/4 530/2/4 531/2/4
f 531/2/4 530/2/4 532/2/4
f 533/2/4 534/2/4 535/2/4
f 535/2/4 534/2/4 536/2/4
f 537/3/4 538/3/4 539/3/4
f 539/3/4 538/3/4 540/3/4
f 541/3/4 542/3/4 543/3/4
f 543/3/4 542/3/4 544/3/4
f 545/2/4 546/2/4 547/2/4
f 547/2/4 546/2/4 548/2/4
f 549/2/4 550/2/4 552/2/4
f 552/2/4 550/2/4 553/2/4
f 551/2/4 552/2/4 554/2/4
f 554/2/4 552/2/4 555/2/4
f 554/3/4 555/3/4 557/3/4
f 555/3/4 556/3/4 557/3/4
f 557/3/4 556/3/4 558/3/4
f 558/3/4 556/3/4 559/3/4
f 559/3/4 556/3/4 560/3/4
f 558/3/4 559/3/4 562/3/4
f 562/3/4 559/3/4 563/3/4
f 561/3/4 562/3/4 565/3/4
f 563/3/4 564/3/4 565/3/4
f 562/3/4 563/3/4 565/3/4
f 565/3/4 564/3/4 566/3/4
f 566/3/4 564/3/4 567/3/4
f 565/2/4 566/2/4 568/2/4
f 568/2/4 566/2/4 569/2/4
f 569/2/4 570/2/4 571/2/4
f 571/2/4 570/2/4 572/2/4
f 573/2/4 574/2/4 575/2/4
f 575/2/4 574/2/4 576/2/4
f 576/2/4 577/2/4 578/2/4
f 578/2/4 577/2/4 579/2/4
f 579/2/4 580/2/4 582/2/4
f 582/2/4 580/2/4 583/2/4
f 581/2/4 582/2/4 585/2/4
f 585/2/4 582/2/4 586/2/4
f 584/2/4 585/2/4 587/2/4
f 587/2/4 585/2/4 588/2/4
f 589/2/4 590/2/4 591/2/4
f 591/2/4 590/2/4 592/2/4
f 592/2/4 593/2/4 594/2/4
f 594/2/4 593/2/4 595/2/4
f 595/2/4 596/2/4 598/2/4
f 598/2/4 596/2/4 599/2/4
f 597/2/4 598/2/4 601/2/4
f 601/2/4 598/2/4 602/2/4
f 600/2/4 601/2/4 603/2/4
f 603/2/4 601/2/4 604/2/4
f 605/2/4 606/2/4 608/2/4
f 608/2/4 606/2/4 609/2/4
f 607/2/4 608/2/4 610/2/4
f 610/2/4 608/2/4 611/2/4
f 612/2/4 613/2/4 614/2/4
f 614/2/4 613/2/4 615/2/4
f 615/2/4 616/2/4 617/2/4
f 617/2/4 616/2/4 618/2/4
f 619/2/4 620/2/4 621/2/4
f 621/2/4 620/2/4 622/2/4
f 623/2/4 624/2/4 625/2/4
f 625/2/4 624/2/4 626/2/4
f 627/2/4 628/2/4 629/2/4
f 629/2/4 628/2/4 630/2/4
f 631/2/4 632/2/4 633/2/4
f 633/2/4 632/2/4 634/2/4
f 635/2/4 636/2/4 637/2/4
f 637/2/4 636/2/4 638/2/4
f 639/2/4 640/2/4 641/2/4
f 641/2/4 640/2/4 642/2/4
f 643/2/4 644/2/4 645/2/4
f 645/2/4 644/2/4 646/2/4
f 647/2/4 648/2/4 649/2/4
f 649/2/4 648/2/4 650/2/4
f 651/3/4 652/3/4 653/3/4
f 653/3/4 652/3/4 654/3/4
f 659/2/5 656/2/5 655/2/5
f 660/2/5 656/2/5 659/2/5
f 661/2/5 658/2/5 657/2/5
f 662/2/5 658/2/5 661/2/5
f 666/3/5 664/3/5 663/3/5
f 667/3/5 664/3/5 666/3/5
f 669/2/5 666/2/5 665/2/5
f 670/3/5 667/3/5 666/3/5
f 670/2/5 666/2/5 669/2/5
f 671/3/5 667/3/5 670/3/5
f 672/3/5 667/3/5 671/3/5
f 673/2/5 668/2/5 667/2/5
f 673/3/5 667/3/5 672/3/5
f 674/2/5 668/2/5 673/2/5
f 678/3/5 672/3/5 671/3/5
f 679/3/5 672/3/5 678/3/5
f 683/2/5 676/2/5 675/2/5
f 684/2/5 676/2/5 683/2/5
f 685/2/5 678/2/5 677/2/5
f 686/3/5 679/3/5 678/3/5
f 686/2/5 678/2/5 685/2/5
f 687/2/5 680/2/5 679/2/5
f 687/3/5 679/3/5 686/3/5
f 688/2/5 680/2/5 687/2/5
f 689/2/5 682/2/5 681/2/5
f 690/2/5 682/2/5 689/2/5
f 692/3/5 687/3/5 686/3/5
f 693/3/5 687/3/5 692/3/5
f 695/2/5 692/2/5 691/2/5
f 696/2/5 692/2/5 695/2/5
f 697/3/5 693/3/5 692/3/5
f 697/2/5 692/2/5 696/2/5
f 698/2/5 694/2/5 693/2/5
f 698/3/5 693/3/5 697/3/5
f 699/2/5 694/2/5 698/2/5
f 700/2/5 694/2/5 699/2/5
f 703/3/5 697/3/5 696/3/5
f 703/3/5 698/3/5 697/3/5
f 703/3/5 699/3/5 698/3/5
f 704/3/5 699/3/5 703/3/5
f 705/3/5 699/3/5 704/3/5
f 706/3/5 699/3/5 705/3/5
f 709/2/5 702/2/5 701/2/5
f 710/2/5 702/2/5 709/2/5
f 711/2/5 704/2/5 703/2/5
f 712/3/5 705/3/5 704/3/5
f 712/2/5 704/2/5 711/2/5
f 713/2/5 706/2/5 705/2/5
f 713/3/5 705/3/5 712/3/5
f 714/2/5 706/2/5 713/2/5
f 715/2/5 708/2/5 707/2/5
f 716/2/5 708/2/5 715/2/5
f 717/3/5 714/3/5 713/3/5
f 717/3/5 712/3/5 711/3/5
f 717/3/5 713/3/5 712/3/5
f 718/3/5 714/3/5 717/3/5
f 727/2/5 724/2/5 723/2/5
f 728/2/5 724/2/5 727/2/5
f 729/1/5 720/1/5 719/1/5
f 730/1/5 720/1/5 729/1/5
f 731/1/5 722/1/5 721/1/5
f 732/1/5 722/1/5 731/1/5
f 733/2/5 726/2/5 725/2/5
f 734/2/5 726/2/5 733/2/5
f 739/2/5 736/2/5 735/2/5
f 740/2/5 736/2/5 739/2/5
f 741/2/5 738/2/5 737/2/5
f 742/2/5 738/2/5 741/2/5
f 751/2/5 744/2/5 743/2/5
f 752/2/5 744/2/5 751/2/5
f 753/2/5 746/2/5 745/2/5
f 754/2/5 746/2/5 753/2/5
f 755/2/5 748/2/5 747/2/5
f 756/2/5 748/2/5 755/2/5
f 757/2/5 750/2/5 749/2/5
f 758/2/5 750/2/5 757/2/5
f 763/2/5 760/2/5 759/2/5
f 764/2/5 760/2/5 763/2/5
f 765/2/5 762/2/5 761/2/5
f 766/2/5 762/2/5 765/2/5
f 771/2/5 768/2/5 767/2/5
f 772/2/5 768/2/5 771/2/5
f 773/2/5 770/2/5 769/2/5
f 774/2/5 770/2/5 773/2/5
f 779/2/5 776/2/5 775/2/5
f 780/2/5 776/2/5 779/2/5
f 783/2/5 778/2/5 777/2/5
f 784/2/5 778/2/5 783/2/5
f 785/2/5 781/2/5 780/2/5
f 786/2/5 781/2/5 785/2/5
f 787/2/5 783/2/5 782/2/5
f 788/2/5 783/2/5 787/2/5
f 793/2/5 790/2/5 789/2/5
f 794/2/5 790/2/5 793/2/5
f 795/2/5 792/2/5 791/2/5
f 796/2/5 792/2/5 795/2/5
f 802/2/5 798/2/5 797/2/5
f 803/2/5 798/2/5 802/2/5
f 804/2/5 800/2/5 799/2/5
f 805/2/5 800/2/5 804/2/5
f 807/2/5 802/2/5 801/2/5
f 808/2/5 802/2/5 807/2/5
f 809/2/5 806/2/5 805/2/5
f 810/2/5 806/2/5 809/2/5
f 815/3/5 812/3/5 811/3/5
f 816/3/5 812/3/5 815/3/5
f 817/3/5 814/3/5 813/3/5
f 818/3/5 814/3/5 817/3/5
f 819/2/6 820/2/6 823/2/6
f 823/2/6 820/2/6 824/2/6
f 821/2/6 822/2/6 825/2/6
f 825/2/6 822/2/6 826/2/6
f 827/2/6 828/2/6 831/2/6
f 831/2/6 828/2/6 832/2/6
f 829/2/6 830/2/6 833/2/6
f 833/2/6 830/2/6 834/2/6
f 835/2/6 836/2/6 843/2/6
f 843/2/6 836/2/6 844/2/6
f 837/2/6 838/2/6 845/2/6
f 845/2/6 838/2/6 846/2/6
f 839/2/6 840/2/6 847/2/6
f 847/2/6 840/2/6 848/2/6
f 841/2/6 842/2/6 849/2/6
f 849/2/6 842/2/6 850/2/6
f 851/2/6 852/2/6 855/2/6
f 855/2/6 852/2/6 856/2/6
f 856/2/6 852/2/6 857/2/6
f 853/2/6 854/2/6 858/2/6
f 858/2/6 854/2/6 859/2/6
f 859/2/6 854/2/6 860/2/6
f 861/2/6 862/2/6 865/2/6
f 865/2/6 862/2/6 866/2/6
f 863/2/6 864/2/6 867/2/6
f 867/2/6 864/2/6 868/2/6
f 873/2/6 874/2/6 877/2/6
f 877/2/6 874/2/6 878/2/6
f 869/1/6 870/1/6 879/1/6
f 879/1/6 870/1/6 880/1/6
f 871/1/6 872/1/6 881/1/6
f 881/1/6 872/1/6 882/1/6
f 875/2/6 876/2/6 883/2/6
f 883/2/6 876/2/6 884/2/6
f 885/2/6 886/2/6 889/2/6
f 889/2/6 886/2/6 890/2/6
f 887/2/6 888/2/6 893/2/6
f 893/2/6 888/2/6 894/2/6
f 895/2/6 896/2/6 903/2/6
f 903/2/6 896/2/6 904/2/6
f 897/2/6 898/2/6 905/2/6
f 905/2/6 898/2/6 906/2/6
f 899/2/6 900/2/6 907/2/6
f 907/2/6 900/2/6 908/2/6
f 901/2/6 902/2/6 909/2/6
f 909/2/6 902/2/6 910/2/6
f 911/2/6 912/2/6 915/2/6
f 915/2/6 912/2/6 916/2/6
f 891/3/6 892/3/6 917/3/6
f 917/3/6 892/3/6 918/3/6
f 913/2/6 914/2/6 919/2/6
f 919/2/6 914/2/6 920/2/6
f 921/2/6 922/2/6 925/2/6
f 925/2/6 922/2/6 926/2/6
f 923/2/6 924/2/6 927/2/6
f 927/2/6 924/2/6 928/2/6
f 929/2/6 930/2/6 937/2/6
f 937/2/6 930/2/6 938/2/6
f 935/2/6 936/2/6 941/2/6
f 941/2/6 936/2/6 942/2/6
f 938/2/6 939/2/6 943/2/6
f 943/2/6 939/2/6 944/2/6
f 931/2/6 932/2/6 945/2/6
f 932/3/6 933/3/6 946/3/6
f 945/2/6 932/2/6 946/2/6
f 933/2/6 934/2/6 947/2/6
f 946/3/6 933/3/6 947/3/6
f 947/2/6 934/2/6 948/2/6
f 940/2/6 941/2/6 949/2/6
f 949/2/6 941/2/6 950/2/6
f 946/3/6 947/3/6 951/3/6
f 951/3/6 947/3/6 952/3/6
f 953/2/6 954/2/6 957/2/6
f 957/2/6 954/2/6 958/2/6
f 955/2/6 956/2/6 959/2/6
f 959/2/6 956/2/6 960/2/6
f 961/2/6 962/2/6 966/2/6
f 966/2/6 962/2/6 967/2/6
f 963/2/6 964/2/6 968/2/6
f 968/2/6 964/2/6 969/2/6
f 965/2/6 966/2/6 971/2/6
f 971/2/6 966/2/6 972/2/6
f 969/2/6 970/2/6 973/2/6
f 973/2/6 970/2/6 974/2/6
f 975/3/6 976/3/6 979/3/6
f 979/3/6 976/3/6 980/3/6
f 977/3/6 978/3/6 981/3/6
f 981/3/6 978/3/6 982/3/6
f 983/3/6 984/3/6 985/3/6
f 985/3/6 984/3/6 986/3/6
f 985/2/6 986/2/6 987/2/6
f 987/2/6 986/2/6 988/2/6
f 987/3/6 988/3/6 989/3/6
f 989/3/6 988/3/6 990/3/6
f 991/3/6 992/3/6 995/3/6
f 995/3/6 992/3/6 996/3/6
f 993/3/6 994/3/6 997/3/6
f 997/3/6 994/3/6 998/3/6
