# MagicaVoxel @ ephtracy

# material
mtllib cactusImposter.mtl
usemtl palette

# normals
vn -1 0 0
vn 1 0 0
vn 0 0 1
vn 0 0 -1
vn 0 -1 0
vn 0 1 0

# texcoords
vt 0.541016 0.5
vt 0.697266 0.5
vt 0.837891 0.5
vt 0.880859 0.5
vt 0.888672 0.5
vt 0.955078 0.5

# verts
v -4 1 3
v -4 1 -3
v -4 3 3
v -4 3 -3
v -3 0 2
v -3 0 -2
v -3 1 4
v -3 1 3
v -3 1 2
v -3 1 -2
v -3 1 -3
v -3 1 -4
v -3 3 4
v -3 3 3
v -3 3 2
v -3 3 -0
v -3 3 -1
v -3 3 -2
v -3 3 -3
v -3 3 -4
v -3 6 2
v -3 6 1
v -3 6 -1
v -3 6 -2
v -3 7 1
v -3 7 -0
v -3 7 -1
v -2 0 3
v -2 0 2
v -2 0 -2
v -2 0 -3
v -2 1 3
v -2 1 2
v -2 1 -2
v -2 1 -3
v -2 3 3
v -2 3 2
v -2 3 -2
v -2 3 -3
v -2 6 3
v -2 6 2
v -2 6 1
v -2 6 -1
v -2 6 -2
v -2 6 -3
v -2 7 2
v -2 7 1
v -2 7 -0
v -2 7 -1
v -2 7 -2
v -2 8 1
v -2 8 -0
v -2 8 -1
v -1 6 3
v -1 6 2
v -1 6 -2
v -1 6 -3
v -1 7 3
v -1 7 2
v -1 7 1
v -1 7 -1
v -1 7 -2
v -1 7 -3
v -1 8 2
v -1 8 1
v -1 8 -1
v -1 8 -2
v 1 6 3
v 1 6 2
v 1 6 -2
v 1 6 -3
v 1 7 3
v 1 7 2
v 1 7 1
v 1 7 -1
v 1 7 -2
v 1 7 -3
v 1 8 2
v 1 8 1
v 1 8 -1
v 1 8 -2
v 2 0 3
v 2 0 2
v 2 0 -2
v 2 0 -3
v 2 1 3
v 2 1 2
v 2 1 -2
v 2 1 -3
v 2 3 3
v 2 3 2
v 2 3 -2
v 2 3 -3
v 2 6 3
v 2 6 2
v 2 6 1
v 2 6 -1
v 2 6 -2
v 2 6 -3
v 2 7 2
v 2 7 1
v 2 7 -0
v 2 7 -1
v 2 7 -2
v 2 8 1
v 2 8 -0
v 2 8 -1
v 3 0 2
v 3 0 -2
v 3 1 4
v 3 1 3
v 3 1 2
v 3 1 -2
v 3 1 -3
v 3 1 -4
v 3 3 4
v 3 3 3
v 3 3 2
v 3 3 1
v 3 3 -0
v 3 3 -1
v 3 3 -2
v 3 3 -3
v 3 3 -4
v 3 6 2
v 3 6 1
v 3 6 -1
v 3 6 -2
v 3 7 1
v 3 7 -0
v 3 7 -1
v 4 1 3
v 4 1 -3
v 4 3 3
v 4 3 -3
v -3 1 4
v -3 3 4
v 3 1 4
v 3 3 4
v -4 1 3
v -4 3 3
v -3 1 3
v -3 3 3
v -2 0 3
v -2 1 3
v -2 3 3
v -2 6 3
v -1 3 3
v -1 6 3
v -1 7 3
v 0 3 3
v 0 7 3
v 1 3 3
v 1 6 3
v 1 7 3
v 2 0 3
v 2 1 3
v 2 3 3
v 2 6 3
v 3 1 3
v 3 3 3
v 4 1 3
v 4 3 3
v -3 0 2
v -3 1 2
v -3 3 2
v -3 6 2
v -2 0 2
v -2 1 2
v -2 3 2
v -2 6 2
v -2 7 2
v -1 6 2
v -1 7 2
v -1 8 2
v 0 7 2
v 0 8 2
v 1 6 2
v 1 7 2
v 1 8 2
v 2 0 2
v 2 1 2
v 2 3 2
v 2 6 2
v 2 7 2
v 3 0 2
v 3 1 2
v 3 3 2
v 3 6 2
v -3 6 1
v -3 7 1
v -2 6 1
v -2 7 1
v -2 8 1
v -1 7 1
v -1 8 1
v 1 7 1
v 1 8 1
v 2 6 1
v 2 7 1
v 2 8 1
v 3 6 1
v 3 7 1
v -3 6 -1
v -3 7 -1
v -2 6 -1
v -2 7 -1
v -2 8 -1
v -1 7 -1
v -1 8 -1
v 1 7 -1
v 1 8 -1
v 2 6 -1
v 2 7 -1
v 2 8 -1
v 3 6 -1
v 3 7 -1
v -3 0 -2
v -3 1 -2
v -3 3 -2
v -3 6 -2
v -2 0 -2
v -2 1 -2
v -2 3 -2
v -2 6 -2
v -2 7 -2
v -1 6 -2
v -1 7 -2
v -1 8 -2
v 0 7 -2
v 0 8 -2
v 1 6 -2
v 1 7 -2
v 1 8 -2
v 2 0 -2
v 2 1 -2
v 2 3 -2
v 2 6 -2
v 2 7 -2
v 3 0 -2
v 3 1 -2
v 3 3 -2
v 3 6 -2
v -4 1 -3
v -4 3 -3
v -3 1 -3
v -3 3 -3
v -2 0 -3
v -2 1 -3
v -2 3 -3
v -2 6 -3
v -1 3 -3
v -1 6 -3
v -1 7 -3
v 0 3 -3
v 0 7 -3
v 1 3 -3
v 1 6 -3
v 1 7 -3
v 2 0 -3
v 2 1 -3
v 2 3 -3
v 2 6 -3
v 3 1 -3
v 3 3 -3
v 4 1 -3
v 4 3 -3
v -3 1 -4
v -3 3 -4
v 3 1 -4
v 3 3 -4
v -2 0 3
v 2 0 3
v -3 0 2
v -2 0 2
v 2 0 2
v 3 0 2
v -3 0 -2
v -2 0 -2
v 2 0 -2
v 3 0 -2
v -2 0 -3
v 2 0 -3
v -3 1 4
v 3 1 4
v -4 1 3
v -3 1 3
v -2 1 3
v 2 1 3
v 3 1 3
v 4 1 3
v -3 1 2
v -2 1 2
v 2 1 2
v 3 1 2
v -3 1 -2
v -2 1 -2
v 2 1 -2
v 3 1 -2
v -4 1 -3
v -3 1 -3
v -2 1 -3
v 2 1 -3
v 3 1 -3
v 4 1 -3
v -3 1 -4
v 3 1 -4
v -3 3 4
v 3 3 4
v -4 3 3
v -3 3 3
v -2 3 3
v -1 3 3
v 0 3 3
v 1 3 3
v 2 3 3
v 3 3 3
v 4 3 3
v -3 3 2
v -2 3 2
v 2 3 2
v 3 3 2
v 3 3 1
v -3 3 -0
v 3 3 -0
v -3 3 -1
v 3 3 -1
v -3 3 -2
v -2 3 -2
v 2 3 -2
v 3 3 -2
v -4 3 -3
v -3 3 -3
v -2 3 -3
v -1 3 -3
v 0 3 -3
v 1 3 -3
v 2 3 -3
v 3 3 -3
v 4 3 -3
v -3 3 -4
v 3 3 -4
v -2 6 3
v -1 6 3
v 1 6 3
v 2 6 3
v -3 6 2
v -2 6 2
v -1 6 2
v 1 6 2
v 2 6 2
v 3 6 2
v -3 6 1
v -2 6 1
v 2 6 1
v 3 6 1
v -3 6 -1
v -2 6 -1
v 2 6 -1
v 3 6 -1
v -3 6 -2
v -2 6 -2
v -1 6 -2
v 1 6 -2
v 2 6 -2
v 3 6 -2
v -2 6 -3
v -1 6 -3
v 1 6 -3
v 2 6 -3
v -1 7 3
v 0 7 3
v 1 7 3
v -2 7 2
v -1 7 2
v 0 7 2
v 1 7 2
v 2 7 2
v -3 7 1
v -2 7 1
v -1 7 1
v 1 7 1
v 2 7 1
v 3 7 1
v -3 7 -0
v -2 7 -0
v 2 7 -0
v 3 7 -0
v -3 7 -1
v -2 7 -1
v -1 7 -1
v 1 7 -1
v 2 7 -1
v 3 7 -1
v -2 7 -2
v -1 7 -2
v 0 7 -2
v 1 7 -2
v 2 7 -2
v -1 7 -3
v 0 7 -3
v 1 7 -3
v -1 8 2
v 0 8 2
v 1 8 2
v -2 8 1
v -1 8 1
v 0 8 1
v 1 8 1
v 2 8 1
v -2 8 -0
v -1 8 -0
v 0 8 -0
v 2 8 -0
v -2 8 -1
v -1 8 -1
v 0 8 -1
v 1 8 -1
v 2 8 -1
v -1 8 -2
v 0 8 -2
v 1 8 -2

# faces
f 3/6/1 2/6/1 1/6/1
f 4/6/1 2/6/1 3/6/1
f 9/6/1 6/6/1 5/6/1
f 10/6/1 6/6/1 9/6/1
f 13/6/1 8/6/1 7/6/1
f 14/6/1 8/6/1 13/6/1
f 19/6/1 12/6/1 11/6/1
f 20/6/1 12/6/1 19/6/1
f 21/2/1 16/2/1 15/2/1
f 22/2/1 16/2/1 21/2/1
f 23/2/1 18/2/1 17/2/1
f 23/1/1 17/1/1 16/1/1
f 24/2/1 18/2/1 23/2/1
f 25/2/1 16/2/1 22/2/1
f 26/1/1 23/1/1 16/1/1
f 26/2/1 16/2/1 25/2/1
f 27/1/1 23/1/1 26/1/1
f 32/6/1 29/6/1 28/6/1
f 33/6/1 29/6/1 32/6/1
f 34/6/1 31/6/1 30/6/1
f 35/6/1 31/6/1 34/6/1
f 40/2/1 37/2/1 36/2/1
f 41/2/1 37/2/1 40/2/1
f 44/1/1 39/1/1 38/1/1
f 45/1/1 39/1/1 44/1/1
f 46/2/1 42/2/1 41/2/1
f 47/2/1 42/2/1 46/2/1
f 49/2/1 44/2/1 43/2/1
f 50/2/1 44/2/1 49/2/1
f 51/2/1 48/2/1 47/2/1
f 52/1/1 49/1/1 48/1/1
f 52/2/1 48/2/1 51/2/1
f 53/1/1 49/1/1 52/1/1
f 58/1/1 55/1/1 54/1/1
f 59/1/1 55/1/1 58/1/1
f 62/2/1 57/2/1 56/2/1
f 63/2/1 57/2/1 62/2/1
f 64/1/1 60/1/1 59/1/1
f 65/1/1 60/1/1 64/1/1
f 66/2/1 62/2/1 61/2/1
f 67/2/1 62/2/1 66/2/1
f 68/2/2 69/2/2 72/2/2
f 72/2/2 69/2/2 73/2/2
f 70/1/2 71/1/2 76/1/2
f 76/1/2 71/1/2 77/1/2
f 73/2/2 74/2/2 78/2/2
f 78/2/2 74/2/2 79/2/2
f 75/1/2 76/1/2 80/1/2
f 80/1/2 76/1/2 81/1/2
f 82/6/2 83/6/2 86/6/2
f 86/6/2 83/6/2 87/6/2
f 84/6/2 85/6/2 88/6/2
f 88/6/2 85/6/2 89/6/2
f 90/1/2 91/1/2 94/1/2
f 94/1/2 91/1/2 95/1/2
f 92/2/2 93/2/2 98/2/2
f 98/2/2 93/2/2 99/2/2
f 95/2/2 96/2/2 100/2/2
f 100/2/2 96/2/2 101/2/2
f 97/2/2 98/2/2 103/2/2
f 103/2/2 98/2/2 104/2/2
f 101/1/2 102/1/2 105/1/2
f 102/2/2 103/2/2 106/2/2
f 105/1/2 102/1/2 106/1/2
f 106/2/2 103/2/2 107/2/2
f 108/6/2 109/6/2 112/6/2
f 112/6/2 109/6/2 113/6/2
f 110/6/2 111/6/2 116/6/2
f 116/6/2 111/6/2 117/6/2
f 114/6/2 115/6/2 123/6/2
f 123/6/2 115/6/2 124/6/2
f 118/2/2 119/2/2 125/2/2
f 119/1/2 120/1/2 126/1/2
f 125/2/2 119/2/2 126/2/2
f 121/1/2 122/1/2 127/1/2
f 120/2/2 121/2/2 127/2/2
f 127/1/2 122/1/2 128/1/2
f 126/1/2 120/1/2 129/1/2
f 120/2/2 127/2/2 130/2/2
f 129/1/2 120/1/2 130/1/2
f 130/2/2 127/2/2 131/2/2
f 132/6/2 133/6/2 134/6/2
f 134/6/2 133/6/2 135/6/2
f 138/6/3 137/6/3 136/6/3
f 139/6/3 137/6/3 138/6/3
f 142/6/3 141/6/3 140/6/3
f 143/6/3 141/6/3 142/6/3
f 148/2/3 147/2/3 146/2/3
f 149/2/3 147/2/3 148/2/3
f 151/1/3 149/1/3 148/1/3
f 151/1/3 150/1/3 149/1/3
f 152/1/3 150/1/3 151/1/3
f 153/2/3 152/2/3 151/2/3
f 154/2/3 152/2/3 153/2/3
f 155/2/3 152/2/3 154/2/3
f 156/6/3 145/6/3 144/6/3
f 157/6/3 145/6/3 156/6/3
f 158/1/3 154/1/3 153/1/3
f 159/1/3 154/1/3 158/1/3
f 162/6/3 161/6/3 160/6/3
f 163/6/3 161/6/3 162/6/3
f 168/6/3 165/6/3 164/6/3
f 169/6/3 165/6/3 168/6/3
f 170/2/3 167/2/3 166/2/3
f 171/2/3 167/2/3 170/2/3
f 173/2/3 172/2/3 171/2/3
f 174/2/3 172/2/3 173/2/3
f 176/1/3 175/1/3 174/1/3
f 177/1/3 175/1/3 176/1/3
f 179/2/3 177/2/3 176/2/3
f 180/2/3 177/2/3 179/2/3
f 184/2/3 179/2/3 178/2/3
f 185/2/3 179/2/3 184/2/3
f 186/6/3 182/6/3 181/6/3
f 187/6/3 182/6/3 186/6/3
f 188/2/3 184/2/3 183/2/3
f 189/2/3 184/2/3 188/2/3
f 192/2/3 191/2/3 190/2/3
f 193/2/3 191/2/3 192/2/3
f 195/2/3 194/2/3 193/2/3
f 196/2/3 194/2/3 195/2/3
f 200/1/3 198/1/3 197/1/3
f 201/1/3 198/1/3 200/1/3
f 202/1/3 200/1/3 199/1/3
f 203/1/3 200/1/3 202/1/3
f 204/1/4 205/1/4 206/1/4
f 206/1/4 205/1/4 207/1/4
f 207/1/4 208/1/4 209/1/4
f 209/1/4 208/1/4 210/1/4
f 211/2/4 212/2/4 214/2/4
f 214/2/4 212/2/4 215/2/4
f 213/2/4 214/2/4 216/2/4
f 216/2/4 214/2/4 217/2/4
f 218/6/4 219/6/4 222/6/4
f 222/6/4 219/6/4 223/6/4
f 220/2/4 221/2/4 224/2/4
f 224/2/4 221/2/4 225/2/4
f 225/2/4 226/2/4 227/2/4
f 227/2/4 226/2/4 228/2/4
f 228/2/4 229/2/4 230/2/4
f 230/2/4 229/2/4 231/2/4
f 230/1/4 231/1/4 233/1/4
f 233/1/4 231/1/4 234/1/4
f 232/2/4 233/2/4 238/2/4
f 238/2/4 233/2/4 239/2/4
f 235/6/4 236/6/4 240/6/4
f 240/6/4 236/6/4 241/6/4
f 237/1/4 238/1/4 242/1/4
f 242/1/4 238/1/4 243/1/4
f 244/6/4 245/6/4 246/6/4
f 246/6/4 245/6/4 247/6/4
f 250/1/4 251/1/4 252/1/4
f 252/1/4 251/1/4 253/1/4
f 252/2/4 253/2/4 255/2/4
f 253/2/4 254/2/4 255/2/4
f 255/2/4 254/2/4 256/2/4
f 255/1/4 256/1/4 257/1/4
f 257/1/4 256/1/4 258/1/4
f 258/1/4 256/1/4 259/1/4
f 248/6/4 249/6/4 260/6/4
f 260/6/4 249/6/4 261/6/4
f 257/2/4 258/2/4 262/2/4
f 262/2/4 258/2/4 263/2/4
f 264/6/4 265/6/4 266/6/4
f 266/6/4 265/6/4 267/6/4
f 268/6/4 269/6/4 270/6/4
f 270/6/4 269/6/4 271/6/4
f 275/6/5 273/6/5 272/6/5
f 276/6/5 273/6/5 275/6/5
f 278/6/5 275/6/5 274/6/5
f 278/6/5 277/6/5 276/6/5
f 278/6/5 276/6/5 275/6/5
f 279/6/5 277/6/5 278/6/5
f 280/6/5 277/6/5 279/6/5
f 281/6/5 277/6/5 280/6/5
f 282/6/5 280/6/5 279/6/5
f 283/6/5 280/6/5 282/6/5
f 287/6/5 285/6/5 284/6/5
f 288/6/5 285/6/5 287/6/5
f 289/6/5 285/6/5 288/6/5
f 290/6/5 285/6/5 289/6/5
f 292/6/5 287/6/5 286/6/5
f 292/6/5 288/6/5 287/6/5
f 293/6/5 288/6/5 292/6/5
f 294/6/5 291/6/5 290/6/5
f 294/6/5 290/6/5 289/6/5
f 295/6/5 291/6/5 294/6/5
f 296/6/5 292/6/5 286/6/5
f 299/6/5 291/6/5 295/6/5
f 300/6/5 297/6/5 296/6/5
f 300/6/5 296/6/5 286/6/5
f 301/6/5 297/6/5 300/6/5
f 302/6/5 297/6/5 301/6/5
f 303/6/5 299/6/5 298/6/5
f 304/6/5 291/6/5 299/6/5
f 304/6/5 299/6/5 303/6/5
f 305/6/5 291/6/5 304/6/5
f 306/6/5 302/6/5 301/6/5
f 306/6/5 303/6/5 302/6/5
f 306/6/5 304/6/5 303/6/5
f 307/6/5 304/6/5 306/6/5
f 308/6/6 309/6/6 311/6/6
f 311/6/6 309/6/6 312/6/6
f 312/6/6 309/6/6 313/6/6
f 313/6/6 309/6/6 314/6/6
f 314/6/6 309/6/6 315/6/6
f 315/6/6 309/6/6 316/6/6
f 316/6/6 309/6/6 317/6/6
f 310/6/6 311/6/6 319/6/6
f 311/6/6 312/6/6 319/6/6
f 319/6/6 312/6/6 320/6/6
f 317/6/6 318/6/6 321/6/6
f 316/6/6 317/6/6 321/6/6
f 321/6/6 318/6/6 322/6/6
f 322/6/6 318/6/6 323/6/6
f 310/6/6 319/6/6 324/6/6
f 323/6/6 318/6/6 325/6/6
f 310/6/6 324/6/6 326/6/6
f 325/6/6 318/6/6 327/6/6
f 310/6/6 326/6/6 328/6/6
f 327/6/6 318/6/6 331/6/6
f 328/6/6 329/6/6 332/6/6
f 310/6/6 328/6/6 332/6/6
f 332/6/6 329/6/6 333/6/6
f 333/6/6 329/6/6 334/6/6
f 330/6/6 331/6/6 338/6/6
f 331/6/6 318/6/6 339/6/6
f 338/6/6 331/6/6 339/6/6
f 339/6/6 318/6/6 340/6/6
f 336/6/6 337/6/6 341/6/6
f 337/6/6 338/6/6 341/6/6
f 338/6/6 339/6/6 341/6/6
f 335/6/6 336/6/6 341/6/6
f 334/6/6 335/6/6 341/6/6
f 333/6/6 334/6/6 341/6/6
f 341/6/6 339/6/6 342/6/6
f 343/2/6 344/2/6 348/2/6
f 348/2/6 344/2/6 349/2/6
f 345/1/6 346/1/6 350/1/6
f 350/1/6 346/1/6 351/1/6
f 347/2/6 348/2/6 353/2/6
f 353/2/6 348/2/6 354/2/6
f 351/2/6 352/2/6 355/2/6
f 355/2/6 352/2/6 356/2/6
f 357/2/6 358/2/6 361/2/6
f 361/2/6 358/2/6 362/2/6
f 359/1/6 360/1/6 365/1/6
f 365/1/6 360/1/6 366/1/6
f 362/1/6 363/1/6 367/1/6
f 367/1/6 363/1/6 368/1/6
f 364/2/6 365/2/6 369/2/6
f 369/2/6 365/2/6 370/2/6
f 371/1/6 372/1/6 375/1/6
f 372/2/6 373/2/6 376/2/6
f 375/1/6 372/1/6 376/1/6
f 376/2/6 373/2/6 377/2/6
f 374/2/6 375/2/6 380/2/6
f 380/2/6 375/2/6 381/2/6
f 377/2/6 378/2/6 382/2/6
f 382/2/6 378/2/6 383/2/6
f 379/2/6 380/2/6 385/2/6
f 385/2/6 380/2/6 386/2/6
f 383/1/6 384/1/6 387/1/6
f 387/1/6 384/1/6 388/1/6
f 385/1/6 386/1/6 389/1/6
f 389/1/6 386/1/6 390/1/6
f 387/2/6 388/2/6 393/2/6
f 393/2/6 388/2/6 394/2/6
f 390/2/6 391/2/6 395/2/6
f 395/2/6 391/2/6 396/2/6
f 392/2/6 393/2/6 398/2/6
f 398/2/6 393/2/6 399/2/6
f 396/2/6 397/2/6 400/2/6
f 397/1/6 398/1/6 401/1/6
f 400/2/6 397/2/6 401/2/6
f 401/1/6 398/1/6 402/1/6
f 403/1/6 404/1/6 407/1/6
f 404/2/6 405/2/6 408/2/6
f 407/1/6 404/1/6 408/1/6
f 408/2/6 405/2/6 409/2/6
f 406/2/6 407/2/6 411/2/6
f 407/2/6 408/2/6 411/2/6
f 411/2/6 408/2/6 412/2/6
f 409/1/6 410/1/6 413/1/6
f 412/2/6 408/2/6 413/2/6
f 408/1/6 409/1/6 413/1/6
f 413/1/6 410/1/6 414/1/6
f 411/1/6 412/1/6 415/1/6
f 412/2/6 413/2/6 416/2/6
f 415/1/6 412/1/6 416/1/6
f 413/2/6 414/2/6 416/2/6
f 416/2/6 414/2/6 417/2/6
f 417/2/6 414/2/6 418/2/6
f 418/2/6 414/2/6 419/2/6
f 416/2/6 417/2/6 420/2/6
f 417/1/6 418/1/6 421/1/6
f 420/2/6 417/2/6 421/2/6
f 421/1/6 418/1/6 422/1/6
