# MagicaVoxel @ ephtracy

# material
mtllib floor4.mtl
usemtl palette

# normals
vn -1 0 0
vn 1 0 0
vn 0 0 1
vn 0 0 -1
vn 0 -1 0
vn 0 1 0

# texcoords
vt 0.533203 0.5
vt 0.626953 0.5

# verts
v -8 0 8
v -8 0 -8
v -8 1 8
v -8 1 -8
v 3 1 -2
v 3 1 -3
v 3 1 -5
v 3 1 -6
v 3 2 -5
v 3 2 -6
v 3 3 -1
v 3 3 -2
v 3 3 -3
v 3 4 -1
v 3 4 -2
v 5 1 -3
v 5 1 -4
v 5 3 -3
v 5 3 -4
v 4 1 -2
v 4 1 -3
v 4 1 -5
v 4 1 -6
v 4 2 -5
v 4 2 -6
v 4 3 -1
v 4 3 -2
v 4 3 -3
v 4 4 -1
v 4 4 -2
v 6 1 -3
v 6 1 -4
v 6 3 -3
v 6 3 -4
v 8 0 8
v 8 0 -8
v 8 1 8
v 8 1 -8
v -8 0 8
v -8 1 8
v 8 0 8
v 8 1 8
v 3 3 -1
v 3 4 -1
v 4 3 -1
v 4 4 -1
v 3 1 -2
v 3 3 -2
v 4 1 -2
v 4 3 -2
v 5 1 -3
v 5 3 -3
v 6 1 -3
v 6 3 -3
v 3 1 -5
v 3 2 -5
v 4 1 -5
v 4 2 -5
v 3 3 -2
v 3 4 -2
v 4 3 -2
v 4 4 -2
v 3 1 -3
v 3 3 -3
v 4 1 -3
v 4 3 -3
v 5 1 -4
v 5 3 -4
v 6 1 -4
v 6 3 -4
v 3 1 -6
v 3 2 -6
v 4 1 -6
v 4 2 -6
v -8 0 -8
v -8 1 -8
v 8 0 -8
v 8 1 -8
v -8 0 8
v 8 0 8
v -3 0 -0
v -1 0 -0
v 3 0 -1
v 6 0 -1
v -3 0 -2
v -1 0 -2
v 0 0 -2
v 1 0 -2
v -4 0 -3
v -3 0 -3
v 0 0 -3
v 1 0 -3
v -4 0 -4
v -3 0 -4
v 3 0 -7
v 6 0 -7
v -8 0 -8
v 8 0 -8
v 3 3 -1
v 4 3 -1
v 3 3 -2
v 4 3 -2
v -8 1 8
v 8 1 8
v -3 1 -0
v -1 1 -0
v 3 1 -1
v 6 1 -1
v -3 1 -2
v -1 1 -2
v 0 1 -2
v 1 1 -2
v 3 1 -2
v 4 1 -2
v -4 1 -3
v -3 1 -3
v 0 1 -3
v 1 1 -3
v 3 1 -3
v 4 1 -3
v 5 1 -3
v 6 1 -3
v -4 1 -4
v -3 1 -4
v 5 1 -4
v 6 1 -4
v 3 1 -5
v 4 1 -5
v 3 1 -6
v 4 1 -6
v 3 1 -7
v 6 1 -7
v -8 1 -8
v 8 1 -8
v 3 2 -5
v 4 2 -5
v 3 2 -6
v 4 2 -6
v 3 3 -2
v 4 3 -2
v 3 3 -3
v 4 3 -3
v 5 3 -3
v 6 3 -3
v 5 3 -4
v 6 3 -4
v 3 4 -1
v 4 4 -1
v 3 4 -2
v 4 4 -2

# faces
f 3/1/1 2/1/1 1/1/1
f 4/1/1 2/1/1 3/1/1
f 9/2/1 8/2/1 7/2/1
f 10/2/1 8/2/1 9/2/1
f 12/2/1 6/2/1 5/2/1
f 13/2/1 6/2/1 12/2/1
f 14/2/1 12/2/1 11/2/1
f 15/2/1 12/2/1 14/2/1
f 18/2/1 17/2/1 16/2/1
f 19/2/1 17/2/1 18/2/1
f 22/2/2 23/2/2 24/2/2
f 24/2/2 23/2/2 25/2/2
f 20/2/2 21/2/2 27/2/2
f 27/2/2 21/2/2 28/2/2
f 26/2/2 27/2/2 29/2/2
f 29/2/2 27/2/2 30/2/2
f 31/2/2 32/2/2 33/2/2
f 33/2/2 32/2/2 34/2/2
f 35/1/2 36/1/2 37/1/2
f 37/1/2 36/1/2 38/1/2
f 41/1/3 40/1/3 39/1/3
f 42/1/3 40/1/3 41/1/3
f 45/2/3 44/2/3 43/2/3
f 46/2/3 44/2/3 45/2/3
f 49/2/3 48/2/3 47/2/3
f 50/2/3 48/2/3 49/2/3
f 53/2/3 52/2/3 51/2/3
f 54/2/3 52/2/3 53/2/3
f 57/2/3 56/2/3 55/2/3
f 58/2/3 56/2/3 57/2/3
f 59/2/4 60/2/4 61/2/4
f 61/2/4 60/2/4 62/2/4
f 63/2/4 64/2/4 65/2/4
f 65/2/4 64/2/4 66/2/4
f 67/2/4 68/2/4 69/2/4
f 69/2/4 68/2/4 70/2/4
f 71/2/4 72/2/4 73/2/4
f 73/2/4 72/2/4 74/2/4
f 75/1/4 76/1/4 77/1/4
f 77/1/4 76/1/4 78/1/4
f 81/1/5 80/1/5 79/1/5
f 82/1/5 80/1/5 81/1/5
f 83/1/5 80/1/5 82/1/5
f 84/1/5 80/1/5 83/1/5
f 85/1/5 81/1/5 79/1/5
f 85/2/5 82/2/5 81/2/5
f 86/1/5 83/1/5 82/1/5
f 86/2/5 82/2/5 85/2/5
f 87/1/5 83/1/5 86/1/5
f 88/1/5 83/1/5 87/1/5
f 89/1/5 85/1/5 79/1/5
f 89/1/5 86/1/5 85/1/5
f 89/1/5 87/1/5 86/1/5
f 90/1/5 87/1/5 89/1/5
f 91/2/5 88/2/5 87/2/5
f 91/1/5 87/1/5 90/1/5
f 92/1/5 83/1/5 88/1/5
f 92/2/5 88/2/5 91/2/5
f 93/2/5 90/2/5 89/2/5
f 93/1/5 89/1/5 79/1/5
f 94/1/5 91/1/5 90/1/5
f 94/2/5 90/2/5 93/2/5
f 94/1/5 92/1/5 91/1/5
f 95/2/5 84/2/5 83/2/5
f 95/1/5 92/1/5 94/1/5
f 95/1/5 94/1/5 93/1/5
f 95/1/5 83/1/5 92/1/5
f 96/1/5 80/1/5 84/1/5
f 96/2/5 84/2/5 95/2/5
f 97/1/5 95/1/5 93/1/5
f 97/1/5 93/1/5 79/1/5
f 97/1/5 96/1/5 95/1/5
f 98/1/5 80/1/5 96/1/5
f 98/1/5 96/1/5 97/1/5
f 101/2/5 100/2/5 99/2/5
f 102/2/5 100/2/5 101/2/5
f 103/1/6 104/1/6 105/1/6
f 105/1/6 104/1/6 106/1/6
f 106/1/6 104/1/6 107/1/6
f 107/1/6 104/1/6 108/1/6
f 103/1/6 105/1/6 109/1/6
f 105/2/6 106/2/6 109/2/6
f 106/1/6 107/1/6 110/1/6
f 109/2/6 106/2/6 110/2/6
f 110/1/6 107/1/6 111/1/6
f 111/1/6 107/1/6 112/1/6
f 107/2/6 108/2/6 113/2/6
f 112/1/6 107/1/6 113/1/6
f 113/2/6 108/2/6 114/2/6
f 103/1/6 109/1/6 115/1/6
f 109/1/6 110/1/6 115/1/6
f 110/1/6 111/1/6 115/1/6
f 115/1/6 111/1/6 116/1/6
f 111/2/6 112/2/6 117/2/6
f 116/1/6 111/1/6 117/1/6
f 112/1/6 113/1/6 118/1/6
f 117/2/6 112/2/6 118/2/6
f 118/1/6 113/1/6 119/1/6
f 114/2/6 108/2/6 120/2/6
f 120/2/6 108/2/6 121/2/6
f 108/1/6 104/1/6 122/1/6
f 121/2/6 108/2/6 122/2/6
f 115/2/6 116/2/6 123/2/6
f 103/1/6 115/1/6 123/1/6
f 118/1/6 119/1/6 124/1/6
f 123/2/6 116/2/6 124/2/6
f 116/1/6 117/1/6 124/1/6
f 117/1/6 118/1/6 124/1/6
f 120/2/6 121/2/6 125/2/6
f 119/2/6 120/2/6 125/2/6
f 122/1/6 104/1/6 126/1/6
f 124/1/6 119/1/6 127/1/6
f 125/2/6 126/2/6 127/2/6
f 119/2/6 125/2/6 127/2/6
f 123/1/6 124/1/6 127/1/6
f 127/2/6 126/2/6 128/2/6
f 123/1/6 127/1/6 129/1/6
f 128/2/6 126/2/6 130/2/6
f 123/1/6 129/1/6 131/1/6
f 129/2/6 130/2/6 131/2/6
f 126/1/6 104/1/6 132/1/6
f 131/2/6 130/2/6 132/2/6
f 130/2/6 126/2/6 132/2/6
f 123/1/6 131/1/6 133/1/6
f 103/1/6 123/1/6 133/1/6
f 131/1/6 132/1/6 133/1/6
f 132/1/6 104/1/6 134/1/6
f 133/1/6 132/1/6 134/1/6
f 135/2/6 136/2/6 137/2/6
f 137/2/6 136/2/6 138/2/6
f 139/2/6 140/2/6 141/2/6
f 141/2/6 140/2/6 142/2/6
f 143/2/6 144/2/6 145/2/6
f 145/2/6 144/2/6 146/2/6
f 147/2/6 148/2/6 149/2/6
f 149/2/6 148/2/6 150/2/6
