# MagicaVoxel @ ephtracy

# material
mtllib iceAnim2.mtl
usemtl palette

# normals
vn -1 0 0
vn 1 0 0
vn 0 0 1
vn 0 0 -1
vn 0 -1 0
vn 0 1 0

# texcoords
vt 0.423828 0.5
vt 0.783203 0.5
vt 0.970703 0.5
vt 0.974609 0.5
vt 0.978516 0.5
vt 0.982422 0.5
vt 0.986328 0.5

# verts
v -8 0 8
v -8 0 -8
v -8 16 8
v -8 16 -8
v -5 2 6
v -5 2 5
v -5 2 2
v -5 2 -0
v -5 3 6
v -5 3 5
v -5 3 2
v -5 4 2
v -5 4 -0
v -5 7 6
v -5 7 5
v -5 8 6
v -5 8 5
v -4 2 7
v -4 2 6
v -4 2 4
v -4 2 3
v -4 3 7
v -4 3 6
v -4 3 4
v -4 3 3
v -4 3 2
v -4 4 3
v -4 4 2
v -4 4 -0
v -4 5 2
v -4 5 -0
v -4 6 7
v -4 6 6
v -4 7 6
v -4 8 7
v -4 8 6
v -3 2 5
v -3 2 4
v -3 3 7
v -3 3 6
v -3 3 5
v -3 3 4
v -3 3 3
v -3 4 7
v -3 4 6
v -3 4 4
v -3 4 3
v -3 4 2
v -3 5 3
v -3 5 2
v -2 3 5
v -2 3 4
v -2 4 5
v -2 4 4
v 2 3 7
v 2 3 6
v 2 4 7
v 2 4 6
v 3 6 7
v 3 6 6
v 3 7 7
v 3 7 6
v 4 2 6
v 4 2 5
v 4 3 6
v 4 3 5
v 4 7 6
v 4 7 5
v 4 8 6
v 4 8 5
v 5 2 5
v 5 2 3
v 5 3 5
v 5 3 3
v 5 7 5
v 5 7 2
v 5 8 5
v 5 8 2
v 6 2 8
v 6 2 7
v 6 2 5
v 6 2 2
v 6 2 -0
v 6 3 5
v 6 3 2
v 6 7 5
v 6 7 2
v 6 8 8
v 6 8 7
v 6 8 5
v 6 8 2
v 6 8 -0
v -6 2 8
v -6 2 7
v -6 2 5
v -6 2 2
v -6 2 -0
v -6 3 5
v -6 3 2
v -6 7 5
v -6 7 2
v -6 8 8
v -6 8 7
v -6 8 5
v -6 8 2
v -6 8 -0
v -5 2 5
v -5 2 3
v -5 3 5
v -5 3 3
v -5 7 5
v -5 7 2
v -5 8 5
v -5 8 2
v -4 2 6
v -4 2 5
v -4 3 6
v -4 3 5
v -4 7 6
v -4 7 5
v -4 8 6
v -4 8 5
v -3 6 7
v -3 6 6
v -3 7 7
v -3 7 6
v -2 3 7
v -2 3 6
v -2 4 7
v -2 4 6
v 2 3 5
v 2 3 4
v 2 4 5
v 2 4 4
v 3 2 5
v 3 2 4
v 3 3 7
v 3 3 6
v 3 3 5
v 3 3 4
v 3 3 3
v 3 4 7
v 3 4 6
v 3 4 4
v 3 4 3
v 3 4 2
v 3 5 3
v 3 5 2
v 4 2 7
v 4 2 6
v 4 2 4
v 4 2 3
v 4 3 7
v 4 3 6
v 4 3 4
v 4 3 3
v 4 3 2
v 4 4 3
v 4 4 2
v 4 4 -0
v 4 5 2
v 4 5 -0
v 4 6 7
v 4 6 6
v 4 7 6
v 4 8 7
v 4 8 6
v 5 2 6
v 5 2 5
v 5 2 2
v 5 2 -0
v 5 3 6
v 5 3 5
v 5 3 2
v 5 4 2
v 5 4 -0
v 5 7 6
v 5 7 5
v 5 8 6
v 5 8 5
v 8 0 8
v 8 0 -8
v 8 16 8
v 8 16 -8
v -8 0 8
v -8 16 8
v -7 9 8
v -7 11 8
v -6 2 8
v -6 8 8
v -5 9 8
v -5 11 8
v 5 9 8
v 5 11 8
v 6 2 8
v 6 8 8
v 7 9 8
v 7 11 8
v 8 0 8
v 8 16 8
v -4 2 7
v -4 3 7
v -4 6 7
v -4 8 7
v -3 3 7
v -3 4 7
v -3 6 7
v -3 7 7
v -2 3 7
v -2 4 7
v 2 3 7
v 2 4 7
v 3 3 7
v 3 4 7
v 3 6 7
v 3 7 7
v 4 2 7
v 4 3 7
v 4 6 7
v 4 8 7
v -5 2 6
v -5 3 6
v -5 7 6
v -5 8 6
v -4 2 6
v -4 3 6
v -4 7 6
v -4 8 6
v 4 2 6
v 4 3 6
v 4 7 6
v 4 8 6
v 5 2 6
v 5 3 6
v 5 7 6
v 5 8 6
v -6 2 5
v -6 3 5
v -6 7 5
v -6 8 5
v -5 2 5
v -5 3 5
v -5 7 5
v -5 8 5
v -3 2 5
v -3 3 5
v -2 3 5
v -2 4 5
v 2 3 5
v 2 4 5
v 3 2 5
v 3 3 5
v 5 2 5
v 5 3 5
v 5 7 5
v 5 8 5
v 6 2 5
v 6 3 5
v 6 7 5
v 6 8 5
v -4 2 4
v -4 3 4
v -3 2 4
v -3 3 4
v -3 4 4
v -2 3 4
v -2 4 4
v 2 3 4
v 2 4 4
v 3 2 4
v 3 3 4
v 3 4 4
v 4 2 4
v 4 3 4
v -5 2 3
v -5 3 3
v -4 2 3
v -4 3 3
v -4 4 3
v -3 3 3
v -3 4 3
v -3 5 3
v 3 3 3
v 3 4 3
v 3 5 3
v 4 2 3
v 4 3 3
v 4 4 3
v 5 2 3
v 5 3 3
v -5 3 2
v -5 4 2
v -4 3 2
v -4 4 2
v -4 5 2
v -3 4 2
v -3 5 2
v 3 4 2
v 3 5 2
v 4 3 2
v 4 4 2
v 4 5 2
v 5 3 2
v 5 4 2
v -6 2 -0
v -6 8 -0
v -5 2 -0
v -5 4 -0
v -4 4 -0
v -4 5 -0
v 4 4 -0
v 4 5 -0
v 5 2 -0
v 5 4 -0
v 6 2 -0
v 6 8 -0
v -4 2 6
v -4 3 6
v -4 6 6
v -4 7 6
v -4 8 6
v -3 3 6
v -3 4 6
v -3 6 6
v -3 7 6
v -2 3 6
v -2 4 6
v 2 3 6
v 2 4 6
v 3 3 6
v 3 4 6
v 3 6 6
v 3 7 6
v 4 2 6
v 4 3 6
v 4 6 6
v 4 7 6
v 4 8 6
v -5 2 5
v -5 3 5
v -5 7 5
v -5 8 5
v -4 2 5
v -4 3 5
v -4 7 5
v -4 8 5
v 4 2 5
v 4 3 5
v 4 7 5
v 4 8 5
v 5 2 5
v 5 3 5
v 5 7 5
v 5 8 5
v -6 2 2
v -6 3 2
v -6 7 2
v -6 8 2
v -5 2 2
v -5 3 2
v -5 7 2
v -5 8 2
v 5 2 2
v 5 3 2
v 5 7 2
v 5 8 2
v 6 2 2
v 6 3 2
v 6 7 2
v 6 8 2
v -8 0 -8
v -8 16 -8
v 8 0 -8
v 8 16 -8
v -8 0 8
v 8 0 8
v -8 0 -8
v 8 0 -8
v -4 6 7
v -3 6 7
v 3 6 7
v 4 6 7
v -4 6 6
v -3 6 6
v 3 6 6
v 4 6 6
v -3 7 7
v 3 7 7
v -5 7 6
v -4 7 6
v -3 7 6
v 3 7 6
v 4 7 6
v 5 7 6
v -6 7 5
v -5 7 5
v -4 7 5
v 4 7 5
v 5 7 5
v 6 7 5
v -6 7 2
v -5 7 2
v 5 7 2
v 6 7 2
v -6 8 8
v 6 8 8
v -6 8 7
v -4 8 7
v 4 8 7
v 6 8 7
v -5 8 6
v -4 8 6
v 4 8 6
v 5 8 6
v -6 8 5
v -5 8 5
v -4 8 5
v 4 8 5
v 5 8 5
v 6 8 5
v -6 8 2
v -5 8 2
v 5 8 2
v 6 8 2
v -6 8 -0
v 6 8 -0
v -6 2 8
v 6 2 8
v -6 2 7
v -4 2 7
v 4 2 7
v 6 2 7
v -5 2 6
v -4 2 6
v 4 2 6
v 5 2 6
v -6 2 5
v -5 2 5
v -4 2 5
v -3 2 5
v 3 2 5
v 4 2 5
v 5 2 5
v 6 2 5
v -4 2 4
v -3 2 4
v 3 2 4
v 4 2 4
v -5 2 3
v -4 2 3
v 4 2 3
v 5 2 3
v -6 2 2
v -5 2 2
v 5 2 2
v 6 2 2
v -6 2 -0
v -5 2 -0
v 5 2 -0
v 6 2 -0
v -4 3 7
v -3 3 7
v -2 3 7
v 2 3 7
v 3 3 7
v 4 3 7
v -5 3 6
v -4 3 6
v -3 3 6
v -2 3 6
v 2 3 6
v 3 3 6
v 4 3 6
v 5 3 6
v -6 3 5
v -5 3 5
v -4 3 5
v -3 3 5
v -2 3 5
v 2 3 5
v 3 3 5
v 4 3 5
v 5 3 5
v 6 3 5
v -4 3 4
v -3 3 4
v -2 3 4
v 2 3 4
v 3 3 4
v 4 3 4
v -5 3 3
v -4 3 3
v -3 3 3
v 3 3 3
v 4 3 3
v 5 3 3
v -6 3 2
v -5 3 2
v -4 3 2
v 4 3 2
v 5 3 2
v 6 3 2
v -3 4 7
v -2 4 7
v 2 4 7
v 3 4 7
v -3 4 6
v -2 4 6
v 2 4 6
v 3 4 6
v -2 4 5
v 2 4 5
v -3 4 4
v -2 4 4
v 2 4 4
v 3 4 4
v -4 4 3
v -3 4 3
v 3 4 3
v 4 4 3
v -5 4 2
v -4 4 2
v -3 4 2
v 3 4 2
v 4 4 2
v 5 4 2
v -5 4 -0
v -4 4 -0
v 4 4 -0
v 5 4 -0
v -3 5 3
v 3 5 3
v -4 5 2
v -3 5 2
v 3 5 2
v 4 5 2
v -4 5 -0
v 4 5 -0
v -8 16 8
v 8 16 8
v -8 16 -8
v 8 16 -8

# faces
f 3/5/1 2/5/1 1/5/1
f 4/5/1 2/5/1 3/5/1
f 9/4/1 6/4/1 5/4/1
f 10/4/1 6/4/1 9/4/1
f 11/6/1 8/6/1 7/6/1
f 12/6/1 8/6/1 11/6/1
f 13/6/1 8/6/1 12/6/1
f 16/4/1 15/4/1 14/4/1
f 17/4/1 15/4/1 16/4/1
f 22/4/1 19/4/1 18/4/1
f 23/4/1 19/4/1 22/4/1
f 24/6/1 21/6/1 20/6/1
f 25/6/1 21/6/1 24/6/1
f 27/6/1 26/6/1 25/6/1
f 28/6/1 26/6/1 27/6/1
f 30/6/1 29/6/1 28/6/1
f 31/6/1 29/6/1 30/6/1
f 34/4/1 33/4/1 32/4/1
f 35/4/1 34/4/1 32/4/1
f 36/4/1 34/4/1 35/4/1
f 41/6/1 38/6/1 37/6/1
f 42/6/1 38/6/1 41/6/1
f 44/4/1 40/4/1 39/4/1
f 45/4/1 40/4/1 44/4/1
f 46/6/1 43/6/1 42/6/1
f 47/6/1 43/6/1 46/6/1
f 49/6/1 48/6/1 47/6/1
f 50/6/1 48/6/1 49/6/1
f 53/6/1 52/6/1 51/6/1
f 54/6/1 52/6/1 53/6/1
f 57/4/1 56/4/1 55/4/1
f 58/4/1 56/4/1 57/4/1
f 61/4/1 60/4/1 59/4/1
f 62/4/1 60/4/1 61/4/1
f 65/4/1 64/4/1 63/4/1
f 66/4/1 64/4/1 65/4/1
f 69/4/1 68/4/1 67/4/1
f 70/4/1 68/4/1 69/4/1
f 73/4/1 72/4/1 71/4/1
f 74/4/1 72/4/1 73/4/1
f 77/4/1 76/4/1 75/4/1
f 78/4/1 76/4/1 77/4/1
f 84/3/1 81/3/1 80/3/1
f 85/3/1 83/3/1 82/3/1
f 86/3/1 84/3/1 80/3/1
f 86/3/1 85/3/1 84/3/1
f 87/3/1 83/3/1 85/3/1
f 87/3/1 85/3/1 86/3/1
f 88/5/1 80/5/1 79/5/1
f 89/3/1 86/3/1 80/3/1
f 89/5/1 80/5/1 88/5/1
f 90/3/1 86/3/1 89/3/1
f 91/3/1 83/3/1 87/3/1
f 92/3/1 83/3/1 91/3/1
f 94/3/2 95/3/2 98/3/2
f 96/3/2 97/3/2 99/3/2
f 94/3/2 98/3/2 100/3/2
f 98/3/2 99/3/2 100/3/2
f 99/3/2 97/3/2 101/3/2
f 100/3/2 99/3/2 101/3/2
f 93/5/2 94/5/2 102/5/2
f 94/3/2 100/3/2 103/3/2
f 102/5/2 94/5/2 103/5/2
f 103/3/2 100/3/2 104/3/2
f 101/3/2 97/3/2 105/3/2
f 105/3/2 97/3/2 106/3/2
f 107/4/2 108/4/2 109/4/2
f 109/4/2 108/4/2 110/4/2
f 111/4/2 112/4/2 113/4/2
f 113/4/2 112/4/2 114/4/2
f 115/4/2 116/4/2 117/4/2
f 117/4/2 116/4/2 118/4/2
f 119/4/2 120/4/2 121/4/2
f 121/4/2 120/4/2 122/4/2
f 123/4/2 124/4/2 125/4/2
f 125/4/2 124/4/2 126/4/2
f 127/4/2 128/4/2 129/4/2
f 129/4/2 128/4/2 130/4/2
f 131/6/2 132/6/2 133/6/2
f 133/6/2 132/6/2 134/6/2
f 135/6/2 136/6/2 139/6/2
f 139/6/2 136/6/2 140/6/2
f 137/4/2 138/4/2 142/4/2
f 142/4/2 138/4/2 143/4/2
f 140/6/2 141/6/2 144/6/2
f 144/6/2 141/6/2 145/6/2
f 145/6/2 146/6/2 147/6/2
f 147/6/2 146/6/2 148/6/2
f 149/4/2 150/4/2 153/4/2
f 153/4/2 150/4/2 154/4/2
f 151/6/2 152/6/2 155/6/2
f 155/6/2 152/6/2 156/6/2
f 156/6/2 157/6/2 158/6/2
f 158/6/2 157/6/2 159/6/2
f 159/6/2 160/6/2 161/6/2
f 161/6/2 160/6/2 162/6/2
f 163/4/2 164/4/2 165/4/2
f 163/4/2 165/4/2 166/4/2
f 166/4/2 165/4/2 167/4/2
f 168/4/2 169/4/2 172/4/2
f 172/4/2 169/4/2 173/4/2
f 170/6/2 171/6/2 174/6/2
f 174/6/2 171/6/2 175/6/2
f 175/6/2 171/6/2 176/6/2
f 177/4/2 178/4/2 179/4/2
f 179/4/2 178/4/2 180/4/2
f 181/5/2 182/5/2 183/5/2
f 183/5/2 182/5/2 184/5/2
f 187/5/3 186/5/3 185/5/3
f 188/5/3 186/5/3 187/5/3
f 189/5/3 187/5/3 185/5/3
f 190/5/3 187/5/3 189/5/3
f 191/3/3 188/3/3 187/3/3
f 191/5/3 187/5/3 190/5/3
f 192/5/3 186/5/3 188/5/3
f 192/3/3 188/3/3 191/3/3
f 193/5/3 191/5/3 190/5/3
f 193/5/3 192/5/3 191/5/3
f 194/5/3 186/5/3 192/5/3
f 194/5/3 192/5/3 193/5/3
f 195/5/3 189/5/3 185/5/3
f 196/5/3 193/5/3 190/5/3
f 197/3/3 194/3/3 193/3/3
f 197/5/3 196/5/3 195/5/3
f 197/5/3 193/5/3 196/5/3
f 198/5/3 186/5/3 194/5/3
f 198/3/3 194/3/3 197/3/3
f 199/5/3 195/5/3 185/5/3
f 199/5/3 197/5/3 195/5/3
f 199/5/3 198/5/3 197/5/3
f 200/5/3 186/5/3 198/5/3
f 200/5/3 198/5/3 199/5/3
f 205/4/3 202/4/3 201/4/3
f 207/4/3 204/4/3 203/4/3
f 208/4/3 204/4/3 207/4/3
f 209/4/3 206/4/3 205/4/3
f 209/4/3 205/4/3 201/4/3
f 210/4/3 206/4/3 209/4/3
f 211/4/3 209/4/3 201/4/3
f 213/4/3 211/4/3 201/4/3
f 213/4/3 212/4/3 211/4/3
f 214/4/3 212/4/3 213/4/3
f 216/4/3 204/4/3 208/4/3
f 217/4/3 213/4/3 201/4/3
f 218/4/3 213/4/3 217/4/3
f 219/4/3 216/4/3 215/4/3
f 220/4/3 204/4/3 216/4/3
f 220/4/3 216/4/3 219/4/3
f 225/4/3 222/4/3 221/4/3
f 226/4/3 222/4/3 225/4/3
f 227/4/3 224/4/3 223/4/3
f 228/4/3 224/4/3 227/4/3
f 233/4/3 230/4/3 229/4/3
f 234/4/3 230/4/3 233/4/3
f 235/4/3 232/4/3 231/4/3
f 236/4/3 232/4/3 235/4/3
f 241/4/3 238/4/3 237/4/3
f 242/4/3 238/4/3 241/4/3
f 243/4/3 240/4/3 239/4/3
f 244/4/3 240/4/3 243/4/3
f 247/6/3 246/6/3 245/6/3
f 249/6/3 247/6/3 245/6/3
f 249/6/3 248/6/3 247/6/3
f 250/6/3 248/6/3 249/6/3
f 251/6/3 249/6/3 245/6/3
f 252/6/3 249/6/3 251/6/3
f 257/4/3 254/4/3 253/4/3
f 258/4/3 254/4/3 257/4/3
f 259/4/3 256/4/3 255/4/3
f 260/4/3 256/4/3 259/4/3
f 263/6/3 262/6/3 261/6/3
f 264/6/3 262/6/3 263/6/3
f 266/6/3 265/6/3 264/6/3
f 267/6/3 265/6/3 266/6/3
f 271/6/3 269/6/3 268/6/3
f 272/6/3 269/6/3 271/6/3
f 273/6/3 271/6/3 270/6/3
f 274/6/3 271/6/3 273/6/3
f 277/6/3 276/6/3 275/6/3
f 278/6/3 276/6/3 277/6/3
f 280/6/3 279/6/3 278/6/3
f 281/6/3 279/6/3 280/6/3
f 284/6/3 282/6/3 281/6/3
f 285/6/3 282/6/3 284/6/3
f 287/6/3 284/6/3 283/6/3
f 288/6/3 284/6/3 287/6/3
f 289/6/3 287/6/3 286/6/3
f 290/6/3 287/6/3 289/6/3
f 293/6/3 292/6/3 291/6/3
f 294/6/3 292/6/3 293/6/3
f 296/6/3 295/6/3 294/6/3
f 297/6/3 295/6/3 296/6/3
f 301/6/3 299/6/3 298/6/3
f 302/6/3 299/6/3 301/6/3
f 303/6/3 301/6/3 300/6/3
f 304/6/3 301/6/3 303/6/3
f 307/3/3 306/3/3 305/3/3
f 308/3/3 306/3/3 307/3/3
f 309/3/3 306/3/3 308/3/3
f 310/3/3 306/3/3 309/3/3
f 312/3/3 306/3/3 310/3/3
f 314/3/3 312/3/3 311/3/3
f 315/3/3 314/3/3 313/3/3
f 316/3/3 306/3/3 312/3/3
f 316/3/3 314/3/3 315/3/3
f 316/3/3 312/3/3 314/3/3
f 317/4/4 318/4/4 322/4/4
f 320/4/4 321/4/4 324/4/4
f 319/4/4 320/4/4 324/4/4
f 324/4/4 321/4/4 325/4/4
f 322/4/4 323/4/4 326/4/4
f 317/4/4 322/4/4 326/4/4
f 326/4/4 323/4/4 327/4/4
f 317/4/4 326/4/4 328/4/4
f 317/4/4 328/4/4 330/4/4
f 328/4/4 329/4/4 330/4/4
f 330/4/4 329/4/4 331/4/4
f 325/4/4 321/4/4 333/4/4
f 317/4/4 330/4/4 334/4/4
f 334/4/4 330/4/4 335/4/4
f 332/4/4 333/4/4 336/4/4
f 333/4/4 321/4/4 337/4/4
f 336/4/4 333/4/4 337/4/4
f 337/4/4 321/4/4 338/4/4
f 339/4/4 340/4/4 343/4/4
f 343/4/4 340/4/4 344/4/4
f 341/4/4 342/4/4 345/4/4
f 345/4/4 342/4/4 346/4/4
f 347/4/4 348/4/4 351/4/4
f 351/4/4 348/4/4 352/4/4
f 349/4/4 350/4/4 353/4/4
f 353/4/4 350/4/4 354/4/4
f 355/4/4 356/4/4 359/4/4
f 359/4/4 356/4/4 360/4/4
f 357/4/4 358/4/4 361/4/4
f 361/4/4 358/4/4 362/4/4
f 363/4/4 364/4/4 367/4/4
f 367/4/4 364/4/4 368/4/4
f 365/4/4 366/4/4 369/4/4
f 369/4/4 366/4/4 370/4/4
f 371/5/4 372/5/4 373/5/4
f 373/5/4 372/5/4 374/5/4
f 377/5/5 376/5/5 375/5/5
f 378/5/5 376/5/5 377/5/5
f 383/4/5 380/4/5 379/4/5
f 384/4/5 380/4/5 383/4/5
f 385/4/5 382/4/5 381/4/5
f 386/4/5 382/4/5 385/4/5
f 391/4/5 388/4/5 387/4/5
f 392/4/5 388/4/5 391/4/5
f 396/4/5 390/4/5 389/4/5
f 397/4/5 390/4/5 396/4/5
f 398/4/5 394/4/5 393/4/5
f 399/4/5 394/4/5 398/4/5
f 401/4/5 396/4/5 395/4/5
f 402/4/5 396/4/5 401/4/5
f 403/4/5 400/4/5 399/4/5
f 404/4/5 400/4/5 403/4/5
f 407/5/5 406/5/5 405/5/5
f 408/5/5 406/5/5 407/5/5
f 409/5/5 406/5/5 408/5/5
f 410/5/5 406/5/5 409/5/5
f 411/3/5 408/3/5 407/3/5
f 412/3/5 408/3/5 411/3/5
f 413/3/5 410/3/5 409/3/5
f 414/3/5 410/3/5 413/3/5
f 415/3/5 411/3/5 407/3/5
f 416/3/5 411/3/5 415/3/5
f 417/3/5 413/3/5 412/3/5
f 418/3/5 413/3/5 417/3/5
f 419/3/5 410/3/5 414/3/5
f 420/3/5 410/3/5 419/3/5
f 422/3/5 418/3/5 417/3/5
f 422/3/5 419/3/5 418/3/5
f 422/3/5 417/3/5 416/3/5
f 423/3/5 419/3/5 422/3/5
f 425/3/5 422/3/5 421/3/5
f 425/3/5 424/3/5 423/3/5
f 425/3/5 423/3/5 422/3/5
f 426/3/5 424/3/5 425/3/5
f 427/5/6 428/5/6 429/5/6
f 429/5/6 428/5/6 430/5/6
f 430/5/6 428/5/6 431/5/6
f 431/5/6 428/5/6 432/5/6
f 429/3/6 430/3/6 433/3/6
f 433/3/6 430/3/6 434/3/6
f 431/3/6 432/3/6 435/3/6
f 435/3/6 432/3/6 436/3/6
f 429/3/6 433/3/6 437/3/6
f 437/3/6 433/3/6 438/3/6
f 434/7/6 435/7/6 439/7/6
f 439/7/6 435/7/6 440/7/6
f 440/7/6 435/7/6 441/7/6
f 441/7/6 435/7/6 442/7/6
f 436/3/6 432/3/6 443/3/6
f 443/3/6 432/3/6 444/3/6
f 438/7/6 439/7/6 445/7/6
f 439/7/6 440/7/6 445/7/6
f 445/7/6 440/7/6 446/7/6
f 441/7/6 442/7/6 447/7/6
f 442/7/6 443/7/6 447/7/6
f 447/7/6 443/7/6 448/7/6
f 438/7/6 445/7/6 449/7/6
f 449/7/6 445/7/6 450/7/6
f 448/7/6 443/7/6 451/7/6
f 451/7/6 443/7/6 452/7/6
f 453/3/6 454/3/6 457/3/6
f 457/3/6 454/3/6 458/3/6
f 455/3/6 456/3/6 459/3/6
f 459/3/6 456/3/6 460/3/6
f 461/4/6 462/4/6 468/4/6
f 468/4/6 462/4/6 469/4/6
f 463/4/6 464/4/6 470/4/6
f 470/4/6 464/4/6 471/4/6
f 465/4/6 466/4/6 472/4/6
f 472/4/6 466/4/6 473/4/6
f 467/4/6 468/4/6 476/4/6
f 476/4/6 468/4/6 477/4/6
f 473/4/6 474/4/6 482/4/6
f 482/4/6 474/4/6 483/4/6
f 478/6/6 479/6/6 486/6/6
f 486/6/6 479/6/6 487/6/6
f 480/6/6 481/6/6 488/6/6
f 488/6/6 481/6/6 489/6/6
f 475/4/6 476/4/6 491/4/6
f 485/6/6 486/6/6 492/6/6
f 492/6/6 486/6/6 493/6/6
f 489/6/6 490/6/6 494/6/6
f 494/6/6 490/6/6 495/6/6
f 483/4/6 484/4/6 496/4/6
f 475/4/6 491/4/6 497/4/6
f 491/6/6 492/6/6 498/6/6
f 497/4/6 491/4/6 498/4/6
f 498/6/6 492/6/6 499/6/6
f 495/6/6 496/6/6 500/6/6
f 496/4/6 484/4/6 501/4/6
f 500/6/6 496/6/6 501/6/6
f 501/4/6 484/4/6 502/4/6
f 503/4/6 504/4/6 507/4/6
f 507/4/6 504/4/6 508/4/6
f 505/4/6 506/4/6 509/4/6
f 509/4/6 506/4/6 510/4/6
f 511/6/6 512/6/6 514/6/6
f 514/6/6 512/6/6 515/6/6
f 513/6/6 514/6/6 518/6/6
f 515/6/6 516/6/6 518/6/6
f 514/6/6 515/6/6 518/6/6
f 518/6/6 516/6/6 519/6/6
f 517/6/6 518/6/6 522/6/6
f 522/6/6 518/6/6 523/6/6
f 519/6/6 520/6/6 524/6/6
f 524/6/6 520/6/6 525/6/6
f 521/6/6 522/6/6 527/6/6
f 527/6/6 522/6/6 528/6/6
f 525/6/6 526/6/6 529/6/6
f 529/6/6 526/6/6 530/6/6
f 531/6/6 532/6/6 534/6/6
f 534/6/6 532/6/6 535/6/6
f 533/6/6 534/6/6 537/6/6
f 535/6/6 536/6/6 537/6/6
f 534/6/6 535/6/6 537/6/6
f 537/6/6 536/6/6 538/6/6
f 539/5/6 540/5/6 541/5/6
f 541/5/6 540/5/6 542/5/6
