# MagicaVoxel @ ephtracy

# material
mtllib leef.mtl
usemtl palette

# normals
vn -1 0 0
vn 1 0 0
vn 0 0 1
vn 0 0 -1
vn 0 -1 0
vn 0 1 0

# texcoords
vt 0.884766 0.5
vt 0.896484 0.5

# verts
v -4 0 3
v -4 0 -2
v -4 0 -3
v -4 1 3
v -4 1 -1
v -4 1 -2
v -4 1 -3
v -4 2 -1
v -4 2 -2
v -3 0 4
v -3 0 3
v -3 0 -3
v -3 0 -4
v -3 1 4
v -3 1 3
v -3 1 1
v -3 1 -1
v -3 1 -3
v -3 1 -4
v -3 2 1
v -3 2 -1
v -2 1 2
v -2 1 1
v -2 2 2
v -2 2 1
v -1 1 3
v -1 1 2
v -1 2 3
v -1 2 2
v 1 1 4
v 1 1 3
v 1 2 4
v 1 2 3
v 3 0 2
v 3 0 1
v 3 1 2
v 3 1 1
v -3 1 -1
v -3 1 -2
v -3 2 -1
v -3 2 -2
v -2 0 -1
v -2 0 -3
v -2 1 1
v -2 1 -1
v -2 1 -3
v -2 2 1
v -2 2 -1
v -1 0 -0
v -1 0 -1
v -1 0 -3
v -1 0 -4
v -1 1 2
v -1 1 1
v -1 1 -0
v -1 1 -1
v -1 1 -3
v -1 1 -4
v -1 2 2
v -1 2 1
v 0 0 1
v 0 0 -0
v 0 1 1
v 0 1 -0
v 1 0 2
v 1 0 1
v 1 1 3
v 1 1 2
v 1 1 1
v 1 2 3
v 1 2 2
v 2 1 4
v 2 1 3
v 2 2 4
v 2 2 3
v 3 0 4
v 3 0 3
v 3 1 4
v 3 1 3
v 4 0 3
v 4 0 1
v 4 1 3
v 4 1 1
v -3 0 4
v -3 1 4
v 1 1 4
v 1 2 4
v 2 0 4
v 2 1 4
v 2 2 4
v 3 0 4
v 3 1 4
v -4 0 3
v -4 1 3
v -3 0 3
v -3 1 3
v -1 1 3
v -1 2 3
v 1 1 3
v 1 2 3
v 3 0 3
v 3 1 3
v 4 0 3
v 4 1 3
v -2 1 2
v -2 2 2
v -1 1 2
v -1 2 2
v -3 1 1
v -3 2 1
v -2 1 1
v -2 2 1
v -4 1 -1
v -4 2 -1
v -3 1 -1
v -3 2 -1
v -2 0 -3
v -2 1 -3
v -1 0 -3
v -1 1 -3
v 1 1 3
v 1 2 3
v 2 1 3
v 2 2 3
v -1 1 2
v -1 2 2
v 1 0 2
v 1 1 2
v 1 2 2
v 3 0 2
v 3 1 2
v -2 1 1
v -2 2 1
v -1 1 1
v -1 2 1
v 0 0 1
v 0 1 1
v 1 0 1
v 1 1 1
v 3 0 1
v 3 1 1
v 4 0 1
v 4 1 1
v -1 0 -0
v -1 1 -0
v 0 0 -0
v 0 1 -0
v -3 1 -1
v -3 2 -1
v -2 0 -1
v -2 1 -1
v -2 2 -1
v -1 0 -1
v -1 1 -1
v -4 1 -2
v -4 2 -2
v -3 1 -2
v -3 2 -2
v -4 0 -3
v -4 1 -3
v -3 0 -3
v -3 1 -3
v -3 0 -4
v -3 1 -4
v -1 0 -4
v -1 1 -4
v -3 0 4
v 2 0 4
v 3 0 4
v -4 0 3
v -3 0 3
v 1 0 3
v 2 0 3
v 3 0 3
v 4 0 3
v -1 0 2
v 1 0 2
v 3 0 2
v -2 0 1
v -1 0 1
v 0 0 1
v 1 0 1
v 3 0 1
v 4 0 1
v -1 0 -0
v 0 0 -0
v -3 0 -1
v -2 0 -1
v -1 0 -1
v -4 0 -2
v -3 0 -2
v -4 0 -3
v -3 0 -3
v -2 0 -3
v -1 0 -3
v -3 0 -4
v -1 0 -4
v -3 1 4
v 1 1 4
v 2 1 4
v 3 1 4
v -4 1 3
v -3 1 3
v -1 1 3
v 1 1 3
v 2 1 3
v 3 1 3
v 4 1 3
v -2 1 2
v -1 1 2
v 1 1 2
v 3 1 2
v -3 1 1
v -2 1 1
v -1 1 1
v 0 1 1
v 1 1 1
v 3 1 1
v 4 1 1
v -1 1 -0
v 0 1 -0
v -4 1 -1
v -3 1 -1
v -2 1 -1
v -1 1 -1
v -4 1 -2
v -3 1 -2
v -4 1 -3
v -3 1 -3
v -2 1 -3
v -1 1 -3
v -3 1 -4
v -1 1 -4
v 1 2 4
v 2 2 4
v -1 2 3
v 1 2 3
v 2 2 3
v -2 2 2
v -1 2 2
v 1 2 2
v -3 2 1
v -2 2 1
v -1 2 1
v -4 2 -1
v -3 2 -1
v -2 2 -1
v -4 2 -2
v -3 2 -2

# faces
f 4/2/1 2/2/1 1/2/1
f 5/2/1 2/2/1 4/2/1
f 6/1/1 3/1/1 2/1/1
f 6/2/1 2/2/1 5/2/1
f 7/1/1 3/1/1 6/1/1
f 8/2/1 6/2/1 5/2/1
f 9/2/1 6/2/1 8/2/1
f 14/2/1 11/2/1 10/2/1
f 15/2/1 11/2/1 14/2/1
f 18/1/1 13/1/1 12/1/1
f 19/1/1 13/1/1 18/1/1
f 20/2/1 17/2/1 16/2/1
f 21/2/1 17/2/1 20/2/1
f 24/2/1 23/2/1 22/2/1
f 25/2/1 23/2/1 24/2/1
f 28/2/1 27/2/1 26/2/1
f 29/2/1 27/2/1 28/2/1
f 32/2/1 31/2/1 30/2/1
f 33/2/1 31/2/1 32/2/1
f 36/1/1 35/1/1 34/1/1
f 37/1/1 35/1/1 36/1/1
f 38/2/2 39/2/2 40/2/2
f 40/2/2 39/2/2 41/2/2
f 42/1/2 43/1/2 45/1/2
f 45/1/2 43/1/2 46/1/2
f 44/2/2 45/2/2 47/2/2
f 47/2/2 45/2/2 48/2/2
f 49/1/2 50/1/2 55/1/2
f 55/1/2 50/1/2 56/1/2
f 51/1/2 52/1/2 57/1/2
f 57/1/2 52/1/2 58/1/2
f 53/2/2 54/2/2 59/2/2
f 59/2/2 54/2/2 60/2/2
f 61/1/2 62/1/2 63/1/2
f 63/1/2 62/1/2 64/1/2
f 65/1/2 66/1/2 68/1/2
f 68/1/2 66/1/2 69/1/2
f 67/2/2 68/2/2 70/2/2
f 70/2/2 68/2/2 71/2/2
f 72/2/2 73/2/2 74/2/2
f 74/2/2 73/2/2 75/2/2
f 76/1/2 77/1/2 78/1/2
f 78/1/2 77/1/2 79/1/2
f 80/1/2 81/1/2 82/1/2
f 82/1/2 81/1/2 83/1/2
f 86/2/3 85/2/3 84/2/3
f 88/2/3 86/2/3 84/2/3
f 88/2/3 87/2/3 86/2/3
f 89/2/3 87/2/3 88/2/3
f 90/2/3 87/2/3 89/2/3
f 91/1/3 89/1/3 88/1/3
f 92/1/3 89/1/3 91/1/3
f 95/2/3 94/2/3 93/2/3
f 96/2/3 94/2/3 95/2/3
f 99/2/3 98/2/3 97/2/3
f 100/2/3 98/2/3 99/2/3
f 103/1/3 102/1/3 101/1/3
f 104/1/3 102/1/3 103/1/3
f 107/2/3 106/2/3 105/2/3
f 108/2/3 106/2/3 107/2/3
f 111/2/3 110/2/3 109/2/3
f 112/2/3 110/2/3 111/2/3
f 115/2/3 114/2/3 113/2/3
f 116/2/3 114/2/3 115/2/3
f 119/1/3 118/1/3 117/1/3
f 120/1/3 118/1/3 119/1/3
f 121/2/4 122/2/4 123/2/4
f 123/2/4 122/2/4 124/2/4
f 125/2/4 126/2/4 128/2/4
f 128/2/4 126/2/4 129/2/4
f 127/1/4 128/1/4 130/1/4
f 130/1/4 128/1/4 131/1/4
f 132/2/4 133/2/4 134/2/4
f 134/2/4 133/2/4 135/2/4
f 136/1/4 137/1/4 138/1/4
f 138/1/4 137/1/4 139/1/4
f 140/1/4 141/1/4 142/1/4
f 142/1/4 141/1/4 143/1/4
f 144/1/4 145/1/4 146/1/4
f 146/1/4 145/1/4 147/1/4
f 148/2/4 149/2/4 151/2/4
f 151/2/4 149/2/4 152/2/4
f 150/1/4 151/1/4 153/1/4
f 153/1/4 151/1/4 154/1/4
f 155/2/4 156/2/4 157/2/4
f 157/2/4 156/2/4 158/2/4
f 159/1/4 160/1/4 161/1/4
f 161/1/4 160/1/4 162/1/4
f 163/1/4 164/1/4 165/1/4
f 165/1/4 164/1/4 166/1/4
f 171/2/5 168/2/5 167/2/5
f 172/2/5 168/2/5 171/2/5
f 173/1/5 169/1/5 168/1/5
f 173/2/5 168/2/5 172/2/5
f 174/1/5 169/1/5 173/1/5
f 176/2/5 172/2/5 171/2/5
f 176/2/5 171/2/5 170/2/5
f 177/1/5 175/1/5 174/1/5
f 177/2/5 172/2/5 176/2/5
f 177/1/5 174/1/5 173/1/5
f 177/1/5 173/1/5 172/1/5
f 178/1/5 175/1/5 177/1/5
f 179/2/5 176/2/5 170/2/5
f 180/1/5 177/1/5 176/1/5
f 180/2/5 176/2/5 179/2/5
f 181/1/5 177/1/5 180/1/5
f 182/1/5 177/1/5 181/1/5
f 183/1/5 175/1/5 178/1/5
f 184/1/5 175/1/5 183/1/5
f 185/1/5 180/1/5 179/1/5
f 185/1/5 181/1/5 180/1/5
f 186/1/5 181/1/5 185/1/5
f 187/2/5 179/2/5 170/2/5
f 188/1/5 185/1/5 179/1/5
f 188/2/5 179/2/5 187/2/5
f 189/1/5 185/1/5 188/1/5
f 190/2/5 187/2/5 170/2/5
f 191/1/5 188/1/5 187/1/5
f 191/2/5 187/2/5 190/2/5
f 192/1/5 191/1/5 190/1/5
f 193/1/5 188/1/5 191/1/5
f 193/1/5 191/1/5 192/1/5
f 194/1/5 188/1/5 193/1/5
f 196/1/5 195/1/5 194/1/5
f 196/1/5 194/1/5 193/1/5
f 197/1/5 195/1/5 196/1/5
f 198/2/6 199/2/6 203/2/6
f 203/2/6 199/2/6 204/2/6
f 204/2/6 199/2/6 205/2/6
f 200/1/6 201/1/6 206/1/6
f 206/1/6 201/1/6 207/1/6
f 202/2/6 203/2/6 209/2/6
f 203/2/6 204/2/6 209/2/6
f 209/2/6 204/2/6 210/2/6
f 207/1/6 208/1/6 211/1/6
f 206/1/6 207/1/6 211/1/6
f 205/1/6 206/1/6 211/1/6
f 211/1/6 208/1/6 212/1/6
f 202/2/6 209/2/6 213/2/6
f 213/2/6 209/2/6 214/2/6
f 210/1/6 211/1/6 215/1/6
f 215/1/6 211/1/6 216/1/6
f 216/1/6 211/1/6 217/1/6
f 212/1/6 208/1/6 218/1/6
f 218/1/6 208/1/6 219/1/6
f 214/1/6 215/1/6 220/1/6
f 215/1/6 216/1/6 220/1/6
f 220/1/6 216/1/6 221/1/6
f 202/2/6 213/2/6 222/2/6
f 222/2/6 213/2/6 223/2/6
f 214/1/6 220/1/6 224/1/6
f 224/1/6 220/1/6 225/1/6
f 223/1/6 224/1/6 227/1/6
f 226/1/6 227/1/6 228/1/6
f 227/1/6 224/1/6 229/1/6
f 228/1/6 227/1/6 229/1/6
f 229/1/6 224/1/6 230/1/6
f 230/1/6 231/1/6 232/1/6
f 229/1/6 230/1/6 232/1/6
f 232/1/6 231/1/6 233/1/6
f 234/2/6 235/2/6 237/2/6
f 237/2/6 235/2/6 238/2/6
f 236/2/6 237/2/6 240/2/6
f 240/2/6 237/2/6 241/2/6
f 239/2/6 240/2/6 243/2/6
f 243/2/6 240/2/6 244/2/6
f 242/2/6 243/2/6 246/2/6
f 246/2/6 243/2/6 247/2/6
f 245/2/6 246/2/6 248/2/6
f 248/2/6 246/2/6 249/2/6
