# MagicaVoxel @ ephtracy

# material
mtllib nyoki.mtl
usemtl palette

# normals
vn -1 0 0
vn 1 0 0
vn 0 0 1
vn 0 0 -1
vn 0 -1 0
vn 0 1 0

# texcoords
vt 0.00195313 0.5
vt 0.537109 0.5
vt 0.845703 0.5
vt 0.951172 0.5
vt 0.994141 0.5

# verts
v -8 0 8
v -8 0 2
v -8 5 8
v -8 5 2
v -6 5 3
v -6 5 2
v -6 5 -1
v -6 6 3
v -6 6 -1
v -6 9 1
v -6 9 -0
v -6 10 1
v -6 10 -0
v -6 12 1
v -6 12 -0
v -6 13 1
v -6 13 -0
v -5 0 2
v -5 0 -1
v -5 1 2
v -5 1 -1
v -5 6 1
v -5 6 -1
v -5 7 1
v -5 7 -1
v -5 11 1
v -5 11 -0
v -5 12 1
v -5 12 -0
v -4 0 -1
v -4 0 -4
v -4 1 2
v -4 1 -1
v -4 1 -4
v -4 1 -5
v -4 5 2
v -4 5 -1
v -4 6 2
v -4 6 1
v -4 7 1
v -4 7 -1
v -4 9 1
v -4 9 -0
v -4 10 1
v -4 10 -0
v -4 11 1
v -4 11 -0
v -4 12 1
v -4 12 -0
v -4 13 2
v -4 13 1
v -4 14 1
v -4 14 -1
v -4 14 -2
v -4 14 -5
v -4 16 -1
v -4 16 -2
v -3 0 -4
v -3 0 -5
v -3 1 -4
v -3 1 -5
v -3 1 -6
v -3 13 2
v -3 13 1
v -3 14 2
v -3 14 1
v -3 14 -1
v -3 14 -2
v -3 14 -5
v -3 14 -6
v -3 15 1
v -3 15 -1
v -3 15 -2
v -3 15 -5
v -2 0 -5
v -2 0 -6
v -2 1 -5
v -2 1 -6
v -2 11 -6
v -2 11 -8
v -2 14 -6
v -2 14 -8
v -1 0 -6
v -1 0 -8
v -1 3 -6
v -1 3 -8
v -1 8 -6
v -1 8 -8
v -1 11 -6
v -1 11 -8
v -1 14 -6
v -1 14 -8
v -1 16 -6
v -1 16 -8
v 0 3 -6
v 0 3 -8
v 0 4 -6
v 0 4 -8
v 0 7 -6
v 0 7 -8
v 0 8 -6
v 0 8 -8
v 1 4 -6
v 1 4 -8
v 1 7 -6
v 1 7 -8
v 2 15 -1
v 2 15 -2
v 2 16 -1
v 2 16 -2
v 4 5 3
v 4 5 2
v 4 6 3
v 4 6 2
v 5 12 1
v 5 12 -0
v 5 13 1
v 5 13 -0
v -5 12 1
v -5 12 -0
v -5 13 1
v -5 13 -0
v -4 5 3
v -4 5 2
v -4 6 3
v -4 6 2
v -2 15 -1
v -2 15 -2
v -2 16 -1
v -2 16 -2
v 0 12 -6
v 0 12 -8
v 0 14 -6
v 0 14 -8
v 1 0 -6
v 1 0 -8
v 1 2 -6
v 1 2 -8
v 1 9 -6
v 1 9 -8
v 1 12 -6
v 1 12 -8
v 1 14 -6
v 1 14 -8
v 1 16 -6
v 1 16 -8
v 2 0 -5
v 2 0 -6
v 2 1 -5
v 2 1 -6
v 2 2 -6
v 2 2 -8
v 2 3 -6
v 2 3 -8
v 2 8 -6
v 2 8 -8
v 2 9 -6
v 2 9 -8
v 3 0 -4
v 3 0 -5
v 3 1 -4
v 3 1 -5
v 3 1 -6
v 3 3 -6
v 3 3 -8
v 3 8 -6
v 3 8 -8
v 3 13 2
v 3 13 1
v 3 14 2
v 3 14 1
v 3 14 -1
v 3 14 -2
v 3 14 -5
v 3 14 -6
v 3 15 1
v 3 15 -1
v 3 15 -2
v 3 15 -5
v 4 0 -1
v 4 0 -4
v 4 1 2
v 4 1 -1
v 4 1 -4
v 4 1 -5
v 4 5 2
v 4 5 -1
v 4 6 2
v 4 6 1
v 4 7 1
v 4 7 -1
v 4 9 1
v 4 9 -0
v 4 10 1
v 4 10 -0
v 4 11 1
v 4 11 -0
v 4 12 1
v 4 12 -0
v 4 13 2
v 4 13 1
v 4 14 1
v 4 14 -1
v 4 14 -2
v 4 14 -5
v 4 16 -1
v 4 16 -2
v 5 0 2
v 5 0 -1
v 5 1 2
v 5 1 -1
v 5 6 1
v 5 6 -1
v 5 7 1
v 5 7 -1
v 5 11 1
v 5 11 -0
v 5 12 1
v 5 12 -0
v 6 5 3
v 6 5 2
v 6 5 -1
v 6 6 3
v 6 6 -1
v 6 9 1
v 6 9 -0
v 6 10 1
v 6 10 -0
v 6 12 1
v 6 12 -0
v 6 13 1
v 6 13 -0
v 8 0 8
v 8 0 2
v 8 5 8
v 8 5 2
v -8 0 8
v -8 5 8
v 8 0 8
v 8 5 8
v -6 5 3
v -6 6 3
v -4 5 3
v -4 6 3
v 4 5 3
v 4 6 3
v 6 5 3
v 6 6 3
v -4 5 2
v -4 6 2
v -4 13 2
v -3 9 2
v -3 11 2
v -3 12 2
v -3 13 2
v -3 14 2
v -1 9 2
v -1 11 2
v -1 12 2
v 1 9 2
v 1 11 2
v 1 12 2
v 3 9 2
v 3 11 2
v 3 12 2
v 3 13 2
v 3 14 2
v 4 5 2
v 4 6 2
v 4 13 2
v -6 9 1
v -6 10 1
v -6 12 1
v -6 13 1
v -5 6 1
v -5 7 1
v -5 11 1
v -5 12 1
v -5 13 1
v -4 6 1
v -4 7 1
v -4 9 1
v -4 10 1
v -4 11 1
v -4 12 1
v -4 13 1
v -4 14 1
v -3 13 1
v -3 14 1
v -3 15 1
v 3 13 1
v 3 14 1
v 3 15 1
v 4 6 1
v 4 7 1
v 4 9 1
v 4 10 1
v 4 11 1
v 4 12 1
v 4 13 1
v 4 14 1
v 5 6 1
v 5 7 1
v 5 11 1
v 5 12 1
v 5 13 1
v 6 9 1
v 6 10 1
v 6 12 1
v 6 13 1
v -4 14 -1
v -4 16 -1
v -3 14 -1
v -3 15 -1
v -2 15 -1
v -2 16 -1
v 2 15 -1
v 2 16 -1
v 3 14 -1
v 3 15 -1
v 4 14 -1
v 4 16 -1
v -1 14 -6
v -1 16 -6
v 1 14 -6
v 1 16 -6
v -8 0 2
v -8 5 2
v -6 5 2
v -5 0 2
v -5 1 2
v -4 1 2
v -4 5 2
v 4 1 2
v 4 5 2
v 5 0 2
v 5 1 2
v 6 5 2
v 8 0 2
v 8 5 2
v -6 9 -0
v -6 10 -0
v -6 12 -0
v -6 13 -0
v -5 11 -0
v -5 12 -0
v -5 13 -0
v -4 9 -0
v -4 10 -0
v -4 11 -0
v -4 12 -0
v 4 9 -0
v 4 10 -0
v 4 11 -0
v 4 12 -0
v 5 11 -0
v 5 12 -0
v 5 13 -0
v 6 9 -0
v 6 10 -0
v 6 12 -0
v 6 13 -0
v -6 5 -1
v -6 6 -1
v -5 0 -1
v -5 1 -1
v -5 6 -1
v -5 7 -1
v -4 0 -1
v -4 1 -1
v -4 5 -1
v -4 7 -1
v 4 0 -1
v 4 1 -1
v 4 5 -1
v 4 7 -1
v 5 0 -1
v 5 1 -1
v 5 6 -1
v 5 7 -1
v 6 5 -1
v 6 6 -1
v -4 14 -2
v -4 16 -2
v -3 14 -2
v -3 15 -2
v -2 15 -2
v -2 16 -2
v 2 15 -2
v 2 16 -2
v 3 14 -2
v 3 15 -2
v 4 14 -2
v 4 16 -2
v -4 0 -4
v -4 1 -4
v -3 0 -4
v -3 1 -4
v 3 0 -4
v 3 1 -4
v 4 0 -4
v 4 1 -4
v -4 1 -5
v -4 14 -5
v -3 0 -5
v -3 1 -5
v -3 14 -5
v -3 15 -5
v -2 0 -5
v -2 1 -5
v 2 0 -5
v 2 1 -5
v 3 0 -5
v 3 1 -5
v 3 14 -5
v 3 15 -5
v 4 1 -5
v 4 14 -5
v -3 1 -6
v -3 14 -6
v -2 0 -6
v -2 1 -6
v -2 11 -6
v -2 14 -6
v -1 0 -6
v -1 3 -6
v -1 8 -6
v -1 11 -6
v 0 3 -6
v 0 4 -6
v 0 7 -6
v 0 8 -6
v 0 12 -6
v 0 14 -6
v 1 0 -6
v 1 2 -6
v 1 4 -6
v 1 7 -6
v 1 9 -6
v 1 12 -6
v 1 14 -6
v 2 0 -6
v 2 1 -6
v 2 2 -6
v 2 3 -6
v 2 8 -6
v 2 9 -6
v 3 1 -6
v 3 3 -6
v 3 8 -6
v 3 14 -6
v -2 11 -8
v -2 14 -8
v -1 0 -8
v -1 3 -8
v -1 8 -8
v -1 11 -8
v -1 14 -8
v -1 16 -8
v 0 3 -8
v 0 4 -8
v 0 7 -8
v 0 8 -8
v 0 12 -8
v 0 14 -8
v 1 0 -8
v 1 2 -8
v 1 4 -8
v 1 7 -8
v 1 9 -8
v 1 12 -8
v 1 14 -8
v 1 16 -8
v 2 2 -8
v 2 3 -8
v 2 8 -8
v 2 9 -8
v 3 3 -8
v 3 8 -8
v -8 0 8
v 8 0 8
v -8 0 2
v -5 0 2
v -4 0 2
v 4 0 2
v 5 0 2
v 8 0 2
v -5 0 -1
v -4 0 -1
v 4 0 -1
v 5 0 -1
v -4 0 -4
v -3 0 -4
v 3 0 -4
v 4 0 -4
v -3 0 -5
v -2 0 -5
v 2 0 -5
v 3 0 -5
v -2 0 -6
v -1 0 -6
v 1 0 -6
v 2 0 -6
v -1 0 -8
v 1 0 -8
v -4 1 -4
v -3 1 -4
v 3 1 -4
v 4 1 -4
v -4 1 -5
v -3 1 -5
v -2 1 -5
v 2 1 -5
v 3 1 -5
v 4 1 -5
v -3 1 -6
v -2 1 -6
v 2 1 -6
v 3 1 -6
v 1 2 -6
v 2 2 -6
v 1 2 -8
v 2 2 -8
v 2 3 -6
v 3 3 -6
v 2 3 -8
v 3 3 -8
v -6 5 2
v -4 5 2
v 4 5 2
v 6 5 2
v -6 5 -1
v -4 5 -1
v 4 5 -1
v 6 5 -1
v 0 7 -6
v 1 7 -6
v 0 7 -8
v 1 7 -8
v -1 8 -6
v 0 8 -6
v -1 8 -8
v 0 8 -8
v -6 9 1
v -4 9 1
v 4 9 1
v 6 9 1
v -6 9 -0
v -4 9 -0
v 4 9 -0
v 6 9 -0
v -5 11 1
v -4 11 1
v 4 11 1
v 5 11 1
v -5 11 -0
v -4 11 -0
v 4 11 -0
v 5 11 -0
v -2 11 -6
v -1 11 -6
v -2 11 -8
v -1 11 -8
v -6 12 1
v -5 12 1
v 5 12 1
v 6 12 1
v -6 12 -0
v -5 12 -0
v 5 12 -0
v 6 12 -0
v 0 14 -6
v 1 14 -6
v 0 14 -8
v 1 14 -8
v -5 1 2
v -4 1 2
v 4 1 2
v 5 1 2
v -5 1 -1
v -4 1 -1
v 4 1 -1
v 5 1 -1
v -1 3 -6
v 0 3 -6
v -1 3 -8
v 0 3 -8
v 0 4 -6
v 1 4 -6
v 0 4 -8
v 1 4 -8
v -8 5 8
v 8 5 8
v -6 5 3
v -4 5 3
v 4 5 3
v 6 5 3
v -8 5 2
v -6 5 2
v -4 5 2
v 4 5 2
v 6 5 2
v 8 5 2
v -6 6 3
v -4 6 3
v 4 6 3
v 6 6 3
v -4 6 2
v 4 6 2
v -5 6 1
v -4 6 1
v 4 6 1
v 5 6 1
v -6 6 -1
v -5 6 -1
v 5 6 -1
v 6 6 -1
v -5 7 1
v -4 7 1
v 4 7 1
v 5 7 1
v -5 7 -1
v -4 7 -1
v 4 7 -1
v 5 7 -1
v 2 8 -6
v 3 8 -6
v 2 8 -8
v 3 8 -8
v 1 9 -6
v 2 9 -6
v 1 9 -8
v 2 9 -8
v -6 10 1
v -4 10 1
v 4 10 1
v 6 10 1
v -6 10 -0
v -4 10 -0
v 4 10 -0
v 6 10 -0
v -5 12 1
v -4 12 1
v 4 12 1
v 5 12 1
v -5 12 -0
v -4 12 -0
v 4 12 -0
v 5 12 -0
v 0 12 -6
v 1 12 -6
v 0 12 -8
v 1 12 -8
v -4 13 2
v -3 13 2
v 3 13 2
v 4 13 2
v -6 13 1
v -5 13 1
v -4 13 1
v -3 13 1
v 3 13 1
v 4 13 1
v 5 13 1
v 6 13 1
v -6 13 -0
v -5 13 -0
v 5 13 -0
v 6 13 -0
v -3 14 2
v 3 14 2
v -4 14 1
v -3 14 1
v 3 14 1
v 4 14 1
v -4 14 -1
v -3 14 -1
v 3 14 -1
v 4 14 -1
v -4 14 -2
v -3 14 -2
v 3 14 -2
v 4 14 -2
v -4 14 -5
v -3 14 -5
v 3 14 -5
v 4 14 -5
v -3 14 -6
v -2 14 -6
v -1 14 -6
v 1 14 -6
v 3 14 -6
v -2 14 -8
v -1 14 -8
v -3 15 1
v 3 15 1
v -3 15 -1
v -2 15 -1
v 2 15 -1
v 3 15 -1
v -3 15 -2
v -2 15 -2
v 2 15 -2
v 3 15 -2
v -3 15 -5
v 3 15 -5
v -4 16 -1
v -2 16 -1
v 2 16 -1
v 4 16 -1
v -4 16 -2
v -2 16 -2
v 2 16 -2
v 4 16 -2
v -1 16 -6
v 1 16 -6
v -1 16 -8
v 1 16 -8

# faces
f 3/2/1 2/2/1 1/2/1
f 4/2/1 2/2/1 3/2/1
f 8/5/1 6/5/1 5/5/1
f 8/5/1 7/5/1 6/5/1
f 9/5/1 7/5/1 8/5/1
f 12/4/1 11/4/1 10/4/1
f 13/4/1 11/4/1 12/4/1
f 16/4/1 15/4/1 14/4/1
f 17/4/1 15/4/1 16/4/1
f 20/5/1 19/5/1 18/5/1
f 21/5/1 19/5/1 20/5/1
f 24/5/1 23/5/1 22/5/1
f 25/5/1 23/5/1 24/5/1
f 28/4/1 27/4/1 26/4/1
f 29/4/1 27/4/1 28/4/1
f 33/1/1 31/1/1 30/1/1
f 34/1/1 31/1/1 33/1/1
f 36/1/1 33/1/1 32/1/1
f 36/1/1 35/1/1 34/1/1
f 36/1/1 34/1/1 33/1/1
f 37/1/1 35/1/1 36/1/1
f 40/1/1 39/1/1 38/1/1
f 41/1/1 35/1/1 37/1/1
f 42/1/1 40/1/1 38/1/1
f 42/1/1 41/1/1 40/1/1
f 43/1/1 41/1/1 42/1/1
f 44/1/1 42/1/1 38/1/1
f 45/1/1 41/1/1 43/1/1
f 46/1/1 44/1/1 38/1/1
f 46/1/1 45/1/1 44/1/1
f 47/1/1 41/1/1 45/1/1
f 47/1/1 45/1/1 46/1/1
f 48/1/1 46/1/1 38/1/1
f 49/1/1 41/1/1 47/1/1
f 50/1/1 48/1/1 38/1/1
f 50/1/1 49/1/1 48/1/1
f 51/1/1 49/1/1 50/1/1
f 52/1/1 49/1/1 51/1/1
f 53/1/1 35/1/1 41/1/1
f 53/1/1 49/1/1 52/1/1
f 53/1/1 41/1/1 49/1/1
f 54/1/1 35/1/1 53/1/1
f 55/1/1 35/1/1 54/1/1
f 56/5/1 54/5/1 53/5/1
f 57/5/1 54/5/1 56/5/1
f 60/1/1 59/1/1 58/1/1
f 61/1/1 59/1/1 60/1/1
f 65/1/1 64/1/1 63/1/1
f 66/1/1 64/1/1 65/1/1
f 69/1/1 62/1/1 61/1/1
f 70/1/1 62/1/1 69/1/1
f 71/1/1 67/1/1 66/1/1
f 72/1/1 67/1/1 71/1/1
f 73/1/1 69/1/1 68/1/1
f 74/1/1 69/1/1 73/1/1
f 77/1/1 76/1/1 75/1/1
f 78/1/1 76/1/1 77/1/1
f 81/5/1 80/5/1 79/5/1
f 82/5/1 80/5/1 81/5/1
f 85/5/1 84/5/1 83/5/1
f 86/5/1 84/5/1 85/5/1
f 89/5/1 88/5/1 87/5/1
f 90/5/1 88/5/1 89/5/1
f 93/5/1 92/5/1 91/5/1
f 94/5/1 92/5/1 93/5/1
f 97/5/1 96/5/1 95/5/1
f 98/5/1 96/5/1 97/5/1
f 101/5/1 100/5/1 99/5/1
f 102/5/1 100/5/1 101/5/1
f 105/5/1 104/5/1 103/5/1
f 106/5/1 104/5/1 105/5/1
f 109/5/1 108/5/1 107/5/1
f 110/5/1 108/5/1 109/5/1
f 113/5/1 112/5/1 111/5/1
f 114/5/1 112/5/1 113/5/1
f 117/4/1 116/4/1 115/4/1
f 118/4/1 116/4/1 117/4/1
f 119/4/2 120/4/2 121/4/2
f 121/4/2 120/4/2 122/4/2
f 123/5/2 124/5/2 125/5/2
f 125/5/2 124/5/2 126/5/2
f 127/5/2 128/5/2 129/5/2
f 129/5/2 128/5/2 130/5/2
f 131/5/2 132/5/2 133/5/2
f 133/5/2 132/5/2 134/5/2
f 135/5/2 136/5/2 137/5/2
f 137/5/2 136/5/2 138/5/2
f 139/5/2 140/5/2 141/5/2
f 141/5/2 140/5/2 142/5/2
f 143/5/2 144/5/2 145/5/2
f 145/5/2 144/5/2 146/5/2
f 147/1/2 148/1/2 149/1/2
f 149/1/2 148/1/2 150/1/2
f 151/5/2 152/5/2 153/5/2
f 153/5/2 152/5/2 154/5/2
f 155/5/2 156/5/2 157/5/2
f 157/5/2 156/5/2 158/5/2
f 159/1/2 160/1/2 161/1/2
f 161/1/2 160/1/2 162/1/2
f 162/1/2 163/1/2 164/1/2
f 162/1/2 164/1/2 166/1/2
f 164/5/2 165/5/2 166/5/2
f 166/5/2 165/5/2 167/5/2
f 168/1/2 169/1/2 170/1/2
f 170/1/2 169/1/2 171/1/2
f 162/1/2 166/1/2 174/1/2
f 174/1/2 166/1/2 175/1/2
f 171/1/2 172/1/2 176/1/2
f 176/1/2 172/1/2 177/1/2
f 173/1/2 174/1/2 178/1/2
f 178/1/2 174/1/2 179/1/2
f 180/1/2 181/1/2 183/1/2
f 183/1/2 181/1/2 184/1/2
f 182/1/2 183/1/2 186/1/2
f 184/1/2 185/1/2 186/1/2
f 183/1/2 184/1/2 186/1/2
f 186/1/2 185/1/2 187/1/2
f 188/1/2 189/1/2 190/1/2
f 187/1/2 185/1/2 191/1/2
f 188/1/2 190/1/2 192/1/2
f 190/1/2 191/1/2 192/1/2
f 192/1/2 191/1/2 193/1/2
f 188/1/2 192/1/2 194/1/2
f 193/1/2 191/1/2 195/1/2
f 188/1/2 194/1/2 196/1/2
f 194/1/2 195/1/2 196/1/2
f 195/1/2 191/1/2 197/1/2
f 196/1/2 195/1/2 197/1/2
f 188/1/2 196/1/2 198/1/2
f 197/1/2 191/1/2 199/1/2
f 188/1/2 198/1/2 200/1/2
f 198/1/2 199/1/2 200/1/2
f 200/1/2 199/1/2 201/1/2
f 201/1/2 199/1/2 202/1/2
f 191/1/2 185/1/2 203/1/2
f 202/1/2 199/1/2 203/1/2
f 199/1/2 191/1/2 203/1/2
f 203/1/2 185/1/2 204/1/2
f 204/1/2 185/1/2 205/1/2
f 203/5/2 204/5/2 206/5/2
f 206/5/2 204/5/2 207/5/2
f 208/5/2 209/5/2 210/5/2
f 210/5/2 209/5/2 211/5/2
f 212/5/2 213/5/2 214/5/2
f 214/5/2 213/5/2 215/5/2
f 216/4/2 217/4/2 218/4/2
f 218/4/2 217/4/2 219/4/2
f 220/5/2 221/5/2 223/5/2
f 221/5/2 222/5/2 223/5/2
f 223/5/2 222/5/2 224/5/2
f 225/4/2 226/4/2 227/4/2
f 227/4/2 226/4/2 228/4/2
f 229/4/2 230/4/2 231/4/2
f 231/4/2 230/4/2 232/4/2
f 233/2/2 234/2/2 235/2/2
f 235/2/2 234/2/2 236/2/2
f 239/2/3 238/2/3 237/2/3
f 240/2/3 238/2/3 239/2/3
f 243/5/3 242/5/3 241/5/3
f 244/5/3 242/5/3 243/5/3
f 247/5/3 246/5/3 245/5/3
f 248/5/3 246/5/3 247/5/3
f 252/1/3 250/1/3 249/1/3
f 252/1/3 251/1/3 250/1/3
f 253/1/3 251/1/3 252/1/3
f 254/1/3 251/1/3 253/1/3
f 255/1/3 251/1/3 254/1/3
f 257/1/3 252/1/3 249/1/3
f 257/5/3 253/5/3 252/5/3
f 258/4/3 254/4/3 253/4/3
f 258/5/3 253/5/3 257/5/3
f 259/5/3 255/5/3 254/5/3
f 259/4/3 254/4/3 258/4/3
f 260/3/3 258/3/3 257/3/3
f 260/1/3 257/1/3 249/1/3
f 261/5/3 259/5/3 258/5/3
f 261/3/3 258/3/3 260/3/3
f 262/5/3 255/5/3 259/5/3
f 262/5/3 259/5/3 261/5/3
f 263/5/3 261/5/3 260/5/3
f 263/1/3 260/1/3 249/1/3
f 264/4/3 262/4/3 261/4/3
f 264/5/3 261/5/3 263/5/3
f 265/5/3 255/5/3 262/5/3
f 265/4/3 262/4/3 264/4/3
f 266/1/3 256/1/3 255/1/3
f 266/5/3 255/5/3 265/5/3
f 267/1/3 256/1/3 266/1/3
f 268/1/3 265/1/3 264/1/3
f 268/1/3 264/1/3 263/1/3
f 268/1/3 266/1/3 265/1/3
f 268/1/3 263/1/3 249/1/3
f 269/1/3 266/1/3 268/1/3
f 270/1/3 266/1/3 269/1/3
f 278/4/3 274/4/3 273/4/3
f 279/4/3 274/4/3 278/4/3
f 280/5/3 276/5/3 275/5/3
f 281/5/3 276/5/3 280/5/3
f 282/4/3 272/4/3 271/4/3
f 283/4/3 272/4/3 282/4/3
f 284/4/3 278/4/3 277/4/3
f 285/4/3 278/4/3 284/4/3
f 288/1/3 287/1/3 286/1/3
f 289/1/3 287/1/3 288/1/3
f 292/1/3 290/1/3 289/1/3
f 293/1/3 290/1/3 292/1/3
f 300/1/3 292/1/3 291/1/3
f 301/1/3 292/1/3 300/1/3
f 302/5/3 295/5/3 294/5/3
f 303/5/3 295/5/3 302/5/3
f 304/4/3 299/4/3 298/4/3
f 305/4/3 299/4/3 304/4/3
f 307/4/3 297/4/3 296/4/3
f 308/4/3 297/4/3 307/4/3
f 309/4/3 306/4/3 305/4/3
f 310/4/3 306/4/3 309/4/3
f 313/5/3 312/5/3 311/5/3
f 314/5/3 312/5/3 313/5/3
f 315/5/3 312/5/3 314/5/3
f 316/5/3 312/5/3 315/5/3
f 320/5/3 318/5/3 317/5/3
f 321/5/3 320/5/3 319/5/3
f 322/5/3 318/5/3 320/5/3
f 322/5/3 320/5/3 321/5/3
f 325/5/3 324/5/3 323/5/3
f 326/5/3 324/5/3 325/5/3
f 327/2/4 328/2/4 329/2/4
f 327/2/4 329/2/4 330/2/4
f 330/2/4 329/2/4 331/2/4
f 331/2/4 329/2/4 332/2/4
f 332/2/4 329/2/4 333/2/4
f 334/2/4 335/2/4 337/2/4
f 337/2/4 335/2/4 338/2/4
f 336/2/4 337/2/4 338/2/4
f 336/2/4 338/2/4 339/2/4
f 339/2/4 338/2/4 340/2/4
f 343/4/4 344/4/4 346/4/4
f 346/4/4 344/4/4 347/4/4
f 341/4/4 342/4/4 348/4/4
f 348/4/4 342/4/4 349/4/4
f 345/4/4 346/4/4 350/4/4
f 350/4/4 346/4/4 351/4/4
f 354/4/4 355/4/4 356/4/4
f 356/4/4 355/4/4 357/4/4
f 352/4/4 353/4/4 359/4/4
f 359/4/4 353/4/4 360/4/4
f 357/4/4 358/4/4 361/4/4
f 361/4/4 358/4/4 362/4/4
f 363/5/4 364/5/4 367/5/4
f 365/5/4 366/5/4 369/5/4
f 369/5/4 366/5/4 370/5/4
f 367/5/4 368/5/4 371/5/4
f 363/5/4 367/5/4 371/5/4
f 371/5/4 368/5/4 372/5/4
f 373/5/4 374/5/4 377/5/4
f 377/5/4 374/5/4 378/5/4
f 375/5/4 376/5/4 379/5/4
f 379/5/4 376/5/4 380/5/4
f 375/5/4 379/5/4 381/5/4
f 381/5/4 379/5/4 382/5/4
f 383/5/4 384/5/4 385/5/4
f 385/5/4 384/5/4 386/5/4
f 386/5/4 384/5/4 387/5/4
f 387/5/4 384/5/4 388/5/4
f 389/5/4 390/5/4 392/5/4
f 391/5/4 392/5/4 393/5/4
f 392/5/4 390/5/4 394/5/4
f 393/5/4 392/5/4 394/5/4
f 395/1/4 396/1/4 397/1/4
f 397/1/4 396/1/4 398/1/4
f 399/1/4 400/1/4 401/1/4
f 401/1/4 400/1/4 402/1/4
f 403/1/4 404/1/4 406/1/4
f 406/1/4 404/1/4 407/1/4
f 405/1/4 406/1/4 409/1/4
f 409/1/4 406/1/4 410/1/4
f 411/1/4 412/1/4 413/1/4
f 413/1/4 412/1/4 414/1/4
f 407/1/4 408/1/4 415/1/4
f 415/1/4 408/1/4 416/1/4
f 414/1/4 415/1/4 417/1/4
f 417/1/4 415/1/4 418/1/4
f 419/1/4 420/1/4 422/1/4
f 422/1/4 420/1/4 423/1/4
f 423/1/4 420/1/4 424/1/4
f 421/1/4 422/1/4 425/1/4
f 422/1/4 423/1/4 425/1/4
f 425/1/4 423/1/4 426/1/4
f 426/1/4 423/1/4 427/1/4
f 427/1/4 423/1/4 428/1/4
f 426/1/4 427/1/4 429/1/4
f 429/1/4 427/1/4 430/1/4
f 430/1/4 427/1/4 431/1/4
f 431/1/4 427/1/4 432/1/4
f 430/1/4 431/1/4 437/1/4
f 437/1/4 431/1/4 438/1/4
f 433/1/4 434/1/4 440/1/4
f 440/1/4 434/1/4 441/1/4
f 435/1/4 436/1/4 442/1/4
f 442/1/4 436/1/4 443/1/4
f 443/1/4 436/1/4 444/1/4
f 440/1/4 441/1/4 447/1/4
f 439/1/4 440/1/4 447/1/4
f 444/1/4 445/1/4 448/1/4
f 443/1/4 444/1/4 448/1/4
f 448/1/4 445/1/4 449/1/4
f 446/1/4 447/1/4 450/1/4
f 447/1/4 441/1/4 451/1/4
f 450/1/4 447/1/4 451/1/4
f 452/5/4 453/5/4 457/5/4
f 457/5/4 453/5/4 458/5/4
f 454/5/4 455/5/4 460/5/4
f 458/5/4 459/5/4 463/5/4
f 456/5/4 457/5/4 463/5/4
f 457/5/4 458/5/4 463/5/4
f 463/5/4 459/5/4 464/5/4
f 464/5/4 459/5/4 465/5/4
f 460/5/4 461/5/4 466/5/4
f 454/5/4 460/5/4 466/5/4
f 466/5/4 461/5/4 467/5/4
f 467/5/4 461/5/4 468/5/4
f 463/5/4 464/5/4 469/5/4
f 462/5/4 463/5/4 469/5/4
f 469/5/4 464/5/4 470/5/4
f 470/5/4 464/5/4 471/5/4
f 465/5/4 459/5/4 472/5/4
f 472/5/4 459/5/4 473/5/4
f 467/5/4 468/5/4 474/5/4
f 469/5/4 470/5/4 474/5/4
f 468/5/4 469/5/4 474/5/4
f 474/5/4 470/5/4 475/5/4
f 475/5/4 470/5/4 476/5/4
f 476/5/4 470/5/4 477/5/4
f 475/5/4 476/5/4 478/5/4
f 478/5/4 476/5/4 479/5/4
f 482/2/5 481/2/5 480/2/5
f 483/2/5 481/2/5 482/2/5
f 484/2/5 481/2/5 483/2/5
f 485/2/5 481/2/5 484/2/5
f 486/2/5 481/2/5 485/2/5
f 487/2/5 481/2/5 486/2/5
f 488/5/5 484/5/5 483/5/5
f 489/1/5 485/1/5 484/1/5
f 489/5/5 484/5/5 488/5/5
f 490/5/5 486/5/5 485/5/5
f 490/1/5 485/1/5 489/1/5
f 491/5/5 486/5/5 490/5/5
f 492/1/5 490/1/5 489/1/5
f 493/1/5 490/1/5 492/1/5
f 494/1/5 490/1/5 493/1/5
f 495/1/5 490/1/5 494/1/5
f 496/1/5 494/1/5 493/1/5
f 497/1/5 494/1/5 496/1/5
f 498/1/5 494/1/5 497/1/5
f 499/1/5 494/1/5 498/1/5
f 500/1/5 498/1/5 497/1/5
f 501/1/5 498/1/5 500/1/5
f 502/1/5 498/1/5 501/1/5
f 503/1/5 498/1/5 502/1/5
f 504/5/5 502/5/5 501/5/5
f 505/5/5 502/5/5 504/5/5
f 510/1/5 507/1/5 506/1/5
f 511/1/5 507/1/5 510/1/5
f 514/1/5 509/1/5 508/1/5
f 515/1/5 509/1/5 514/1/5
f 516/1/5 512/1/5 511/1/5
f 517/1/5 512/1/5 516/1/5
f 518/1/5 514/1/5 513/1/5
f 519/1/5 514/1/5 518/1/5
f 522/5/5 521/5/5 520/5/5
f 523/5/5 521/5/5 522/5/5
f 526/5/5 525/5/5 524/5/5
f 527/5/5 525/5/5 526/5/5
f 532/5/5 529/5/5 528/5/5
f 533/5/5 529/5/5 532/5/5
f 534/5/5 531/5/5 530/5/5
f 535/5/5 531/5/5 534/5/5
f 538/5/5 537/5/5 536/5/5
f 539/5/5 537/5/5 538/5/5
f 542/5/5 541/5/5 540/5/5
f 543/5/5 541/5/5 542/5/5
f 548/4/5 545/4/5 544/4/5
f 549/4/5 545/4/5 548/4/5
f 550/4/5 547/4/5 546/4/5
f 551/4/5 547/4/5 550/4/5
f 556/4/5 553/4/5 552/4/5
f 557/4/5 553/4/5 556/4/5
f 558/4/5 555/4/5 554/4/5
f 559/4/5 555/4/5 558/4/5
f 562/5/5 561/5/5 560/5/5
f 563/5/5 561/5/5 562/5/5
f 568/4/5 565/4/5 564/4/5
f 569/4/5 565/4/5 568/4/5
f 570/4/5 567/4/5 566/4/5
f 571/4/5 567/4/5 570/4/5
f 574/5/5 573/5/5 572/5/5
f 575/5/5 573/5/5 574/5/5
f 576/5/6 577/5/6 580/5/6
f 580/5/6 577/5/6 581/5/6
f 578/5/6 579/5/6 582/5/6
f 582/5/6 579/5/6 583/5/6
f 584/5/6 585/5/6 586/5/6
f 586/5/6 585/5/6 587/5/6
f 588/5/6 589/5/6 590/5/6
f 590/5/6 589/5/6 591/5/6
f 592/2/6 593/2/6 594/2/6
f 594/2/6 593/2/6 595/2/6
f 595/2/6 593/2/6 596/2/6
f 596/2/6 593/2/6 597/2/6
f 592/2/6 594/2/6 598/2/6
f 598/2/6 594/2/6 599/2/6
f 595/2/6 596/2/6 600/2/6
f 600/2/6 596/2/6 601/2/6
f 597/2/6 593/2/6 602/2/6
f 602/2/6 593/2/6 603/2/6
f 604/5/6 605/5/6 608/5/6
f 606/5/6 607/5/6 609/5/6
f 604/5/6 608/5/6 610/5/6
f 610/5/6 608/5/6 611/5/6
f 609/5/6 607/5/6 612/5/6
f 612/5/6 607/5/6 613/5/6
f 604/5/6 610/5/6 614/5/6
f 614/5/6 610/5/6 615/5/6
f 613/5/6 607/5/6 616/5/6
f 616/5/6 607/5/6 617/5/6
f 618/5/6 619/5/6 622/5/6
f 622/5/6 619/5/6 623/5/6
f 620/5/6 621/5/6 624/5/6
f 624/5/6 621/5/6 625/5/6
f 626/5/6 627/5/6 628/5/6
f 628/5/6 627/5/6 629/5/6
f 630/5/6 631/5/6 632/5/6
f 632/5/6 631/5/6 633/5/6
f 634/4/6 635/4/6 638/4/6
f 638/4/6 635/4/6 639/4/6
f 636/4/6 637/4/6 640/4/6
f 640/4/6 637/4/6 641/4/6
f 642/4/6 643/4/6 646/4/6
f 646/4/6 643/4/6 647/4/6
f 644/4/6 645/4/6 648/4/6
f 648/4/6 645/4/6 649/4/6
f 650/5/6 651/5/6 652/5/6
f 652/5/6 651/5/6 653/5/6
f 654/1/6 655/1/6 660/1/6
f 660/1/6 655/1/6 661/1/6
f 656/1/6 657/1/6 662/1/6
f 662/1/6 657/1/6 663/1/6
f 658/4/6 659/4/6 666/4/6
f 666/4/6 659/4/6 667/4/6
f 664/4/6 665/4/6 668/4/6
f 668/4/6 665/4/6 669/4/6
f 670/1/6 671/1/6 673/1/6
f 673/1/6 671/1/6 674/1/6
f 672/1/6 673/1/6 676/1/6
f 676/1/6 673/1/6 677/1/6
f 674/1/6 675/1/6 678/1/6
f 678/1/6 675/1/6 679/1/6
f 680/1/6 681/1/6 684/1/6
f 684/1/6 681/1/6 685/1/6
f 682/1/6 683/1/6 686/1/6
f 686/1/6 683/1/6 687/1/6
f 685/1/6 686/1/6 688/1/6
f 688/1/6 686/1/6 689/1/6
f 689/1/6 686/1/6 690/1/6
f 690/1/6 686/1/6 691/1/6
f 691/1/6 686/1/6 692/1/6
f 689/5/6 690/5/6 693/5/6
f 693/5/6 690/5/6 694/5/6
f 695/1/6 696/1/6 697/1/6
f 697/1/6 696/1/6 698/1/6
f 698/1/6 696/1/6 699/1/6
f 699/1/6 696/1/6 700/1/6
f 698/1/6 699/1/6 702/1/6
f 702/1/6 699/1/6 703/1/6
f 701/1/6 702/1/6 705/1/6
f 703/1/6 704/1/6 705/1/6
f 702/1/6 703/1/6 705/1/6
f 705/1/6 704/1/6 706/1/6
f 707/5/6 708/5/6 711/5/6
f 711/5/6 708/5/6 712/5/6
f 709/5/6 710/5/6 713/5/6
f 713/5/6 710/5/6 714/5/6
f 715/5/6 716/5/6 717/5/6
f 717/5/6 716/5/6 718/5/6
