# MagicaVoxel @ ephtracy

# material
mtllib pen2.mtl
usemtl palette

# normals
vn -1 0 0
vn 1 0 0
vn 0 0 1
vn 0 0 -1
vn 0 -1 0
vn 0 1 0

# texcoords
vt 0.826172 0.5
vt 0.830078 0.5
vt 0.833984 0.5
vt 0.837891 0.5
vt 0.955078 0.5
vt 0.958984 0.5

# verts
v -1.5 0 5
v -1.5 0 -1
v -1.5 1 7
v -1.5 1 5
v -1.5 1 -1
v -1.5 1 -2
v -1.5 1 -7
v -1.5 2 7
v -1.5 2 5
v -1.5 2 -1
v -1.5 2 -2
v -1.5 2 -7
v -1.5 3 5
v -1.5 3 -1
v -0.5 0 7
v -0.5 0 5
v -0.5 0 -1
v -0.5 0 -2
v -0.5 0 -6
v -0.5 1 8
v -0.5 1 7
v -0.5 1 5
v -0.5 1 -1
v -0.5 1 -2
v -0.5 1 -6
v -0.5 1 -7
v -0.5 1 -8
v -0.5 2 8
v -0.5 2 7
v -0.5 2 5
v -0.5 2 -1
v -0.5 2 -2
v -0.5 2 -6
v -0.5 2 -7
v -0.5 2 -8
v -0.5 3 7
v -0.5 3 5
v -0.5 3 -1
v -0.5 3 -2
v -0.5 3 -6
v 0.5 0 7
v 0.5 0 5
v 0.5 0 -1
v 0.5 0 -2
v 0.5 0 -6
v 0.5 1 8
v 0.5 1 7
v 0.5 1 5
v 0.5 1 -1
v 0.5 1 -2
v 0.5 1 -6
v 0.5 1 -7
v 0.5 1 -8
v 0.5 2 8
v 0.5 2 7
v 0.5 2 5
v 0.5 2 -1
v 0.5 2 -2
v 0.5 2 -6
v 0.5 2 -7
v 0.5 2 -8
v 0.5 3 7
v 0.5 3 5
v 0.5 3 -1
v 0.5 3 -2
v 0.5 3 -6
v 1.5 0 5
v 1.5 0 -1
v 1.5 1 7
v 1.5 1 5
v 1.5 1 -1
v 1.5 1 -2
v 1.5 1 -7
v 1.5 2 7
v 1.5 2 5
v 1.5 2 -1
v 1.5 2 -2
v 1.5 2 -7
v 1.5 3 5
v 1.5 3 -1
v -0.5 1 8
v -0.5 2 8
v 0.5 1 8
v 0.5 2 8
v -1.5 1 7
v -1.5 2 7
v -0.5 0 7
v -0.5 1 7
v -0.5 2 7
v -0.5 3 7
v 0.5 0 7
v 0.5 1 7
v 0.5 2 7
v 0.5 3 7
v 1.5 1 7
v 1.5 2 7
v -1.5 0 5
v -1.5 1 5
v -1.5 2 5
v -1.5 3 5
v -0.5 0 5
v -0.5 1 5
v -0.5 2 5
v -0.5 3 5
v 0.5 0 5
v 0.5 1 5
v 0.5 2 5
v 0.5 3 5
v 1.5 0 5
v 1.5 1 5
v 1.5 2 5
v 1.5 3 5
v -1.5 0 -1
v -1.5 1 -1
v -1.5 2 -1
v -1.5 3 -1
v -0.5 0 -1
v -0.5 1 -1
v -0.5 2 -1
v -0.5 3 -1
v 0.5 0 -1
v 0.5 1 -1
v 0.5 2 -1
v 0.5 3 -1
v 1.5 0 -1
v 1.5 1 -1
v 1.5 2 -1
v 1.5 3 -1
v -0.5 0 -6
v -0.5 1 -6
v -0.5 2 -6
v -0.5 3 -6
v 0.5 0 -6
v 0.5 1 -6
v 0.5 2 -6
v 0.5 3 -6
v -1.5 1 -7
v -1.5 2 -7
v -0.5 1 -7
v -0.5 2 -7
v 0.5 1 -7
v 0.5 2 -7
v 1.5 1 -7
v 1.5 2 -7
v -0.5 1 -8
v -0.5 2 -8
v 0.5 1 -8
v 0.5 2 -8
v -0.5 0 7
v 0.5 0 7
v -1.5 0 5
v -0.5 0 5
v 0.5 0 5
v 1.5 0 5
v -1.5 0 -1
v -0.5 0 -1
v 0.5 0 -1
v 1.5 0 -1
v -0.5 0 -2
v 0.5 0 -2
v -0.5 0 -6
v 0.5 0 -6
v -0.5 1 8
v 0.5 1 8
v -1.5 1 7
v -0.5 1 7
v 0.5 1 7
v 1.5 1 7
v -1.5 1 5
v -0.5 1 5
v 0.5 1 5
v 1.5 1 5
v -1.5 1 -1
v -0.5 1 -1
v 0.5 1 -1
v 1.5 1 -1
v -1.5 1 -2
v -0.5 1 -2
v 0.5 1 -2
v 1.5 1 -2
v -0.5 1 -6
v 0.5 1 -6
v -1.5 1 -7
v -0.5 1 -7
v 0.5 1 -7
v 1.5 1 -7
v -0.5 1 -8
v 0.5 1 -8
v -0.5 2 8
v 0.5 2 8
v -1.5 2 7
v -0.5 2 7
v 0.5 2 7
v 1.5 2 7
v -1.5 2 5
v -0.5 2 5
v 0.5 2 5
v 1.5 2 5
v -1.5 2 -1
v -0.5 2 -1
v 0.5 2 -1
v 1.5 2 -1
v -1.5 2 -2
v -0.5 2 -2
v 0.5 2 -2
v 1.5 2 -2
v -0.5 2 -6
v 0.5 2 -6
v -1.5 2 -7
v -0.5 2 -7
v 0.5 2 -7
v 1.5 2 -7
v -0.5 2 -8
v 0.5 2 -8
v -0.5 3 7
v 0.5 3 7
v -1.5 3 5
v -0.5 3 5
v 0.5 3 5
v 1.5 3 5
v -0.5 3 4
v 0.5 3 4
v -0.5 3 1
v 0.5 3 1
v -1.5 3 -1
v -0.5 3 -1
v 0.5 3 -1
v 1.5 3 -1
v -0.5 3 -2
v 0.5 3 -2
v -0.5 3 -6
v 0.5 3 -6

# faces
f 4/4/1 2/4/1 1/4/1
f 5/4/1 2/4/1 4/4/1
f 8/3/1 4/3/1 3/3/1
f 9/4/1 5/4/1 4/4/1
f 9/3/1 4/3/1 8/3/1
f 9/4/1 6/4/1 5/4/1
f 10/4/1 6/4/1 9/4/1
f 11/3/1 7/3/1 6/3/1
f 11/4/1 6/4/1 10/4/1
f 12/3/1 7/3/1 11/3/1
f 13/4/1 10/4/1 9/4/1
f 14/4/1 10/4/1 13/4/1
f 21/3/1 16/3/1 15/3/1
f 22/3/1 16/3/1 21/3/1
f 23/4/1 18/4/1 17/4/1
f 24/3/1 19/3/1 18/3/1
f 24/4/1 18/4/1 23/4/1
f 25/3/1 19/3/1 24/3/1
f 28/6/1 21/6/1 20/6/1
f 29/6/1 21/6/1 28/6/1
f 34/4/1 27/4/1 26/4/1
f 35/4/1 27/4/1 34/4/1
f 36/3/1 30/3/1 29/3/1
f 37/3/1 30/3/1 36/3/1
f 38/4/1 32/4/1 31/4/1
f 39/3/1 33/3/1 32/3/1
f 39/4/1 32/4/1 38/4/1
f 40/3/1 33/3/1 39/3/1
f 41/3/2 42/3/2 47/3/2
f 47/3/2 42/3/2 48/3/2
f 43/4/2 44/4/2 49/4/2
f 44/3/2 45/3/2 50/3/2
f 49/4/2 44/4/2 50/4/2
f 50/3/2 45/3/2 51/3/2
f 46/6/2 47/6/2 54/6/2
f 54/6/2 47/6/2 55/6/2
f 52/4/2 53/4/2 60/4/2
f 60/4/2 53/4/2 61/4/2
f 55/3/2 56/3/2 62/3/2
f 62/3/2 56/3/2 63/3/2
f 57/4/2 58/4/2 64/4/2
f 58/3/2 59/3/2 65/3/2
f 64/4/2 58/4/2 65/4/2
f 65/3/2 59/3/2 66/3/2
f 67/4/2 68/4/2 70/4/2
f 70/4/2 68/4/2 71/4/2
f 69/3/2 70/3/2 74/3/2
f 70/4/2 71/4/2 75/4/2
f 74/3/2 70/3/2 75/3/2
f 71/4/2 72/4/2 75/4/2
f 75/4/2 72/4/2 76/4/2
f 72/3/2 73/3/2 77/3/2
f 76/4/2 72/4/2 77/4/2
f 77/3/2 73/3/2 78/3/2
f 75/4/2 76/4/2 79/4/2
f 79/4/2 76/4/2 80/4/2
f 83/6/3 82/6/3 81/6/3
f 84/6/3 82/6/3 83/6/3
f 88/3/3 86/3/3 85/3/3
f 89/3/3 86/3/3 88/3/3
f 91/3/3 88/3/3 87/3/3
f 92/3/3 88/3/3 91/3/3
f 93/3/3 90/3/3 89/3/3
f 94/3/3 90/3/3 93/3/3
f 95/3/3 93/3/3 92/3/3
f 96/3/3 93/3/3 95/3/3
f 101/4/3 98/4/3 97/4/3
f 102/4/3 98/4/3 101/4/3
f 103/4/3 100/4/3 99/4/3
f 104/4/3 100/4/3 103/4/3
f 109/4/3 106/4/3 105/4/3
f 110/4/3 106/4/3 109/4/3
f 111/4/3 108/4/3 107/4/3
f 112/4/3 108/4/3 111/4/3
f 113/4/4 114/4/4 117/4/4
f 117/4/4 114/4/4 118/4/4
f 115/4/4 116/4/4 119/4/4
f 119/4/4 116/4/4 120/4/4
f 121/4/4 122/4/4 125/4/4
f 125/4/4 122/4/4 126/4/4
f 123/4/4 124/4/4 127/4/4
f 127/4/4 124/4/4 128/4/4
f 129/3/4 130/3/4 133/3/4
f 133/3/4 130/3/4 134/3/4
f 131/3/4 132/3/4 135/3/4
f 135/3/4 132/3/4 136/3/4
f 137/3/4 138/3/4 139/3/4
f 139/3/4 138/3/4 140/3/4
f 141/3/4 142/3/4 143/3/4
f 143/3/4 142/3/4 144/3/4
f 145/4/4 146/4/4 147/4/4
f 147/4/4 146/4/4 148/4/4
f 152/3/5 150/3/5 149/3/5
f 153/3/5 150/3/5 152/3/5
f 155/4/5 152/4/5 151/4/5
f 155/4/5 154/4/5 153/4/5
f 155/4/5 153/4/5 152/4/5
f 156/4/5 154/4/5 155/4/5
f 157/4/5 154/4/5 156/4/5
f 158/4/5 154/4/5 157/4/5
f 159/4/5 157/4/5 156/4/5
f 160/4/5 157/4/5 159/4/5
f 161/3/5 160/3/5 159/3/5
f 162/3/5 160/3/5 161/3/5
f 166/6/5 164/6/5 163/6/5
f 167/6/5 164/6/5 166/6/5
f 169/3/5 166/3/5 165/3/5
f 170/3/5 166/3/5 169/3/5
f 171/3/5 168/3/5 167/3/5
f 172/3/5 168/3/5 171/3/5
f 177/4/5 174/4/5 173/4/5
f 178/4/5 174/4/5 177/4/5
f 179/4/5 176/4/5 175/4/5
f 180/4/5 176/4/5 179/4/5
f 181/3/5 178/3/5 177/3/5
f 182/3/5 180/3/5 179/3/5
f 183/3/5 181/3/5 177/3/5
f 183/3/5 182/3/5 181/3/5
f 184/3/5 182/3/5 183/3/5
f 185/3/5 180/3/5 182/3/5
f 185/3/5 182/3/5 184/3/5
f 186/3/5 180/3/5 185/3/5
f 187/4/5 185/4/5 184/4/5
f 188/4/5 185/4/5 187/4/5
f 189/6/6 190/6/6 192/6/6
f 192/6/6 190/6/6 193/6/6
f 191/3/6 192/3/6 195/3/6
f 195/3/6 192/3/6 196/3/6
f 193/3/6 194/3/6 197/3/6
f 197/3/6 194/3/6 198/3/6
f 199/4/6 200/4/6 203/4/6
f 203/4/6 200/4/6 204/4/6
f 201/4/6 202/4/6 205/4/6
f 205/4/6 202/4/6 206/4/6
f 203/3/6 204/3/6 207/3/6
f 205/3/6 206/3/6 208/3/6
f 203/3/6 207/3/6 209/3/6
f 207/3/6 208/3/6 209/3/6
f 209/3/6 208/3/6 210/3/6
f 208/3/6 206/3/6 211/3/6
f 210/3/6 208/3/6 211/3/6
f 211/3/6 206/3/6 212/3/6
f 210/4/6 211/4/6 213/4/6
f 213/4/6 211/4/6 214/4/6
f 215/3/6 216/3/6 218/3/6
f 218/3/6 216/3/6 219/3/6
f 217/4/6 218/4/6 221/4/6
f 219/4/6 220/4/6 221/4/6
f 218/4/6 219/4/6 221/4/6
f 221/4/6 220/4/6 222/4/6
f 217/4/6 221/4/6 223/4/6
f 221/5/6 222/5/6 223/5/6
f 222/4/6 220/4/6 224/4/6
f 223/5/6 222/5/6 224/5/6
f 217/4/6 223/4/6 225/4/6
f 223/4/6 224/4/6 225/4/6
f 225/4/6 224/4/6 226/4/6
f 224/4/6 220/4/6 227/4/6
f 226/4/6 224/4/6 227/4/6
f 227/4/6 220/4/6 228/4/6
f 226/4/6 227/4/6 229/4/6
f 229/4/6 227/4/6 230/4/6
f 229/3/6 230/3/6 231/3/6
f 231/3/6 230/3/6 232/3/6
