# MagicaVoxel @ ephtracy

# material
mtllib pen2.mtl
usemtl palette

# normals
vn -1 0 0
vn 1 0 0
vn 0 0 1
vn 0 0 -1
vn 0 -1 0
vn 0 1 0

# texcoords
vt 0.826172 0.5
vt 0.830078 0.5
vt 0.955078 0.5

# verts
v -1.5 0 1
v -1.5 0 -5
v -1.5 1 7
v -1.5 1 2
v -1.5 1 1
v -1.5 1 -5
v -1.5 1 -7
v -1.5 2 7
v -1.5 2 2
v -1.5 2 1
v -1.5 2 -5
v -1.5 2 -7
v -1.5 3 1
v -1.5 3 -5
v -0.5 0 6
v -0.5 0 2
v -0.5 0 1
v -0.5 0 -5
v -0.5 0 -7
v -0.5 1 8
v -0.5 1 7
v -0.5 1 6
v -0.5 1 2
v -0.5 1 1
v -0.5 1 -5
v -0.5 1 -7
v -0.5 1 -8
v -0.5 2 8
v -0.5 2 7
v -0.5 2 6
v -0.5 2 2
v -0.5 2 1
v -0.5 2 -5
v -0.5 2 -7
v -0.5 2 -8
v -0.5 3 6
v -0.5 3 2
v -0.5 3 1
v -0.5 3 -5
v -0.5 3 -7
v 0.5 0 6
v 0.5 0 2
v 0.5 0 1
v 0.5 0 -6
v 0.5 0 -7
v 0.5 1 8
v 0.5 1 7
v 0.5 1 6
v 0.5 1 2
v 0.5 1 1
v 0.5 1 -6
v 0.5 1 -7
v 0.5 1 -8
v 0.5 2 8
v 0.5 2 7
v 0.5 2 6
v 0.5 2 2
v 0.5 2 1
v 0.5 2 -5
v 0.5 2 -7
v 0.5 2 -8
v 0.5 3 6
v 0.5 3 2
v 0.5 3 1
v 0.5 3 -5
v 0.5 3 -7
v 1.5 0 1
v 1.5 0 -5
v 1.5 0 -6
v 1.5 1 7
v 1.5 1 2
v 1.5 1 1
v 1.5 1 -6
v 1.5 1 -7
v 1.5 2 7
v 1.5 2 2
v 1.5 2 1
v 1.5 2 -5
v 1.5 2 -7
v 1.5 3 1
v 1.5 3 -5
v -0.5 1 8
v -0.5 2 8
v 0.5 1 8
v 0.5 2 8
v -1.5 1 7
v -1.5 2 7
v -0.5 1 7
v -0.5 2 7
v 0.5 1 7
v 0.5 2 7
v 1.5 1 7
v 1.5 2 7
v -0.5 0 6
v -0.5 1 6
v -0.5 2 6
v -0.5 3 6
v 0.5 0 6
v 0.5 1 6
v 0.5 2 6
v 0.5 3 6
v -1.5 0 1
v -1.5 1 1
v -1.5 2 1
v -1.5 3 1
v -0.5 0 1
v -0.5 1 1
v -0.5 2 1
v -0.5 3 1
v 0.5 0 1
v 0.5 1 1
v 0.5 2 1
v 0.5 3 1
v 1.5 0 1
v 1.5 1 1
v 1.5 2 1
v 1.5 3 1
v -1.5 0 -5
v -1.5 1 -5
v -1.5 2 -5
v -1.5 3 -5
v -0.5 0 -5
v -0.5 1 -5
v -0.5 2 -5
v -0.5 3 -5
v 0.5 2 -5
v 0.5 3 -5
v 1.5 2 -5
v 1.5 3 -5
v 0.5 0 -6
v 0.5 1 -6
v 1.5 0 -6
v 1.5 1 -6
v -1.5 1 -7
v -1.5 2 -7
v -0.5 0 -7
v -0.5 1 -7
v -0.5 2 -7
v -0.5 3 -7
v 0.5 0 -7
v 0.5 1 -7
v 0.5 2 -7
v 0.5 3 -7
v 1.5 1 -7
v 1.5 2 -7
v -0.5 1 -8
v -0.5 2 -8
v 0.5 1 -8
v 0.5 2 -8
v -0.5 0 6
v 0.5 0 6
v -0.5 0 2
v 0.5 0 2
v -1.5 0 1
v -0.5 0 1
v 0.5 0 1
v 1.5 0 1
v -1.5 0 -5
v -0.5 0 -5
v 1.5 0 -5
v 0.5 0 -6
v 1.5 0 -6
v -0.5 0 -7
v 0.5 0 -7
v -0.5 1 8
v 0.5 1 8
v -1.5 1 7
v -0.5 1 7
v 0.5 1 7
v 1.5 1 7
v -0.5 1 6
v 0.5 1 6
v -1.5 1 2
v -0.5 1 2
v 0.5 1 2
v 1.5 1 2
v -1.5 1 1
v -0.5 1 1
v 0.5 1 1
v 1.5 1 1
v -1.5 1 -5
v -0.5 1 -5
v 0.5 1 -6
v 1.5 1 -6
v -1.5 1 -7
v -0.5 1 -7
v 0.5 1 -7
v 1.5 1 -7
v -0.5 1 -8
v 0.5 1 -8
v -0.5 2 8
v 0.5 2 8
v -1.5 2 7
v -0.5 2 7
v 0.5 2 7
v 1.5 2 7
v -0.5 2 6
v 0.5 2 6
v -1.5 2 2
v -0.5 2 2
v 0.5 2 2
v 1.5 2 2
v -1.5 2 1
v -0.5 2 1
v 0.5 2 1
v 1.5 2 1
v -1.5 2 -5
v -0.5 2 -5
v 0.5 2 -5
v 1.5 2 -5
v -1.5 2 -7
v -0.5 2 -7
v 0.5 2 -7
v 1.5 2 -7
v -0.5 2 -8
v 0.5 2 -8
v -0.5 3 6
v 0.5 3 6
v -0.5 3 2
v 0.5 3 2
v -1.5 3 1
v -0.5 3 1
v 0.5 3 1
v 1.5 3 1
v -0.5 3 -1
v 0.5 3 -1
v -0.5 3 -4
v 0.5 3 -4
v -1.5 3 -5
v -0.5 3 -5
v 0.5 3 -5
v 1.5 3 -5
v -0.5 3 -7
v 0.5 3 -7

# faces
f 5/1/1 2/1/1 1/1/1
f 6/1/1 2/1/1 5/1/1
f 8/2/1 4/2/1 3/2/1
f 9/1/1 5/1/1 4/1/1
f 9/2/1 4/2/1 8/2/1
f 9/1/1 6/1/1 5/1/1
f 10/1/1 6/1/1 9/1/1
f 11/2/1 7/2/1 6/2/1
f 11/1/1 6/1/1 10/1/1
f 12/2/1 7/2/1 11/2/1
f 13/1/1 11/1/1 10/1/1
f 14/1/1 11/1/1 13/1/1
f 22/2/1 16/2/1 15/2/1
f 23/1/1 17/1/1 16/1/1
f 23/2/1 16/2/1 22/2/1
f 24/1/1 17/1/1 23/1/1
f 25/2/1 19/2/1 18/2/1
f 26/2/1 19/2/1 25/2/1
f 28/1/1 21/1/1 20/1/1
f 29/1/1 21/1/1 28/1/1
f 34/3/1 27/3/1 26/3/1
f 35/3/1 27/3/1 34/3/1
f 36/2/1 31/2/1 30/2/1
f 37/1/1 32/1/1 31/1/1
f 37/2/1 31/2/1 36/2/1
f 38/1/1 32/1/1 37/1/1
f 39/2/1 34/2/1 33/2/1
f 40/2/1 34/2/1 39/2/1
f 41/2/2 42/2/2 48/2/2
f 42/1/2 43/1/2 49/1/2
f 48/2/2 42/2/2 49/2/2
f 49/1/2 43/1/2 50/1/2
f 44/2/2 45/2/2 51/2/2
f 51/2/2 45/2/2 52/2/2
f 46/1/2 47/1/2 54/1/2
f 54/1/2 47/1/2 55/1/2
f 52/3/2 53/3/2 60/3/2
f 60/3/2 53/3/2 61/3/2
f 56/2/2 57/2/2 62/2/2
f 57/1/2 58/1/2 63/1/2
f 62/2/2 57/2/2 63/2/2
f 63/1/2 58/1/2 64/1/2
f 59/2/2 60/2/2 65/2/2
f 65/2/2 60/2/2 66/2/2
f 67/1/2 68/1/2 72/1/2
f 68/2/2 69/2/2 73/2/2
f 70/2/2 71/2/2 75/2/2
f 71/1/2 72/1/2 76/1/2
f 75/2/2 71/2/2 76/2/2
f 72/1/2 68/1/2 77/1/2
f 76/1/2 72/1/2 77/1/2
f 73/2/2 74/2/2 78/2/2
f 77/1/2 68/1/2 78/1/2
f 68/2/2 73/2/2 78/2/2
f 78/2/2 74/2/2 79/2/2
f 77/1/2 78/1/2 80/1/2
f 80/1/2 78/1/2 81/1/2
f 84/1/3 83/1/3 82/1/3
f 85/1/3 83/1/3 84/1/3
f 88/2/3 87/2/3 86/2/3
f 89/2/3 87/2/3 88/2/3
f 92/2/3 91/2/3 90/2/3
f 93/2/3 91/2/3 92/2/3
f 98/2/3 95/2/3 94/2/3
f 99/2/3 95/2/3 98/2/3
f 100/2/3 97/2/3 96/2/3
f 101/2/3 97/2/3 100/2/3
f 106/1/3 103/1/3 102/1/3
f 107/1/3 103/1/3 106/1/3
f 108/1/3 105/1/3 104/1/3
f 109/1/3 105/1/3 108/1/3
f 114/1/3 111/1/3 110/1/3
f 115/1/3 111/1/3 114/1/3
f 116/1/3 113/1/3 112/1/3
f 117/1/3 113/1/3 116/1/3
f 118/1/4 119/1/4 122/1/4
f 122/1/4 119/1/4 123/1/4
f 120/1/4 121/1/4 124/1/4
f 124/1/4 121/1/4 125/1/4
f 126/1/4 127/1/4 128/1/4
f 128/1/4 127/1/4 129/1/4
f 130/2/4 131/2/4 132/2/4
f 132/2/4 131/2/4 133/2/4
f 134/2/4 135/2/4 137/2/4
f 137/2/4 135/2/4 138/2/4
f 136/2/4 137/2/4 140/2/4
f 140/2/4 137/2/4 141/2/4
f 138/2/4 139/2/4 142/2/4
f 142/2/4 139/2/4 143/2/4
f 141/2/4 142/2/4 144/2/4
f 144/2/4 142/2/4 145/2/4
f 146/3/4 147/3/4 148/3/4
f 148/3/4 147/3/4 149/3/4
f 152/2/5 151/2/5 150/2/5
f 153/2/5 151/2/5 152/2/5
f 155/1/5 153/1/5 152/1/5
f 156/1/5 153/1/5 155/1/5
f 158/1/5 156/1/5 155/1/5
f 158/1/5 157/1/5 156/1/5
f 158/1/5 155/1/5 154/1/5
f 159/1/5 157/1/5 158/1/5
f 160/1/5 157/1/5 159/1/5
f 161/2/5 160/2/5 159/2/5
f 162/2/5 160/2/5 161/2/5
f 163/2/5 161/2/5 159/2/5
f 164/2/5 161/2/5 163/2/5
f 168/1/5 166/1/5 165/1/5
f 169/1/5 166/1/5 168/1/5
f 171/2/5 168/2/5 167/2/5
f 171/2/5 170/2/5 169/2/5
f 171/2/5 169/2/5 168/2/5
f 172/2/5 170/2/5 171/2/5
f 173/2/5 171/2/5 167/2/5
f 174/2/5 171/2/5 173/2/5
f 175/2/5 170/2/5 172/2/5
f 176/2/5 170/2/5 175/2/5
f 177/1/5 174/1/5 173/1/5
f 178/1/5 174/1/5 177/1/5
f 179/1/5 176/1/5 175/1/5
f 180/1/5 176/1/5 179/1/5
f 185/2/5 182/2/5 181/2/5
f 186/2/5 182/2/5 185/2/5
f 187/2/5 184/2/5 183/2/5
f 188/2/5 184/2/5 187/2/5
f 189/3/5 187/3/5 186/3/5
f 190/3/5 187/3/5 189/3/5
f 191/1/6 192/1/6 194/1/6
f 194/1/6 192/1/6 195/1/6
f 193/2/6 194/2/6 197/2/6
f 195/2/6 196/2/6 197/2/6
f 194/2/6 195/2/6 197/2/6
f 197/2/6 196/2/6 198/2/6
f 193/2/6 197/2/6 199/2/6
f 199/2/6 197/2/6 200/2/6
f 198/2/6 196/2/6 201/2/6
f 201/2/6 196/2/6 202/2/6
f 199/1/6 200/1/6 203/1/6
f 203/1/6 200/1/6 204/1/6
f 201/1/6 202/1/6 205/1/6
f 205/1/6 202/1/6 206/1/6
f 207/2/6 208/2/6 211/2/6
f 211/2/6 208/2/6 212/2/6
f 209/2/6 210/2/6 213/2/6
f 213/2/6 210/2/6 214/2/6
f 212/3/6 213/3/6 215/3/6
f 215/3/6 213/3/6 216/3/6
f 217/2/6 218/2/6 219/2/6
f 219/2/6 218/2/6 220/2/6
f 219/1/6 220/1/6 222/1/6
f 222/1/6 220/1/6 223/1/6
f 222/1/6 223/1/6 225/1/6
f 223/1/6 224/1/6 225/1/6
f 221/1/6 222/1/6 225/1/6
f 225/1/6 224/1/6 226/1/6
f 221/1/6 225/1/6 227/1/6
f 225/3/6 226/3/6 227/3/6
f 226/1/6 224/1/6 228/1/6
f 227/3/6 226/3/6 228/3/6
f 221/1/6 227/1/6 229/1/6
f 227/1/6 228/1/6 229/1/6
f 229/1/6 228/1/6 230/1/6
f 228/1/6 224/1/6 231/1/6
f 230/1/6 228/1/6 231/1/6
f 231/1/6 224/1/6 232/1/6
f 230/2/6 231/2/6 233/2/6
f 233/2/6 231/2/6 234/2/6
