# MagicaVoxel @ ephtracy

# material
mtllib poop.mtl
usemtl palette

# normals
vn -1 0 0
vn 1 0 0
vn 0 0 1
vn 0 0 -1
vn 0 -1 0
vn 0 1 0

# texcoords
vt 0.533203 0.5
vt 0.701172 0.5
vt 0.822266 0.5
vt 0.841797 0.5

# verts
v -6 0 6
v -6 0 -6
v -6 3 6
v -6 3 -6
v -4 3 4
v -4 3 -4
v -4 6 4
v -4 6 -4
v -2 6 2
v -2 6 -2
v -2 9 2
v -2 9 -2
v 2 6 2
v 2 6 -2
v 2 9 2
v 2 9 -2
v 4 3 4
v 4 3 -4
v 4 6 4
v 4 6 -4
v 6 0 6
v 6 0 1
v 6 0 -1
v 6 0 -6
v 6 1 5
v 6 1 3
v 6 1 -3
v 6 1 -5
v 6 2 5
v 6 2 3
v 6 2 1
v 6 2 -1
v 6 2 -3
v 6 2 -5
v 6 3 6
v 6 3 -6
v -6 0 6
v -6 3 6
v 6 0 6
v 6 3 6
v -4 3 4
v -4 6 4
v 4 3 4
v 4 6 4
v -2 6 2
v -2 9 2
v 2 6 2
v 2 9 2
v -2 6 -2
v -2 9 -2
v 2 6 -2
v 2 9 -2
v -4 3 -4
v -4 6 -4
v 4 3 -4
v 4 6 -4
v -6 0 -6
v -6 3 -6
v 6 0 -6
v 6 3 -6
v -6 0 6
v 6 0 6
v 5 0 1
v 6 0 1
v 5 0 -1
v 6 0 -1
v -6 0 -6
v 6 0 -6
v -6 3 6
v 6 3 6
v -4 3 4
v 4 3 4
v -4 3 -4
v 4 3 -4
v -6 3 -6
v 6 3 -6
v -4 6 4
v 4 6 4
v -2 6 2
v 2 6 2
v -2 6 -2
v 2 6 -2
v -4 6 -4
v 4 6 -4
v -2 9 2
v 2 9 2
v -2 9 -2
v 2 9 -2

# faces
f 3/2/1 2/2/1 1/2/1
f 4/2/1 2/2/1 3/2/1
f 7/2/1 6/2/1 5/2/1
f 8/2/1 6/2/1 7/2/1
f 11/2/1 10/2/1 9/2/1
f 12/2/1 10/2/1 11/2/1
f 13/2/2 14/2/2 15/2/2
f 15/2/2 14/2/2 16/2/2
f 17/2/2 18/2/2 19/2/2
f 19/2/2 18/2/2 20/2/2
f 21/2/2 22/2/2 25/2/2
f 25/2/2 22/2/2 26/2/2
f 23/2/2 24/2/2 27/2/2
f 27/2/2 24/2/2 28/2/2
f 21/2/2 25/2/2 29/2/2
f 25/3/2 26/3/2 29/3/2
f 26/2/2 22/2/2 30/2/2
f 29/3/2 26/3/2 30/3/2
f 22/4/2 23/4/2 31/4/2
f 30/2/2 22/2/2 31/2/2
f 23/2/2 27/2/2 32/2/2
f 31/4/2 23/4/2 32/4/2
f 27/3/2 28/3/2 33/3/2
f 32/2/2 27/2/2 33/2/2
f 28/2/2 24/2/2 34/2/2
f 33/3/2 28/3/2 34/3/2
f 21/2/2 29/2/2 35/2/2
f 29/2/2 30/2/2 35/2/2
f 33/2/2 34/2/2 35/2/2
f 30/2/2 31/2/2 35/2/2
f 31/2/2 32/2/2 35/2/2
f 32/2/2 33/2/2 35/2/2
f 34/2/2 24/2/2 36/2/2
f 35/2/2 34/2/2 36/2/2
f 39/2/3 38/2/3 37/2/3
f 40/2/3 38/2/3 39/2/3
f 43/2/3 42/2/3 41/2/3
f 44/2/3 42/2/3 43/2/3
f 47/2/3 46/2/3 45/2/3
f 48/2/3 46/2/3 47/2/3
f 49/2/4 50/2/4 51/2/4
f 51/2/4 50/2/4 52/2/4
f 53/2/4 54/2/4 55/2/4
f 55/2/4 54/2/4 56/2/4
f 57/2/4 58/2/4 59/2/4
f 59/2/4 58/2/4 60/2/4
f 63/2/5 62/2/5 61/2/5
f 64/2/5 62/2/5 63/2/5
f 65/2/5 63/2/5 61/2/5
f 65/4/5 64/4/5 63/4/5
f 66/4/5 64/4/5 65/4/5
f 67/2/5 65/2/5 61/2/5
f 67/2/5 66/2/5 65/2/5
f 68/2/5 66/2/5 67/2/5
f 69/2/6 70/2/6 71/2/6
f 71/2/6 70/2/6 72/2/6
f 69/2/6 71/2/6 73/2/6
f 72/2/6 70/2/6 74/2/6
f 69/2/6 73/2/6 75/2/6
f 73/2/6 74/2/6 75/2/6
f 74/2/6 70/2/6 76/2/6
f 75/2/6 74/2/6 76/2/6
f 77/2/6 78/2/6 79/2/6
f 79/2/6 78/2/6 80/2/6
f 77/2/6 79/2/6 81/2/6
f 80/2/6 78/2/6 82/2/6
f 77/2/6 81/2/6 83/2/6
f 81/2/6 82/2/6 83/2/6
f 82/2/6 78/2/6 84/2/6
f 83/2/6 82/2/6 84/2/6
f 85/2/6 86/2/6 87/2/6
f 87/2/6 86/2/6 88/2/6
