# MagicaVoxel @ ephtracy

# material
mtllib poopCorn.mtl
usemtl palette

# normals
vn -1 0 0
vn 1 0 0
vn 0 0 1
vn 0 0 -1
vn 0 -1 0
vn 0 1 0

# texcoords
vt 0.0644531 0.5
vt 0.533203 0.5
vt 0.701172 0.5
vt 0.822266 0.5
vt 0.841797 0.5

# verts
v -6 0 6
v -6 0 -6
v -6 3 6
v -6 3 -6
v -5 3 -1
v -5 3 -2
v -5 4 -1
v -5 4 -2
v -4 3 4
v -4 3 -1
v -4 3 -2
v -4 3 -4
v -4 4 -1
v -4 4 -2
v -4 6 4
v -4 6 -4
v -2 6 2
v -2 6 -2
v -2 9 2
v -2 9 -0
v -2 9 -1
v -2 9 -2
v -2 10 -0
v -2 10 -1
v -1 3 5
v -1 3 4
v -1 4 5
v -1 4 4
v 0 6 -2
v 0 6 -3
v 0 7 -2
v 0 7 -3
v 2 3 -4
v 2 3 -5
v 2 4 -4
v 2 4 -5
v -1 9 -0
v -1 9 -1
v -1 10 -0
v -1 10 -1
v 0 3 5
v 0 3 4
v 0 4 5
v 0 4 4
v 1 6 -2
v 1 6 -3
v 1 7 -2
v 1 7 -3
v 2 6 2
v 2 6 -2
v 2 9 2
v 2 9 -2
v 3 3 -4
v 3 3 -5
v 3 4 -4
v 3 4 -5
v 4 3 4
v 4 3 -4
v 4 5 3
v 4 5 2
v 4 6 4
v 4 6 3
v 4 6 2
v 4 6 -4
v 5 5 3
v 5 5 2
v 5 6 3
v 5 6 2
v 6 0 6
v 6 0 1
v 6 0 -1
v 6 0 -6
v 6 1 5
v 6 1 3
v 6 1 -3
v 6 1 -5
v 6 2 5
v 6 2 3
v 6 2 1
v 6 2 -1
v 6 2 -3
v 6 2 -5
v 6 3 6
v 6 3 -6
v -6 0 6
v -6 3 6
v 6 0 6
v 6 3 6
v -1 3 5
v -1 4 5
v 0 3 5
v 0 4 5
v -4 3 4
v -4 6 4
v -1 3 4
v -1 4 4
v 0 3 4
v 0 4 4
v 4 3 4
v 4 6 4
v 4 5 3
v 4 6 3
v 5 5 3
v 5 6 3
v -2 6 2
v -2 9 2
v 2 6 2
v 2 9 2
v -2 9 -0
v -2 10 -0
v -1 9 -0
v -1 10 -0
v -5 3 -1
v -5 4 -1
v -4 3 -1
v -4 4 -1
v 4 5 2
v 4 6 2
v 5 5 2
v 5 6 2
v -2 9 -1
v -2 10 -1
v -1 9 -1
v -1 10 -1
v -5 3 -2
v -5 4 -2
v -4 3 -2
v -4 4 -2
v -2 6 -2
v -2 9 -2
v 0 6 -2
v 0 7 -2
v 1 6 -2
v 1 7 -2
v 2 6 -2
v 2 9 -2
v 0 6 -3
v 0 7 -3
v 1 6 -3
v 1 7 -3
v -4 3 -4
v -4 6 -4
v 2 3 -4
v 2 4 -4
v 3 3 -4
v 3 4 -4
v 4 3 -4
v 4 6 -4
v 2 3 -5
v 2 4 -5
v 3 3 -5
v 3 4 -5
v -6 0 -6
v -6 3 -6
v 6 0 -6
v 6 3 -6
v -6 0 6
v 6 0 6
v 5 0 1
v 6 0 1
v 5 0 -1
v 6 0 -1
v -6 0 -6
v 6 0 -6
v 4 5 3
v 5 5 3
v 4 5 2
v 5 5 2
v -6 3 6
v 6 3 6
v -1 3 5
v 0 3 5
v -4 3 4
v -1 3 4
v 0 3 4
v 4 3 4
v -5 3 -1
v -4 3 -1
v -5 3 -2
v -4 3 -2
v -4 3 -4
v 2 3 -4
v 3 3 -4
v 4 3 -4
v 2 3 -5
v 3 3 -5
v -6 3 -6
v 6 3 -6
v -1 4 5
v 0 4 5
v -1 4 4
v 0 4 4
v -5 4 -1
v -4 4 -1
v -5 4 -2
v -4 4 -2
v 2 4 -4
v 3 4 -4
v 2 4 -5
v 3 4 -5
v -4 6 4
v 4 6 4
v 4 6 3
v 5 6 3
v -2 6 2
v 2 6 2
v 4 6 2
v 5 6 2
v -2 6 -2
v 0 6 -2
v 1 6 -2
v 2 6 -2
v 0 6 -3
v 1 6 -3
v -4 6 -4
v 4 6 -4
v 0 7 -2
v 1 7 -2
v 0 7 -3
v 1 7 -3
v -2 9 2
v 2 9 2
v -2 9 -0
v -1 9 -0
v -2 9 -1
v -1 9 -1
v -2 9 -2
v 2 9 -2
v -2 10 -0
v -1 10 -0
v -2 10 -1
v -1 10 -1

# faces
f 3/3/1 2/3/1 1/3/1
f 4/3/1 2/3/1 3/3/1
f 7/1/1 6/1/1 5/1/1
f 8/1/1 6/1/1 7/1/1
f 13/3/1 10/3/1 9/3/1
f 14/3/1 12/3/1 11/3/1
f 15/3/1 13/3/1 9/3/1
f 15/3/1 14/3/1 13/3/1
f 16/3/1 12/3/1 14/3/1
f 16/3/1 14/3/1 15/3/1
f 19/3/1 18/3/1 17/3/1
f 20/3/1 18/3/1 19/3/1
f 21/3/1 18/3/1 20/3/1
f 22/3/1 18/3/1 21/3/1
f 23/1/1 21/1/1 20/1/1
f 24/1/1 21/1/1 23/1/1
f 27/1/1 26/1/1 25/1/1
f 28/1/1 26/1/1 27/1/1
f 31/1/1 30/1/1 29/1/1
f 32/1/1 30/1/1 31/1/1
f 35/1/1 34/1/1 33/1/1
f 36/1/1 34/1/1 35/1/1
f 37/1/2 38/1/2 39/1/2
f 39/1/2 38/1/2 40/1/2
f 41/1/2 42/1/2 43/1/2
f 43/1/2 42/1/2 44/1/2
f 45/1/2 46/1/2 47/1/2
f 47/1/2 46/1/2 48/1/2
f 49/3/2 50/3/2 51/3/2
f 51/3/2 50/3/2 52/3/2
f 53/1/2 54/1/2 55/1/2
f 55/1/2 54/1/2 56/1/2
f 57/3/2 58/3/2 59/3/2
f 59/3/2 58/3/2 60/3/2
f 57/3/2 59/3/2 61/3/2
f 61/3/2 59/3/2 62/3/2
f 60/3/2 58/3/2 63/3/2
f 63/3/2 58/3/2 64/3/2
f 65/1/2 66/1/2 67/1/2
f 67/1/2 66/1/2 68/1/2
f 69/3/2 70/3/2 73/3/2
f 73/3/2 70/3/2 74/3/2
f 71/3/2 72/3/2 75/3/2
f 75/3/2 72/3/2 76/3/2
f 69/3/2 73/3/2 77/3/2
f 73/4/2 74/4/2 77/4/2
f 74/3/2 70/3/2 78/3/2
f 77/4/2 74/4/2 78/4/2
f 70/5/2 71/5/2 79/5/2
f 78/3/2 70/3/2 79/3/2
f 71/3/2 75/3/2 80/3/2
f 79/5/2 71/5/2 80/5/2
f 75/4/2 76/4/2 81/4/2
f 80/3/2 75/3/2 81/3/2
f 76/3/2 72/3/2 82/3/2
f 81/4/2 76/4/2 82/4/2
f 69/3/2 77/3/2 83/3/2
f 77/3/2 78/3/2 83/3/2
f 81/3/2 82/3/2 83/3/2
f 78/3/2 79/3/2 83/3/2
f 79/3/2 80/3/2 83/3/2
f 80/3/2 81/3/2 83/3/2
f 82/3/2 72/3/2 84/3/2
f 83/3/2 82/3/2 84/3/2
f 87/3/3 86/3/3 85/3/3
f 88/3/3 86/3/3 87/3/3
f 91/1/3 90/1/3 89/1/3
f 92/1/3 90/1/3 91/1/3
f 95/3/3 94/3/3 93/3/3
f 96/3/3 94/3/3 95/3/3
f 98/3/3 94/3/3 96/3/3
f 99/3/3 98/3/3 97/3/3
f 100/3/3 94/3/3 98/3/3
f 100/3/3 98/3/3 99/3/3
f 103/1/3 102/1/3 101/1/3
f 104/1/3 102/1/3 103/1/3
f 107/3/3 106/3/3 105/3/3
f 108/3/3 106/3/3 107/3/3
f 111/1/3 110/1/3 109/1/3
f 112/1/3 110/1/3 111/1/3
f 115/1/3 114/1/3 113/1/3
f 116/1/3 114/1/3 115/1/3
f 117/1/4 118/1/4 119/1/4
f 119/1/4 118/1/4 120/1/4
f 121/1/4 122/1/4 123/1/4
f 123/1/4 122/1/4 124/1/4
f 125/1/4 126/1/4 127/1/4
f 127/1/4 126/1/4 128/1/4
f 129/3/4 130/3/4 131/3/4
f 131/3/4 130/3/4 132/3/4
f 132/3/4 130/3/4 134/3/4
f 133/3/4 134/3/4 135/3/4
f 134/3/4 130/3/4 136/3/4
f 135/3/4 134/3/4 136/3/4
f 137/1/4 138/1/4 139/1/4
f 139/1/4 138/1/4 140/1/4
f 141/3/4 142/3/4 143/3/4
f 143/3/4 142/3/4 144/3/4
f 144/3/4 142/3/4 146/3/4
f 145/3/4 146/3/4 147/3/4
f 146/3/4 142/3/4 148/3/4
f 147/3/4 146/3/4 148/3/4
f 149/1/4 150/1/4 151/1/4
f 151/1/4 150/1/4 152/1/4
f 153/3/4 154/3/4 155/3/4
f 155/3/4 154/3/4 156/3/4
f 159/3/5 158/3/5 157/3/5
f 160/3/5 158/3/5 159/3/5
f 161/3/5 159/3/5 157/3/5
f 161/5/5 160/5/5 159/5/5
f 162/5/5 160/5/5 161/5/5
f 163/3/5 161/3/5 157/3/5
f 163/3/5 162/3/5 161/3/5
f 164/3/5 162/3/5 163/3/5
f 167/1/5 166/1/5 165/1/5
f 168/1/5 166/1/5 167/1/5
f 169/3/6 170/3/6 171/3/6
f 171/3/6 170/3/6 172/3/6
f 169/3/6 171/3/6 173/3/6
f 173/3/6 171/3/6 174/3/6
f 172/3/6 170/3/6 175/3/6
f 175/3/6 170/3/6 176/3/6
f 169/3/6 173/3/6 177/3/6
f 177/3/6 173/3/6 178/3/6
f 169/3/6 177/3/6 179/3/6
f 179/3/6 180/3/6 181/3/6
f 176/3/6 170/3/6 184/3/6
f 181/3/6 182/3/6 185/3/6
f 183/3/6 184/3/6 186/3/6
f 181/3/6 185/3/6 187/3/6
f 185/3/6 186/3/6 187/3/6
f 179/3/6 181/3/6 187/3/6
f 169/3/6 179/3/6 187/3/6
f 186/3/6 184/3/6 188/3/6
f 187/3/6 186/3/6 188/3/6
f 184/3/6 170/3/6 188/3/6
f 189/1/6 190/1/6 191/1/6
f 191/1/6 190/1/6 192/1/6
f 193/1/6 194/1/6 195/1/6
f 195/1/6 194/1/6 196/1/6
f 197/1/6 198/1/6 199/1/6
f 199/1/6 198/1/6 200/1/6
f 201/3/6 202/3/6 203/3/6
f 201/3/6 203/3/6 205/3/6
f 205/3/6 203/3/6 206/3/6
f 203/1/6 204/1/6 207/1/6
f 206/3/6 203/3/6 207/3/6
f 207/1/6 204/1/6 208/1/6
f 201/3/6 205/3/6 209/3/6
f 206/3/6 207/3/6 212/3/6
f 209/3/6 210/3/6 213/3/6
f 211/3/6 212/3/6 214/3/6
f 209/3/6 213/3/6 215/3/6
f 213/3/6 214/3/6 215/3/6
f 201/3/6 209/3/6 215/3/6
f 214/3/6 212/3/6 216/3/6
f 215/3/6 214/3/6 216/3/6
f 212/3/6 207/3/6 216/3/6
f 217/1/6 218/1/6 219/1/6
f 219/1/6 218/1/6 220/1/6
f 221/3/6 222/3/6 223/3/6
f 223/3/6 222/3/6 224/3/6
f 224/3/6 222/3/6 226/3/6
f 225/3/6 226/3/6 227/3/6
f 226/3/6 222/3/6 228/3/6
f 227/3/6 226/3/6 228/3/6
f 229/1/6 230/1/6 231/1/6
f 231/1/6 230/1/6 232/1/6
