# MagicaVoxel @ ephtracy

# material
mtllib rose.mtl
usemtl palette

# normals
vn -1 0 0
vn 1 0 0
vn 0 0 1
vn 0 0 -1
vn 0 -1 0
vn 0 1 0

# texcoords
vt 0.0292969 0.5
vt 0.908203 0.5
vt 0.916016 0.5
vt 0.939453 0.5
vt 0.947266 0.5
vt 0.951172 0.5
vt 0.974609 0.5
vt 0.986328 0.5
vt 0.990234 0.5
vt 0.994141 0.5

# verts
v -7 6 1.5
v -7 6 -0.5
v -7 7 1.5
v -7 7 -0.5
v -6 6 3.5
v -6 6 2.5
v -6 7 3.5
v -6 7 2.5
v -6 7 1.5
v -6 7 -0.5
v -6 7 -3.5
v -6 8 3.5
v -6 8 2.5
v -6 11 4.5
v -6 11 3.5
v -6 14 4.5
v -6 14 3.5
v -6 14 -2.5
v -6 14 -3.5
v -6 15 3.5
v -6 15 -2.5
v -5 6 -3.5
v -5 6 -4.5
v -5 7 -3.5
v -5 8 4.5
v -5 8 3.5
v -5 9 4.5
v -5 9 3.5
v -5 10 4.5
v -5 10 3.5
v -5 11 5.5
v -5 11 4.5
v -5 11 3.5
v -5 14 5.5
v -5 14 4.5
v -5 14 3.5
v -5 14 -2.5
v -5 14 -3.5
v -5 14 -4.5
v -5 15 4.5
v -5 15 3.5
v -5 15 -2.5
v -5 15 -3.5
v -5 16 3.5
v -5 16 -2.5
v -4 3 1.5
v -4 3 -0.5
v -4 5 1.5
v -4 5 -0.5
v -4 5 -3.5
v -4 5 -4.5
v -4 6 1.5
v -4 6 -0.5
v -4 6 -3.5
v -4 6 -4.5
v -4 14 5.5
v -4 14 4.5
v -4 14 -3.5
v -4 14 -4.5
v -4 15 5.5
v -4 15 4.5
v -4 15 3.5
v -4 15 -2.5
v -4 15 -3.5
v -4 15 -4.5
v -4 16 4.5
v -4 16 3.5
v -4 16 -2.5
v -4 16 -3.5
v -3 0 2.5
v -3 0 -0.5
v -3 1 2.5
v -3 1 1.5
v -3 1 -0.5
v -3 2 2.5
v -3 2 1.5
v -3 2 -0.5
v -3 2 -1.5
v -3 3 2.5
v -3 3 1.5
v -3 3 -0.5
v -3 3 -1.5
v -3 4 -4.5
v -3 4 -5.5
v -3 5 1.5
v -3 5 -0.5
v -3 5 -4.5
v -3 5 -5.5
v -3 6 2.5
v -3 6 1.5
v -3 6 -0.5
v -3 6 -1.5
v -3 7 1.5
v -3 7 -0.5
v -2 6 2.5
v -2 6 1.5
v -2 6 -0.5
v -2 6 -1.5
v -2 7 2.5
v -2 7 1.5
v -2 7 -0.5
v -2 7 -1.5
v -2 8 1.5
v -2 8 -0.5
v 1 0 2.5
v 1 0 -0.5
v 1 1 2.5
v 1 1 1.5
v 1 1 -0.5
v 1 2 1.5
v 1 2 -0.5
v 1 13 5.5
v 1 13 4.5
v 1 14 5.5
v 1 14 4.5
v 2 4 -4.5
v 2 4 -5.5
v 2 5 -4.5
v 2 5 -5.5
v 2 12 5.5
v 2 12 4.5
v 2 13 5.5
v 2 13 4.5
v 4 5 -3.5
v 4 5 -4.5
v 4 6 -3.5
v 4 6 -4.5
v 4 11 5.5
v 4 11 4.5
v 4 12 5.5
v 4 12 4.5
v 5 6 4.5
v 5 6 3.5
v 5 7 4.5
v 5 7 3.5
v 5 7 2.5
v 5 7 1.5
v 5 7 -3.5
v 5 8 3.5
v 5 8 2.5
v 5 8 1.5
v 5 8 -3.5
v 6 6 0.5
v 6 6 -2.5
v 6 7 0.5
v 6 7 -2.5
v -6 6 1.5
v -6 6 -0.5
v -6 7 1.5
v -6 7 -0.5
v -5 6 3.5
v -5 6 2.5
v -5 7 3.5
v -5 7 2.5
v -5 7 -3.5
v -5 8 2.5
v -5 8 -3.5
v -4 11 5.5
v -4 11 4.5
v -4 12 5.5
v -4 12 4.5
v -2 12 5.5
v -2 12 4.5
v -2 13 5.5
v -2 13 4.5
v -1 0 2.5
v -1 0 -0.5
v -1 1 2.5
v -1 1 1.5
v -1 1 -0.5
v -1 2 1.5
v -1 2 -0.5
v 0 13 5.5
v 0 13 4.5
v 0 14 5.5
v 0 14 4.5
v 1 4 -4.5
v 1 4 -5.5
v 1 5 -4.5
v 1 5 -5.5
v 2 6 2.5
v 2 6 1.5
v 2 6 -0.5
v 2 6 -1.5
v 2 7 2.5
v 2 7 1.5
v 2 7 -0.5
v 2 7 -1.5
v 2 8 1.5
v 2 8 -0.5
v 3 0 2.5
v 3 0 -0.5
v 3 1 2.5
v 3 1 1.5
v 3 1 -0.5
v 3 2 2.5
v 3 2 1.5
v 3 2 -0.5
v 3 2 -1.5
v 3 3 2.5
v 3 3 1.5
v 3 3 -0.5
v 3 3 -1.5
v 3 4 -4.5
v 3 4 -5.5
v 3 5 1.5
v 3 5 -0.5
v 3 5 -3.5
v 3 5 -4.5
v 3 5 -5.5
v 3 6 2.5
v 3 6 1.5
v 3 6 -0.5
v 3 6 -1.5
v 3 6 -3.5
v 3 6 -4.5
v 3 7 1.5
v 3 7 -0.5
v 4 3 1.5
v 4 3 -0.5
v 4 5 1.5
v 4 5 -0.5
v 4 6 1.5
v 4 6 -0.5
v 4 14 5.5
v 4 14 4.5
v 4 14 -3.5
v 4 14 -4.5
v 4 15 5.5
v 4 15 4.5
v 4 15 3.5
v 4 15 -2.5
v 4 15 -3.5
v 4 15 -4.5
v 4 16 4.5
v 4 16 3.5
v 4 16 -2.5
v 4 16 -3.5
v 5 5 -3.5
v 5 5 -4.5
v 5 7 -3.5
v 5 8 4.5
v 5 8 3.5
v 5 9 4.5
v 5 9 3.5
v 5 10 4.5
v 5 10 3.5
v 5 11 5.5
v 5 11 4.5
v 5 11 3.5
v 5 14 5.5
v 5 14 4.5
v 5 14 3.5
v 5 14 -2.5
v 5 14 -3.5
v 5 14 -4.5
v 5 15 4.5
v 5 15 3.5
v 5 15 -2.5
v 5 15 -3.5
v 5 16 3.5
v 5 16 -2.5
v 6 6 4.5
v 6 6 3.5
v 6 7 4.5
v 6 7 3.5
v 6 7 2.5
v 6 7 1.5
v 6 7 0.5
v 6 7 -2.5
v 6 7 -3.5
v 6 8 2.5
v 6 8 1.5
v 6 11 4.5
v 6 11 3.5
v 6 14 4.5
v 6 14 3.5
v 6 14 -2.5
v 6 14 -3.5
v 6 15 3.5
v 6 15 -2.5
v 7 6 0.5
v 7 6 -2.5
v 7 7 0.5
v 7 7 -2.5
v -5 11 5.5
v -5 14 5.5
v -4 11 5.5
v -4 12 5.5
v -4 14 5.5
v -4 15 5.5
v -2 12 5.5
v -2 13 5.5
v 0 13 5.5
v 0 14 5.5
v 1 13 5.5
v 1 14 5.5
v 2 12 5.5
v 2 13 5.5
v 4 11 5.5
v 4 12 5.5
v 4 14 5.5
v 4 15 5.5
v 5 11 5.5
v 5 14 5.5
v -6 11 4.5
v -6 14 4.5
v -5 8 4.5
v -5 9 4.5
v -5 10 4.5
v -5 11 4.5
v -5 14 4.5
v -5 15 4.5
v -4 11 4.5
v -4 12 4.5
v -4 14 4.5
v -4 15 4.5
v -4 16 4.5
v -3 9 4.5
v -3 10 4.5
v -3 12 4.5
v -2 10 4.5
v -2 12 4.5
v -2 13 4.5
v 0 13 4.5
v 0 14 4.5
v 1 13 4.5
v 1 14 4.5
v 2 10 4.5
v 2 12 4.5
v 2 13 4.5
v 3 9 4.5
v 3 10 4.5
v 3 12 4.5
v 4 11 4.5
v 4 12 4.5
v 4 14 4.5
v 4 15 4.5
v 4 16 4.5
v 5 6 4.5
v 5 7 4.5
v 5 8 4.5
v 5 9 4.5
v 5 10 4.5
v 5 11 4.5
v 5 14 4.5
v 5 15 4.5
v 6 6 4.5
v 6 7 4.5
v 6 11 4.5
v 6 14 4.5
v -6 6 3.5
v -6 7 3.5
v -6 8 3.5
v -6 11 3.5
v -6 14 3.5
v -6 15 3.5
v -5 6 3.5
v -5 7 3.5
v -5 8 3.5
v -5 9 3.5
v -5 10 3.5
v -5 11 3.5
v -5 14 3.5
v -5 15 3.5
v -5 16 3.5
v -4 15 3.5
v -4 16 3.5
v 4 15 3.5
v 4 16 3.5
v 5 7 3.5
v 5 8 3.5
v 5 9 3.5
v 5 10 3.5
v 5 11 3.5
v 5 14 3.5
v 5 15 3.5
v 5 16 3.5
v 6 7 3.5
v 6 11 3.5
v 6 14 3.5
v 6 15 3.5
v -6 7 2.5
v -6 8 2.5
v -5 7 2.5
v -5 8 2.5
v -3 0 2.5
v -3 1 2.5
v -3 2 2.5
v -3 3 2.5
v -3 6 2.5
v -2 6 2.5
v -2 7 2.5
v -1 0 2.5
v -1 1 2.5
v 1 0 2.5
v 1 1 2.5
v 2 6 2.5
v 2 7 2.5
v 3 0 2.5
v 3 1 2.5
v 3 2 2.5
v 3 3 2.5
v 3 6 2.5
v -7 6 1.5
v -7 7 1.5
v -6 6 1.5
v -6 7 1.5
v -4 3 1.5
v -4 5 1.5
v -4 6 1.5
v -3 1 1.5
v -3 2 1.5
v -3 3 1.5
v -3 5 1.5
v -3 6 1.5
v -3 7 1.5
v -2 6 1.5
v -2 7 1.5
v -2 8 1.5
v -1 1 1.5
v -1 2 1.5
v 1 1 1.5
v 1 2 1.5
v 2 6 1.5
v 2 7 1.5
v 2 8 1.5
v 3 1 1.5
v 3 2 1.5
v 3 3 1.5
v 3 5 1.5
v 3 6 1.5
v 3 7 1.5
v 4 3 1.5
v 4 5 1.5
v 4 6 1.5
v 5 7 1.5
v 5 8 1.5
v 6 7 1.5
v 6 8 1.5
v 6 6 0.5
v 6 7 0.5
v 7 6 0.5
v 7 7 0.5
v -5 6 -3.5
v -5 7 -3.5
v -5 8 -3.5
v -4 5 -3.5
v -4 6 -3.5
v 3 5 -3.5
v 3 6 -3.5
v 4 5 -3.5
v 4 6 -3.5
v 5 5 -3.5
v 5 7 -3.5
v 5 8 -3.5
v -3 4 -4.5
v -3 5 -4.5
v 1 4 -4.5
v 1 5 -4.5
v 2 4 -4.5
v 2 5 -4.5
v 3 4 -4.5
v 3 5 -4.5
v 5 6 3.5
v 5 7 3.5
v 6 6 3.5
v 6 7 3.5
v -6 6 2.5
v -6 7 2.5
v -5 6 2.5
v -5 7 2.5
v 5 7 2.5
v 5 8 2.5
v 6 7 2.5
v 6 8 2.5
v -7 6 -0.5
v -7 7 -0.5
v -6 6 -0.5
v -6 7 -0.5
v -4 3 -0.5
v -4 5 -0.5
v -4 6 -0.5
v -3 0 -0.5
v -3 1 -0.5
v -3 2 -0.5
v -3 3 -0.5
v -3 5 -0.5
v -3 6 -0.5
v -3 7 -0.5
v -2 6 -0.5
v -2 7 -0.5
v -2 8 -0.5
v -1 0 -0.5
v -1 1 -0.5
v -1 2 -0.5
v 1 0 -0.5
v 1 1 -0.5
v 1 2 -0.5
v 2 6 -0.5
v 2 7 -0.5
v 2 8 -0.5
v 3 0 -0.5
v 3 1 -0.5
v 3 2 -0.5
v 3 3 -0.5
v 3 5 -0.5
v 3 6 -0.5
v 3 7 -0.5
v 4 3 -0.5
v 4 5 -0.5
v 4 6 -0.5
v -3 2 -1.5
v -3 3 -1.5
v -3 6 -1.5
v -2 6 -1.5
v -2 7 -1.5
v 2 6 -1.5
v 2 7 -1.5
v 3 2 -1.5
v 3 3 -1.5
v 3 6 -1.5
v -6 14 -2.5
v -6 15 -2.5
v -5 14 -2.5
v -5 15 -2.5
v -5 16 -2.5
v -4 15 -2.5
v -4 16 -2.5
v 4 15 -2.5
v 4 16 -2.5
v 5 14 -2.5
v 5 15 -2.5
v 5 16 -2.5
v 6 6 -2.5
v 6 7 -2.5
v 6 14 -2.5
v 6 15 -2.5
v 7 6 -2.5
v 7 7 -2.5
v -6 7 -3.5
v -6 14 -3.5
v -5 7 -3.5
v -5 14 -3.5
v -5 15 -3.5
v -4 14 -3.5
v -4 15 -3.5
v -4 16 -3.5
v 4 14 -3.5
v 4 15 -3.5
v 4 16 -3.5
v 5 7 -3.5
v 5 14 -3.5
v 5 15 -3.5
v 6 7 -3.5
v 6 14 -3.5
v -5 6 -4.5
v -5 14 -4.5
v -4 5 -4.5
v -4 6 -4.5
v -4 14 -4.5
v -4 15 -4.5
v -3 5 -4.5
v 1 5 -4.5
v 2 5 -4.5
v 3 5 -4.5
v 3 6 -4.5
v 4 5 -4.5
v 4 6 -4.5
v 4 14 -4.5
v 4 15 -4.5
v 5 5 -4.5
v 5 14 -4.5
v -3 4 -5.5
v -3 5 -5.5
v 1 4 -5.5
v 1 5 -5.5
v 2 4 -5.5
v 2 5 -5.5
v 3 4 -5.5
v 3 5 -5.5
v -3 0 2.5
v -1 0 2.5
v 1 0 2.5
v 3 0 2.5
v -3 0 -0.5
v -1 0 -0.5
v 1 0 -0.5
v 3 0 -0.5
v -3 2 2.5
v 3 2 2.5
v -3 2 1.5
v -1 2 1.5
v 1 2 1.5
v 3 2 1.5
v -3 2 -0.5
v -1 2 -0.5
v 1 2 -0.5
v 3 2 -0.5
v -3 2 -1.5
v 3 2 -1.5
v -4 3 1.5
v -3 3 1.5
v 3 3 1.5
v 4 3 1.5
v -4 3 -0.5
v -3 3 -0.5
v 3 3 -0.5
v 4 3 -0.5
v -3 4 -4.5
v 1 4 -4.5
v 2 4 -4.5
v 3 4 -4.5
v -3 4 -5.5
v 1 4 -5.5
v 2 4 -5.5
v 3 4 -5.5
v -4 5 -3.5
v 3 5 -3.5
v 4 5 -3.5
v 5 5 -3.5
v -4 5 -4.5
v -3 5 -4.5
v 1 5 -4.5
v 2 5 -4.5
v 3 5 -4.5
v 4 5 -4.5
v 5 5 -4.5
v 5 6 4.5
v 6 6 4.5
v -6 6 3.5
v -5 6 3.5
v 5 6 3.5
v 6 6 3.5
v -6 6 2.5
v -5 6 2.5
v -7 6 1.5
v -6 6 1.5
v 6 6 0.5
v 7 6 0.5
v -7 6 -0.5
v -6 6 -0.5
v 6 6 -2.5
v 7 6 -2.5
v -5 6 -3.5
v -4 6 -3.5
v 3 6 -3.5
v 4 6 -3.5
v -5 6 -4.5
v -4 6 -4.5
v 3 6 -4.5
v 4 6 -4.5
v 5 7 3.5
v 6 7 3.5
v -6 7 2.5
v -5 7 2.5
v 5 7 2.5
v 6 7 2.5
v -6 7 1.5
v 5 7 1.5
v 6 7 1.5
v 6 7 0.5
v -6 7 -0.5
v 6 7 -2.5
v -6 7 -3.5
v -5 7 -3.5
v 5 7 -3.5
v 6 7 -3.5
v -5 8 4.5
v 5 8 4.5
v -6 8 3.5
v -5 8 3.5
v 5 8 3.5
v -6 8 2.5
v -5 8 2.5
v 5 8 2.5
v 6 8 2.5
v -2 8 1.5
v 2 8 1.5
v 5 8 1.5
v 6 8 1.5
v -2 8 -0.5
v 2 8 -0.5
v -5 8 -3.5
v 5 8 -3.5
v -5 11 5.5
v -4 11 5.5
v 4 11 5.5
v 5 11 5.5
v -6 11 4.5
v -5 11 4.5
v -4 11 4.5
v 4 11 4.5
v 5 11 4.5
v 6 11 4.5
v -6 11 3.5
v -5 11 3.5
v 5 11 3.5
v 6 11 3.5
v -4 12 5.5
v -2 12 5.5
v 2 12 5.5
v 4 12 5.5
v -4 12 4.5
v -3 12 4.5
v -2 12 4.5
v 2 12 4.5
v 3 12 4.5
v 4 12 4.5
v -2 13 5.5
v 0 13 5.5
v 1 13 5.5
v 2 13 5.5
v -2 13 4.5
v 0 13 4.5
v 1 13 4.5
v 2 13 4.5
v 0 14 5.5
v 1 14 5.5
v 0 14 4.5
v 1 14 4.5
v -3 1 2.5
v -1 1 2.5
v 1 1 2.5
v 3 1 2.5
v -3 1 1.5
v -1 1 1.5
v 1 1 1.5
v 3 1 1.5
v -3 5 -4.5
v 1 5 -4.5
v 2 5 -4.5
v 3 5 -4.5
v -3 5 -5.5
v 1 5 -5.5
v 2 5 -5.5
v 3 5 -5.5
v -3 6 2.5
v -2 6 2.5
v 2 6 2.5
v 3 6 2.5
v -4 6 1.5
v -3 6 1.5
v -2 6 1.5
v 2 6 1.5
v 3 6 1.5
v 4 6 1.5
v -4 6 -0.5
v -3 6 -0.5
v -2 6 -0.5
v 2 6 -0.5
v 3 6 -0.5
v 4 6 -0.5
v -3 6 -1.5
v -2 6 -1.5
v 2 6 -1.5
v 3 6 -1.5
v 5 7 4.5
v 6 7 4.5
v -6 7 3.5
v -5 7 3.5
v 5 7 3.5
v 6 7 3.5
v -6 7 2.5
v -5 7 2.5
v -2 7 2.5
v 2 7 2.5
v -7 7 1.5
v -6 7 1.5
v -3 7 1.5
v -2 7 1.5
v 2 7 1.5
v 3 7 1.5
v 6 7 0.5
v 7 7 0.5
v -7 7 -0.5
v -6 7 -0.5
v -3 7 -0.5
v -2 7 -0.5
v 2 7 -0.5
v 3 7 -0.5
v -2 7 -1.5
v 2 7 -1.5
v 6 7 -2.5
v 7 7 -2.5
v -5 14 5.5
v -4 14 5.5
v 4 14 5.5
v 5 14 5.5
v -6 14 4.5
v -5 14 4.5
v -4 14 4.5
v 4 14 4.5
v 5 14 4.5
v 6 14 4.5
v -6 14 3.5
v -5 14 3.5
v 5 14 3.5
v 6 14 3.5
v -6 14 -2.5
v -5 14 -2.5
v 5 14 -2.5
v 6 14 -2.5
v -6 14 -3.5
v -5 14 -3.5
v -4 14 -3.5
v 4 14 -3.5
v 5 14 -3.5
v 6 14 -3.5
v -5 14 -4.5
v -4 14 -4.5
v 4 14 -4.5
v 5 14 -4.5
v -4 15 5.5
v 4 15 5.5
v -5 15 4.5
v -4 15 4.5
v 4 15 4.5
v 5 15 4.5
v -6 15 3.5
v -5 15 3.5
v -4 15 3.5
v 4 15 3.5
v 5 15 3.5
v 6 15 3.5
v -6 15 -2.5
v -5 15 -2.5
v -4 15 -2.5
v 4 15 -2.5
v 5 15 -2.5
v 6 15 -2.5
v -5 15 -3.5
v -4 15 -3.5
v 4 15 -3.5
v 5 15 -3.5
v -4 15 -4.5
v 4 15 -4.5
v -4 16 4.5
v 4 16 4.5
v -5 16 3.5
v -4 16 3.5
v 4 16 3.5
v 5 16 3.5
v -5 16 -2.5
v -4 16 -2.5
v 4 16 -2.5
v 5 16 -2.5
v -4 16 -3.5
v 4 16 -3.5

# faces
f 3/4/1 2/4/1 1/4/1
f 4/4/1 2/4/1 3/4/1
f 7/4/1 6/4/1 5/4/1
f 8/4/1 6/4/1 7/4/1
f 13/4/1 11/4/1 10/4/1
f 13/4/1 10/4/1 9/4/1
f 13/4/1 9/4/1 8/4/1
f 15/4/1 13/4/1 12/4/1
f 16/4/1 15/4/1 14/4/1
f 17/4/1 13/4/1 15/4/1
f 17/4/1 15/4/1 16/4/1
f 18/4/1 11/4/1 13/4/1
f 18/4/1 13/4/1 17/4/1
f 19/4/1 11/4/1 18/4/1
f 20/4/1 18/4/1 17/4/1
f 21/4/1 18/4/1 20/4/1
f 24/4/1 23/4/1 22/4/1
f 27/8/1 26/8/1 25/8/1
f 28/8/1 26/8/1 27/8/1
f 29/1/1 28/1/1 27/1/1
f 30/1/1 28/1/1 29/1/1
f 32/8/1 30/8/1 29/8/1
f 33/8/1 30/8/1 32/8/1
f 34/4/1 32/4/1 31/4/1
f 35/4/1 32/4/1 34/4/1
f 38/4/1 23/4/1 24/4/1
f 39/4/1 23/4/1 38/4/1
f 40/4/1 36/4/1 35/4/1
f 41/4/1 36/4/1 40/4/1
f 42/4/1 38/4/1 37/4/1
f 43/4/1 38/4/1 42/4/1
f 44/4/1 42/4/1 41/4/1
f 45/4/1 42/4/1 44/4/1
f 48/8/1 47/8/1 46/8/1
f 49/8/1 47/8/1 48/8/1
f 52/5/1 49/5/1 48/5/1
f 53/5/1 49/5/1 52/5/1
f 54/4/1 51/4/1 50/4/1
f 55/4/1 51/4/1 54/4/1
f 60/4/1 57/4/1 56/4/1
f 61/4/1 57/4/1 60/4/1
f 64/4/1 59/4/1 58/4/1
f 65/4/1 59/4/1 64/4/1
f 66/4/1 62/4/1 61/4/1
f 67/4/1 62/4/1 66/4/1
f 68/4/1 64/4/1 63/4/1
f 69/4/1 64/4/1 68/4/1
f 72/2/1 71/2/1 70/2/1
f 73/2/1 71/2/1 72/2/1
f 74/2/1 71/2/1 73/2/1
f 76/6/1 74/6/1 73/6/1
f 77/6/1 74/6/1 76/6/1
f 79/6/1 77/6/1 76/6/1
f 79/6/1 78/6/1 77/6/1
f 79/6/1 76/6/1 75/6/1
f 80/6/1 78/6/1 79/6/1
f 81/6/1 78/6/1 80/6/1
f 82/6/1 78/6/1 81/6/1
f 85/5/1 80/5/1 79/5/1
f 86/5/1 82/5/1 81/5/1
f 87/4/1 84/4/1 83/4/1
f 88/4/1 84/4/1 87/4/1
f 89/5/1 85/5/1 79/5/1
f 90/5/1 85/5/1 89/5/1
f 91/5/1 82/5/1 86/5/1
f 92/5/1 82/5/1 91/5/1
f 93/5/1 91/5/1 90/5/1
f 94/5/1 91/5/1 93/5/1
f 99/5/1 96/5/1 95/5/1
f 100/5/1 96/5/1 99/5/1
f 101/5/1 98/5/1 97/5/1
f 102/5/1 98/5/1 101/5/1
f 103/8/1 101/8/1 100/8/1
f 104/8/1 101/8/1 103/8/1
f 107/2/1 106/2/1 105/2/1
f 108/2/1 106/2/1 107/2/1
f 109/2/1 106/2/1 108/2/1
f 110/6/1 109/6/1 108/6/1
f 111/6/1 109/6/1 110/6/1
f 114/4/1 113/4/1 112/4/1
f 115/4/1 113/4/1 114/4/1
f 118/4/1 117/4/1 116/4/1
f 119/4/1 117/4/1 118/4/1
f 122/4/1 121/4/1 120/4/1
f 123/4/1 121/4/1 122/4/1
f 126/4/1 125/4/1 124/4/1
f 127/4/1 125/4/1 126/4/1
f 130/4/1 129/4/1 128/4/1
f 131/4/1 129/4/1 130/4/1
f 134/4/1 133/4/1 132/4/1
f 135/4/1 133/4/1 134/4/1
f 139/4/1 136/4/1 135/4/1
f 140/4/1 136/4/1 139/4/1
f 141/4/1 138/4/1 137/4/1
f 142/4/1 138/4/1 141/4/1
f 145/4/1 144/4/1 143/4/1
f 146/4/1 144/4/1 145/4/1
f 147/4/2 148/4/2 149/4/2
f 149/4/2 148/4/2 150/4/2
f 151/4/2 152/4/2 153/4/2
f 153/4/2 152/4/2 154/4/2
f 154/4/2 155/4/2 156/4/2
f 156/4/2 155/4/2 157/4/2
f 158/4/2 159/4/2 160/4/2
f 160/4/2 159/4/2 161/4/2
f 162/4/2 163/4/2 164/4/2
f 164/4/2 163/4/2 165/4/2
f 166/2/2 167/2/2 168/2/2
f 168/2/2 167/2/2 169/2/2
f 169/2/2 167/2/2 170/2/2
f 169/6/2 170/6/2 171/6/2
f 171/6/2 170/6/2 172/6/2
f 173/4/2 174/4/2 175/4/2
f 175/4/2 174/4/2 176/4/2
f 177/4/2 178/4/2 179/4/2
f 179/4/2 178/4/2 180/4/2
f 181/5/2 182/5/2 185/5/2
f 185/5/2 182/5/2 186/5/2
f 183/5/2 184/5/2 187/5/2
f 187/5/2 184/5/2 188/5/2
f 186/8/2 187/8/2 189/8/2
f 189/8/2 187/8/2 190/8/2
f 191/2/2 192/2/2 193/2/2
f 193/2/2 192/2/2 194/2/2
f 194/2/2 192/2/2 195/2/2
f 194/6/2 195/6/2 197/6/2
f 197/6/2 195/6/2 198/6/2
f 197/6/2 198/6/2 200/6/2
f 198/6/2 199/6/2 200/6/2
f 196/6/2 197/6/2 200/6/2
f 200/6/2 199/6/2 201/6/2
f 201/6/2 199/6/2 202/6/2
f 202/6/2 199/6/2 203/6/2
f 200/5/2 201/5/2 206/5/2
f 202/5/2 203/5/2 207/5/2
f 204/4/2 205/4/2 209/4/2
f 209/4/2 205/4/2 210/4/2
f 200/5/2 206/5/2 211/5/2
f 211/5/2 206/5/2 212/5/2
f 207/5/2 203/5/2 213/5/2
f 213/5/2 203/5/2 214/5/2
f 208/4/2 209/4/2 215/4/2
f 215/4/2 209/4/2 216/4/2
f 212/5/2 213/5/2 217/5/2
f 217/5/2 213/5/2 218/5/2
f 219/8/2 220/8/2 221/8/2
f 221/8/2 220/8/2 222/8/2
f 221/5/2 222/5/2 223/5/2
f 223/5/2 222/5/2 224/5/2
f 225/4/2 226/4/2 229/4/2
f 229/4/2 226/4/2 230/4/2
f 227/4/2 228/4/2 233/4/2
f 233/4/2 228/4/2 234/4/2
f 230/4/2 231/4/2 235/4/2
f 235/4/2 231/4/2 236/4/2
f 232/4/2 233/4/2 237/4/2
f 237/4/2 233/4/2 238/4/2
f 239/4/2 240/4/2 241/4/2
f 242/8/2 243/8/2 244/8/2
f 244/8/2 243/8/2 245/8/2
f 244/1/2 245/1/2 246/1/2
f 246/1/2 245/1/2 247/1/2
f 246/8/2 247/8/2 249/8/2
f 249/8/2 247/8/2 250/8/2
f 248/4/2 249/4/2 251/4/2
f 251/4/2 249/4/2 252/4/2
f 241/4/2 240/4/2 255/4/2
f 255/4/2 240/4/2 256/4/2
f 252/4/2 253/4/2 257/4/2
f 257/4/2 253/4/2 258/4/2
f 254/4/2 255/4/2 259/4/2
f 259/4/2 255/4/2 260/4/2
f 258/4/2 259/4/2 261/4/2
f 261/4/2 259/4/2 262/4/2
f 263/4/2 264/4/2 265/4/2
f 265/4/2 264/4/2 266/4/2
f 266/4/2 267/4/2 272/4/2
f 270/4/2 271/4/2 273/4/2
f 269/4/2 270/4/2 273/4/2
f 268/4/2 269/4/2 273/4/2
f 266/4/2 272/4/2 275/4/2
f 272/4/2 273/4/2 275/4/2
f 274/4/2 275/4/2 276/4/2
f 275/4/2 273/4/2 277/4/2
f 276/4/2 275/4/2 277/4/2
f 273/4/2 271/4/2 278/4/2
f 277/4/2 273/4/2 278/4/2
f 278/4/2 271/4/2 279/4/2
f 277/4/2 278/4/2 280/4/2
f 280/4/2 278/4/2 281/4/2
f 282/4/2 283/4/2 284/4/2
f 284/4/2 283/4/2 285/4/2
f 288/4/3 287/4/3 286/4/3
f 289/4/3 287/4/3 288/4/3
f 290/4/3 287/4/3 289/4/3
f 292/4/3 291/4/3 290/4/3
f 292/4/3 290/4/3 289/4/3
f 293/4/3 291/4/3 292/4/3
f 294/4/3 291/4/3 293/4/3
f 295/4/3 291/4/3 294/4/3
f 297/4/3 291/4/3 295/4/3
f 299/4/3 297/4/3 296/4/3
f 301/4/3 299/4/3 298/4/3
f 302/4/3 291/4/3 297/4/3
f 302/4/3 297/4/3 299/4/3
f 302/4/3 299/4/3 301/4/3
f 303/4/3 291/4/3 302/4/3
f 304/4/3 301/4/3 300/4/3
f 304/4/3 302/4/3 301/4/3
f 305/4/3 302/4/3 304/4/3
f 311/4/3 307/4/3 306/4/3
f 312/4/3 307/4/3 311/4/3
f 314/8/3 311/8/3 310/8/3
f 316/4/3 313/4/3 312/4/3
f 317/4/3 313/4/3 316/4/3
f 319/1/3 310/1/3 309/1/3
f 319/8/3 309/8/3 308/8/3
f 320/8/3 315/8/3 314/8/3
f 320/1/3 310/1/3 319/1/3
f 320/8/3 314/8/3 310/8/3
f 321/8/3 315/8/3 320/8/3
f 322/8/3 320/8/3 319/8/3
f 322/3/3 321/3/3 320/3/3
f 323/3/3 321/3/3 322/3/3
f 325/8/3 323/8/3 322/8/3
f 325/8/3 324/8/3 323/8/3
f 327/8/3 325/8/3 322/8/3
f 327/8/3 326/8/3 325/8/3
f 328/8/3 326/8/3 327/8/3
f 329/8/3 322/8/3 319/8/3
f 329/8/3 327/8/3 322/8/3
f 330/8/3 327/8/3 329/8/3
f 331/8/3 327/8/3 330/8/3
f 332/8/3 319/8/3 308/8/3
f 332/8/3 329/8/3 319/8/3
f 333/3/3 330/3/3 329/3/3
f 333/8/3 329/8/3 332/8/3
f 334/3/3 330/3/3 333/3/3
f 335/8/3 334/8/3 333/8/3
f 336/8/3 334/8/3 335/8/3
f 338/4/3 318/4/3 317/4/3
f 339/4/3 318/4/3 338/4/3
f 342/8/3 332/8/3 308/8/3
f 343/1/3 333/1/3 332/1/3
f 343/8/3 332/8/3 342/8/3
f 344/8/3 335/8/3 333/8/3
f 344/1/3 333/1/3 343/1/3
f 345/8/3 335/8/3 344/8/3
f 346/4/3 338/4/3 337/4/3
f 347/4/3 338/4/3 346/4/3
f 348/4/3 341/4/3 340/4/3
f 349/4/3 341/4/3 348/4/3
f 350/4/3 346/4/3 345/4/3
f 351/4/3 346/4/3 350/4/3
f 358/4/3 353/4/3 352/4/3
f 359/4/3 353/4/3 358/4/3
f 360/4/3 355/4/3 354/4/3
f 361/4/3 355/4/3 360/4/3
f 362/4/3 355/4/3 361/4/3
f 363/4/3 355/4/3 362/4/3
f 364/4/3 357/4/3 356/4/3
f 365/4/3 357/4/3 364/4/3
f 367/4/3 366/4/3 365/4/3
f 368/4/3 366/4/3 367/4/3
f 377/4/3 370/4/3 369/4/3
f 378/4/3 370/4/3 377/4/3
f 379/4/3 375/4/3 374/4/3
f 379/4/3 372/4/3 371/4/3
f 379/4/3 373/4/3 372/4/3
f 379/4/3 374/4/3 373/4/3
f 380/4/3 375/4/3 379/4/3
f 381/4/3 377/4/3 376/4/3
f 382/4/3 377/4/3 381/4/3
f 385/4/3 384/4/3 383/4/3
f 386/4/3 384/4/3 385/4/3
f 392/5/3 391/5/3 390/5/3
f 394/2/3 388/2/3 387/2/3
f 395/2/3 388/2/3 394/2/3
f 398/5/3 393/5/3 392/5/3
f 398/5/3 392/5/3 390/5/3
f 399/5/3 393/5/3 398/5/3
f 400/2/3 397/2/3 396/2/3
f 401/2/3 397/2/3 400/2/3
f 402/6/3 390/6/3 389/6/3
f 403/5/3 398/5/3 390/5/3
f 403/6/3 390/6/3 402/6/3
f 404/5/3 398/5/3 403/5/3
f 407/4/3 406/4/3 405/4/3
f 408/4/3 406/4/3 407/4/3
f 414/8/3 410/8/3 409/8/3
f 415/5/3 411/5/3 410/5/3
f 415/8/3 410/8/3 414/8/3
f 416/5/3 411/5/3 415/5/3
f 418/5/3 417/5/3 416/5/3
f 419/5/3 417/5/3 418/5/3
f 421/6/3 413/6/3 412/6/3
f 422/6/3 413/6/3 421/6/3
f 426/8/3 420/8/3 419/8/3
f 427/8/3 420/8/3 426/8/3
f 428/6/3 424/6/3 423/6/3
f 429/6/3 424/6/3 428/6/3
f 432/5/3 426/5/3 425/5/3
f 433/5/3 426/5/3 432/5/3
f 434/8/3 431/8/3 430/8/3
f 435/5/3 432/5/3 431/5/3
f 435/8/3 431/8/3 434/8/3
f 436/5/3 432/5/3 435/5/3
f 439/4/3 438/4/3 437/4/3
f 440/4/3 438/4/3 439/4/3
f 443/4/3 442/4/3 441/4/3
f 444/4/3 442/4/3 443/4/3
f 449/4/3 446/4/3 445/4/3
f 449/4/3 447/4/3 446/4/3
f 450/4/3 449/4/3 448/4/3
f 451/4/3 447/4/3 449/4/3
f 451/4/3 449/4/3 450/4/3
f 453/4/3 447/4/3 451/4/3
f 454/4/3 453/4/3 452/4/3
f 455/4/3 447/4/3 453/4/3
f 455/4/3 453/4/3 454/4/3
f 456/4/3 447/4/3 455/4/3
f 459/4/3 458/4/3 457/4/3
f 460/4/3 458/4/3 459/4/3
f 463/4/3 462/4/3 461/4/3
f 464/4/3 462/4/3 463/4/3
f 465/4/4 466/4/4 467/4/4
f 467/4/4 466/4/4 468/4/4
f 469/4/4 470/4/4 471/4/4
f 471/4/4 470/4/4 472/4/4
f 473/4/4 474/4/4 475/4/4
f 475/4/4 474/4/4 476/4/4
f 477/4/4 478/4/4 479/4/4
f 479/4/4 478/4/4 480/4/4
f 481/8/4 482/8/4 487/8/4
f 482/5/4 483/5/4 488/5/4
f 487/8/4 482/8/4 488/8/4
f 488/5/4 483/5/4 489/5/4
f 489/5/4 490/5/4 491/5/4
f 491/5/4 490/5/4 492/5/4
f 484/2/4 485/2/4 494/2/4
f 485/6/4 486/6/4 495/6/4
f 494/2/4 485/2/4 495/2/4
f 495/6/4 486/6/4 496/6/4
f 492/8/4 493/8/4 501/8/4
f 501/8/4 493/8/4 502/8/4
f 497/2/4 498/2/4 503/2/4
f 498/6/4 499/6/4 504/6/4
f 503/2/4 498/2/4 504/2/4
f 504/6/4 499/6/4 505/6/4
f 500/5/4 501/5/4 508/5/4
f 508/5/4 501/5/4 509/5/4
f 506/8/4 507/8/4 510/8/4
f 507/5/4 508/5/4 511/5/4
f 510/8/4 507/8/4 511/8/4
f 511/5/4 508/5/4 512/5/4
f 514/5/4 515/5/4 516/5/4
f 514/5/4 516/5/4 518/5/4
f 516/5/4 517/5/4 518/5/4
f 518/5/4 517/5/4 519/5/4
f 513/6/4 514/6/4 520/6/4
f 514/5/4 518/5/4 521/5/4
f 520/6/4 514/6/4 521/6/4
f 521/5/4 518/5/4 522/5/4
f 523/4/4 524/4/4 525/4/4
f 525/4/4 524/4/4 526/4/4
f 526/4/4 527/4/4 528/4/4
f 528/4/4 527/4/4 529/4/4
f 530/4/4 531/4/4 533/4/4
f 533/4/4 531/4/4 534/4/4
f 532/4/4 533/4/4 537/4/4
f 537/4/4 533/4/4 538/4/4
f 535/4/4 536/4/4 539/4/4
f 539/4/4 536/4/4 540/4/4
f 541/4/4 542/4/4 543/4/4
f 543/4/4 542/4/4 544/4/4
f 544/4/4 545/4/4 546/4/4
f 546/4/4 545/4/4 547/4/4
f 547/4/4 548/4/4 550/4/4
f 550/4/4 548/4/4 551/4/4
f 549/4/4 550/4/4 553/4/4
f 553/4/4 550/4/4 554/4/4
f 552/4/4 553/4/4 555/4/4
f 555/4/4 553/4/4 556/4/4
f 557/4/4 558/4/4 560/4/4
f 560/4/4 558/4/4 561/4/4
f 559/4/4 560/4/4 563/4/4
f 561/4/4 562/4/4 563/4/4
f 560/4/4 561/4/4 563/4/4
f 563/4/4 562/4/4 564/4/4
f 564/4/4 562/4/4 565/4/4
f 565/4/4 562/4/4 566/4/4
f 566/4/4 562/4/4 567/4/4
f 567/4/4 562/4/4 569/4/4
f 569/4/4 562/4/4 570/4/4
f 570/4/4 562/4/4 571/4/4
f 568/4/4 569/4/4 572/4/4
f 569/4/4 570/4/4 572/4/4
f 572/4/4 570/4/4 573/4/4
f 574/4/4 575/4/4 576/4/4
f 576/4/4 575/4/4 577/4/4
f 578/4/4 579/4/4 580/4/4
f 580/4/4 579/4/4 581/4/4
f 586/2/5 583/2/5 582/2/5
f 587/2/5 583/2/5 586/2/5
f 588/2/5 585/2/5 584/2/5
f 589/2/5 585/2/5 588/2/5
f 592/6/5 591/6/5 590/6/5
f 593/6/5 591/6/5 592/6/5
f 594/6/5 591/6/5 593/6/5
f 595/6/5 591/6/5 594/6/5
f 597/9/5 594/9/5 593/9/5
f 598/9/5 594/9/5 597/9/5
f 600/6/5 597/6/5 596/6/5
f 600/6/5 599/6/5 598/6/5
f 600/6/5 598/6/5 597/6/5
f 601/6/5 599/6/5 600/6/5
f 606/8/5 603/8/5 602/8/5
f 607/8/5 603/8/5 606/8/5
f 608/8/5 605/8/5 604/8/5
f 609/8/5 605/8/5 608/8/5
f 614/4/5 611/4/5 610/4/5
f 615/4/5 611/4/5 614/4/5
f 616/4/5 613/4/5 612/4/5
f 617/4/5 613/4/5 616/4/5
f 622/4/5 619/4/5 618/4/5
f 623/4/5 619/4/5 622/4/5
f 624/4/5 619/4/5 623/4/5
f 625/4/5 619/4/5 624/4/5
f 626/4/5 619/4/5 625/4/5
f 627/4/5 621/4/5 620/4/5
f 628/4/5 621/4/5 627/4/5
f 633/4/5 630/4/5 629/4/5
f 634/4/5 630/4/5 633/4/5
f 635/4/5 632/4/5 631/4/5
f 636/4/5 632/4/5 635/4/5
f 641/4/5 638/4/5 637/4/5
f 642/4/5 638/4/5 641/4/5
f 643/4/5 640/4/5 639/4/5
f 644/4/5 640/4/5 643/4/5
f 649/4/5 646/4/5 645/4/5
f 650/4/5 646/4/5 649/4/5
f 651/4/5 648/4/5 647/4/5
f 652/4/5 648/4/5 651/4/5
f 657/4/5 654/4/5 653/4/5
f 658/4/5 654/4/5 657/4/5
f 659/4/5 656/4/5 655/4/5
f 662/4/5 661/4/5 660/4/5
f 663/4/5 656/4/5 659/4/5
f 664/4/5 662/4/5 660/4/5
f 665/4/5 656/4/5 663/4/5
f 666/4/5 656/4/5 665/4/5
f 667/4/5 664/4/5 660/4/5
f 668/4/5 664/4/5 667/4/5
f 672/8/5 670/8/5 669/8/5
f 673/8/5 670/8/5 672/8/5
f 674/4/5 672/4/5 671/4/5
f 675/8/5 673/8/5 672/8/5
f 675/4/5 672/4/5 674/4/5
f 676/8/5 673/8/5 675/8/5
f 678/8/5 676/8/5 675/8/5
f 679/8/5 676/8/5 678/8/5
f 680/4/5 677/4/5 676/4/5
f 680/8/5 676/8/5 679/8/5
f 681/4/5 677/4/5 680/4/5
f 682/8/5 678/8/5 675/8/5
f 683/8/5 680/8/5 679/8/5
f 684/8/5 682/8/5 675/8/5
f 684/8/5 683/8/5 682/8/5
f 685/8/5 680/8/5 683/8/5
f 685/8/5 683/8/5 684/8/5
f 691/4/5 687/4/5 686/4/5
f 692/4/5 687/4/5 691/4/5
f 693/4/5 689/4/5 688/4/5
f 694/4/5 689/4/5 693/4/5
f 696/4/5 691/4/5 690/4/5
f 697/4/5 691/4/5 696/4/5
f 698/4/5 695/4/5 694/4/5
f 699/4/5 695/4/5 698/4/5
f 704/4/5 701/4/5 700/4/5
f 705/4/5 701/4/5 704/4/5
f 706/4/5 701/4/5 705/4/5
f 707/4/5 703/4/5 702/4/5
f 708/4/5 703/4/5 707/4/5
f 709/4/5 703/4/5 708/4/5
f 714/4/5 711/4/5 710/4/5
f 715/4/5 711/4/5 714/4/5
f 716/4/5 713/4/5 712/4/5
f 717/4/5 713/4/5 716/4/5
f 720/4/5 719/4/5 718/4/5
f 721/4/5 719/4/5 720/4/5
f 722/2/6 723/2/6 726/2/6
f 726/2/6 723/2/6 727/2/6
f 724/2/6 725/2/6 728/2/6
f 728/2/6 725/2/6 729/2/6
f 730/4/6 731/4/6 734/4/6
f 734/4/6 731/4/6 735/4/6
f 732/4/6 733/4/6 736/4/6
f 736/4/6 733/4/6 737/4/6
f 738/5/6 739/5/6 743/5/6
f 743/5/6 739/5/6 744/5/6
f 740/5/6 741/5/6 745/5/6
f 745/5/6 741/5/6 746/5/6
f 742/5/6 743/5/6 748/5/6
f 748/5/6 743/5/6 749/5/6
f 746/5/6 747/5/6 752/5/6
f 752/5/6 747/5/6 753/5/6
f 749/5/6 750/5/6 754/5/6
f 754/5/6 750/5/6 755/5/6
f 751/5/6 752/5/6 756/5/6
f 756/5/6 752/5/6 757/5/6
f 758/4/6 759/4/6 762/4/6
f 762/4/6 759/4/6 763/4/6
f 760/4/6 761/4/6 764/4/6
f 764/4/6 761/4/6 765/4/6
f 766/5/6 767/5/6 771/5/6
f 771/5/6 767/5/6 772/5/6
f 768/4/6 769/4/6 776/4/6
f 776/4/6 769/4/6 777/4/6
f 770/5/6 771/5/6 778/5/6
f 778/5/6 771/5/6 779/5/6
f 772/5/6 773/5/6 780/5/6
f 780/5/6 773/5/6 781/5/6
f 779/5/6 780/5/6 782/5/6
f 782/5/6 780/5/6 783/5/6
f 774/4/6 775/4/6 784/4/6
f 784/4/6 775/4/6 785/4/6
f 786/4/6 787/4/6 791/4/6
f 791/4/6 787/4/6 792/4/6
f 788/4/6 789/4/6 793/4/6
f 793/4/6 789/4/6 794/4/6
f 790/4/6 791/4/6 796/4/6
f 796/4/6 791/4/6 797/4/6
f 794/4/6 795/4/6 798/4/6
f 798/4/6 795/4/6 799/4/6
f 800/4/6 801/4/6 804/4/6
f 804/4/6 801/4/6 805/4/6
f 802/4/6 803/4/6 808/4/6
f 808/4/6 803/4/6 809/4/6
f 805/4/6 806/4/6 810/4/6
f 810/4/6 806/4/6 811/4/6
f 807/4/6 808/4/6 812/4/6
f 812/4/6 808/4/6 813/4/6
f 814/4/6 815/4/6 817/4/6
f 817/4/6 815/4/6 818/4/6
f 816/4/6 817/4/6 821/4/6
f 821/4/6 817/4/6 822/4/6
f 818/4/6 819/4/6 823/4/6
f 823/4/6 819/4/6 824/4/6
f 820/4/6 821/4/6 826/4/6
f 826/4/6 821/4/6 827/4/6
f 824/4/6 825/4/6 830/4/6
f 830/4/6 825/4/6 831/4/6
f 827/4/6 828/4/6 832/4/6
f 832/4/6 828/4/6 833/4/6
f 829/4/6 830/4/6 834/4/6
f 834/4/6 830/4/6 835/4/6
f 833/4/6 834/4/6 836/4/6
f 836/4/6 834/4/6 837/4/6
f 838/4/6 839/4/6 841/4/6
f 841/4/6 839/4/6 842/4/6
f 840/4/6 841/4/6 844/4/6
f 842/4/6 843/4/6 844/4/6
f 841/4/6 842/4/6 844/4/6
f 844/4/6 843/4/6 845/4/6
f 845/4/6 843/4/6 846/4/6
f 846/4/6 843/4/6 847/4/6
f 845/4/6 846/4/6 848/4/6
f 848/4/6 846/4/6 849/4/6
