# MagicaVoxel @ ephtracy

# material
mtllib rose.mtl
usemtl palette

# normals
vn -1 0 0
vn 1 0 0
vn 0 0 1
vn 0 0 -1
vn 0 -1 0
vn 0 1 0

# texcoords
vt 0.0292969 0.5
vt 0.908203 0.5
vt 0.939453 0.5
vt 0.947266 0.5
vt 0.951172 0.5
vt 0.955078 0.5
vt 0.974609 0.5
vt 0.986328 0.5
vt 0.990234 0.5
vt 0.994141 0.5

# verts
v -7 6 1.5
v -7 6 -0.5
v -7 7 1.5
v -7 7 -0.5
v -6 6 3.5
v -6 6 2.5
v -6 7 3.5
v -6 7 2.5
v -6 7 1.5
v -6 7 -0.5
v -6 7 -4.5
v -6 8 3.5
v -6 8 2.5
v -6 11 5.5
v -6 11 3.5
v -6 16 5.5
v -6 16 -4.5
v -5 6 -3.5
v -5 6 -4.5
v -5 7 -3.5
v -5 7 -4.5
v -5 8 4.5
v -5 8 3.5
v -5 9 4.5
v -5 9 3.5
v -5 10 4.5
v -5 10 3.5
v -5 11 4.5
v -5 11 3.5
v -4 3 1.5
v -4 3 -0.5
v -4 5 1.5
v -4 5 -0.5
v -4 5 -3.5
v -4 5 -4.5
v -4 6 1.5
v -4 6 -0.5
v -4 6 -3.5
v -4 6 -4.5
v -3 0 2.5
v -3 0 -0.5
v -3 1 2.5
v -3 1 1.5
v -3 1 -0.5
v -3 2 2.5
v -3 2 1.5
v -3 2 -0.5
v -3 2 -1.5
v -3 3 2.5
v -3 3 1.5
v -3 3 -0.5
v -3 3 -1.5
v -3 4 -4.5
v -3 4 -5.5
v -3 5 1.5
v -3 5 -0.5
v -3 5 -4.5
v -3 5 -5.5
v -3 6 2.5
v -3 6 1.5
v -3 6 -0.5
v -3 6 -1.5
v -3 7 1.5
v -3 7 -0.5
v -2 6 2.5
v -2 6 1.5
v -2 6 -0.5
v -2 6 -1.5
v -2 7 2.5
v -2 7 1.5
v -2 7 -0.5
v -2 7 -1.5
v -2 8 1.5
v -2 8 -0.5
v 1 0 2.5
v 1 0 -0.5
v 1 1 2.5
v 1 1 1.5
v 1 1 -0.5
v 1 2 1.5
v 1 2 -0.5
v 1 13 5.5
v 1 13 4.5
v 1 14 5.5
v 1 14 4.5
v 2 4 -4.5
v 2 4 -5.5
v 2 5 -4.5
v 2 5 -5.5
v 2 12 5.5
v 2 12 4.5
v 2 13 5.5
v 2 13 4.5
v 4 5 -3.5
v 4 5 -4.5
v 4 6 -3.5
v 4 6 -4.5
v 5 6 4.5
v 5 6 3.5
v 5 7 4.5
v 5 7 3.5
v 5 7 2.5
v 5 7 1.5
v 5 7 -3.5
v 5 8 3.5
v 5 8 2.5
v 5 8 1.5
v 5 8 -3.5
v 5 11 5.5
v 5 11 4.5
v 5 12 5.5
v 5 12 4.5
v 6 6 0.5
v 6 6 -2.5
v 6 7 0.5
v 6 7 -2.5
v -6 6 1.5
v -6 6 -0.5
v -6 7 1.5
v -6 7 -0.5
v -5 6 3.5
v -5 6 2.5
v -5 7 3.5
v -5 7 2.5
v -5 7 -3.5
v -5 8 2.5
v -5 8 -3.5
v -4 11 5.5
v -4 11 4.5
v -4 12 5.5
v -4 12 4.5
v -2 12 5.5
v -2 12 4.5
v -2 13 5.5
v -2 13 4.5
v -1 0 2.5
v -1 0 -0.5
v -1 1 2.5
v -1 1 1.5
v -1 1 -0.5
v -1 2 1.5
v -1 2 -0.5
v 0 13 5.5
v 0 13 4.5
v 0 14 5.5
v 0 14 4.5
v 1 4 -4.5
v 1 4 -5.5
v 1 5 -4.5
v 1 5 -5.5
v 2 6 2.5
v 2 6 1.5
v 2 6 -0.5
v 2 6 -1.5
v 2 7 2.5
v 2 7 1.5
v 2 7 -0.5
v 2 7 -1.5
v 2 8 1.5
v 2 8 -0.5
v 3 0 2.5
v 3 0 -0.5
v 3 1 2.5
v 3 1 1.5
v 3 1 -0.5
v 3 2 2.5
v 3 2 1.5
v 3 2 -0.5
v 3 2 -1.5
v 3 3 2.5
v 3 3 1.5
v 3 3 -0.5
v 3 3 -1.5
v 3 4 -4.5
v 3 4 -5.5
v 3 5 1.5
v 3 5 -0.5
v 3 5 -3.5
v 3 5 -4.5
v 3 5 -5.5
v 3 6 2.5
v 3 6 1.5
v 3 6 -0.5
v 3 6 -1.5
v 3 6 -3.5
v 3 6 -4.5
v 3 7 1.5
v 3 7 -0.5
v 4 3 1.5
v 4 3 -0.5
v 4 5 1.5
v 4 5 -0.5
v 4 6 1.5
v 4 6 -0.5
v 5 5 -3.5
v 5 5 -4.5
v 5 7 -3.5
v 5 7 -4.5
v 5 8 4.5
v 5 8 3.5
v 5 9 4.5
v 5 9 3.5
v 5 10 4.5
v 5 10 3.5
v 5 11 4.5
v 5 11 3.5
v 6 6 4.5
v 6 6 3.5
v 6 7 4.5
v 6 7 3.5
v 6 7 2.5
v 6 7 1.5
v 6 7 0.5
v 6 7 -2.5
v 6 7 -4.5
v 6 8 2.5
v 6 8 1.5
v 6 11 5.5
v 6 11 3.5
v 6 16 5.5
v 6 16 -4.5
v 7 6 0.5
v 7 6 -2.5
v 7 7 0.5
v 7 7 -2.5
v -6 11 5.5
v -6 16 5.5
v -4 11 5.5
v -4 12 5.5
v -2 12 5.5
v -2 13 5.5
v 0 13 5.5
v 0 14 5.5
v 1 13 5.5
v 1 14 5.5
v 2 12 5.5
v 2 13 5.5
v 5 11 5.5
v 5 12 5.5
v 6 11 5.5
v 6 16 5.5
v -5 8 4.5
v -5 9 4.5
v -5 10 4.5
v -5 11 4.5
v -4 10 4.5
v -4 11 4.5
v -4 12 4.5
v -3 9 4.5
v -3 10 4.5
v -3 12 4.5
v -2 12 4.5
v -2 13 4.5
v 0 13 4.5
v 0 14 4.5
v 1 13 4.5
v 1 14 4.5
v 2 12 4.5
v 2 13 4.5
v 3 9 4.5
v 3 10 4.5
v 3 12 4.5
v 4 10 4.5
v 4 12 4.5
v 5 6 4.5
v 5 7 4.5
v 5 8 4.5
v 5 9 4.5
v 5 10 4.5
v 5 11 4.5
v 5 12 4.5
v 6 6 4.5
v 6 7 4.5
v -6 6 3.5
v -6 7 3.5
v -6 8 3.5
v -6 11 3.5
v -5 6 3.5
v -5 7 3.5
v -5 8 3.5
v -5 9 3.5
v -5 10 3.5
v -5 11 3.5
v 5 7 3.5
v 5 8 3.5
v 5 9 3.5
v 5 10 3.5
v 5 11 3.5
v 6 7 3.5
v 6 11 3.5
v -6 7 2.5
v -6 8 2.5
v -5 7 2.5
v -5 8 2.5
v -3 0 2.5
v -3 1 2.5
v -3 2 2.5
v -3 3 2.5
v -3 6 2.5
v -2 6 2.5
v -2 7 2.5
v -1 0 2.5
v -1 1 2.5
v 1 0 2.5
v 1 1 2.5
v 2 6 2.5
v 2 7 2.5
v 3 0 2.5
v 3 1 2.5
v 3 2 2.5
v 3 3 2.5
v 3 6 2.5
v -7 6 1.5
v -7 7 1.5
v -6 6 1.5
v -6 7 1.5
v -4 3 1.5
v -4 5 1.5
v -4 6 1.5
v -3 1 1.5
v -3 2 1.5
v -3 3 1.5
v -3 5 1.5
v -3 6 1.5
v -3 7 1.5
v -2 6 1.5
v -2 7 1.5
v -2 8 1.5
v -1 1 1.5
v -1 2 1.5
v 1 1 1.5
v 1 2 1.5
v 2 6 1.5
v 2 7 1.5
v 2 8 1.5
v 3 1 1.5
v 3 2 1.5
v 3 3 1.5
v 3 5 1.5
v 3 6 1.5
v 3 7 1.5
v 4 3 1.5
v 4 5 1.5
v 4 6 1.5
v 5 7 1.5
v 5 8 1.5
v 6 7 1.5
v 6 8 1.5
v 6 6 0.5
v 6 7 0.5
v 7 6 0.5
v 7 7 0.5
v -5 6 -3.5
v -5 7 -3.5
v -5 8 -3.5
v -4 5 -3.5
v -4 6 -3.5
v 3 5 -3.5
v 3 6 -3.5
v 4 5 -3.5
v 4 6 -3.5
v 5 5 -3.5
v 5 7 -3.5
v 5 8 -3.5
v -3 4 -4.5
v -3 5 -4.5
v 1 4 -4.5
v 1 5 -4.5
v 2 4 -4.5
v 2 5 -4.5
v 3 4 -4.5
v 3 5 -4.5
v 5 6 3.5
v 5 7 3.5
v 6 6 3.5
v 6 7 3.5
v -6 6 2.5
v -6 7 2.5
v -5 6 2.5
v -5 7 2.5
v 5 7 2.5
v 5 8 2.5
v 6 7 2.5
v 6 8 2.5
v -7 6 -0.5
v -7 7 -0.5
v -6 6 -0.5
v -6 7 -0.5
v -4 3 -0.5
v -4 5 -0.5
v -4 6 -0.5
v -3 0 -0.5
v -3 1 -0.5
v -3 2 -0.5
v -3 3 -0.5
v -3 5 -0.5
v -3 6 -0.5
v -3 7 -0.5
v -2 6 -0.5
v -2 7 -0.5
v -2 8 -0.5
v -1 0 -0.5
v -1 1 -0.5
v -1 2 -0.5
v 1 0 -0.5
v 1 1 -0.5
v 1 2 -0.5
v 2 6 -0.5
v 2 7 -0.5
v 2 8 -0.5
v 3 0 -0.5
v 3 1 -0.5
v 3 2 -0.5
v 3 3 -0.5
v 3 5 -0.5
v 3 6 -0.5
v 3 7 -0.5
v 4 3 -0.5
v 4 5 -0.5
v 4 6 -0.5
v -3 2 -1.5
v -3 3 -1.5
v -3 6 -1.5
v -2 6 -1.5
v -2 7 -1.5
v 2 6 -1.5
v 2 7 -1.5
v 3 2 -1.5
v 3 3 -1.5
v 3 6 -1.5
v 6 6 -2.5
v 6 7 -2.5
v 7 6 -2.5
v 7 7 -2.5
v -6 7 -4.5
v -6 16 -4.5
v -5 6 -4.5
v -5 7 -4.5
v -4 5 -4.5
v -4 6 -4.5
v -3 5 -4.5
v 1 5 -4.5
v 2 5 -4.5
v 3 5 -4.5
v 3 6 -4.5
v 4 5 -4.5
v 4 6 -4.5
v 5 5 -4.5
v 5 7 -4.5
v 6 7 -4.5
v 6 16 -4.5
v -3 4 -5.5
v -3 5 -5.5
v 1 4 -5.5
v 1 5 -5.5
v 2 4 -5.5
v 2 5 -5.5
v 3 4 -5.5
v 3 5 -5.5
v -3 0 2.5
v -1 0 2.5
v 1 0 2.5
v 3 0 2.5
v -3 0 -0.5
v -1 0 -0.5
v 1 0 -0.5
v 3 0 -0.5
v -3 2 2.5
v 3 2 2.5
v -3 2 1.5
v -1 2 1.5
v 1 2 1.5
v 3 2 1.5
v -3 2 -0.5
v -1 2 -0.5
v 1 2 -0.5
v 3 2 -0.5
v -3 2 -1.5
v 3 2 -1.5
v -4 3 1.5
v -3 3 1.5
v 3 3 1.5
v 4 3 1.5
v -4 3 -0.5
v -3 3 -0.5
v 3 3 -0.5
v 4 3 -0.5
v -3 4 -4.5
v 1 4 -4.5
v 2 4 -4.5
v 3 4 -4.5
v -3 4 -5.5
v 1 4 -5.5
v 2 4 -5.5
v 3 4 -5.5
v -4 5 -3.5
v 3 5 -3.5
v 4 5 -3.5
v 5 5 -3.5
v -4 5 -4.5
v -3 5 -4.5
v 1 5 -4.5
v 2 5 -4.5
v 3 5 -4.5
v 4 5 -4.5
v 5 5 -4.5
v 5 6 4.5
v 6 6 4.5
v -6 6 3.5
v -5 6 3.5
v 5 6 3.5
v 6 6 3.5
v -6 6 2.5
v -5 6 2.5
v -7 6 1.5
v -6 6 1.5
v 6 6 0.5
v 7 6 0.5
v -7 6 -0.5
v -6 6 -0.5
v 6 6 -2.5
v 7 6 -2.5
v -5 6 -3.5
v -4 6 -3.5
v 3 6 -3.5
v 4 6 -3.5
v -5 6 -4.5
v -4 6 -4.5
v 3 6 -4.5
v 4 6 -4.5
v 5 7 3.5
v 6 7 3.5
v -6 7 2.5
v -5 7 2.5
v 5 7 2.5
v 6 7 2.5
v -6 7 1.5
v 5 7 1.5
v 6 7 1.5
v 6 7 0.5
v -6 7 -0.5
v 6 7 -2.5
v -5 7 -3.5
v 5 7 -3.5
v -6 7 -4.5
v -5 7 -4.5
v 5 7 -4.5
v 6 7 -4.5
v -5 8 4.5
v 5 8 4.5
v -6 8 3.5
v -5 8 3.5
v 5 8 3.5
v -6 8 2.5
v -5 8 2.5
v 5 8 2.5
v 6 8 2.5
v -2 8 1.5
v 2 8 1.5
v 5 8 1.5
v 6 8 1.5
v -2 8 -0.5
v 2 8 -0.5
v -5 8 -3.5
v 5 8 -3.5
v -6 11 5.5
v -4 11 5.5
v 5 11 5.5
v 6 11 5.5
v -5 11 4.5
v -4 11 4.5
v 5 11 4.5
v -6 11 3.5
v -5 11 3.5
v 5 11 3.5
v 6 11 3.5
v -4 12 5.5
v -2 12 5.5
v 2 12 5.5
v 5 12 5.5
v -4 12 4.5
v -3 12 4.5
v -2 12 4.5
v 2 12 4.5
v 3 12 4.5
v 4 12 4.5
v 5 12 4.5
v -2 13 5.5
v 0 13 5.5
v 1 13 5.5
v 2 13 5.5
v -2 13 4.5
v 0 13 4.5
v 1 13 4.5
v 2 13 4.5
v 0 14 5.5
v 1 14 5.5
v 0 14 4.5
v 1 14 4.5
v -3 1 2.5
v -1 1 2.5
v 1 1 2.5
v 3 1 2.5
v -3 1 1.5
v -1 1 1.5
v 1 1 1.5
v 3 1 1.5
v -3 5 -4.5
v 1 5 -4.5
v 2 5 -4.5
v 3 5 -4.5
v -3 5 -5.5
v 1 5 -5.5
v 2 5 -5.5
v 3 5 -5.5
v -3 6 2.5
v -2 6 2.5
v 2 6 2.5
v 3 6 2.5
v -4 6 1.5
v -3 6 1.5
v -2 6 1.5
v 2 6 1.5
v 3 6 1.5
v 4 6 1.5
v -4 6 -0.5
v -3 6 -0.5
v -2 6 -0.5
v 2 6 -0.5
v 3 6 -0.5
v 4 6 -0.5
v -3 6 -1.5
v -2 6 -1.5
v 2 6 -1.5
v 3 6 -1.5
v 5 7 4.5
v 6 7 4.5
v -6 7 3.5
v -5 7 3.5
v 5 7 3.5
v 6 7 3.5
v -6 7 2.5
v -5 7 2.5
v -2 7 2.5
v 2 7 2.5
v -7 7 1.5
v -6 7 1.5
v -3 7 1.5
v -2 7 1.5
v 2 7 1.5
v 3 7 1.5
v 6 7 0.5
v 7 7 0.5
v -7 7 -0.5
v -6 7 -0.5
v -3 7 -0.5
v -2 7 -0.5
v 2 7 -0.5
v 3 7 -0.5
v -2 7 -1.5
v 2 7 -1.5
v 6 7 -2.5
v 7 7 -2.5
v -6 16 5.5
v 6 16 5.5
v -6 16 -4.5
v 6 16 -4.5

# faces
f 3/3/1 2/3/1 1/3/1
f 4/3/1 2/3/1 3/3/1
f 7/3/1 6/3/1 5/3/1
f 8/3/1 6/3/1 7/3/1
f 13/3/1 11/3/1 10/3/1
f 13/3/1 10/3/1 9/3/1
f 13/3/1 9/3/1 8/3/1
f 15/3/1 13/3/1 12/3/1
f 16/3/1 15/3/1 14/3/1
f 17/3/1 11/3/1 13/3/1
f 17/3/1 15/3/1 16/3/1
f 17/3/1 13/3/1 15/3/1
f 20/3/1 19/3/1 18/3/1
f 21/3/1 19/3/1 20/3/1
f 24/8/1 23/8/1 22/8/1
f 25/8/1 23/8/1 24/8/1
f 26/1/1 25/1/1 24/1/1
f 27/1/1 25/1/1 26/1/1
f 28/8/1 27/8/1 26/8/1
f 29/8/1 27/8/1 28/8/1
f 32/8/1 31/8/1 30/8/1
f 33/8/1 31/8/1 32/8/1
f 36/4/1 33/4/1 32/4/1
f 37/4/1 33/4/1 36/4/1
f 38/3/1 35/3/1 34/3/1
f 39/3/1 35/3/1 38/3/1
f 42/2/1 41/2/1 40/2/1
f 43/2/1 41/2/1 42/2/1
f 44/2/1 41/2/1 43/2/1
f 46/5/1 44/5/1 43/5/1
f 47/5/1 44/5/1 46/5/1
f 49/5/1 47/5/1 46/5/1
f 49/5/1 48/5/1 47/5/1
f 49/5/1 46/5/1 45/5/1
f 50/5/1 48/5/1 49/5/1
f 51/5/1 48/5/1 50/5/1
f 52/5/1 48/5/1 51/5/1
f 55/4/1 50/4/1 49/4/1
f 56/4/1 52/4/1 51/4/1
f 57/3/1 54/3/1 53/3/1
f 58/3/1 54/3/1 57/3/1
f 59/4/1 55/4/1 49/4/1
f 60/4/1 55/4/1 59/4/1
f 61/4/1 52/4/1 56/4/1
f 62/4/1 52/4/1 61/4/1
f 63/4/1 61/4/1 60/4/1
f 64/4/1 61/4/1 63/4/1
f 69/4/1 66/4/1 65/4/1
f 70/4/1 66/4/1 69/4/1
f 71/4/1 68/4/1 67/4/1
f 72/4/1 68/4/1 71/4/1
f 73/8/1 71/8/1 70/8/1
f 74/8/1 71/8/1 73/8/1
f 77/2/1 76/2/1 75/2/1
f 78/2/1 76/2/1 77/2/1
f 79/2/1 76/2/1 78/2/1
f 80/5/1 79/5/1 78/5/1
f 81/5/1 79/5/1 80/5/1
f 84/3/1 83/3/1 82/3/1
f 85/3/1 83/3/1 84/3/1
f 88/3/1 87/3/1 86/3/1
f 89/3/1 87/3/1 88/3/1
f 92/3/1 91/3/1 90/3/1
f 93/3/1 91/3/1 92/3/1
f 96/3/1 95/3/1 94/3/1
f 97/3/1 95/3/1 96/3/1
f 100/3/1 99/3/1 98/3/1
f 101/3/1 99/3/1 100/3/1
f 105/3/1 102/3/1 101/3/1
f 106/3/1 102/3/1 105/3/1
f 107/3/1 104/3/1 103/3/1
f 108/3/1 104/3/1 107/3/1
f 111/3/1 110/3/1 109/3/1
f 112/3/1 110/3/1 111/3/1
f 115/3/1 114/3/1 113/3/1
f 116/3/1 114/3/1 115/3/1
f 117/3/2 118/3/2 119/3/2
f 119/3/2 118/3/2 120/3/2
f 121/3/2 122/3/2 123/3/2
f 123/3/2 122/3/2 124/3/2
f 124/3/2 125/3/2 126/3/2
f 126/3/2 125/3/2 127/3/2
f 128/3/2 129/3/2 130/3/2
f 130/3/2 129/3/2 131/3/2
f 132/3/2 133/3/2 134/3/2
f 134/3/2 133/3/2 135/3/2
f 136/2/2 137/2/2 138/2/2
f 138/2/2 137/2/2 139/2/2
f 139/2/2 137/2/2 140/2/2
f 139/5/2 140/5/2 141/5/2
f 141/5/2 140/5/2 142/5/2
f 143/3/2 144/3/2 145/3/2
f 145/3/2 144/3/2 146/3/2
f 147/3/2 148/3/2 149/3/2
f 149/3/2 148/3/2 150/3/2
f 151/4/2 152/4/2 155/4/2
f 155/4/2 152/4/2 156/4/2
f 153/4/2 154/4/2 157/4/2
f 157/4/2 154/4/2 158/4/2
f 156/8/2 157/8/2 159/8/2
f 159/8/2 157/8/2 160/8/2
f 161/2/2 162/2/2 163/2/2
f 163/2/2 162/2/2 164/2/2
f 164/2/2 162/2/2 165/2/2
f 164/5/2 165/5/2 167/5/2
f 167/5/2 165/5/2 168/5/2
f 167/5/2 168/5/2 170/5/2
f 168/5/2 169/5/2 170/5/2
f 166/5/2 167/5/2 170/5/2
f 170/5/2 169/5/2 171/5/2
f 171/5/2 169/5/2 172/5/2
f 172/5/2 169/5/2 173/5/2
f 170/4/2 171/4/2 176/4/2
f 172/4/2 173/4/2 177/4/2
f 174/3/2 175/3/2 179/3/2
f 179/3/2 175/3/2 180/3/2
f 170/4/2 176/4/2 181/4/2
f 181/4/2 176/4/2 182/4/2
f 177/4/2 173/4/2 183/4/2
f 183/4/2 173/4/2 184/4/2
f 178/3/2 179/3/2 185/3/2
f 185/3/2 179/3/2 186/3/2
f 182/4/2 183/4/2 187/4/2
f 187/4/2 183/4/2 188/4/2
f 189/8/2 190/8/2 191/8/2
f 191/8/2 190/8/2 192/8/2
f 191/4/2 192/4/2 193/4/2
f 193/4/2 192/4/2 194/4/2
f 195/3/2 196/3/2 197/3/2
f 197/3/2 196/3/2 198/3/2
f 199/8/2 200/8/2 201/8/2
f 201/8/2 200/8/2 202/8/2
f 201/1/2 202/1/2 203/1/2
f 203/1/2 202/1/2 204/1/2
f 203/8/2 204/8/2 205/8/2
f 205/8/2 204/8/2 206/8/2
f 207/3/2 208/3/2 209/3/2
f 209/3/2 208/3/2 210/3/2
f 210/3/2 211/3/2 216/3/2
f 214/3/2 215/3/2 217/3/2
f 213/3/2 214/3/2 217/3/2
f 212/3/2 213/3/2 217/3/2
f 210/3/2 216/3/2 219/3/2
f 216/3/2 217/3/2 219/3/2
f 218/3/2 219/3/2 220/3/2
f 217/3/2 215/3/2 221/3/2
f 220/3/2 219/3/2 221/3/2
f 219/3/2 217/3/2 221/3/2
f 222/3/2 223/3/2 224/3/2
f 224/3/2 223/3/2 225/3/2
f 228/3/3 227/3/3 226/3/3
f 229/3/3 227/3/3 228/3/3
f 230/3/3 227/3/3 229/3/3
f 231/3/3 227/3/3 230/3/3
f 232/3/3 227/3/3 231/3/3
f 233/3/3 227/3/3 232/3/3
f 235/3/3 227/3/3 233/3/3
f 237/3/3 235/3/3 234/3/3
f 239/3/3 237/3/3 236/3/3
f 240/3/3 239/3/3 238/3/3
f 241/3/3 227/3/3 235/3/3
f 241/3/3 239/3/3 240/3/3
f 241/3/3 235/3/3 237/3/3
f 241/3/3 237/3/3 239/3/3
f 246/1/3 244/1/3 243/1/3
f 246/8/3 245/8/3 244/8/3
f 247/8/3 245/8/3 246/8/3
f 249/8/3 243/8/3 242/8/3
f 249/1/3 246/1/3 243/1/3
f 250/6/3 248/6/3 247/6/3
f 250/1/3 246/1/3 249/1/3
f 250/6/3 247/6/3 246/6/3
f 251/6/3 248/6/3 250/6/3
f 252/8/3 250/8/3 249/8/3
f 252/8/3 251/8/3 250/8/3
f 254/8/3 253/8/3 252/8/3
f 256/8/3 254/8/3 252/8/3
f 256/8/3 255/8/3 254/8/3
f 257/8/3 255/8/3 256/8/3
f 258/8/3 252/8/3 249/8/3
f 258/8/3 256/8/3 252/8/3
f 259/8/3 256/8/3 258/8/3
f 260/8/3 249/8/3 242/8/3
f 260/8/3 258/8/3 249/8/3
f 261/8/3 258/8/3 260/8/3
f 262/8/3 258/8/3 261/8/3
f 263/1/3 261/1/3 260/1/3
f 263/6/3 262/6/3 261/6/3
f 264/6/3 262/6/3 263/6/3
f 267/8/3 260/8/3 242/8/3
f 268/1/3 263/1/3 260/1/3
f 268/8/3 260/8/3 267/8/3
f 269/8/3 264/8/3 263/8/3
f 269/1/3 263/1/3 268/1/3
f 270/8/3 264/8/3 269/8/3
f 271/8/3 264/8/3 270/8/3
f 272/3/3 266/3/3 265/3/3
f 273/3/3 266/3/3 272/3/3
f 278/3/3 275/3/3 274/3/3
f 279/3/3 275/3/3 278/3/3
f 280/3/3 277/3/3 276/3/3
f 281/3/3 277/3/3 280/3/3
f 282/3/3 277/3/3 281/3/3
f 283/3/3 277/3/3 282/3/3
f 289/3/3 285/3/3 284/3/3
f 289/3/3 288/3/3 287/3/3
f 289/3/3 287/3/3 286/3/3
f 289/3/3 286/3/3 285/3/3
f 290/3/3 288/3/3 289/3/3
f 293/3/3 292/3/3 291/3/3
f 294/3/3 292/3/3 293/3/3
f 300/4/3 299/4/3 298/4/3
f 302/2/3 296/2/3 295/2/3
f 303/2/3 296/2/3 302/2/3
f 306/4/3 301/4/3 300/4/3
f 306/4/3 300/4/3 298/4/3
f 307/4/3 301/4/3 306/4/3
f 308/2/3 305/2/3 304/2/3
f 309/2/3 305/2/3 308/2/3
f 310/5/3 298/5/3 297/5/3
f 311/4/3 306/4/3 298/4/3
f 311/5/3 298/5/3 310/5/3
f 312/4/3 306/4/3 311/4/3
f 315/3/3 314/3/3 313/3/3
f 316/3/3 314/3/3 315/3/3
f 322/8/3 318/8/3 317/8/3
f 323/4/3 319/4/3 318/4/3
f 323/8/3 318/8/3 322/8/3
f 324/4/3 319/4/3 323/4/3
f 326/4/3 325/4/3 324/4/3
f 327/4/3 325/4/3 326/4/3
f 329/5/3 321/5/3 320/5/3
f 330/5/3 321/5/3 329/5/3
f 334/8/3 328/8/3 327/8/3
f 335/8/3 328/8/3 334/8/3
f 336/5/3 332/5/3 331/5/3
f 337/5/3 332/5/3 336/5/3
f 340/4/3 334/4/3 333/4/3
f 341/4/3 334/4/3 340/4/3
f 342/8/3 339/8/3 338/8/3
f 343/4/3 340/4/3 339/4/3
f 343/8/3 339/8/3 342/8/3
f 344/4/3 340/4/3 343/4/3
f 347/3/3 346/3/3 345/3/3
f 348/3/3 346/3/3 347/3/3
f 351/3/3 350/3/3 349/3/3
f 352/3/3 350/3/3 351/3/3
f 357/3/3 354/3/3 353/3/3
f 357/3/3 355/3/3 354/3/3
f 358/3/3 357/3/3 356/3/3
f 359/3/3 355/3/3 357/3/3
f 359/3/3 357/3/3 358/3/3
f 361/3/3 355/3/3 359/3/3
f 362/3/3 361/3/3 360/3/3
f 363/3/3 355/3/3 361/3/3
f 363/3/3 361/3/3 362/3/3
f 364/3/3 355/3/3 363/3/3
f 367/3/3 366/3/3 365/3/3
f 368/3/3 366/3/3 367/3/3
f 371/3/3 370/3/3 369/3/3
f 372/3/3 370/3/3 371/3/3
f 373/3/4 374/3/4 375/3/4
f 375/3/4 374/3/4 376/3/4
f 377/3/4 378/3/4 379/3/4
f 379/3/4 378/3/4 380/3/4
f 381/3/4 382/3/4 383/3/4
f 383/3/4 382/3/4 384/3/4
f 385/3/4 386/3/4 387/3/4
f 387/3/4 386/3/4 388/3/4
f 389/8/4 390/8/4 395/8/4
f 390/4/4 391/4/4 396/4/4
f 395/8/4 390/8/4 396/8/4
f 396/4/4 391/4/4 397/4/4
f 397/4/4 398/4/4 399/4/4
f 399/4/4 398/4/4 400/4/4
f 392/2/4 393/2/4 402/2/4
f 393/5/4 394/5/4 403/5/4
f 402/2/4 393/2/4 403/2/4
f 403/5/4 394/5/4 404/5/4
f 400/8/4 401/8/4 409/8/4
f 409/8/4 401/8/4 410/8/4
f 405/2/4 406/2/4 411/2/4
f 406/5/4 407/5/4 412/5/4
f 411/2/4 406/2/4 412/2/4
f 412/5/4 407/5/4 413/5/4
f 408/4/4 409/4/4 416/4/4
f 416/4/4 409/4/4 417/4/4
f 414/8/4 415/8/4 418/8/4
f 415/4/4 416/4/4 419/4/4
f 418/8/4 415/8/4 419/8/4
f 419/4/4 416/4/4 420/4/4
f 422/4/4 423/4/4 424/4/4
f 422/4/4 424/4/4 426/4/4
f 424/4/4 425/4/4 426/4/4
f 426/4/4 425/4/4 427/4/4
f 421/5/4 422/5/4 428/5/4
f 422/4/4 426/4/4 429/4/4
f 428/5/4 422/5/4 429/5/4
f 429/4/4 426/4/4 430/4/4
f 431/3/4 432/3/4 433/3/4
f 433/3/4 432/3/4 434/3/4
f 435/3/4 436/3/4 438/3/4
f 437/3/4 438/3/4 440/3/4
f 439/3/4 440/3/4 441/3/4
f 441/3/4 440/3/4 442/3/4
f 442/3/4 440/3/4 443/3/4
f 443/3/4 440/3/4 444/3/4
f 440/3/4 438/3/4 445/3/4
f 444/3/4 440/3/4 445/3/4
f 445/3/4 438/3/4 447/3/4
f 446/3/4 447/3/4 448/3/4
f 438/3/4 436/3/4 449/3/4
f 448/3/4 447/3/4 449/3/4
f 447/3/4 438/3/4 449/3/4
f 449/3/4 436/3/4 450/3/4
f 450/3/4 436/3/4 451/3/4
f 452/3/4 453/3/4 454/3/4
f 454/3/4 453/3/4 455/3/4
f 456/3/4 457/3/4 458/3/4
f 458/3/4 457/3/4 459/3/4
f 464/2/5 461/2/5 460/2/5
f 465/2/5 461/2/5 464/2/5
f 466/2/5 463/2/5 462/2/5
f 467/2/5 463/2/5 466/2/5
f 470/5/5 469/5/5 468/5/5
f 471/5/5 469/5/5 470/5/5
f 472/5/5 469/5/5 471/5/5
f 473/5/5 469/5/5 472/5/5
f 475/9/5 472/9/5 471/9/5
f 476/9/5 472/9/5 475/9/5
f 478/5/5 475/5/5 474/5/5
f 478/5/5 477/5/5 476/5/5
f 478/5/5 476/5/5 475/5/5
f 479/5/5 477/5/5 478/5/5
f 484/8/5 481/8/5 480/8/5
f 485/8/5 481/8/5 484/8/5
f 486/8/5 483/8/5 482/8/5
f 487/8/5 483/8/5 486/8/5
f 492/3/5 489/3/5 488/3/5
f 493/3/5 489/3/5 492/3/5
f 494/3/5 491/3/5 490/3/5
f 495/3/5 491/3/5 494/3/5
f 500/3/5 497/3/5 496/3/5
f 501/3/5 497/3/5 500/3/5
f 502/3/5 497/3/5 501/3/5
f 503/3/5 497/3/5 502/3/5
f 504/3/5 497/3/5 503/3/5
f 505/3/5 499/3/5 498/3/5
f 506/3/5 499/3/5 505/3/5
f 511/3/5 508/3/5 507/3/5
f 512/3/5 508/3/5 511/3/5
f 513/3/5 510/3/5 509/3/5
f 514/3/5 510/3/5 513/3/5
f 519/3/5 516/3/5 515/3/5
f 520/3/5 516/3/5 519/3/5
f 521/3/5 518/3/5 517/3/5
f 522/3/5 518/3/5 521/3/5
f 527/3/5 524/3/5 523/3/5
f 528/3/5 524/3/5 527/3/5
f 529/3/5 526/3/5 525/3/5
f 530/3/5 526/3/5 529/3/5
f 535/3/5 532/3/5 531/3/5
f 536/3/5 532/3/5 535/3/5
f 537/3/5 534/3/5 533/3/5
f 540/3/5 539/3/5 538/3/5
f 541/3/5 534/3/5 537/3/5
f 542/3/5 540/3/5 538/3/5
f 543/3/5 534/3/5 541/3/5
f 544/3/5 542/3/5 538/3/5
f 545/3/5 543/3/5 541/3/5
f 546/3/5 543/3/5 545/3/5
f 547/3/5 542/3/5 544/3/5
f 548/3/5 542/3/5 547/3/5
f 552/8/5 550/8/5 549/8/5
f 553/8/5 550/8/5 552/8/5
f 554/3/5 552/3/5 551/3/5
f 555/8/5 553/8/5 552/8/5
f 555/3/5 552/3/5 554/3/5
f 556/8/5 553/8/5 555/8/5
f 558/8/5 556/8/5 555/8/5
f 559/8/5 556/8/5 558/8/5
f 560/3/5 557/3/5 556/3/5
f 560/8/5 556/8/5 559/8/5
f 561/3/5 557/3/5 560/3/5
f 562/8/5 558/8/5 555/8/5
f 563/8/5 560/8/5 559/8/5
f 564/8/5 562/8/5 555/8/5
f 564/8/5 563/8/5 562/8/5
f 565/8/5 560/8/5 563/8/5
f 565/8/5 563/8/5 564/8/5
f 570/3/5 567/3/5 566/3/5
f 571/3/5 567/3/5 570/3/5
f 572/3/5 569/3/5 568/3/5
f 573/3/5 570/3/5 566/3/5
f 574/3/5 570/3/5 573/3/5
f 575/3/5 569/3/5 572/3/5
f 576/3/5 569/3/5 575/3/5
f 581/3/5 578/3/5 577/3/5
f 582/3/5 578/3/5 581/3/5
f 583/3/5 578/3/5 582/3/5
f 584/3/5 580/3/5 579/3/5
f 585/3/5 580/3/5 584/3/5
f 586/3/5 580/3/5 585/3/5
f 587/3/5 580/3/5 586/3/5
f 592/3/5 589/3/5 588/3/5
f 593/3/5 589/3/5 592/3/5
f 594/3/5 591/3/5 590/3/5
f 595/3/5 591/3/5 594/3/5
f 598/3/5 597/3/5 596/3/5
f 599/3/5 597/3/5 598/3/5
f 600/2/6 601/2/6 604/2/6
f 604/2/6 601/2/6 605/2/6
f 602/2/6 603/2/6 606/2/6
f 606/2/6 603/2/6 607/2/6
f 608/3/6 609/3/6 612/3/6
f 612/3/6 609/3/6 613/3/6
f 610/3/6 611/3/6 614/3/6
f 614/3/6 611/3/6 615/3/6
f 616/4/6 617/4/6 621/4/6
f 621/4/6 617/4/6 622/4/6
f 618/4/6 619/4/6 623/4/6
f 623/4/6 619/4/6 624/4/6
f 620/4/6 621/4/6 626/4/6
f 626/4/6 621/4/6 627/4/6
f 624/4/6 625/4/6 630/4/6
f 630/4/6 625/4/6 631/4/6
f 627/4/6 628/4/6 632/4/6
f 632/4/6 628/4/6 633/4/6
f 629/4/6 630/4/6 634/4/6
f 634/4/6 630/4/6 635/4/6
f 636/3/6 637/3/6 640/3/6
f 640/3/6 637/3/6 641/3/6
f 638/3/6 639/3/6 642/3/6
f 642/3/6 639/3/6 643/3/6
f 644/4/6 645/4/6 649/4/6
f 649/4/6 645/4/6 650/4/6
f 646/3/6 647/3/6 654/3/6
f 654/3/6 647/3/6 655/3/6
f 648/4/6 649/4/6 656/4/6
f 656/4/6 649/4/6 657/4/6
f 650/4/6 651/4/6 658/4/6
f 658/4/6 651/4/6 659/4/6
f 657/4/6 658/4/6 660/4/6
f 660/4/6 658/4/6 661/4/6
f 652/3/6 653/3/6 662/3/6
f 662/3/6 653/3/6 663/3/6
f 664/3/6 665/3/6 666/3/6
f 666/3/6 665/3/6 667/3/6
