# MagicaVoxel @ ephtracy

# material
mtllib rose2.mtl
usemtl palette

# normals
vn -1 0 0
vn 1 0 0
vn 0 0 1
vn 0 0 -1
vn 0 -1 0
vn 0 1 0

# texcoords
vt 0.0292969 0.5
vt 0.908203 0.5
vt 0.939453 0.5
vt 0.947266 0.5
vt 0.951172 0.5
vt 0.955078 0.5
vt 0.974609 0.5
vt 0.986328 0.5
vt 0.990234 0.5
vt 0.994141 0.5

# verts
v -7 6 1.5
v -7 6 -0.5
v -7 7 1.5
v -7 7 -0.5
v -6 6 3.5
v -6 6 2.5
v -6 7 3.5
v -6 7 2.5
v -6 7 1.5
v -6 7 -0.5
v -6 7 -3.5
v -6 8 3.5
v -6 8 2.5
v -6 11 4.5
v -6 11 3.5
v -6 14 4.5
v -6 14 3.5
v -6 14 -2.5
v -6 14 -3.5
v -6 15 3.5
v -6 15 -2.5
v -5 6 -3.5
v -5 6 -4.5
v -5 7 -3.5
v -5 8 4.5
v -5 8 3.5
v -5 9 4.5
v -5 9 3.5
v -5 10 4.5
v -5 10 3.5
v -5 11 5.5
v -5 11 4.5
v -5 11 3.5
v -5 14 5.5
v -5 14 4.5
v -5 14 3.5
v -5 14 -2.5
v -5 14 -3.5
v -5 14 -4.5
v -5 15 4.5
v -5 15 3.5
v -5 15 -2.5
v -5 15 -3.5
v -5 16 3.5
v -5 16 -2.5
v -4 3 0.5
v -4 3 -1.5
v -4 4 1.5
v -4 4 0.5
v -4 5 1.5
v -4 5 -0.5
v -4 5 -1.5
v -4 5 -3.5
v -4 5 -4.5
v -4 6 1.5
v -4 6 -0.5
v -4 6 -3.5
v -4 6 -4.5
v -4 14 5.5
v -4 14 4.5
v -4 14 -3.5
v -4 14 -4.5
v -4 15 5.5
v -4 15 4.5
v -4 15 3.5
v -4 15 -2.5
v -4 15 -3.5
v -4 15 -4.5
v -4 16 4.5
v -4 16 3.5
v -4 16 -2.5
v -4 16 -3.5
v -3 0 3.5
v -3 0 0.5
v -3 1 3.5
v -3 1 2.5
v -3 1 0.5
v -3 2 0.5
v -3 2 -1.5
v -3 3 2.5
v -3 3 0.5
v -3 3 -1.5
v -3 4 1.5
v -3 4 0.5
v -3 4 -4.5
v -3 4 -5.5
v -3 5 1.5
v -3 5 -0.5
v -3 5 -1.5
v -3 5 -4.5
v -3 5 -5.5
v -3 6 2.5
v -3 6 1.5
v -3 6 -0.5
v -3 6 -1.5
v -3 7 1.5
v -3 7 -0.5
v -2 6 2.5
v -2 6 1.5
v -2 6 -0.5
v -2 6 -1.5
v -2 7 2.5
v -2 7 1.5
v -2 7 -0.5
v -2 7 -1.5
v -2 8 1.5
v -2 8 -0.5
v 1 0 1.5
v 1 0 -1.5
v 1 1 1.5
v 1 1 0.5
v 1 1 -1.5
v 1 2 0.5
v 1 2 -1.5
v 1 13 5.5
v 1 13 4.5
v 1 14 5.5
v 1 14 4.5
v 2 4 -4.5
v 2 4 -5.5
v 2 5 -4.5
v 2 5 -5.5
v 2 12 5.5
v 2 12 4.5
v 2 13 5.5
v 2 13 4.5
v 4 5 -3.5
v 4 5 -4.5
v 4 6 -3.5
v 4 6 -4.5
v 4 11 5.5
v 4 11 4.5
v 4 12 5.5
v 4 12 4.5
v 5 6 4.5
v 5 6 3.5
v 5 7 4.5
v 5 7 3.5
v 5 7 2.5
v 5 7 1.5
v 5 7 -3.5
v 5 8 3.5
v 5 8 2.5
v 5 8 1.5
v 5 8 -3.5
v 6 6 0.5
v 6 6 -2.5
v 6 7 0.5
v 6 7 -2.5
v -6 6 1.5
v -6 6 -0.5
v -6 7 1.5
v -6 7 -0.5
v -5 6 3.5
v -5 6 2.5
v -5 7 3.5
v -5 7 2.5
v -5 7 -3.5
v -5 8 2.5
v -5 8 -3.5
v -4 11 5.5
v -4 11 4.5
v -4 12 5.5
v -4 12 4.5
v -2 12 5.5
v -2 12 4.5
v -2 13 5.5
v -2 13 4.5
v -1 0 3.5
v -1 0 0.5
v -1 1 3.5
v -1 1 2.5
v -1 1 0.5
v -1 2 2.5
v -1 2 0.5
v 0 13 5.5
v 0 13 4.5
v 0 14 5.5
v 0 14 4.5
v 1 4 -4.5
v 1 4 -5.5
v 1 5 -4.5
v 1 5 -5.5
v 2 6 2.5
v 2 6 1.5
v 2 6 -0.5
v 2 6 -1.5
v 2 7 2.5
v 2 7 1.5
v 2 7 -0.5
v 2 7 -1.5
v 2 8 1.5
v 2 8 -0.5
v 3 0 1.5
v 3 0 -1.5
v 3 1 1.5
v 3 1 0.5
v 3 1 -1.5
v 3 2 2.5
v 3 2 0.5
v 3 3 2.5
v 3 3 0.5
v 3 3 -1.5
v 3 4 0.5
v 3 4 -0.5
v 3 4 -4.5
v 3 4 -5.5
v 3 5 2.5
v 3 5 1.5
v 3 5 -0.5
v 3 5 -3.5
v 3 5 -4.5
v 3 5 -5.5
v 3 6 2.5
v 3 6 1.5
v 3 6 -0.5
v 3 6 -1.5
v 3 6 -3.5
v 3 6 -4.5
v 3 7 1.5
v 3 7 -0.5
v 4 3 2.5
v 4 3 0.5
v 4 4 0.5
v 4 4 -0.5
v 4 5 2.5
v 4 5 1.5
v 4 5 -0.5
v 4 6 1.5
v 4 6 -0.5
v 4 14 5.5
v 4 14 4.5
v 4 14 -3.5
v 4 14 -4.5
v 4 15 5.5
v 4 15 4.5
v 4 15 3.5
v 4 15 -2.5
v 4 15 -3.5
v 4 15 -4.5
v 4 16 4.5
v 4 16 3.5
v 4 16 -2.5
v 4 16 -3.5
v 5 5 -3.5
v 5 5 -4.5
v 5 7 -3.5
v 5 8 4.5
v 5 8 3.5
v 5 9 4.5
v 5 9 3.5
v 5 10 4.5
v 5 10 3.5
v 5 11 5.5
v 5 11 4.5
v 5 11 3.5
v 5 14 5.5
v 5 14 4.5
v 5 14 3.5
v 5 14 -2.5
v 5 14 -3.5
v 5 14 -4.5
v 5 15 4.5
v 5 15 3.5
v 5 15 -2.5
v 5 15 -3.5
v 5 16 3.5
v 5 16 -2.5
v 6 6 4.5
v 6 6 3.5
v 6 7 4.5
v 6 7 3.5
v 6 7 2.5
v 6 7 1.5
v 6 7 0.5
v 6 7 -2.5
v 6 7 -3.5
v 6 8 2.5
v 6 8 1.5
v 6 11 4.5
v 6 11 3.5
v 6 14 4.5
v 6 14 3.5
v 6 14 -2.5
v 6 14 -3.5
v 6 15 3.5
v 6 15 -2.5
v 7 6 0.5
v 7 6 -2.5
v 7 7 0.5
v 7 7 -2.5
v -5 11 5.5
v -5 14 5.5
v -4 11 5.5
v -4 12 5.5
v -4 14 5.5
v -4 15 5.5
v -2 12 5.5
v -2 13 5.5
v 0 13 5.5
v 0 14 5.5
v 1 13 5.5
v 1 14 5.5
v 2 12 5.5
v 2 13 5.5
v 4 11 5.5
v 4 12 5.5
v 4 14 5.5
v 4 15 5.5
v 5 11 5.5
v 5 14 5.5
v -6 11 4.5
v -6 14 4.5
v -5 8 4.5
v -5 9 4.5
v -5 10 4.5
v -5 11 4.5
v -5 14 4.5
v -5 15 4.5
v -4 11 4.5
v -4 12 4.5
v -4 14 4.5
v -4 15 4.5
v -4 16 4.5
v -3 9 4.5
v -3 10 4.5
v -3 12 4.5
v -2 10 4.5
v -2 12 4.5
v -2 13 4.5
v 0 13 4.5
v 0 14 4.5
v 1 13 4.5
v 1 14 4.5
v 2 10 4.5
v 2 12 4.5
v 2 13 4.5
v 3 9 4.5
v 3 10 4.5
v 3 12 4.5
v 4 11 4.5
v 4 12 4.5
v 4 14 4.5
v 4 15 4.5
v 4 16 4.5
v 5 6 4.5
v 5 7 4.5
v 5 8 4.5
v 5 9 4.5
v 5 10 4.5
v 5 11 4.5
v 5 14 4.5
v 5 15 4.5
v 6 6 4.5
v 6 7 4.5
v 6 11 4.5
v 6 14 4.5
v -6 6 3.5
v -6 7 3.5
v -6 8 3.5
v -6 11 3.5
v -6 14 3.5
v -6 15 3.5
v -5 6 3.5
v -5 7 3.5
v -5 8 3.5
v -5 9 3.5
v -5 10 3.5
v -5 11 3.5
v -5 14 3.5
v -5 15 3.5
v -5 16 3.5
v -4 15 3.5
v -4 16 3.5
v -3 0 3.5
v -3 1 3.5
v -1 0 3.5
v -1 1 3.5
v 4 15 3.5
v 4 16 3.5
v 5 7 3.5
v 5 8 3.5
v 5 9 3.5
v 5 10 3.5
v 5 11 3.5
v 5 14 3.5
v 5 15 3.5
v 5 16 3.5
v 6 7 3.5
v 6 11 3.5
v 6 14 3.5
v 6 15 3.5
v -6 7 2.5
v -6 8 2.5
v -5 7 2.5
v -5 8 2.5
v -3 1 2.5
v -3 3 2.5
v -3 6 2.5
v -2 6 2.5
v -2 7 2.5
v -1 1 2.5
v -1 2 2.5
v 2 6 2.5
v 2 7 2.5
v 3 2 2.5
v 3 3 2.5
v 3 5 2.5
v 3 6 2.5
v 4 3 2.5
v 4 5 2.5
v -7 6 1.5
v -7 7 1.5
v -6 6 1.5
v -6 7 1.5
v -4 4 1.5
v -4 5 1.5
v -4 6 1.5
v -3 4 1.5
v -3 5 1.5
v -3 6 1.5
v -3 7 1.5
v -2 6 1.5
v -2 7 1.5
v -2 8 1.5
v 1 0 1.5
v 1 1 1.5
v 2 6 1.5
v 2 7 1.5
v 2 8 1.5
v 3 0 1.5
v 3 1 1.5
v 3 5 1.5
v 3 6 1.5
v 3 7 1.5
v 4 5 1.5
v 4 6 1.5
v 5 7 1.5
v 5 8 1.5
v 6 7 1.5
v 6 8 1.5
v -4 3 0.5
v -4 4 0.5
v -3 3 0.5
v -3 4 0.5
v 1 1 0.5
v 1 2 0.5
v 3 1 0.5
v 3 2 0.5
v 6 6 0.5
v 6 7 0.5
v 7 6 0.5
v 7 7 0.5
v -5 6 -3.5
v -5 7 -3.5
v -5 8 -3.5
v -4 5 -3.5
v -4 6 -3.5
v 3 5 -3.5
v 3 6 -3.5
v 4 5 -3.5
v 4 6 -3.5
v 5 5 -3.5
v 5 7 -3.5
v 5 8 -3.5
v -3 4 -4.5
v -3 5 -4.5
v 1 4 -4.5
v 1 5 -4.5
v 2 4 -4.5
v 2 5 -4.5
v 3 4 -4.5
v 3 5 -4.5
v 5 6 3.5
v 5 7 3.5
v 6 6 3.5
v 6 7 3.5
v -6 6 2.5
v -6 7 2.5
v -5 6 2.5
v -5 7 2.5
v 5 7 2.5
v 5 8 2.5
v 6 7 2.5
v 6 8 2.5
v -3 0 0.5
v -3 1 0.5
v -3 2 0.5
v -1 0 0.5
v -1 1 0.5
v -1 2 0.5
v 3 3 0.5
v 3 4 0.5
v 4 3 0.5
v 4 4 0.5
v -7 6 -0.5
v -7 7 -0.5
v -6 6 -0.5
v -6 7 -0.5
v -4 5 -0.5
v -4 6 -0.5
v -3 5 -0.5
v -3 6 -0.5
v -3 7 -0.5
v -2 6 -0.5
v -2 7 -0.5
v -2 8 -0.5
v 2 6 -0.5
v 2 7 -0.5
v 2 8 -0.5
v 3 4 -0.5
v 3 5 -0.5
v 3 6 -0.5
v 3 7 -0.5
v 4 4 -0.5
v 4 5 -0.5
v 4 6 -0.5
v -4 3 -1.5
v -4 5 -1.5
v -3 2 -1.5
v -3 3 -1.5
v -3 5 -1.5
v -3 6 -1.5
v -2 6 -1.5
v -2 7 -1.5
v 1 0 -1.5
v 1 1 -1.5
v 1 2 -1.5
v 2 6 -1.5
v 2 7 -1.5
v 3 0 -1.5
v 3 1 -1.5
v 3 3 -1.5
v 3 6 -1.5
v -6 14 -2.5
v -6 15 -2.5
v -5 14 -2.5
v -5 15 -2.5
v -5 16 -2.5
v -4 15 -2.5
v -4 16 -2.5
v 4 15 -2.5
v 4 16 -2.5
v 5 14 -2.5
v 5 15 -2.5
v 5 16 -2.5
v 6 6 -2.5
v 6 7 -2.5
v 6 14 -2.5
v 6 15 -2.5
v 7 6 -2.5
v 7 7 -2.5
v -6 7 -3.5
v -6 14 -3.5
v -5 7 -3.5
v -5 14 -3.5
v -5 15 -3.5
v -4 14 -3.5
v -4 15 -3.5
v -4 16 -3.5
v 4 14 -3.5
v 4 15 -3.5
v 4 16 -3.5
v 5 7 -3.5
v 5 14 -3.5
v 5 15 -3.5
v 6 7 -3.5
v 6 14 -3.5
v -5 6 -4.5
v -5 14 -4.5
v -4 5 -4.5
v -4 6 -4.5
v -4 14 -4.5
v -4 15 -4.5
v -3 5 -4.5
v 1 5 -4.5
v 2 5 -4.5
v 3 5 -4.5
v 3 6 -4.5
v 4 5 -4.5
v 4 6 -4.5
v 4 14 -4.5
v 4 15 -4.5
v 5 5 -4.5
v 5 14 -4.5
v -3 4 -5.5
v -3 5 -5.5
v 1 4 -5.5
v 1 5 -5.5
v 2 4 -5.5
v 2 5 -5.5
v 3 4 -5.5
v 3 5 -5.5
v -3 0 3.5
v -1 0 3.5
v 1 0 1.5
v 3 0 1.5
v -3 0 0.5
v -1 0 0.5
v 1 0 -1.5
v 3 0 -1.5
v -1 2 2.5
v 3 2 2.5
v -3 2 0.5
v -1 2 0.5
v 1 2 0.5
v 3 2 0.5
v -3 2 -1.5
v 1 2 -1.5
v 3 3 2.5
v 4 3 2.5
v -4 3 0.5
v -3 3 0.5
v 3 3 0.5
v 4 3 0.5
v -4 3 -1.5
v -3 3 -1.5
v -4 4 1.5
v -3 4 1.5
v -4 4 0.5
v -3 4 0.5
v 3 4 0.5
v 4 4 0.5
v 3 4 -0.5
v 4 4 -0.5
v -3 4 -4.5
v 1 4 -4.5
v 2 4 -4.5
v 3 4 -4.5
v -3 4 -5.5
v 1 4 -5.5
v 2 4 -5.5
v 3 4 -5.5
v -4 5 -3.5
v 3 5 -3.5
v 4 5 -3.5
v 5 5 -3.5
v -4 5 -4.5
v -3 5 -4.5
v 1 5 -4.5
v 2 5 -4.5
v 3 5 -4.5
v 4 5 -4.5
v 5 5 -4.5
v 5 6 4.5
v 6 6 4.5
v -6 6 3.5
v -5 6 3.5
v 5 6 3.5
v 6 6 3.5
v -6 6 2.5
v -5 6 2.5
v -7 6 1.5
v -6 6 1.5
v 6 6 0.5
v 7 6 0.5
v -7 6 -0.5
v -6 6 -0.5
v 6 6 -2.5
v 7 6 -2.5
v -5 6 -3.5
v -4 6 -3.5
v 3 6 -3.5
v 4 6 -3.5
v -5 6 -4.5
v -4 6 -4.5
v 3 6 -4.5
v 4 6 -4.5
v 5 7 3.5
v 6 7 3.5
v -6 7 2.5
v -5 7 2.5
v 5 7 2.5
v 6 7 2.5
v -6 7 1.5
v 5 7 1.5
v 6 7 1.5
v 6 7 0.5
v -6 7 -0.5
v 6 7 -2.5
v -6 7 -3.5
v -5 7 -3.5
v 5 7 -3.5
v 6 7 -3.5
v -5 8 4.5
v 5 8 4.5
v -6 8 3.5
v -5 8 3.5
v 5 8 3.5
v -6 8 2.5
v -5 8 2.5
v 5 8 2.5
v 6 8 2.5
v -2 8 1.5
v 2 8 1.5
v 5 8 1.5
v 6 8 1.5
v -2 8 -0.5
v 2 8 -0.5
v -5 8 -3.5
v 5 8 -3.5
v -5 11 5.5
v -4 11 5.5
v 4 11 5.5
v 5 11 5.5
v -6 11 4.5
v -5 11 4.5
v -4 11 4.5
v 4 11 4.5
v 5 11 4.5
v 6 11 4.5
v -6 11 3.5
v -5 11 3.5
v 5 11 3.5
v 6 11 3.5
v -4 12 5.5
v -2 12 5.5
v 2 12 5.5
v 4 12 5.5
v -4 12 4.5
v -3 12 4.5
v -2 12 4.5
v 2 12 4.5
v 3 12 4.5
v 4 12 4.5
v -2 13 5.5
v 0 13 5.5
v 1 13 5.5
v 2 13 5.5
v -2 13 4.5
v 0 13 4.5
v 1 13 4.5
v 2 13 4.5
v 0 14 5.5
v 1 14 5.5
v 0 14 4.5
v 1 14 4.5
v -3 1 3.5
v -1 1 3.5
v -3 1 2.5
v -1 1 2.5
v 1 1 1.5
v 3 1 1.5
v 1 1 0.5
v 3 1 0.5
v 3 5 2.5
v 4 5 2.5
v 3 5 1.5
v 4 5 1.5
v -4 5 -0.5
v -3 5 -0.5
v -4 5 -1.5
v -3 5 -1.5
v -3 5 -4.5
v 1 5 -4.5
v 2 5 -4.5
v 3 5 -4.5
v -3 5 -5.5
v 1 5 -5.5
v 2 5 -5.5
v 3 5 -5.5
v -3 6 2.5
v -2 6 2.5
v 2 6 2.5
v 3 6 2.5
v -4 6 1.5
v -3 6 1.5
v -2 6 1.5
v 2 6 1.5
v 3 6 1.5
v 4 6 1.5
v -4 6 -0.5
v -3 6 -0.5
v -2 6 -0.5
v 2 6 -0.5
v 3 6 -0.5
v 4 6 -0.5
v -3 6 -1.5
v -2 6 -1.5
v 2 6 -1.5
v 3 6 -1.5
v 5 7 4.5
v 6 7 4.5
v -6 7 3.5
v -5 7 3.5
v 5 7 3.5
v 6 7 3.5
v -6 7 2.5
v -5 7 2.5
v -2 7 2.5
v 2 7 2.5
v -7 7 1.5
v -6 7 1.5
v -3 7 1.5
v -2 7 1.5
v 2 7 1.5
v 3 7 1.5
v 6 7 0.5
v 7 7 0.5
v -7 7 -0.5
v -6 7 -0.5
v -3 7 -0.5
v -2 7 -0.5
v 2 7 -0.5
v 3 7 -0.5
v -2 7 -1.5
v 2 7 -1.5
v 6 7 -2.5
v 7 7 -2.5
v -5 14 5.5
v -4 14 5.5
v 4 14 5.5
v 5 14 5.5
v -6 14 4.5
v -5 14 4.5
v -4 14 4.5
v 4 14 4.5
v 5 14 4.5
v 6 14 4.5
v -6 14 3.5
v -5 14 3.5
v 5 14 3.5
v 6 14 3.5
v -6 14 -2.5
v -5 14 -2.5
v 5 14 -2.5
v 6 14 -2.5
v -6 14 -3.5
v -5 14 -3.5
v -4 14 -3.5
v 4 14 -3.5
v 5 14 -3.5
v 6 14 -3.5
v -5 14 -4.5
v -4 14 -4.5
v 4 14 -4.5
v 5 14 -4.5
v -4 15 5.5
v 4 15 5.5
v -5 15 4.5
v -4 15 4.5
v 4 15 4.5
v 5 15 4.5
v -6 15 3.5
v -5 15 3.5
v -4 15 3.5
v 4 15 3.5
v 5 15 3.5
v 6 15 3.5
v -6 15 -2.5
v -5 15 -2.5
v -4 15 -2.5
v 4 15 -2.5
v 5 15 -2.5
v 6 15 -2.5
v -5 15 -3.5
v -4 15 -3.5
v 4 15 -3.5
v 5 15 -3.5
v -4 15 -4.5
v 4 15 -4.5
v -4 16 4.5
v 4 16 4.5
v -5 16 3.5
v -4 16 3.5
v 4 16 3.5
v 5 16 3.5
v -5 16 -2.5
v -4 16 -2.5
v 4 16 -2.5
v 5 16 -2.5
v -4 16 -3.5
v 4 16 -3.5

# faces
f 3/3/1 2/3/1 1/3/1
f 4/3/1 2/3/1 3/3/1
f 7/3/1 6/3/1 5/3/1
f 8/3/1 6/3/1 7/3/1
f 13/3/1 11/3/1 10/3/1
f 13/3/1 10/3/1 9/3/1
f 13/3/1 9/3/1 8/3/1
f 15/3/1 13/3/1 12/3/1
f 16/3/1 15/3/1 14/3/1
f 17/3/1 13/3/1 15/3/1
f 17/3/1 15/3/1 16/3/1
f 18/3/1 11/3/1 13/3/1
f 18/3/1 13/3/1 17/3/1
f 19/3/1 11/3/1 18/3/1
f 20/3/1 18/3/1 17/3/1
f 21/3/1 18/3/1 20/3/1
f 24/3/1 23/3/1 22/3/1
f 27/8/1 26/8/1 25/8/1
f 28/8/1 26/8/1 27/8/1
f 29/1/1 28/1/1 27/1/1
f 30/1/1 28/1/1 29/1/1
f 32/8/1 30/8/1 29/8/1
f 33/8/1 30/8/1 32/8/1
f 34/3/1 32/3/1 31/3/1
f 35/3/1 32/3/1 34/3/1
f 38/3/1 23/3/1 24/3/1
f 39/3/1 23/3/1 38/3/1
f 40/3/1 36/3/1 35/3/1
f 41/3/1 36/3/1 40/3/1
f 42/3/1 38/3/1 37/3/1
f 43/3/1 38/3/1 42/3/1
f 44/3/1 42/3/1 41/3/1
f 45/3/1 42/3/1 44/3/1
f 49/8/1 47/8/1 46/8/1
f 50/8/1 49/8/1 48/8/1
f 51/8/1 47/8/1 49/8/1
f 51/8/1 49/8/1 50/8/1
f 52/8/1 47/8/1 51/8/1
f 55/4/1 51/4/1 50/4/1
f 56/4/1 51/4/1 55/4/1
f 57/3/1 54/3/1 53/3/1
f 58/3/1 54/3/1 57/3/1
f 63/3/1 60/3/1 59/3/1
f 64/3/1 60/3/1 63/3/1
f 67/3/1 62/3/1 61/3/1
f 68/3/1 62/3/1 67/3/1
f 69/3/1 65/3/1 64/3/1
f 70/3/1 65/3/1 69/3/1
f 71/3/1 67/3/1 66/3/1
f 72/3/1 67/3/1 71/3/1
f 75/2/1 74/2/1 73/2/1
f 76/2/1 74/2/1 75/2/1
f 77/2/1 74/2/1 76/2/1
f 78/5/1 77/5/1 76/5/1
f 80/5/1 78/5/1 76/5/1
f 80/5/1 79/5/1 78/5/1
f 81/5/1 79/5/1 80/5/1
f 82/5/1 79/5/1 81/5/1
f 83/4/1 81/4/1 80/4/1
f 84/4/1 81/4/1 83/4/1
f 87/4/1 83/4/1 80/4/1
f 90/3/1 86/3/1 85/3/1
f 91/3/1 86/3/1 90/3/1
f 92/4/1 87/4/1 80/4/1
f 93/4/1 87/4/1 92/4/1
f 94/4/1 89/4/1 88/4/1
f 95/4/1 89/4/1 94/4/1
f 96/4/1 94/4/1 93/4/1
f 97/4/1 94/4/1 96/4/1
f 102/4/1 99/4/1 98/4/1
f 103/4/1 99/4/1 102/4/1
f 104/4/1 101/4/1 100/4/1
f 105/4/1 101/4/1 104/4/1
f 106/8/1 104/8/1 103/8/1
f 107/8/1 104/8/1 106/8/1
f 110/2/1 109/2/1 108/2/1
f 111/2/1 109/2/1 110/2/1
f 112/2/1 109/2/1 111/2/1
f 113/5/1 112/5/1 111/5/1
f 114/5/1 112/5/1 113/5/1
f 117/3/1 116/3/1 115/3/1
f 118/3/1 116/3/1 117/3/1
f 121/3/1 120/3/1 119/3/1
f 122/3/1 120/3/1 121/3/1
f 125/3/1 124/3/1 123/3/1
f 126/3/1 124/3/1 125/3/1
f 129/3/1 128/3/1 127/3/1
f 130/3/1 128/3/1 129/3/1
f 133/3/1 132/3/1 131/3/1
f 134/3/1 132/3/1 133/3/1
f 137/3/1 136/3/1 135/3/1
f 138/3/1 136/3/1 137/3/1
f 142/3/1 139/3/1 138/3/1
f 143/3/1 139/3/1 142/3/1
f 144/3/1 141/3/1 140/3/1
f 145/3/1 141/3/1 144/3/1
f 148/3/1 147/3/1 146/3/1
f 149/3/1 147/3/1 148/3/1
f 150/3/2 151/3/2 152/3/2
f 152/3/2 151/3/2 153/3/2
f 154/3/2 155/3/2 156/3/2
f 156/3/2 155/3/2 157/3/2
f 157/3/2 158/3/2 159/3/2
f 159/3/2 158/3/2 160/3/2
f 161/3/2 162/3/2 163/3/2
f 163/3/2 162/3/2 164/3/2
f 165/3/2 166/3/2 167/3/2
f 167/3/2 166/3/2 168/3/2
f 169/2/2 170/2/2 171/2/2
f 171/2/2 170/2/2 172/2/2
f 172/2/2 170/2/2 173/2/2
f 172/5/2 173/5/2 174/5/2
f 174/5/2 173/5/2 175/5/2
f 176/3/2 177/3/2 178/3/2
f 178/3/2 177/3/2 179/3/2
f 180/3/2 181/3/2 182/3/2
f 182/3/2 181/3/2 183/3/2
f 184/4/2 185/4/2 188/4/2
f 188/4/2 185/4/2 189/4/2
f 186/4/2 187/4/2 190/4/2
f 190/4/2 187/4/2 191/4/2
f 189/8/2 190/8/2 192/8/2
f 192/8/2 190/8/2 193/8/2
f 194/2/2 195/2/2 196/2/2
f 196/2/2 195/2/2 197/2/2
f 197/2/2 195/2/2 198/2/2
f 197/5/2 198/5/2 200/5/2
f 199/5/2 200/5/2 201/5/2
f 200/5/2 198/5/2 202/5/2
f 201/5/2 200/5/2 202/5/2
f 202/5/2 198/5/2 203/5/2
f 202/4/2 203/4/2 204/4/2
f 204/4/2 203/4/2 205/4/2
f 205/4/2 203/4/2 210/4/2
f 206/3/2 207/3/2 212/3/2
f 212/3/2 207/3/2 213/3/2
f 208/4/2 209/4/2 214/4/2
f 214/4/2 209/4/2 215/4/2
f 210/4/2 203/4/2 216/4/2
f 216/4/2 203/4/2 217/4/2
f 211/3/2 212/3/2 218/3/2
f 218/3/2 212/3/2 219/3/2
f 215/4/2 216/4/2 220/4/2
f 220/4/2 216/4/2 221/4/2
f 222/8/2 223/8/2 224/8/2
f 222/8/2 224/8/2 226/8/2
f 224/8/2 225/8/2 226/8/2
f 226/8/2 225/8/2 227/8/2
f 227/8/2 225/8/2 228/8/2
f 227/4/2 228/4/2 229/4/2
f 229/4/2 228/4/2 230/4/2
f 231/3/2 232/3/2 235/3/2
f 235/3/2 232/3/2 236/3/2
f 233/3/2 234/3/2 239/3/2
f 239/3/2 234/3/2 240/3/2
f 236/3/2 237/3/2 241/3/2
f 241/3/2 237/3/2 242/3/2
f 238/3/2 239/3/2 243/3/2
f 243/3/2 239/3/2 244/3/2
f 245/3/2 246/3/2 247/3/2
f 248/8/2 249/8/2 250/8/2
f 250/8/2 249/8/2 251/8/2
f 250/1/2 251/1/2 252/1/2
f 252/1/2 251/1/2 253/1/2
f 252/8/2 253/8/2 255/8/2
f 255/8/2 253/8/2 256/8/2
f 254/3/2 255/3/2 257/3/2
f 257/3/2 255/3/2 258/3/2
f 247/3/2 246/3/2 261/3/2
f 261/3/2 246/3/2 262/3/2
f 258/3/2 259/3/2 263/3/2
f 263/3/2 259/3/2 264/3/2
f 260/3/2 261/3/2 265/3/2
f 265/3/2 261/3/2 266/3/2
f 264/3/2 265/3/2 267/3/2
f 267/3/2 265/3/2 268/3/2
f 269/3/2 270/3/2 271/3/2
f 271/3/2 270/3/2 272/3/2
f 272/3/2 273/3/2 278/3/2
f 276/3/2 277/3/2 279/3/2
f 275/3/2 276/3/2 279/3/2
f 274/3/2 275/3/2 279/3/2
f 272/3/2 278/3/2 281/3/2
f 278/3/2 279/3/2 281/3/2
f 280/3/2 281/3/2 282/3/2
f 281/3/2 279/3/2 283/3/2
f 282/3/2 281/3/2 283/3/2
f 279/3/2 277/3/2 284/3/2
f 283/3/2 279/3/2 284/3/2
f 284/3/2 277/3/2 285/3/2
f 283/3/2 284/3/2 286/3/2
f 286/3/2 284/3/2 287/3/2
f 288/3/2 289/3/2 290/3/2
f 290/3/2 289/3/2 291/3/2
f 294/3/3 293/3/3 292/3/3
f 295/3/3 293/3/3 294/3/3
f 296/3/3 293/3/3 295/3/3
f 298/3/3 297/3/3 296/3/3
f 298/3/3 296/3/3 295/3/3
f 299/3/3 297/3/3 298/3/3
f 300/3/3 297/3/3 299/3/3
f 301/3/3 297/3/3 300/3/3
f 303/3/3 297/3/3 301/3/3
f 305/3/3 303/3/3 302/3/3
f 307/3/3 305/3/3 304/3/3
f 308/3/3 297/3/3 303/3/3
f 308/3/3 303/3/3 305/3/3
f 308/3/3 305/3/3 307/3/3
f 309/3/3 297/3/3 308/3/3
f 310/3/3 307/3/3 306/3/3
f 310/3/3 308/3/3 307/3/3
f 311/3/3 308/3/3 310/3/3
f 317/3/3 313/3/3 312/3/3
f 318/3/3 313/3/3 317/3/3
f 320/8/3 317/8/3 316/8/3
f 322/3/3 319/3/3 318/3/3
f 323/3/3 319/3/3 322/3/3
f 325/1/3 316/1/3 315/1/3
f 325/8/3 315/8/3 314/8/3
f 326/8/3 321/8/3 320/8/3
f 326/1/3 316/1/3 325/1/3
f 326/8/3 320/8/3 316/8/3
f 327/8/3 321/8/3 326/8/3
f 328/8/3 326/8/3 325/8/3
f 328/6/3 327/6/3 326/6/3
f 329/6/3 327/6/3 328/6/3
f 331/8/3 329/8/3 328/8/3
f 331/8/3 330/8/3 329/8/3
f 333/8/3 331/8/3 328/8/3
f 333/8/3 332/8/3 331/8/3
f 334/8/3 332/8/3 333/8/3
f 335/8/3 328/8/3 325/8/3
f 335/8/3 333/8/3 328/8/3
f 336/8/3 333/8/3 335/8/3
f 337/8/3 333/8/3 336/8/3
f 338/8/3 325/8/3 314/8/3
f 338/8/3 335/8/3 325/8/3
f 339/6/3 336/6/3 335/6/3
f 339/8/3 335/8/3 338/8/3
f 340/6/3 336/6/3 339/6/3
f 341/8/3 340/8/3 339/8/3
f 342/8/3 340/8/3 341/8/3
f 344/3/3 324/3/3 323/3/3
f 345/3/3 324/3/3 344/3/3
f 348/8/3 338/8/3 314/8/3
f 349/1/3 339/1/3 338/1/3
f 349/8/3 338/8/3 348/8/3
f 350/8/3 341/8/3 339/8/3
f 350/1/3 339/1/3 349/1/3
f 351/8/3 341/8/3 350/8/3
f 352/3/3 344/3/3 343/3/3
f 353/3/3 344/3/3 352/3/3
f 354/3/3 347/3/3 346/3/3
f 355/3/3 347/3/3 354/3/3
f 356/3/3 352/3/3 351/3/3
f 357/3/3 352/3/3 356/3/3
f 364/3/3 359/3/3 358/3/3
f 365/3/3 359/3/3 364/3/3
f 366/3/3 361/3/3 360/3/3
f 367/3/3 361/3/3 366/3/3
f 368/3/3 361/3/3 367/3/3
f 369/3/3 361/3/3 368/3/3
f 370/3/3 363/3/3 362/3/3
f 371/3/3 363/3/3 370/3/3
f 373/3/3 372/3/3 371/3/3
f 374/3/3 372/3/3 373/3/3
f 377/2/3 376/2/3 375/2/3
f 378/2/3 376/2/3 377/2/3
f 387/3/3 380/3/3 379/3/3
f 388/3/3 380/3/3 387/3/3
f 389/3/3 385/3/3 384/3/3
f 389/3/3 382/3/3 381/3/3
f 389/3/3 383/3/3 382/3/3
f 389/3/3 384/3/3 383/3/3
f 390/3/3 385/3/3 389/3/3
f 391/3/3 387/3/3 386/3/3
f 392/3/3 387/3/3 391/3/3
f 395/3/3 394/3/3 393/3/3
f 396/3/3 394/3/3 395/3/3
f 400/4/3 399/4/3 398/4/3
f 402/5/3 398/5/3 397/5/3
f 403/5/3 398/5/3 402/5/3
f 404/4/3 401/4/3 400/4/3
f 404/4/3 400/4/3 398/4/3
f 405/4/3 401/4/3 404/4/3
f 406/5/3 398/5/3 403/5/3
f 407/4/3 404/4/3 398/4/3
f 407/5/3 398/5/3 406/5/3
f 408/4/3 404/4/3 407/4/3
f 409/4/3 404/4/3 408/4/3
f 410/8/3 408/8/3 407/8/3
f 411/8/3 408/8/3 410/8/3
f 414/3/3 413/3/3 412/3/3
f 415/3/3 413/3/3 414/3/3
f 419/8/3 417/8/3 416/8/3
f 420/4/3 418/4/3 417/4/3
f 420/8/3 417/8/3 419/8/3
f 421/4/3 418/4/3 420/4/3
f 423/4/3 422/4/3 421/4/3
f 424/4/3 422/4/3 423/4/3
f 429/8/3 425/8/3 424/8/3
f 430/8/3 425/8/3 429/8/3
f 431/2/3 427/2/3 426/2/3
f 432/2/3 427/2/3 431/2/3
f 434/4/3 429/4/3 428/4/3
f 435/4/3 429/4/3 434/4/3
f 436/4/3 434/4/3 433/4/3
f 437/4/3 434/4/3 436/4/3
f 440/3/3 439/3/3 438/3/3
f 441/3/3 439/3/3 440/3/3
f 444/8/3 443/8/3 442/8/3
f 445/8/3 443/8/3 444/8/3
f 448/5/3 447/5/3 446/5/3
f 449/5/3 447/5/3 448/5/3
f 452/3/3 451/3/3 450/3/3
f 453/3/3 451/3/3 452/3/3
f 458/3/3 455/3/3 454/3/3
f 458/3/3 456/3/3 455/3/3
f 459/3/3 458/3/3 457/3/3
f 460/3/3 456/3/3 458/3/3
f 460/3/3 458/3/3 459/3/3
f 462/3/3 456/3/3 460/3/3
f 463/3/3 462/3/3 461/3/3
f 464/3/3 456/3/3 462/3/3
f 464/3/3 462/3/3 463/3/3
f 465/3/3 456/3/3 464/3/3
f 468/3/3 467/3/3 466/3/3
f 469/3/3 467/3/3 468/3/3
f 472/3/3 471/3/3 470/3/3
f 473/3/3 471/3/3 472/3/3
f 474/3/4 475/3/4 476/3/4
f 476/3/4 475/3/4 477/3/4
f 478/3/4 479/3/4 480/3/4
f 480/3/4 479/3/4 481/3/4
f 482/3/4 483/3/4 484/3/4
f 484/3/4 483/3/4 485/3/4
f 486/2/4 487/2/4 489/2/4
f 487/5/4 488/5/4 490/5/4
f 489/2/4 487/2/4 490/2/4
f 490/5/4 488/5/4 491/5/4
f 492/8/4 493/8/4 494/8/4
f 494/8/4 493/8/4 495/8/4
f 496/3/4 497/3/4 498/3/4
f 498/3/4 497/3/4 499/3/4
f 500/4/4 501/4/4 502/4/4
f 502/4/4 501/4/4 503/4/4
f 503/4/4 504/4/4 505/4/4
f 505/4/4 504/4/4 506/4/4
f 506/8/4 507/8/4 509/8/4
f 509/8/4 507/8/4 510/8/4
f 508/4/4 509/4/4 513/4/4
f 513/4/4 509/4/4 514/4/4
f 511/8/4 512/8/4 515/8/4
f 512/4/4 513/4/4 516/4/4
f 515/8/4 512/8/4 516/8/4
f 516/4/4 513/4/4 517/4/4
f 518/8/4 519/8/4 521/8/4
f 521/8/4 519/8/4 522/8/4
f 521/4/4 522/4/4 524/4/4
f 522/4/4 523/4/4 524/4/4
f 520/5/4 521/5/4 528/5/4
f 521/4/4 524/4/4 529/4/4
f 524/4/4 525/4/4 529/4/4
f 529/4/4 525/4/4 530/4/4
f 526/2/4 527/2/4 531/2/4
f 527/5/4 528/5/4 532/5/4
f 531/2/4 527/2/4 532/2/4
f 528/5/4 521/5/4 533/5/4
f 532/5/4 528/5/4 533/5/4
f 521/4/4 529/4/4 533/4/4
f 533/4/4 529/4/4 534/4/4
f 535/3/4 536/3/4 537/3/4
f 537/3/4 536/3/4 538/3/4
f 538/3/4 539/3/4 540/3/4
f 540/3/4 539/3/4 541/3/4
f 542/3/4 543/3/4 545/3/4
f 545/3/4 543/3/4 546/3/4
f 544/3/4 545/3/4 549/3/4
f 549/3/4 545/3/4 550/3/4
f 547/3/4 548/3/4 551/3/4
f 551/3/4 548/3/4 552/3/4
f 553/3/4 554/3/4 555/3/4
f 555/3/4 554/3/4 556/3/4
f 556/3/4 557/3/4 558/3/4
f 558/3/4 557/3/4 559/3/4
f 559/3/4 560/3/4 562/3/4
f 562/3/4 560/3/4 563/3/4
f 561/3/4 562/3/4 565/3/4
f 565/3/4 562/3/4 566/3/4
f 564/3/4 565/3/4 567/3/4
f 567/3/4 565/3/4 568/3/4
f 569/3/4 570/3/4 572/3/4
f 572/3/4 570/3/4 573/3/4
f 571/3/4 572/3/4 575/3/4
f 573/3/4 574/3/4 575/3/4
f 572/3/4 573/3/4 575/3/4
f 575/3/4 574/3/4 576/3/4
f 576/3/4 574/3/4 577/3/4
f 577/3/4 574/3/4 578/3/4
f 578/3/4 574/3/4 579/3/4
f 579/3/4 574/3/4 581/3/4
f 581/3/4 574/3/4 582/3/4
f 582/3/4 574/3/4 583/3/4
f 580/3/4 581/3/4 584/3/4
f 581/3/4 582/3/4 584/3/4
f 584/3/4 582/3/4 585/3/4
f 586/3/4 587/3/4 588/3/4
f 588/3/4 587/3/4 589/3/4
f 590/3/4 591/3/4 592/3/4
f 592/3/4 591/3/4 593/3/4
f 598/2/5 595/2/5 594/2/5
f 599/2/5 595/2/5 598/2/5
f 600/2/5 597/2/5 596/2/5
f 601/2/5 597/2/5 600/2/5
f 605/5/5 603/5/5 602/5/5
f 606/5/5 603/5/5 605/5/5
f 607/5/5 603/5/5 606/5/5
f 608/5/5 605/5/5 604/5/5
f 608/5/5 606/5/5 605/5/5
f 609/5/5 606/5/5 608/5/5
f 614/8/5 611/8/5 610/8/5
f 615/8/5 611/8/5 614/8/5
f 616/8/5 613/8/5 612/8/5
f 617/8/5 613/8/5 616/8/5
f 620/8/5 619/8/5 618/8/5
f 621/8/5 619/8/5 620/8/5
f 624/8/5 623/8/5 622/8/5
f 625/8/5 623/8/5 624/8/5
f 630/3/5 627/3/5 626/3/5
f 631/3/5 627/3/5 630/3/5
f 632/3/5 629/3/5 628/3/5
f 633/3/5 629/3/5 632/3/5
f 638/3/5 635/3/5 634/3/5
f 639/3/5 635/3/5 638/3/5
f 640/3/5 635/3/5 639/3/5
f 641/3/5 635/3/5 640/3/5
f 642/3/5 635/3/5 641/3/5
f 643/3/5 637/3/5 636/3/5
f 644/3/5 637/3/5 643/3/5
f 649/3/5 646/3/5 645/3/5
f 650/3/5 646/3/5 649/3/5
f 651/3/5 648/3/5 647/3/5
f 652/3/5 648/3/5 651/3/5
f 657/3/5 654/3/5 653/3/5
f 658/3/5 654/3/5 657/3/5
f 659/3/5 656/3/5 655/3/5
f 660/3/5 656/3/5 659/3/5
f 665/3/5 662/3/5 661/3/5
f 666/3/5 662/3/5 665/3/5
f 667/3/5 664/3/5 663/3/5
f 668/3/5 664/3/5 667/3/5
f 673/3/5 670/3/5 669/3/5
f 674/3/5 670/3/5 673/3/5
f 675/3/5 672/3/5 671/3/5
f 678/3/5 677/3/5 676/3/5
f 679/3/5 672/3/5 675/3/5
f 680/3/5 678/3/5 676/3/5
f 681/3/5 672/3/5 679/3/5
f 682/3/5 672/3/5 681/3/5
f 683/3/5 680/3/5 676/3/5
f 684/3/5 680/3/5 683/3/5
f 688/8/5 686/8/5 685/8/5
f 689/8/5 686/8/5 688/8/5
f 690/3/5 688/3/5 687/3/5
f 691/8/5 689/8/5 688/8/5
f 691/3/5 688/3/5 690/3/5
f 692/8/5 689/8/5 691/8/5
f 694/8/5 692/8/5 691/8/5
f 695/8/5 692/8/5 694/8/5
f 696/3/5 693/3/5 692/3/5
f 696/8/5 692/8/5 695/8/5
f 697/3/5 693/3/5 696/3/5
f 698/8/5 694/8/5 691/8/5
f 699/8/5 696/8/5 695/8/5
f 700/8/5 698/8/5 691/8/5
f 700/8/5 699/8/5 698/8/5
f 701/8/5 696/8/5 699/8/5
f 701/8/5 699/8/5 700/8/5
f 707/3/5 703/3/5 702/3/5
f 708/3/5 703/3/5 707/3/5
f 709/3/5 705/3/5 704/3/5
f 710/3/5 705/3/5 709/3/5
f 712/3/5 707/3/5 706/3/5
f 713/3/5 707/3/5 712/3/5
f 714/3/5 711/3/5 710/3/5
f 715/3/5 711/3/5 714/3/5
f 720/3/5 717/3/5 716/3/5
f 721/3/5 717/3/5 720/3/5
f 722/3/5 717/3/5 721/3/5
f 723/3/5 719/3/5 718/3/5
f 724/3/5 719/3/5 723/3/5
f 725/3/5 719/3/5 724/3/5
f 730/3/5 727/3/5 726/3/5
f 731/3/5 727/3/5 730/3/5
f 732/3/5 729/3/5 728/3/5
f 733/3/5 729/3/5 732/3/5
f 736/3/5 735/3/5 734/3/5
f 737/3/5 735/3/5 736/3/5
f 738/2/6 739/2/6 740/2/6
f 740/2/6 739/2/6 741/2/6
f 742/2/6 743/2/6 744/2/6
f 744/2/6 743/2/6 745/2/6
f 746/8/6 747/8/6 748/8/6
f 748/8/6 747/8/6 749/8/6
f 750/8/6 751/8/6 752/8/6
f 752/8/6 751/8/6 753/8/6
f 754/3/6 755/3/6 758/3/6
f 758/3/6 755/3/6 759/3/6
f 756/3/6 757/3/6 760/3/6
f 760/3/6 757/3/6 761/3/6
f 762/4/6 763/4/6 767/4/6
f 767/4/6 763/4/6 768/4/6
f 764/4/6 765/4/6 769/4/6
f 769/4/6 765/4/6 770/4/6
f 766/4/6 767/4/6 772/4/6
f 772/4/6 767/4/6 773/4/6
f 770/4/6 771/4/6 776/4/6
f 776/4/6 771/4/6 777/4/6
f 773/4/6 774/4/6 778/4/6
f 778/4/6 774/4/6 779/4/6
f 775/4/6 776/4/6 780/4/6
f 780/4/6 776/4/6 781/4/6
f 782/3/6 783/3/6 786/3/6
f 786/3/6 783/3/6 787/3/6
f 784/3/6 785/3/6 788/3/6
f 788/3/6 785/3/6 789/3/6
f 790/4/6 791/4/6 795/4/6
f 795/4/6 791/4/6 796/4/6
f 792/3/6 793/3/6 800/3/6
f 800/3/6 793/3/6 801/3/6
f 794/4/6 795/4/6 802/4/6
f 802/4/6 795/4/6 803/4/6
f 796/4/6 797/4/6 804/4/6
f 804/4/6 797/4/6 805/4/6
f 803/4/6 804/4/6 806/4/6
f 806/4/6 804/4/6 807/4/6
f 798/3/6 799/3/6 808/3/6
f 808/3/6 799/3/6 809/3/6
f 810/3/6 811/3/6 815/3/6
f 815/3/6 811/3/6 816/3/6
f 812/3/6 813/3/6 817/3/6
f 817/3/6 813/3/6 818/3/6
f 814/3/6 815/3/6 820/3/6
f 820/3/6 815/3/6 821/3/6
f 818/3/6 819/3/6 822/3/6
f 822/3/6 819/3/6 823/3/6
f 824/3/6 825/3/6 828/3/6
f 828/3/6 825/3/6 829/3/6
f 826/3/6 827/3/6 832/3/6
f 832/3/6 827/3/6 833/3/6
f 829/3/6 830/3/6 834/3/6
f 834/3/6 830/3/6 835/3/6
f 831/3/6 832/3/6 836/3/6
f 836/3/6 832/3/6 837/3/6
f 838/3/6 839/3/6 841/3/6
f 841/3/6 839/3/6 842/3/6
f 840/3/6 841/3/6 845/3/6
f 845/3/6 841/3/6 846/3/6
f 842/3/6 843/3/6 847/3/6
f 847/3/6 843/3/6 848/3/6
f 844/3/6 845/3/6 850/3/6
f 850/3/6 845/3/6 851/3/6
f 848/3/6 849/3/6 854/3/6
f 854/3/6 849/3/6 855/3/6
f 851/3/6 852/3/6 856/3/6
f 856/3/6 852/3/6 857/3/6
f 853/3/6 854/3/6 858/3/6
f 858/3/6 854/3/6 859/3/6
f 857/3/6 858/3/6 860/3/6
f 860/3/6 858/3/6 861/3/6
f 862/3/6 863/3/6 865/3/6
f 865/3/6 863/3/6 866/3/6
f 864/3/6 865/3/6 868/3/6
f 866/3/6 867/3/6 868/3/6
f 865/3/6 866/3/6 868/3/6
f 868/3/6 867/3/6 869/3/6
f 869/3/6 867/3/6 870/3/6
f 870/3/6 867/3/6 871/3/6
f 869/3/6 870/3/6 872/3/6
f 872/3/6 870/3/6 873/3/6
