# MagicaVoxel @ ephtracy

# material
mtllib vu.mtl
usemtl palette

# normals
vn -1 0 0
vn 1 0 0
vn 0 0 1
vn 0 0 -1
vn 0 -1 0
vn 0 1 0

# texcoords
vt 0.939453 0.5
vt 0.955078 0.5
vt 0.966797 0.5
vt 0.974609 0.5
vt 0.986328 0.5
vt 0.990234 0.5
vt 0.994141 0.5

# verts
v -6 8 -1.5
v -6 8 -2.5
v -6 8 -4.5
v -6 8 -5.5
v -6 9 0.5
v -6 9 -0.5
v -6 9 -2.5
v -6 9 -4.5
v -6 10 5.5
v -6 10 4.5
v -6 10 3.5
v -6 10 -0.5
v -6 10 -1.5
v -6 11 3.5
v -6 11 2.5
v -6 11 0.5
v -6 11 -0.5
v -6 12 4.5
v -6 12 3.5
v -6 12 2.5
v -6 12 0.5
v -6 16 5.5
v -6 16 -5.5
v -5 7 -4.5
v -5 7 -5.5
v -5 8 3.5
v -5 8 -1.5
v -5 8 -2.5
v -5 8 -4.5
v -5 8 -5.5
v -5 9 4.5
v -5 9 3.5
v -5 9 0.5
v -5 9 -0.5
v -5 9 -2.5
v -5 9 -4.5
v -5 10 4.5
v -5 10 3.5
v -5 10 -0.5
v -5 10 -1.5
v -5 11 3.5
v -5 11 2.5
v -5 11 0.5
v -4 3 0.5
v -4 3 -1.5
v -4 5 0.5
v -4 5 -1.5
v -4 6 0.5
v -4 6 -1.5
v -4 11 5.5
v -4 11 4.5
v -4 12 5.5
v -4 12 4.5
v -3 0 1.5
v -3 0 -1.5
v -3 1 1.5
v -3 1 0.5
v -3 1 -1.5
v -3 2 1.5
v -3 2 0.5
v -3 2 -1.5
v -3 2 -2.5
v -3 3 1.5
v -3 3 0.5
v -3 3 -1.5
v -3 3 -2.5
v -3 5 0.5
v -3 5 -1.5
v -3 6 1.5
v -3 6 0.5
v -3 6 -1.5
v -3 6 -2.5
v -3 7 0.5
v -3 7 -1.5
v -2 6 1.5
v -2 6 0.5
v -2 6 -1.5
v -2 6 -2.5
v -2 7 1.5
v -2 7 0.5
v -2 7 -1.5
v -2 7 -2.5
v -2 7 -4.5
v -2 7 -5.5
v -2 8 0.5
v -2 8 -1.5
v -2 8 -4.5
v -2 8 -5.5
v -2 10 4.5
v -2 10 3.5
v -2 12 4.5
v -2 12 3.5
v 1 0 1.5
v 1 0 -1.5
v 1 1 1.5
v 1 1 0.5
v 1 1 -1.5
v 1 2 0.5
v 1 2 -1.5
v 1 10 4.5
v 1 10 3.5
v 1 11 4.5
v 1 11 3.5
v 1 11 -3.5
v 1 11 -4.5
v 1 12 -2.5
v 1 12 -3.5
v 1 13 -2.5
v 1 13 -3.5
v 1 13 -4.5
v 2 9 4.5
v 2 9 3.5
v 2 10 4.5
v 2 10 3.5
v 2 12 5.5
v 2 12 4.5
v 2 13 5.5
v 2 13 4.5
v 2 13 -2.5
v 2 13 -3.5
v 2 14 -2.5
v 2 14 -3.5
v 3 7 -4.5
v 3 7 -5.5
v 3 8 -4.5
v 3 8 -5.5
v 4 11 5.5
v 4 11 4.5
v 4 12 5.5
v 4 12 4.5
v 5 10 5.5
v 5 10 4.5
v 5 10 3.5
v 5 11 5.5
v 5 11 4.5
v 5 12 4.5
v 5 12 3.5
v 5 14 4.5
v 5 14 3.5
v -5 10 5.5
v -5 10 4.5
v -5 10 3.5
v -5 12 5.5
v -5 12 4.5
v -5 12 3.5
v -5 13 4.5
v -5 13 3.5
v -4 7 -4.5
v -4 7 -5.5
v -4 8 -4.5
v -4 8 -5.5
v -3 11 5.5
v -3 11 4.5
v -3 12 5.5
v -3 12 4.5
v -2 9 4.5
v -2 9 3.5
v -2 10 4.5
v -2 10 3.5
v -1 0 1.5
v -1 0 -1.5
v -1 1 1.5
v -1 1 0.5
v -1 1 -1.5
v -1 2 0.5
v -1 2 -1.5
v -1 10 4.5
v -1 10 3.5
v -1 11 4.5
v -1 11 3.5
v -1 12 -2.5
v -1 12 -3.5
v -1 13 4.5
v -1 13 3.5
v -1 14 4.5
v -1 14 3.5
v -1 14 -2.5
v -1 14 -3.5
v 0 11 -3.5
v 0 11 -4.5
v 0 12 5.5
v 0 12 4.5
v 0 12 -3.5
v 0 13 5.5
v 0 13 4.5
v 0 13 -3.5
v 0 13 -4.5
v 2 6 1.5
v 2 6 0.5
v 2 6 -1.5
v 2 6 -2.5
v 2 7 1.5
v 2 7 0.5
v 2 7 -1.5
v 2 7 -2.5
v 2 7 -4.5
v 2 7 -5.5
v 2 8 0.5
v 2 8 -1.5
v 2 8 -4.5
v 2 8 -5.5
v 2 10 4.5
v 2 10 3.5
v 2 12 4.5
v 2 12 3.5
v 3 0 1.5
v 3 0 -1.5
v 3 1 1.5
v 3 1 0.5
v 3 1 -1.5
v 3 2 1.5
v 3 2 0.5
v 3 2 -1.5
v 3 2 -2.5
v 3 3 1.5
v 3 3 0.5
v 3 3 -1.5
v 3 3 -2.5
v 3 5 0.5
v 3 5 -1.5
v 3 6 1.5
v 3 6 0.5
v 3 6 -1.5
v 3 6 -2.5
v 3 7 0.5
v 3 7 -1.5
v 4 3 0.5
v 4 3 -1.5
v 4 5 0.5
v 4 5 -1.5
v 4 6 0.5
v 4 6 -1.5
v 5 7 -4.5
v 5 7 -5.5
v 5 8 3.5
v 5 8 -4.5
v 5 8 -5.5
v 5 9 4.5
v 5 9 3.5
v 5 9 0.5
v 5 9 -0.5
v 5 9 -1.5
v 5 9 -2.5
v 5 9 -3.5
v 5 9 -4.5
v 5 10 4.5
v 5 10 3.5
v 5 10 2.5
v 5 10 0.5
v 5 10 -0.5
v 5 10 -1.5
v 5 10 -2.5
v 5 10 -3.5
v 5 11 3.5
v 5 11 2.5
v 6 8 -4.5
v 6 8 -5.5
v 6 9 0.5
v 6 9 -0.5
v 6 9 -1.5
v 6 9 -2.5
v 6 9 -3.5
v 6 9 -4.5
v 6 10 5.5
v 6 10 4.5
v 6 10 3.5
v 6 10 2.5
v 6 10 0.5
v 6 10 -0.5
v 6 10 -1.5
v 6 10 -2.5
v 6 10 -3.5
v 6 11 3.5
v 6 11 2.5
v 6 11 0.5
v 6 11 -0.5
v 6 12 4.5
v 6 12 3.5
v 6 16 5.5
v 6 16 -5.5
v -6 10 5.5
v -6 16 5.5
v -5 10 5.5
v -5 12 5.5
v -4 11 5.5
v -4 12 5.5
v -3 11 5.5
v -3 12 5.5
v 0 12 5.5
v 0 13 5.5
v 2 12 5.5
v 2 13 5.5
v 4 11 5.5
v 4 12 5.5
v 5 10 5.5
v 5 11 5.5
v 6 10 5.5
v 6 16 5.5
v -5 9 4.5
v -5 10 4.5
v -2 9 4.5
v -2 10 4.5
v -2 12 4.5
v -1 10 4.5
v -1 11 4.5
v 0 12 4.5
v 1 10 4.5
v 1 11 4.5
v 2 9 4.5
v 2 10 4.5
v 2 12 4.5
v 5 9 4.5
v 5 10 4.5
v -5 8 3.5
v -5 9 3.5
v -5 10 3.5
v -5 12 3.5
v -5 13 3.5
v -4 10 3.5
v -4 12 3.5
v -3 10 3.5
v -3 12 3.5
v -2 9 3.5
v -2 10 3.5
v -2 12 3.5
v -1 10 3.5
v -1 11 3.5
v -1 13 3.5
v -1 14 3.5
v 1 10 3.5
v 1 11 3.5
v 2 9 3.5
v 2 10 3.5
v 2 12 3.5
v 3 10 3.5
v 3 12 3.5
v 4 10 3.5
v 4 12 3.5
v 5 8 3.5
v 5 9 3.5
v 5 10 3.5
v 5 12 3.5
v 5 14 3.5
v 5 10 2.5
v 5 11 2.5
v 6 10 2.5
v 6 11 2.5
v -3 0 1.5
v -3 1 1.5
v -3 2 1.5
v -3 3 1.5
v -3 6 1.5
v -2 6 1.5
v -2 7 1.5
v -1 0 1.5
v -1 1 1.5
v 1 0 1.5
v 1 1 1.5
v 2 6 1.5
v 2 7 1.5
v 3 0 1.5
v 3 1 1.5
v 3 2 1.5
v 3 3 1.5
v 3 6 1.5
v -6 9 0.5
v -6 11 0.5
v -5 9 0.5
v -5 11 0.5
v -4 3 0.5
v -4 5 0.5
v -4 6 0.5
v -3 1 0.5
v -3 2 0.5
v -3 3 0.5
v -3 5 0.5
v -3 6 0.5
v -3 7 0.5
v -2 6 0.5
v -2 7 0.5
v -2 8 0.5
v -1 1 0.5
v -1 2 0.5
v 1 1 0.5
v 1 2 0.5
v 2 6 0.5
v 2 7 0.5
v 2 8 0.5
v 3 1 0.5
v 3 2 0.5
v 3 3 0.5
v 3 5 0.5
v 3 6 0.5
v 3 7 0.5
v 4 3 0.5
v 4 5 0.5
v 4 6 0.5
v 5 9 0.5
v 5 10 0.5
v 6 9 0.5
v 6 10 0.5
v -6 8 -1.5
v -6 10 -1.5
v -5 8 -1.5
v -5 10 -1.5
v 5 9 -1.5
v 5 10 -1.5
v 6 9 -1.5
v 6 10 -1.5
v -1 12 -3.5
v -1 14 -3.5
v 0 12 -3.5
v 0 13 -3.5
v 1 13 -3.5
v 2 13 -3.5
v 2 14 -3.5
v 5 9 -3.5
v 5 10 -3.5
v 6 9 -3.5
v 6 10 -3.5
v -6 8 -4.5
v -6 9 -4.5
v -5 7 -4.5
v -5 8 -4.5
v -5 9 -4.5
v -4 7 -4.5
v -4 8 -4.5
v -2 7 -4.5
v -2 8 -4.5
v 0 11 -4.5
v 0 13 -4.5
v 1 11 -4.5
v 1 13 -4.5
v 2 7 -4.5
v 2 8 -4.5
v 3 7 -4.5
v 3 8 -4.5
v 5 7 -4.5
v 5 8 -4.5
v 5 9 -4.5
v 6 8 -4.5
v 6 9 -4.5
v -5 12 4.5
v -5 13 4.5
v -4 11 4.5
v -4 12 4.5
v -3 11 4.5
v -3 12 4.5
v -2 12 4.5
v -1 13 4.5
v -1 14 4.5
v 0 12 4.5
v 0 13 4.5
v 2 12 4.5
v 2 13 4.5
v 4 11 4.5
v 4 12 4.5
v 5 11 4.5
v 5 12 4.5
v 5 14 4.5
v -6 10 3.5
v -6 11 3.5
v -5 10 3.5
v -5 11 3.5
v 5 10 3.5
v 5 11 3.5
v 6 10 3.5
v 6 11 3.5
v -6 9 -0.5
v -6 10 -0.5
v -5 9 -0.5
v -5 10 -0.5
v 5 9 -0.5
v 5 10 -0.5
v 6 9 -0.5
v 6 10 -0.5
v -4 3 -1.5
v -4 5 -1.5
v -4 6 -1.5
v -3 0 -1.5
v -3 1 -1.5
v -3 2 -1.5
v -3 3 -1.5
v -3 5 -1.5
v -3 6 -1.5
v -3 7 -1.5
v -2 6 -1.5
v -2 7 -1.5
v -2 8 -1.5
v -1 0 -1.5
v -1 1 -1.5
v -1 2 -1.5
v 1 0 -1.5
v 1 1 -1.5
v 1 2 -1.5
v 2 6 -1.5
v 2 7 -1.5
v 2 8 -1.5
v 3 0 -1.5
v 3 1 -1.5
v 3 2 -1.5
v 3 3 -1.5
v 3 5 -1.5
v 3 6 -1.5
v 3 7 -1.5
v 4 3 -1.5
v 4 5 -1.5
v 4 6 -1.5
v -6 8 -2.5
v -6 9 -2.5
v -5 8 -2.5
v -5 9 -2.5
v -3 2 -2.5
v -3 3 -2.5
v -3 6 -2.5
v -2 6 -2.5
v -2 7 -2.5
v -1 12 -2.5
v -1 14 -2.5
v 1 12 -2.5
v 1 13 -2.5
v 2 6 -2.5
v 2 7 -2.5
v 2 13 -2.5
v 2 14 -2.5
v 3 2 -2.5
v 3 3 -2.5
v 3 6 -2.5
v 5 9 -2.5
v 5 10 -2.5
v 6 9 -2.5
v 6 10 -2.5
v 0 11 -3.5
v 0 12 -3.5
v 1 11 -3.5
v 1 12 -3.5
v -6 8 -5.5
v -6 16 -5.5
v -5 7 -5.5
v -5 8 -5.5
v -4 7 -5.5
v -4 8 -5.5
v -2 7 -5.5
v -2 8 -5.5
v 2 7 -5.5
v 2 8 -5.5
v 3 7 -5.5
v 3 8 -5.5
v 5 7 -5.5
v 5 8 -5.5
v 6 8 -5.5
v 6 16 -5.5
v -3 0 1.5
v -1 0 1.5
v 1 0 1.5
v 3 0 1.5
v -3 0 -1.5
v -1 0 -1.5
v 1 0 -1.5
v 3 0 -1.5
v -3 2 1.5
v 3 2 1.5
v -3 2 0.5
v -1 2 0.5
v 1 2 0.5
v 3 2 0.5
v -3 2 -1.5
v -1 2 -1.5
v 1 2 -1.5
v 3 2 -1.5
v -3 2 -2.5
v 3 2 -2.5
v -4 3 0.5
v -3 3 0.5
v 3 3 0.5
v 4 3 0.5
v -4 3 -1.5
v -3 3 -1.5
v 3 3 -1.5
v 4 3 -1.5
v -5 7 -4.5
v -4 7 -4.5
v -2 7 -4.5
v 2 7 -4.5
v 3 7 -4.5
v 5 7 -4.5
v -5 7 -5.5
v -4 7 -5.5
v -2 7 -5.5
v 2 7 -5.5
v 3 7 -5.5
v 5 7 -5.5
v -5 8 3.5
v 5 8 3.5
v -2 8 0.5
v 2 8 0.5
v -6 8 -1.5
v -5 8 -1.5
v -2 8 -1.5
v 2 8 -1.5
v -6 8 -2.5
v -5 8 -2.5
v -6 8 -4.5
v -5 8 -4.5
v -4 8 -4.5
v -2 8 -4.5
v 2 8 -4.5
v 3 8 -4.5
v 5 8 -4.5
v 6 8 -4.5
v -6 8 -5.5
v -5 8 -5.5
v -4 8 -5.5
v -2 8 -5.5
v 2 8 -5.5
v 3 8 -5.5
v 5 8 -5.5
v 6 8 -5.5
v -5 9 4.5
v -2 9 4.5
v 2 9 4.5
v 5 9 4.5
v -5 9 3.5
v -2 9 3.5
v 2 9 3.5
v 5 9 3.5
v -6 9 0.5
v -5 9 0.5
v 5 9 0.5
v 6 9 0.5
v -6 9 -0.5
v -5 9 -0.5
v 5 9 -0.5
v 6 9 -0.5
v 5 9 -1.5
v 6 9 -1.5
v -6 9 -2.5
v -5 9 -2.5
v 5 9 -2.5
v 6 9 -2.5
v 5 9 -3.5
v 6 9 -3.5
v -6 9 -4.5
v -5 9 -4.5
v 5 9 -4.5
v 6 9 -4.5
v -6 10 5.5
v -5 10 5.5
v 5 10 5.5
v 6 10 5.5
v -6 10 4.5
v -5 10 4.5
v -2 10 4.5
v -1 10 4.5
v 1 10 4.5
v 2 10 4.5
v 5 10 4.5
v 6 10 4.5
v -6 10 3.5
v -5 10 3.5
v -2 10 3.5
v -1 10 3.5
v 1 10 3.5
v 2 10 3.5
v 5 10 3.5
v 6 10 3.5
v 5 10 2.5
v 6 10 2.5
v 5 10 0.5
v 6 10 0.5
v -6 10 -0.5
v -5 10 -0.5
v 5 10 -0.5
v 6 10 -0.5
v -6 10 -1.5
v -5 10 -1.5
v 5 10 -1.5
v 6 10 -1.5
v 5 10 -2.5
v 6 10 -2.5
v 5 10 -3.5
v 6 10 -3.5
v -4 11 5.5
v -3 11 5.5
v 4 11 5.5
v 5 11 5.5
v -4 11 4.5
v -3 11 4.5
v -1 11 4.5
v 1 11 4.5
v 4 11 4.5
v 5 11 4.5
v -6 11 3.5
v -5 11 3.5
v -1 11 3.5
v 1 11 3.5
v 5 11 3.5
v 6 11 3.5
v -6 11 2.5
v -5 11 2.5
v 5 11 2.5
v 6 11 2.5
v -6 11 0.5
v -5 11 0.5
v -5 12 5.5
v -4 12 5.5
v -3 12 5.5
v 0 12 5.5
v 2 12 5.5
v 4 12 5.5
v -5 12 4.5
v -4 12 4.5
v -3 12 4.5
v -2 12 4.5
v 0 12 4.5
v 2 12 4.5
v 4 12 4.5
v 0 13 5.5
v 2 13 5.5
v -5 13 4.5
v -1 13 4.5
v 0 13 4.5
v 2 13 4.5
v -5 13 3.5
v -1 13 3.5
v 0 13 -3.5
v 1 13 -3.5
v 0 13 -4.5
v 1 13 -4.5
v -1 14 4.5
v 5 14 4.5
v -1 14 3.5
v 5 14 3.5
v -1 14 -2.5
v 2 14 -2.5
v -1 14 -3.5
v 2 14 -3.5
v -3 1 1.5
v -1 1 1.5
v 1 1 1.5
v 3 1 1.5
v -3 1 0.5
v -1 1 0.5
v 1 1 0.5
v 3 1 0.5
v -3 6 1.5
v -2 6 1.5
v 2 6 1.5
v 3 6 1.5
v -4 6 0.5
v -3 6 0.5
v -2 6 0.5
v 2 6 0.5
v 3 6 0.5
v 4 6 0.5
v -4 6 -1.5
v -3 6 -1.5
v -2 6 -1.5
v 2 6 -1.5
v 3 6 -1.5
v 4 6 -1.5
v -3 6 -2.5
v -2 6 -2.5
v 2 6 -2.5
v 3 6 -2.5
v -2 7 1.5
v 2 7 1.5
v -3 7 0.5
v -2 7 0.5
v 2 7 0.5
v 3 7 0.5
v -3 7 -1.5
v -2 7 -1.5
v 2 7 -1.5
v 3 7 -1.5
v -2 7 -2.5
v 2 7 -2.5
v -5 10 4.5
v -2 10 4.5
v 2 10 4.5
v 5 10 4.5
v -5 10 3.5
v -4 10 3.5
v -3 10 3.5
v -2 10 3.5
v 2 10 3.5
v 3 10 3.5
v 4 10 3.5
v 5 10 3.5
v 0 11 -3.5
v 1 11 -3.5
v 0 11 -4.5
v 1 11 -4.5
v -2 12 4.5
v 0 12 4.5
v 2 12 4.5
v -2 12 3.5
v 2 12 3.5
v -1 12 -2.5
v 1 12 -2.5
v -1 12 -3.5
v 0 12 -3.5
v 1 12 -3.5
v 1 13 -2.5
v 2 13 -2.5
v 1 13 -3.5
v 2 13 -3.5
v -6 16 5.5
v 6 16 5.5
v -6 16 -5.5
v 6 16 -5.5

# faces
f 7/1/1 2/1/1 1/1/1
f 8/1/1 4/1/1 3/1/1
f 12/5/1 6/5/1 5/5/1
f 13/1/1 7/1/1 1/1/1
f 13/1/1 8/1/1 7/1/1
f 14/3/1 11/3/1 10/3/1
f 16/5/1 12/5/1 5/5/1
f 17/1/1 13/1/1 12/1/1
f 17/5/1 12/5/1 16/5/1
f 18/1/1 10/1/1 9/1/1
f 18/3/1 14/3/1 10/3/1
f 19/1/1 15/1/1 14/1/1
f 19/3/1 14/3/1 18/3/1
f 20/3/1 16/3/1 15/3/1
f 20/1/1 15/1/1 19/1/1
f 21/1/1 17/1/1 16/1/1
f 21/3/1 16/3/1 20/3/1
f 22/1/1 19/1/1 18/1/1
f 22/1/1 18/1/1 9/1/1
f 22/1/1 21/1/1 20/1/1
f 22/1/1 20/1/1 19/1/1
f 23/1/1 17/1/1 21/1/1
f 23/1/1 21/1/1 22/1/1
f 23/1/1 4/1/1 8/1/1
f 23/1/1 8/1/1 13/1/1
f 23/1/1 13/1/1 17/1/1
f 29/1/1 25/1/1 24/1/1
f 30/1/1 25/1/1 29/1/1
f 32/5/1 27/5/1 26/5/1
f 33/5/1 27/5/1 32/5/1
f 34/5/1 27/5/1 33/5/1
f 35/5/1 29/5/1 28/5/1
f 36/5/1 29/5/1 35/5/1
f 37/3/1 32/3/1 31/3/1
f 38/5/1 33/5/1 32/5/1
f 38/3/1 32/3/1 37/3/1
f 39/5/1 27/5/1 34/5/1
f 40/5/1 27/5/1 39/5/1
f 41/5/1 33/5/1 38/5/1
f 42/5/1 33/5/1 41/5/1
f 43/5/1 33/5/1 42/5/1
f 46/5/1 45/5/1 44/5/1
f 47/5/1 45/5/1 46/5/1
f 48/1/1 47/1/1 46/1/1
f 49/1/1 47/1/1 48/1/1
f 52/1/1 51/1/1 50/1/1
f 53/1/1 51/1/1 52/1/1
f 56/1/1 55/1/1 54/1/1
f 57/1/1 55/1/1 56/1/1
f 58/1/1 55/1/1 57/1/1
f 60/6/1 58/6/1 57/6/1
f 61/6/1 58/6/1 60/6/1
f 63/6/1 61/6/1 60/6/1
f 63/6/1 62/6/1 61/6/1
f 63/6/1 60/6/1 59/6/1
f 64/6/1 62/6/1 63/6/1
f 65/6/1 62/6/1 64/6/1
f 66/6/1 62/6/1 65/6/1
f 67/1/1 64/1/1 63/1/1
f 68/1/1 66/1/1 65/1/1
f 69/1/1 67/1/1 63/1/1
f 70/1/1 67/1/1 69/1/1
f 71/1/1 66/1/1 68/1/1
f 72/1/1 66/1/1 71/1/1
f 73/1/1 71/1/1 70/1/1
f 74/1/1 71/1/1 73/1/1
f 79/1/1 76/1/1 75/1/1
f 80/1/1 76/1/1 79/1/1
f 81/1/1 78/1/1 77/1/1
f 82/1/1 78/1/1 81/1/1
f 85/5/1 81/5/1 80/5/1
f 86/5/1 81/5/1 85/5/1
f 87/1/1 84/1/1 83/1/1
f 88/1/1 84/1/1 87/1/1
f 91/3/1 90/3/1 89/3/1
f 92/3/1 90/3/1 91/3/1
f 95/1/1 94/1/1 93/1/1
f 96/1/1 94/1/1 95/1/1
f 97/1/1 94/1/1 96/1/1
f 98/6/1 97/6/1 96/6/1
f 99/6/1 97/6/1 98/6/1
f 102/3/1 101/3/1 100/3/1
f 103/3/1 101/3/1 102/3/1
f 107/4/1 105/4/1 104/4/1
f 108/4/1 107/4/1 106/4/1
f 109/4/1 105/4/1 107/4/1
f 109/4/1 107/4/1 108/4/1
f 110/4/1 105/4/1 109/4/1
f 113/3/1 112/3/1 111/3/1
f 114/3/1 112/3/1 113/3/1
f 117/1/1 116/1/1 115/1/1
f 118/1/1 116/1/1 117/1/1
f 121/4/1 120/4/1 119/4/1
f 122/4/1 120/4/1 121/4/1
f 125/1/1 124/1/1 123/1/1
f 126/1/1 124/1/1 125/1/1
f 129/1/1 128/1/1 127/1/1
f 130/1/1 128/1/1 129/1/1
f 134/1/1 132/1/1 131/1/1
f 135/3/1 133/3/1 132/3/1
f 135/1/1 132/1/1 134/1/1
f 136/3/1 133/3/1 135/3/1
f 137/3/1 133/3/1 136/3/1
f 138/1/1 137/1/1 136/1/1
f 139/1/1 137/1/1 138/1/1
f 140/1/2 141/1/2 143/1/2
f 141/3/2 142/3/2 144/3/2
f 143/1/2 141/1/2 144/1/2
f 144/3/2 142/3/2 145/3/2
f 144/1/2 145/1/2 146/1/2
f 146/1/2 145/1/2 147/1/2
f 148/1/2 149/1/2 150/1/2
f 150/1/2 149/1/2 151/1/2
f 152/1/2 153/1/2 154/1/2
f 154/1/2 153/1/2 155/1/2
f 156/3/2 157/3/2 158/3/2
f 158/3/2 157/3/2 159/3/2
f 160/1/2 161/1/2 162/1/2
f 162/1/2 161/1/2 163/1/2
f 163/1/2 161/1/2 164/1/2
f 163/6/2 164/6/2 165/6/2
f 165/6/2 164/6/2 166/6/2
f 167/3/2 168/3/2 169/3/2
f 169/3/2 168/3/2 170/3/2
f 173/1/2 174/1/2 175/1/2
f 175/1/2 174/1/2 176/1/2
f 171/4/2 172/4/2 177/4/2
f 177/4/2 172/4/2 178/4/2
f 179/4/2 180/4/2 183/4/2
f 181/1/2 182/1/2 184/1/2
f 184/1/2 182/1/2 185/1/2
f 183/4/2 180/4/2 186/4/2
f 186/4/2 180/4/2 187/4/2
f 188/1/2 189/1/2 192/1/2
f 192/1/2 189/1/2 193/1/2
f 190/1/2 191/1/2 194/1/2
f 194/1/2 191/1/2 195/1/2
f 193/5/2 194/5/2 198/5/2
f 198/5/2 194/5/2 199/5/2
f 196/1/2 197/1/2 200/1/2
f 200/1/2 197/1/2 201/1/2
f 202/3/2 203/3/2 204/3/2
f 204/3/2 203/3/2 205/3/2
f 206/1/2 207/1/2 208/1/2
f 208/1/2 207/1/2 209/1/2
f 209/1/2 207/1/2 210/1/2
f 209/6/2 210/6/2 212/6/2
f 212/6/2 210/6/2 213/6/2
f 212/6/2 213/6/2 215/6/2
f 213/6/2 214/6/2 215/6/2
f 211/6/2 212/6/2 215/6/2
f 215/6/2 214/6/2 216/6/2
f 216/6/2 214/6/2 217/6/2
f 217/6/2 214/6/2 218/6/2
f 215/1/2 216/1/2 219/1/2
f 217/1/2 218/1/2 220/1/2
f 215/1/2 219/1/2 221/1/2
f 221/1/2 219/1/2 222/1/2
f 220/1/2 218/1/2 223/1/2
f 223/1/2 218/1/2 224/1/2
f 222/1/2 223/1/2 225/1/2
f 225/1/2 223/1/2 226/1/2
f 227/5/2 228/5/2 229/5/2
f 229/5/2 228/5/2 230/5/2
f 229/1/2 230/1/2 231/1/2
f 231/1/2 230/1/2 232/1/2
f 233/1/2 234/1/2 236/1/2
f 236/1/2 234/1/2 237/1/2
f 235/5/2 236/5/2 239/5/2
f 239/5/2 236/5/2 240/5/2
f 240/5/2 236/5/2 241/5/2
f 241/5/2 236/5/2 242/5/2
f 242/5/2 236/5/2 243/5/2
f 243/5/2 236/5/2 244/5/2
f 244/5/2 236/5/2 245/5/2
f 238/3/2 239/3/2 246/3/2
f 239/5/2 240/5/2 247/5/2
f 246/3/2 239/3/2 247/3/2
f 247/5/2 240/5/2 248/5/2
f 248/5/2 240/5/2 249/5/2
f 241/5/2 242/5/2 250/5/2
f 250/5/2 242/5/2 251/5/2
f 243/5/2 244/5/2 252/5/2
f 252/5/2 244/5/2 253/5/2
f 247/5/2 248/5/2 254/5/2
f 254/5/2 248/5/2 255/5/2
f 256/1/2 257/1/2 263/1/2
f 258/5/2 259/5/2 268/5/2
f 268/5/2 259/5/2 269/5/2
f 260/1/2 261/1/2 270/1/2
f 270/1/2 261/1/2 271/1/2
f 262/1/2 263/1/2 272/1/2
f 265/3/2 266/3/2 273/3/2
f 267/1/2 268/1/2 274/1/2
f 268/5/2 269/5/2 275/5/2
f 274/1/2 268/1/2 275/1/2
f 271/1/2 272/1/2 276/1/2
f 275/5/2 269/5/2 276/5/2
f 270/1/2 271/1/2 276/1/2
f 269/1/2 270/1/2 276/1/2
f 264/1/2 265/1/2 277/1/2
f 265/3/2 273/3/2 277/3/2
f 273/1/2 274/1/2 278/1/2
f 277/3/2 273/3/2 278/3/2
f 274/1/2 275/1/2 278/1/2
f 275/1/2 276/1/2 278/1/2
f 264/1/2 277/1/2 279/1/2
f 277/1/2 278/1/2 279/1/2
f 278/1/2 276/1/2 280/1/2
f 279/1/2 278/1/2 280/1/2
f 263/1/2 257/1/2 280/1/2
f 276/1/2 272/1/2 280/1/2
f 272/1/2 263/1/2 280/1/2
f 283/1/3 282/1/3 281/1/3
f 284/1/3 282/1/3 283/1/3
f 286/1/3 282/1/3 284/1/3
f 287/1/3 286/1/3 285/1/3
f 288/1/3 282/1/3 286/1/3
f 288/1/3 286/1/3 287/1/3
f 289/1/3 282/1/3 288/1/3
f 290/1/3 282/1/3 289/1/3
f 292/1/3 282/1/3 290/1/3
f 294/1/3 292/1/3 291/1/3
f 296/1/3 294/1/3 293/1/3
f 297/1/3 296/1/3 295/1/3
f 298/1/3 282/1/3 292/1/3
f 298/1/3 296/1/3 297/1/3
f 298/1/3 292/1/3 294/1/3
f 298/1/3 294/1/3 296/1/3
f 301/3/3 300/3/3 299/3/3
f 302/3/3 300/3/3 301/3/3
f 304/3/3 303/3/3 302/3/3
f 305/3/3 303/3/3 304/3/3
f 306/3/3 303/3/3 305/3/3
f 308/3/3 306/3/3 305/3/3
f 310/3/3 308/3/3 307/3/3
f 311/3/3 306/3/3 308/3/3
f 311/3/3 308/3/3 310/3/3
f 312/3/3 310/3/3 309/3/3
f 313/3/3 310/3/3 312/3/3
f 319/5/3 317/5/3 316/5/3
f 319/5/3 318/5/3 317/5/3
f 320/5/3 318/5/3 319/5/3
f 321/2/3 320/2/3 319/2/3
f 322/5/3 318/5/3 320/5/3
f 322/2/3 320/2/3 321/2/3
f 323/5/3 315/5/3 314/5/3
f 324/5/3 322/5/3 321/5/3
f 325/5/3 318/5/3 322/5/3
f 325/5/3 322/5/3 324/5/3
f 326/5/3 324/5/3 323/5/3
f 328/5/3 318/5/3 325/5/3
f 330/5/3 327/5/3 326/5/3
f 330/5/3 326/5/3 323/5/3
f 331/5/3 327/5/3 330/5/3
f 332/5/3 323/5/3 314/5/3
f 332/5/3 330/5/3 323/5/3
f 333/5/3 330/5/3 332/5/3
f 334/5/3 329/5/3 328/5/3
f 334/5/3 328/5/3 325/5/3
f 335/5/3 334/5/3 333/5/3
f 336/5/3 329/5/3 334/5/3
f 336/5/3 334/5/3 335/5/3
f 337/2/3 336/2/3 335/2/3
f 338/5/3 329/5/3 336/5/3
f 338/2/3 336/2/3 337/2/3
f 339/5/3 332/5/3 314/5/3
f 340/5/3 332/5/3 339/5/3
f 341/5/3 338/5/3 337/5/3
f 342/5/3 329/5/3 338/5/3
f 342/5/3 338/5/3 341/5/3
f 343/5/3 329/5/3 342/5/3
f 346/1/3 345/1/3 344/1/3
f 347/1/3 345/1/3 346/1/3
f 353/1/3 352/1/3 351/1/3
f 355/1/3 349/1/3 348/1/3
f 356/1/3 349/1/3 355/1/3
f 359/1/3 354/1/3 353/1/3
f 359/1/3 353/1/3 351/1/3
f 360/1/3 354/1/3 359/1/3
f 361/1/3 358/1/3 357/1/3
f 362/1/3 358/1/3 361/1/3
f 363/6/3 351/6/3 350/6/3
f 364/1/3 359/1/3 351/1/3
f 364/6/3 351/6/3 363/6/3
f 365/1/3 359/1/3 364/1/3
f 368/5/3 367/5/3 366/5/3
f 369/5/3 367/5/3 368/5/3
f 375/5/3 371/5/3 370/5/3
f 376/1/3 372/1/3 371/1/3
f 376/5/3 371/5/3 375/5/3
f 377/1/3 372/1/3 376/1/3
f 379/1/3 378/1/3 377/1/3
f 380/1/3 378/1/3 379/1/3
f 382/6/3 374/6/3 373/6/3
f 383/6/3 374/6/3 382/6/3
f 387/5/3 381/5/3 380/5/3
f 388/5/3 381/5/3 387/5/3
f 389/6/3 385/6/3 384/6/3
f 390/6/3 385/6/3 389/6/3
f 393/1/3 387/1/3 386/1/3
f 394/1/3 387/1/3 393/1/3
f 395/5/3 392/5/3 391/5/3
f 396/1/3 393/1/3 392/1/3
f 396/5/3 392/5/3 395/5/3
f 397/1/3 393/1/3 396/1/3
f 400/5/3 399/5/3 398/5/3
f 401/5/3 399/5/3 400/5/3
f 404/1/3 403/1/3 402/1/3
f 405/1/3 403/1/3 404/1/3
f 408/1/3 407/1/3 406/1/3
f 409/1/3 407/1/3 408/1/3
f 412/4/3 411/4/3 410/4/3
f 413/4/3 411/4/3 412/4/3
f 414/4/3 411/4/3 413/4/3
f 415/4/3 411/4/3 414/4/3
f 416/4/3 411/4/3 415/4/3
f 419/1/3 418/1/3 417/1/3
f 420/1/3 418/1/3 419/1/3
f 424/1/3 422/1/3 421/1/3
f 425/1/3 422/1/3 424/1/3
f 426/1/3 424/1/3 423/1/3
f 427/1/3 424/1/3 426/1/3
f 432/1/3 431/1/3 430/1/3
f 433/1/3 431/1/3 432/1/3
f 434/1/3 429/1/3 428/1/3
f 435/1/3 429/1/3 434/1/3
f 438/1/3 437/1/3 436/1/3
f 439/1/3 437/1/3 438/1/3
f 441/1/3 440/1/3 439/1/3
f 442/1/3 440/1/3 441/1/3
f 443/1/4 444/1/4 446/1/4
f 445/1/4 446/1/4 447/1/4
f 446/1/4 444/1/4 448/1/4
f 447/1/4 446/1/4 448/1/4
f 448/1/4 444/1/4 449/1/4
f 449/1/4 444/1/4 450/1/4
f 449/1/4 450/1/4 452/1/4
f 450/1/4 451/1/4 452/1/4
f 452/1/4 451/1/4 453/1/4
f 453/1/4 451/1/4 455/1/4
f 454/1/4 455/1/4 457/1/4
f 456/1/4 457/1/4 458/1/4
f 457/1/4 455/1/4 459/1/4
f 458/1/4 457/1/4 459/1/4
f 455/1/4 451/1/4 460/1/4
f 459/1/4 455/1/4 460/1/4
f 461/3/4 462/3/4 463/3/4
f 463/3/4 462/3/4 464/3/4
f 465/3/4 466/3/4 467/3/4
f 467/3/4 466/3/4 468/3/4
f 469/5/4 470/5/4 471/5/4
f 471/5/4 470/5/4 472/5/4
f 473/5/4 474/5/4 475/5/4
f 475/5/4 474/5/4 476/5/4
f 477/5/4 478/5/4 483/5/4
f 478/1/4 479/1/4 484/1/4
f 483/5/4 478/5/4 484/5/4
f 484/1/4 479/1/4 485/1/4
f 485/1/4 486/1/4 487/1/4
f 487/1/4 486/1/4 488/1/4
f 480/1/4 481/1/4 490/1/4
f 481/6/4 482/6/4 491/6/4
f 490/1/4 481/1/4 491/1/4
f 491/6/4 482/6/4 492/6/4
f 488/5/4 489/5/4 497/5/4
f 497/5/4 489/5/4 498/5/4
f 493/1/4 494/1/4 499/1/4
f 494/6/4 495/6/4 500/6/4
f 499/1/4 494/1/4 500/1/4
f 500/6/4 495/6/4 501/6/4
f 496/1/4 497/1/4 504/1/4
f 504/1/4 497/1/4 505/1/4
f 502/5/4 503/5/4 506/5/4
f 503/1/4 504/1/4 507/1/4
f 506/5/4 503/5/4 507/5/4
f 507/1/4 504/1/4 508/1/4
f 509/1/4 510/1/4 511/1/4
f 511/1/4 510/1/4 512/1/4
f 514/1/4 515/1/4 516/1/4
f 518/4/4 519/4/4 520/4/4
f 520/4/4 519/4/4 521/4/4
f 516/1/4 517/1/4 522/1/4
f 514/1/4 516/1/4 522/1/4
f 522/1/4 517/1/4 523/1/4
f 521/4/4 519/4/4 524/4/4
f 524/4/4 519/4/4 525/4/4
f 513/6/4 514/6/4 526/6/4
f 514/1/4 522/1/4 527/1/4
f 526/6/4 514/6/4 527/6/4
f 527/1/4 522/1/4 528/1/4
f 529/1/4 530/1/4 531/1/4
f 531/1/4 530/1/4 532/1/4
f 533/4/4 534/4/4 535/4/4
f 535/4/4 534/4/4 536/4/4
f 537/1/4 538/1/4 540/1/4
f 539/1/4 540/1/4 541/1/4
f 540/1/4 538/1/4 542/1/4
f 541/1/4 540/1/4 542/1/4
f 542/1/4 538/1/4 544/1/4
f 543/1/4 544/1/4 545/1/4
f 544/1/4 538/1/4 546/1/4
f 545/1/4 544/1/4 546/1/4
f 546/1/4 538/1/4 548/1/4
f 547/1/4 548/1/4 549/1/4
f 548/1/4 538/1/4 550/1/4
f 549/1/4 548/1/4 550/1/4
f 550/1/4 538/1/4 551/1/4
f 551/1/4 538/1/4 552/1/4
f 557/1/5 554/1/5 553/1/5
f 558/1/5 554/1/5 557/1/5
f 559/1/5 556/1/5 555/1/5
f 560/1/5 556/1/5 559/1/5
f 563/6/5 562/6/5 561/6/5
f 564/6/5 562/6/5 563/6/5
f 565/6/5 562/6/5 564/6/5
f 566/6/5 562/6/5 565/6/5
f 568/6/5 565/6/5 564/6/5
f 569/6/5 565/6/5 568/6/5
f 571/6/5 568/6/5 567/6/5
f 571/6/5 570/6/5 569/6/5
f 571/6/5 569/6/5 568/6/5
f 572/6/5 570/6/5 571/6/5
f 577/5/5 574/5/5 573/5/5
f 578/5/5 574/5/5 577/5/5
f 579/5/5 576/5/5 575/5/5
f 580/5/5 576/5/5 579/5/5
f 587/1/5 582/1/5 581/1/5
f 588/1/5 582/1/5 587/1/5
f 589/1/5 584/1/5 583/1/5
f 590/1/5 584/1/5 589/1/5
f 591/1/5 586/1/5 585/1/5
f 592/1/5 586/1/5 591/1/5
f 595/5/5 594/5/5 593/5/5
f 596/5/5 594/5/5 595/5/5
f 598/5/5 595/5/5 593/5/5
f 599/5/5 595/5/5 598/5/5
f 600/5/5 594/5/5 596/5/5
f 601/1/5 598/1/5 597/1/5
f 602/5/5 599/5/5 598/5/5
f 602/1/5 598/1/5 601/1/5
f 602/5/5 600/5/5 599/5/5
f 604/5/5 600/5/5 602/5/5
f 605/5/5 600/5/5 604/5/5
f 606/5/5 600/5/5 605/5/5
f 607/5/5 594/5/5 600/5/5
f 607/5/5 600/5/5 606/5/5
f 608/5/5 594/5/5 607/5/5
f 609/5/5 594/5/5 608/5/5
f 611/1/5 604/1/5 603/1/5
f 612/1/5 604/1/5 611/1/5
f 613/1/5 606/1/5 605/1/5
f 614/1/5 606/1/5 613/1/5
f 615/1/5 608/1/5 607/1/5
f 616/1/5 608/1/5 615/1/5
f 617/1/5 610/1/5 609/1/5
f 618/1/5 610/1/5 617/1/5
f 623/3/5 620/3/5 619/3/5
f 624/3/5 620/3/5 623/3/5
f 625/3/5 622/3/5 621/3/5
f 626/3/5 622/3/5 625/3/5
f 631/5/5 628/5/5 627/5/5
f 632/5/5 628/5/5 631/5/5
f 633/5/5 630/5/5 629/5/5
f 634/5/5 630/5/5 633/5/5
f 639/1/5 636/1/5 635/1/5
f 640/1/5 636/1/5 639/1/5
f 643/1/5 638/1/5 637/1/5
f 644/1/5 638/1/5 643/1/5
f 645/1/5 642/1/5 641/1/5
f 646/1/5 642/1/5 645/1/5
f 651/1/5 648/1/5 647/1/5
f 652/1/5 648/1/5 651/1/5
f 657/1/5 650/1/5 649/1/5
f 658/1/5 650/1/5 657/1/5
f 659/3/5 652/3/5 651/3/5
f 660/3/5 652/3/5 659/3/5
f 661/3/5 654/3/5 653/3/5
f 662/3/5 654/3/5 661/3/5
f 663/3/5 656/3/5 655/3/5
f 664/3/5 656/3/5 663/3/5
f 665/3/5 658/3/5 657/3/5
f 666/3/5 658/3/5 665/3/5
f 669/1/5 668/1/5 667/1/5
f 670/1/5 668/1/5 669/1/5
f 675/1/5 672/1/5 671/1/5
f 676/1/5 672/1/5 675/1/5
f 677/1/5 674/1/5 673/1/5
f 678/1/5 674/1/5 677/1/5
f 681/1/5 680/1/5 679/1/5
f 682/1/5 680/1/5 681/1/5
f 687/1/5 684/1/5 683/1/5
f 688/1/5 684/1/5 687/1/5
f 691/1/5 686/1/5 685/1/5
f 692/1/5 686/1/5 691/1/5
f 695/3/5 690/3/5 689/3/5
f 696/3/5 690/3/5 695/3/5
f 699/1/5 694/1/5 693/1/5
f 700/1/5 694/1/5 699/1/5
f 701/1/5 698/1/5 697/1/5
f 702/1/5 698/1/5 701/1/5
f 703/3/5 700/3/5 699/3/5
f 704/3/5 700/3/5 703/3/5
f 711/1/5 706/1/5 705/1/5
f 712/1/5 706/1/5 711/1/5
f 713/1/5 708/1/5 707/1/5
f 714/1/5 708/1/5 713/1/5
f 715/1/5 708/1/5 714/1/5
f 716/1/5 710/1/5 709/1/5
f 717/1/5 710/1/5 716/1/5
f 722/1/5 719/1/5 718/1/5
f 723/1/5 719/1/5 722/1/5
f 724/1/5 721/1/5 720/1/5
f 725/1/5 721/1/5 724/1/5
f 728/4/5 727/4/5 726/4/5
f 729/4/5 727/4/5 728/4/5
f 732/1/5 731/1/5 730/1/5
f 733/1/5 731/1/5 732/1/5
f 736/4/5 735/4/5 734/4/5
f 737/4/5 735/4/5 736/4/5
f 738/1/6 739/1/6 742/1/6
f 742/1/6 739/1/6 743/1/6
f 740/1/6 741/1/6 744/1/6
f 744/1/6 741/1/6 745/1/6
f 746/1/6 747/1/6 751/1/6
f 751/1/6 747/1/6 752/1/6
f 748/1/6 749/1/6 753/1/6
f 753/1/6 749/1/6 754/1/6
f 750/1/6 751/1/6 756/1/6
f 756/1/6 751/1/6 757/1/6
f 754/1/6 755/1/6 760/1/6
f 760/1/6 755/1/6 761/1/6
f 757/1/6 758/1/6 762/1/6
f 762/1/6 758/1/6 763/1/6
f 759/1/6 760/1/6 764/1/6
f 764/1/6 760/1/6 765/1/6
f 766/1/6 767/1/6 769/1/6
f 769/1/6 767/1/6 770/1/6
f 768/1/6 769/1/6 772/1/6
f 772/1/6 769/1/6 773/1/6
f 770/1/6 771/1/6 774/1/6
f 774/1/6 771/1/6 775/1/6
f 773/1/6 774/1/6 776/1/6
f 776/1/6 774/1/6 777/1/6
f 778/3/6 779/3/6 782/3/6
f 782/3/6 779/3/6 783/3/6
f 783/3/6 779/3/6 784/3/6
f 784/3/6 779/3/6 785/3/6
f 780/3/6 781/3/6 786/3/6
f 786/3/6 781/3/6 787/3/6
f 787/3/6 781/3/6 788/3/6
f 788/3/6 781/3/6 789/3/6
f 790/4/6 791/4/6 792/4/6
f 792/4/6 791/4/6 793/4/6
f 794/3/6 795/3/6 797/3/6
f 795/3/6 796/3/6 797/3/6
f 797/3/6 796/3/6 798/3/6
f 799/4/6 800/4/6 801/4/6
f 801/4/6 800/4/6 802/4/6
f 802/4/6 800/4/6 803/4/6
f 804/4/6 805/4/6 806/4/6
f 806/4/6 805/4/6 807/4/6
f 808/1/6 809/1/6 810/1/6
f 810/1/6 809/1/6 811/1/6
