# MagicaVoxel @ ephtracy

# material
mtllib vu2.mtl
usemtl palette

# normals
vn -1 0 0
vn 1 0 0
vn 0 0 1
vn 0 0 -1
vn 0 -1 0
vn 0 1 0

# texcoords
vt 0.939453 0.5
vt 0.955078 0.5
vt 0.966797 0.5
vt 0.974609 0.5
vt 0.986328 0.5
vt 0.990234 0.5
vt 0.994141 0.5

# verts
v -6 8 -1.5
v -6 8 -2.5
v -6 8 -4.5
v -6 8 -5.5
v -6 9 0.5
v -6 9 -0.5
v -6 9 -2.5
v -6 9 -4.5
v -6 10 5.5
v -6 10 4.5
v -6 10 3.5
v -6 10 -0.5
v -6 10 -1.5
v -6 11 3.5
v -6 11 2.5
v -6 11 0.5
v -6 11 -0.5
v -6 12 4.5
v -6 12 3.5
v -6 12 2.5
v -6 12 0.5
v -6 16 5.5
v -6 16 -5.5
v -5 7 -4.5
v -5 7 -5.5
v -5 8 3.5
v -5 8 -1.5
v -5 8 -2.5
v -5 8 -4.5
v -5 8 -5.5
v -5 9 4.5
v -5 9 3.5
v -5 9 0.5
v -5 9 -0.5
v -5 9 -2.5
v -5 9 -4.5
v -5 10 4.5
v -5 10 3.5
v -5 10 -0.5
v -5 10 -1.5
v -5 11 3.5
v -5 11 2.5
v -5 11 0.5
v -4 3 -0.5
v -4 3 -2.5
v -4 4 0.5
v -4 4 -0.5
v -4 5 0.5
v -4 5 -1.5
v -4 5 -2.5
v -4 6 0.5
v -4 6 -1.5
v -4 11 5.5
v -4 11 4.5
v -4 12 5.5
v -4 12 4.5
v -3 0 2.5
v -3 0 -0.5
v -3 1 2.5
v -3 1 1.5
v -3 1 -0.5
v -3 2 -0.5
v -3 2 -2.5
v -3 3 1.5
v -3 3 -0.5
v -3 3 -2.5
v -3 4 0.5
v -3 4 -0.5
v -3 5 0.5
v -3 5 -1.5
v -3 5 -2.5
v -3 6 1.5
v -3 6 0.5
v -3 6 -1.5
v -3 6 -2.5
v -3 7 0.5
v -3 7 -1.5
v -2 6 1.5
v -2 6 0.5
v -2 6 -1.5
v -2 6 -2.5
v -2 7 1.5
v -2 7 0.5
v -2 7 -1.5
v -2 7 -2.5
v -2 7 -4.5
v -2 7 -5.5
v -2 8 0.5
v -2 8 -1.5
v -2 8 -4.5
v -2 8 -5.5
v -2 10 4.5
v -2 10 3.5
v -2 12 4.5
v -2 12 3.5
v 1 0 0.5
v 1 0 -2.5
v 1 1 0.5
v 1 1 -0.5
v 1 1 -2.5
v 1 2 -0.5
v 1 2 -2.5
v 1 10 4.5
v 1 10 3.5
v 1 11 4.5
v 1 11 3.5
v 1 11 -3.5
v 1 11 -4.5
v 1 12 -2.5
v 1 12 -3.5
v 1 13 -2.5
v 1 13 -3.5
v 1 13 -4.5
v 2 9 4.5
v 2 9 3.5
v 2 10 4.5
v 2 10 3.5
v 2 12 5.5
v 2 12 4.5
v 2 13 5.5
v 2 13 4.5
v 2 13 -2.5
v 2 13 -3.5
v 2 14 -2.5
v 2 14 -3.5
v 3 7 -4.5
v 3 7 -5.5
v 3 8 -4.5
v 3 8 -5.5
v 4 11 5.5
v 4 11 4.5
v 4 12 5.5
v 4 12 4.5
v 5 10 5.5
v 5 10 4.5
v 5 10 3.5
v 5 11 5.5
v 5 11 4.5
v 5 12 4.5
v 5 12 3.5
v 5 14 4.5
v 5 14 3.5
v -5 10 5.5
v -5 10 4.5
v -5 10 3.5
v -5 12 5.5
v -5 12 4.5
v -5 12 3.5
v -5 13 4.5
v -5 13 3.5
v -4 7 -4.5
v -4 7 -5.5
v -4 8 -4.5
v -4 8 -5.5
v -3 11 5.5
v -3 11 4.5
v -3 12 5.5
v -3 12 4.5
v -2 9 4.5
v -2 9 3.5
v -2 10 4.5
v -2 10 3.5
v -1 0 2.5
v -1 0 -0.5
v -1 1 2.5
v -1 1 1.5
v -1 1 -0.5
v -1 2 1.5
v -1 2 -0.5
v -1 10 4.5
v -1 10 3.5
v -1 11 4.5
v -1 11 3.5
v -1 12 -2.5
v -1 12 -3.5
v -1 13 4.5
v -1 13 3.5
v -1 14 4.5
v -1 14 3.5
v -1 14 -2.5
v -1 14 -3.5
v 0 11 -3.5
v 0 11 -4.5
v 0 12 5.5
v 0 12 4.5
v 0 12 -3.5
v 0 13 5.5
v 0 13 4.5
v 0 13 -3.5
v 0 13 -4.5
v 2 6 1.5
v 2 6 0.5
v 2 6 -1.5
v 2 6 -2.5
v 2 7 1.5
v 2 7 0.5
v 2 7 -1.5
v 2 7 -2.5
v 2 7 -4.5
v 2 7 -5.5
v 2 8 0.5
v 2 8 -1.5
v 2 8 -4.5
v 2 8 -5.5
v 2 10 4.5
v 2 10 3.5
v 2 12 4.5
v 2 12 3.5
v 3 0 0.5
v 3 0 -2.5
v 3 1 0.5
v 3 1 -0.5
v 3 1 -2.5
v 3 2 1.5
v 3 2 -0.5
v 3 3 1.5
v 3 3 -0.5
v 3 3 -2.5
v 3 4 -0.5
v 3 4 -1.5
v 3 5 1.5
v 3 5 0.5
v 3 5 -1.5
v 3 6 1.5
v 3 6 0.5
v 3 6 -1.5
v 3 6 -2.5
v 3 7 0.5
v 3 7 -1.5
v 4 3 1.5
v 4 3 -0.5
v 4 4 -0.5
v 4 4 -1.5
v 4 5 1.5
v 4 5 0.5
v 4 5 -1.5
v 4 6 0.5
v 4 6 -1.5
v 5 7 -4.5
v 5 7 -5.5
v 5 8 3.5
v 5 8 -4.5
v 5 8 -5.5
v 5 9 4.5
v 5 9 3.5
v 5 9 0.5
v 5 9 -0.5
v 5 9 -1.5
v 5 9 -2.5
v 5 9 -3.5
v 5 9 -4.5
v 5 10 4.5
v 5 10 3.5
v 5 10 2.5
v 5 10 0.5
v 5 10 -0.5
v 5 10 -1.5
v 5 10 -2.5
v 5 10 -3.5
v 5 11 3.5
v 5 11 2.5
v 6 8 -4.5
v 6 8 -5.5
v 6 9 0.5
v 6 9 -0.5
v 6 9 -1.5
v 6 9 -2.5
v 6 9 -3.5
v 6 9 -4.5
v 6 10 5.5
v 6 10 4.5
v 6 10 3.5
v 6 10 2.5
v 6 10 0.5
v 6 10 -0.5
v 6 10 -1.5
v 6 10 -2.5
v 6 10 -3.5
v 6 11 3.5
v 6 11 2.5
v 6 11 0.5
v 6 11 -0.5
v 6 12 4.5
v 6 12 3.5
v 6 16 5.5
v 6 16 -5.5
v -6 10 5.5
v -6 16 5.5
v -5 10 5.5
v -5 12 5.5
v -4 11 5.5
v -4 12 5.5
v -3 11 5.5
v -3 12 5.5
v 0 12 5.5
v 0 13 5.5
v 2 12 5.5
v 2 13 5.5
v 4 11 5.5
v 4 12 5.5
v 5 10 5.5
v 5 11 5.5
v 6 10 5.5
v 6 16 5.5
v -5 9 4.5
v -5 10 4.5
v -2 9 4.5
v -2 10 4.5
v -2 12 4.5
v -1 10 4.5
v -1 11 4.5
v 0 12 4.5
v 1 10 4.5
v 1 11 4.5
v 2 9 4.5
v 2 10 4.5
v 2 12 4.5
v 5 9 4.5
v 5 10 4.5
v -5 8 3.5
v -5 9 3.5
v -5 10 3.5
v -5 12 3.5
v -5 13 3.5
v -4 10 3.5
v -4 12 3.5
v -3 10 3.5
v -3 12 3.5
v -2 9 3.5
v -2 10 3.5
v -2 12 3.5
v -1 10 3.5
v -1 11 3.5
v -1 13 3.5
v -1 14 3.5
v 1 10 3.5
v 1 11 3.5
v 2 9 3.5
v 2 10 3.5
v 2 12 3.5
v 3 10 3.5
v 3 12 3.5
v 4 10 3.5
v 4 12 3.5
v 5 8 3.5
v 5 9 3.5
v 5 10 3.5
v 5 12 3.5
v 5 14 3.5
v -3 0 2.5
v -3 1 2.5
v -1 0 2.5
v -1 1 2.5
v 5 10 2.5
v 5 11 2.5
v 6 10 2.5
v 6 11 2.5
v -3 1 1.5
v -3 3 1.5
v -3 6 1.5
v -2 6 1.5
v -2 7 1.5
v -1 1 1.5
v -1 2 1.5
v 2 6 1.5
v 2 7 1.5
v 3 2 1.5
v 3 3 1.5
v 3 5 1.5
v 3 6 1.5
v 4 3 1.5
v 4 5 1.5
v -6 9 0.5
v -6 11 0.5
v -5 9 0.5
v -5 11 0.5
v -4 4 0.5
v -4 5 0.5
v -4 6 0.5
v -3 4 0.5
v -3 5 0.5
v -3 6 0.5
v -3 7 0.5
v -2 6 0.5
v -2 7 0.5
v -2 8 0.5
v 1 0 0.5
v 1 1 0.5
v 2 6 0.5
v 2 7 0.5
v 2 8 0.5
v 3 0 0.5
v 3 1 0.5
v 3 5 0.5
v 3 6 0.5
v 3 7 0.5
v 4 5 0.5
v 4 6 0.5
v 5 9 0.5
v 5 10 0.5
v 6 9 0.5
v 6 10 0.5
v -4 3 -0.5
v -4 4 -0.5
v -3 3 -0.5
v -3 4 -0.5
v 1 1 -0.5
v 1 2 -0.5
v 3 1 -0.5
v 3 2 -0.5
v -6 8 -1.5
v -6 10 -1.5
v -5 8 -1.5
v -5 10 -1.5
v 5 9 -1.5
v 5 10 -1.5
v 6 9 -1.5
v 6 10 -1.5
v -1 12 -3.5
v -1 14 -3.5
v 0 12 -3.5
v 0 13 -3.5
v 1 13 -3.5
v 2 13 -3.5
v 2 14 -3.5
v 5 9 -3.5
v 5 10 -3.5
v 6 9 -3.5
v 6 10 -3.5
v -6 8 -4.5
v -6 9 -4.5
v -5 7 -4.5
v -5 8 -4.5
v -5 9 -4.5
v -4 7 -4.5
v -4 8 -4.5
v -2 7 -4.5
v -2 8 -4.5
v 0 11 -4.5
v 0 13 -4.5
v 1 11 -4.5
v 1 13 -4.5
v 2 7 -4.5
v 2 8 -4.5
v 3 7 -4.5
v 3 8 -4.5
v 5 7 -4.5
v 5 8 -4.5
v 5 9 -4.5
v 6 8 -4.5
v 6 9 -4.5
v -5 12 4.5
v -5 13 4.5
v -4 11 4.5
v -4 12 4.5
v -3 11 4.5
v -3 12 4.5
v -2 12 4.5
v -1 13 4.5
v -1 14 4.5
v 0 12 4.5
v 0 13 4.5
v 2 12 4.5
v 2 13 4.5
v 4 11 4.5
v 4 12 4.5
v 5 11 4.5
v 5 12 4.5
v 5 14 4.5
v -6 10 3.5
v -6 11 3.5
v -5 10 3.5
v -5 11 3.5
v 5 10 3.5
v 5 11 3.5
v 6 10 3.5
v 6 11 3.5
v -6 9 -0.5
v -6 10 -0.5
v -5 9 -0.5
v -5 10 -0.5
v -3 0 -0.5
v -3 1 -0.5
v -3 2 -0.5
v -1 0 -0.5
v -1 1 -0.5
v -1 2 -0.5
v 3 3 -0.5
v 3 4 -0.5
v 4 3 -0.5
v 4 4 -0.5
v 5 9 -0.5
v 5 10 -0.5
v 6 9 -0.5
v 6 10 -0.5
v -4 5 -1.5
v -4 6 -1.5
v -3 5 -1.5
v -3 6 -1.5
v -3 7 -1.5
v -2 6 -1.5
v -2 7 -1.5
v -2 8 -1.5
v 2 6 -1.5
v 2 7 -1.5
v 2 8 -1.5
v 3 4 -1.5
v 3 5 -1.5
v 3 6 -1.5
v 3 7 -1.5
v 4 4 -1.5
v 4 5 -1.5
v 4 6 -1.5
v -6 8 -2.5
v -6 9 -2.5
v -5 8 -2.5
v -5 9 -2.5
v -4 3 -2.5
v -4 5 -2.5
v -3 2 -2.5
v -3 3 -2.5
v -3 5 -2.5
v -3 6 -2.5
v -2 6 -2.5
v -2 7 -2.5
v -1 12 -2.5
v -1 14 -2.5
v 1 0 -2.5
v 1 1 -2.5
v 1 2 -2.5
v 1 12 -2.5
v 1 13 -2.5
v 2 6 -2.5
v 2 7 -2.5
v 2 13 -2.5
v 2 14 -2.5
v 3 0 -2.5
v 3 1 -2.5
v 3 3 -2.5
v 3 6 -2.5
v 5 9 -2.5
v 5 10 -2.5
v 6 9 -2.5
v 6 10 -2.5
v 0 11 -3.5
v 0 12 -3.5
v 1 11 -3.5
v 1 12 -3.5
v -6 8 -5.5
v -6 16 -5.5
v -5 7 -5.5
v -5 8 -5.5
v -4 7 -5.5
v -4 8 -5.5
v -2 7 -5.5
v -2 8 -5.5
v 2 7 -5.5
v 2 8 -5.5
v 3 7 -5.5
v 3 8 -5.5
v 5 7 -5.5
v 5 8 -5.5
v 6 8 -5.5
v 6 16 -5.5
v -3 0 2.5
v -1 0 2.5
v 1 0 0.5
v 3 0 0.5
v -3 0 -0.5
v -1 0 -0.5
v 1 0 -2.5
v 3 0 -2.5
v -1 2 1.5
v 3 2 1.5
v -3 2 -0.5
v -1 2 -0.5
v 1 2 -0.5
v 3 2 -0.5
v -3 2 -2.5
v 1 2 -2.5
v 3 3 1.5
v 4 3 1.5
v -4 3 -0.5
v -3 3 -0.5
v 3 3 -0.5
v 4 3 -0.5
v -4 3 -2.5
v -3 3 -2.5
v -4 4 0.5
v -3 4 0.5
v -4 4 -0.5
v -3 4 -0.5
v 3 4 -0.5
v 4 4 -0.5
v 3 4 -1.5
v 4 4 -1.5
v -5 7 -4.5
v -4 7 -4.5
v -2 7 -4.5
v 2 7 -4.5
v 3 7 -4.5
v 5 7 -4.5
v -5 7 -5.5
v -4 7 -5.5
v -2 7 -5.5
v 2 7 -5.5
v 3 7 -5.5
v 5 7 -5.5
v -5 8 3.5
v 5 8 3.5
v -2 8 0.5
v 2 8 0.5
v -6 8 -1.5
v -5 8 -1.5
v -2 8 -1.5
v 2 8 -1.5
v -6 8 -2.5
v -5 8 -2.5
v -6 8 -4.5
v -5 8 -4.5
v -4 8 -4.5
v -2 8 -4.5
v 2 8 -4.5
v 3 8 -4.5
v 5 8 -4.5
v 6 8 -4.5
v -6 8 -5.5
v -5 8 -5.5
v -4 8 -5.5
v -2 8 -5.5
v 2 8 -5.5
v 3 8 -5.5
v 5 8 -5.5
v 6 8 -5.5
v -5 9 4.5
v -2 9 4.5
v 2 9 4.5
v 5 9 4.5
v -5 9 3.5
v -2 9 3.5
v 2 9 3.5
v 5 9 3.5
v -6 9 0.5
v -5 9 0.5
v 5 9 0.5
v 6 9 0.5
v -6 9 -0.5
v -5 9 -0.5
v 5 9 -0.5
v 6 9 -0.5
v 5 9 -1.5
v 6 9 -1.5
v -6 9 -2.5
v -5 9 -2.5
v 5 9 -2.5
v 6 9 -2.5
v 5 9 -3.5
v 6 9 -3.5
v -6 9 -4.5
v -5 9 -4.5
v 5 9 -4.5
v 6 9 -4.5
v -6 10 5.5
v -5 10 5.5
v 5 10 5.5
v 6 10 5.5
v -6 10 4.5
v -5 10 4.5
v -2 10 4.5
v -1 10 4.5
v 1 10 4.5
v 2 10 4.5
v 5 10 4.5
v 6 10 4.5
v -6 10 3.5
v -5 10 3.5
v -2 10 3.5
v -1 10 3.5
v 1 10 3.5
v 2 10 3.5
v 5 10 3.5
v 6 10 3.5
v 5 10 2.5
v 6 10 2.5
v 5 10 0.5
v 6 10 0.5
v -6 10 -0.5
v -5 10 -0.5
v 5 10 -0.5
v 6 10 -0.5
v -6 10 -1.5
v -5 10 -1.5
v 5 10 -1.5
v 6 10 -1.5
v 5 10 -2.5
v 6 10 -2.5
v 5 10 -3.5
v 6 10 -3.5
v -4 11 5.5
v -3 11 5.5
v 4 11 5.5
v 5 11 5.5
v -4 11 4.5
v -3 11 4.5
v -1 11 4.5
v 1 11 4.5
v 4 11 4.5
v 5 11 4.5
v -6 11 3.5
v -5 11 3.5
v -1 11 3.5
v 1 11 3.5
v 5 11 3.5
v 6 11 3.5
v -6 11 2.5
v -5 11 2.5
v 5 11 2.5
v 6 11 2.5
v -6 11 0.5
v -5 11 0.5
v -5 12 5.5
v -4 12 5.5
v -3 12 5.5
v 0 12 5.5
v 2 12 5.5
v 4 12 5.5
v -5 12 4.5
v -4 12 4.5
v -3 12 4.5
v -2 12 4.5
v 0 12 4.5
v 2 12 4.5
v 4 12 4.5
v 0 13 5.5
v 2 13 5.5
v -5 13 4.5
v -1 13 4.5
v 0 13 4.5
v 2 13 4.5
v -5 13 3.5
v -1 13 3.5
v 0 13 -3.5
v 1 13 -3.5
v 0 13 -4.5
v 1 13 -4.5
v -1 14 4.5
v 5 14 4.5
v -1 14 3.5
v 5 14 3.5
v -1 14 -2.5
v 2 14 -2.5
v -1 14 -3.5
v 2 14 -3.5
v -3 1 2.5
v -1 1 2.5
v -3 1 1.5
v -1 1 1.5
v 1 1 0.5
v 3 1 0.5
v 1 1 -0.5
v 3 1 -0.5
v 3 5 1.5
v 4 5 1.5
v 3 5 0.5
v 4 5 0.5
v -4 5 -1.5
v -3 5 -1.5
v -4 5 -2.5
v -3 5 -2.5
v -3 6 1.5
v -2 6 1.5
v 2 6 1.5
v 3 6 1.5
v -4 6 0.5
v -3 6 0.5
v -2 6 0.5
v 2 6 0.5
v 3 6 0.5
v 4 6 0.5
v -4 6 -1.5
v -3 6 -1.5
v -2 6 -1.5
v 2 6 -1.5
v 3 6 -1.5
v 4 6 -1.5
v -3 6 -2.5
v -2 6 -2.5
v 2 6 -2.5
v 3 6 -2.5
v -2 7 1.5
v 2 7 1.5
v -3 7 0.5
v -2 7 0.5
v 2 7 0.5
v 3 7 0.5
v -3 7 -1.5
v -2 7 -1.5
v 2 7 -1.5
v 3 7 -1.5
v -2 7 -2.5
v 2 7 -2.5
v -5 10 4.5
v -2 10 4.5
v 2 10 4.5
v 5 10 4.5
v -5 10 3.5
v -4 10 3.5
v -3 10 3.5
v -2 10 3.5
v 2 10 3.5
v 3 10 3.5
v 4 10 3.5
v 5 10 3.5
v 0 11 -3.5
v 1 11 -3.5
v 0 11 -4.5
v 1 11 -4.5
v -2 12 4.5
v 0 12 4.5
v 2 12 4.5
v -2 12 3.5
v 2 12 3.5
v -1 12 -2.5
v 1 12 -2.5
v -1 12 -3.5
v 0 12 -3.5
v 1 12 -3.5
v 1 13 -2.5
v 2 13 -2.5
v 1 13 -3.5
v 2 13 -3.5
v -6 16 5.5
v 6 16 5.5
v -6 16 -5.5
v 6 16 -5.5

# faces
f 7/1/1 2/1/1 1/1/1
f 8/1/1 4/1/1 3/1/1
f 12/5/1 6/5/1 5/5/1
f 13/1/1 7/1/1 1/1/1
f 13/1/1 8/1/1 7/1/1
f 14/3/1 11/3/1 10/3/1
f 16/5/1 12/5/1 5/5/1
f 17/1/1 13/1/1 12/1/1
f 17/5/1 12/5/1 16/5/1
f 18/1/1 10/1/1 9/1/1
f 18/3/1 14/3/1 10/3/1
f 19/1/1 15/1/1 14/1/1
f 19/3/1 14/3/1 18/3/1
f 20/3/1 16/3/1 15/3/1
f 20/1/1 15/1/1 19/1/1
f 21/1/1 17/1/1 16/1/1
f 21/3/1 16/3/1 20/3/1
f 22/1/1 19/1/1 18/1/1
f 22/1/1 18/1/1 9/1/1
f 22/1/1 21/1/1 20/1/1
f 22/1/1 20/1/1 19/1/1
f 23/1/1 17/1/1 21/1/1
f 23/1/1 21/1/1 22/1/1
f 23/1/1 4/1/1 8/1/1
f 23/1/1 8/1/1 13/1/1
f 23/1/1 13/1/1 17/1/1
f 29/1/1 25/1/1 24/1/1
f 30/1/1 25/1/1 29/1/1
f 32/5/1 27/5/1 26/5/1
f 33/5/1 27/5/1 32/5/1
f 34/5/1 27/5/1 33/5/1
f 35/5/1 29/5/1 28/5/1
f 36/5/1 29/5/1 35/5/1
f 37/3/1 32/3/1 31/3/1
f 38/5/1 33/5/1 32/5/1
f 38/3/1 32/3/1 37/3/1
f 39/5/1 27/5/1 34/5/1
f 40/5/1 27/5/1 39/5/1
f 41/5/1 33/5/1 38/5/1
f 42/5/1 33/5/1 41/5/1
f 43/5/1 33/5/1 42/5/1
f 47/5/1 45/5/1 44/5/1
f 48/5/1 47/5/1 46/5/1
f 49/5/1 45/5/1 47/5/1
f 49/5/1 47/5/1 48/5/1
f 50/5/1 45/5/1 49/5/1
f 51/1/1 49/1/1 48/1/1
f 52/1/1 49/1/1 51/1/1
f 55/1/1 54/1/1 53/1/1
f 56/1/1 54/1/1 55/1/1
f 59/1/1 58/1/1 57/1/1
f 60/1/1 58/1/1 59/1/1
f 61/1/1 58/1/1 60/1/1
f 62/6/1 61/6/1 60/6/1
f 64/6/1 62/6/1 60/6/1
f 64/6/1 63/6/1 62/6/1
f 65/6/1 63/6/1 64/6/1
f 66/6/1 63/6/1 65/6/1
f 67/1/1 65/1/1 64/1/1
f 68/1/1 65/1/1 67/1/1
f 69/1/1 67/1/1 64/1/1
f 72/1/1 69/1/1 64/1/1
f 73/1/1 69/1/1 72/1/1
f 74/1/1 71/1/1 70/1/1
f 75/1/1 71/1/1 74/1/1
f 76/1/1 74/1/1 73/1/1
f 77/1/1 74/1/1 76/1/1
f 82/1/1 79/1/1 78/1/1
f 83/1/1 79/1/1 82/1/1
f 84/1/1 81/1/1 80/1/1
f 85/1/1 81/1/1 84/1/1
f 88/5/1 84/5/1 83/5/1
f 89/5/1 84/5/1 88/5/1
f 90/1/1 87/1/1 86/1/1
f 91/1/1 87/1/1 90/1/1
f 94/3/1 93/3/1 92/3/1
f 95/3/1 93/3/1 94/3/1
f 98/1/1 97/1/1 96/1/1
f 99/1/1 97/1/1 98/1/1
f 100/1/1 97/1/1 99/1/1
f 101/6/1 100/6/1 99/6/1
f 102/6/1 100/6/1 101/6/1
f 105/3/1 104/3/1 103/3/1
f 106/3/1 104/3/1 105/3/1
f 110/4/1 108/4/1 107/4/1
f 111/4/1 110/4/1 109/4/1
f 112/4/1 108/4/1 110/4/1
f 112/4/1 110/4/1 111/4/1
f 113/4/1 108/4/1 112/4/1
f 116/3/1 115/3/1 114/3/1
f 117/3/1 115/3/1 116/3/1
f 120/1/1 119/1/1 118/1/1
f 121/1/1 119/1/1 120/1/1
f 124/4/1 123/4/1 122/4/1
f 125/4/1 123/4/1 124/4/1
f 128/1/1 127/1/1 126/1/1
f 129/1/1 127/1/1 128/1/1
f 132/1/1 131/1/1 130/1/1
f 133/1/1 131/1/1 132/1/1
f 137/1/1 135/1/1 134/1/1
f 138/3/1 136/3/1 135/3/1
f 138/1/1 135/1/1 137/1/1
f 139/3/1 136/3/1 138/3/1
f 140/3/1 136/3/1 139/3/1
f 141/1/1 140/1/1 139/1/1
f 142/1/1 140/1/1 141/1/1
f 143/1/2 144/1/2 146/1/2
f 144/3/2 145/3/2 147/3/2
f 146/1/2 144/1/2 147/1/2
f 147/3/2 145/3/2 148/3/2
f 147/1/2 148/1/2 149/1/2
f 149/1/2 148/1/2 150/1/2
f 151/1/2 152/1/2 153/1/2
f 153/1/2 152/1/2 154/1/2
f 155/1/2 156/1/2 157/1/2
f 157/1/2 156/1/2 158/1/2
f 159/3/2 160/3/2 161/3/2
f 161/3/2 160/3/2 162/3/2
f 163/1/2 164/1/2 165/1/2
f 165/1/2 164/1/2 166/1/2
f 166/1/2 164/1/2 167/1/2
f 166/6/2 167/6/2 168/6/2
f 168/6/2 167/6/2 169/6/2
f 170/3/2 171/3/2 172/3/2
f 172/3/2 171/3/2 173/3/2
f 176/1/2 177/1/2 178/1/2
f 178/1/2 177/1/2 179/1/2
f 174/4/2 175/4/2 180/4/2
f 180/4/2 175/4/2 181/4/2
f 182/4/2 183/4/2 186/4/2
f 184/1/2 185/1/2 187/1/2
f 187/1/2 185/1/2 188/1/2
f 186/4/2 183/4/2 189/4/2
f 189/4/2 183/4/2 190/4/2
f 191/1/2 192/1/2 195/1/2
f 195/1/2 192/1/2 196/1/2
f 193/1/2 194/1/2 197/1/2
f 197/1/2 194/1/2 198/1/2
f 196/5/2 197/5/2 201/5/2
f 201/5/2 197/5/2 202/5/2
f 199/1/2 200/1/2 203/1/2
f 203/1/2 200/1/2 204/1/2
f 205/3/2 206/3/2 207/3/2
f 207/3/2 206/3/2 208/3/2
f 209/1/2 210/1/2 211/1/2
f 211/1/2 210/1/2 212/1/2
f 212/1/2 210/1/2 213/1/2
f 212/6/2 213/6/2 215/6/2
f 214/6/2 215/6/2 216/6/2
f 215/6/2 213/6/2 217/6/2
f 216/6/2 215/6/2 217/6/2
f 217/6/2 213/6/2 218/6/2
f 217/1/2 218/1/2 219/1/2
f 219/1/2 218/1/2 220/1/2
f 220/1/2 218/1/2 223/1/2
f 221/1/2 222/1/2 224/1/2
f 224/1/2 222/1/2 225/1/2
f 223/1/2 218/1/2 226/1/2
f 226/1/2 218/1/2 227/1/2
f 225/1/2 226/1/2 228/1/2
f 228/1/2 226/1/2 229/1/2
f 230/5/2 231/5/2 232/5/2
f 230/5/2 232/5/2 234/5/2
f 232/5/2 233/5/2 234/5/2
f 234/5/2 233/5/2 235/5/2
f 235/5/2 233/5/2 236/5/2
f 235/1/2 236/1/2 237/1/2
f 237/1/2 236/1/2 238/1/2
f 239/1/2 240/1/2 242/1/2
f 242/1/2 240/1/2 243/1/2
f 241/5/2 242/5/2 245/5/2
f 245/5/2 242/5/2 246/5/2
f 246/5/2 242/5/2 247/5/2
f 247/5/2 242/5/2 248/5/2
f 248/5/2 242/5/2 249/5/2
f 249/5/2 242/5/2 250/5/2
f 250/5/2 242/5/2 251/5/2
f 244/3/2 245/3/2 252/3/2
f 245/5/2 246/5/2 253/5/2
f 252/3/2 245/3/2 253/3/2
f 253/5/2 246/5/2 254/5/2
f 254/5/2 246/5/2 255/5/2
f 247/5/2 248/5/2 256/5/2
f 256/5/2 248/5/2 257/5/2
f 249/5/2 250/5/2 258/5/2
f 258/5/2 250/5/2 259/5/2
f 253/5/2 254/5/2 260/5/2
f 260/5/2 254/5/2 261/5/2
f 262/1/2 263/1/2 269/1/2
f 264/5/2 265/5/2 274/5/2
f 274/5/2 265/5/2 275/5/2
f 266/1/2 267/1/2 276/1/2
f 276/1/2 267/1/2 277/1/2
f 268/1/2 269/1/2 278/1/2
f 271/3/2 272/3/2 279/3/2
f 273/1/2 274/1/2 280/1/2
f 274/5/2 275/5/2 281/5/2
f 280/1/2 274/1/2 281/1/2
f 277/1/2 278/1/2 282/1/2
f 281/5/2 275/5/2 282/5/2
f 276/1/2 277/1/2 282/1/2
f 275/1/2 276/1/2 282/1/2
f 270/1/2 271/1/2 283/1/2
f 271/3/2 279/3/2 283/3/2
f 279/1/2 280/1/2 284/1/2
f 283/3/2 279/3/2 284/3/2
f 280/1/2 281/1/2 284/1/2
f 281/1/2 282/1/2 284/1/2
f 270/1/2 283/1/2 285/1/2
f 283/1/2 284/1/2 285/1/2
f 284/1/2 282/1/2 286/1/2
f 285/1/2 284/1/2 286/1/2
f 269/1/2 263/1/2 286/1/2
f 282/1/2 278/1/2 286/1/2
f 278/1/2 269/1/2 286/1/2
f 289/1/3 288/1/3 287/1/3
f 290/1/3 288/1/3 289/1/3
f 292/1/3 288/1/3 290/1/3
f 293/1/3 292/1/3 291/1/3
f 294/1/3 288/1/3 292/1/3
f 294/1/3 292/1/3 293/1/3
f 295/1/3 288/1/3 294/1/3
f 296/1/3 288/1/3 295/1/3
f 298/1/3 288/1/3 296/1/3
f 300/1/3 298/1/3 297/1/3
f 302/1/3 300/1/3 299/1/3
f 303/1/3 302/1/3 301/1/3
f 304/1/3 288/1/3 298/1/3
f 304/1/3 302/1/3 303/1/3
f 304/1/3 298/1/3 300/1/3
f 304/1/3 300/1/3 302/1/3
f 307/3/3 306/3/3 305/3/3
f 308/3/3 306/3/3 307/3/3
f 310/3/3 309/3/3 308/3/3
f 311/3/3 309/3/3 310/3/3
f 312/3/3 309/3/3 311/3/3
f 314/3/3 312/3/3 311/3/3
f 316/3/3 314/3/3 313/3/3
f 317/3/3 312/3/3 314/3/3
f 317/3/3 314/3/3 316/3/3
f 318/3/3 316/3/3 315/3/3
f 319/3/3 316/3/3 318/3/3
f 325/5/3 323/5/3 322/5/3
f 325/5/3 324/5/3 323/5/3
f 326/5/3 324/5/3 325/5/3
f 327/2/3 326/2/3 325/2/3
f 328/5/3 324/5/3 326/5/3
f 328/2/3 326/2/3 327/2/3
f 329/5/3 321/5/3 320/5/3
f 330/5/3 328/5/3 327/5/3
f 331/5/3 324/5/3 328/5/3
f 331/5/3 328/5/3 330/5/3
f 332/5/3 330/5/3 329/5/3
f 334/5/3 324/5/3 331/5/3
f 336/5/3 333/5/3 332/5/3
f 336/5/3 332/5/3 329/5/3
f 337/5/3 333/5/3 336/5/3
f 338/5/3 329/5/3 320/5/3
f 338/5/3 336/5/3 329/5/3
f 339/5/3 336/5/3 338/5/3
f 340/5/3 335/5/3 334/5/3
f 340/5/3 334/5/3 331/5/3
f 341/5/3 340/5/3 339/5/3
f 342/5/3 335/5/3 340/5/3
f 342/5/3 340/5/3 341/5/3
f 343/2/3 342/2/3 341/2/3
f 344/5/3 335/5/3 342/5/3
f 344/2/3 342/2/3 343/2/3
f 345/5/3 338/5/3 320/5/3
f 346/5/3 338/5/3 345/5/3
f 347/5/3 344/5/3 343/5/3
f 348/5/3 335/5/3 344/5/3
f 348/5/3 344/5/3 347/5/3
f 349/5/3 335/5/3 348/5/3
f 352/1/3 351/1/3 350/1/3
f 353/1/3 351/1/3 352/1/3
f 356/1/3 355/1/3 354/1/3
f 357/1/3 355/1/3 356/1/3
f 361/1/3 360/1/3 359/1/3
f 363/6/3 359/6/3 358/6/3
f 364/6/3 359/6/3 363/6/3
f 365/1/3 362/1/3 361/1/3
f 365/1/3 361/1/3 359/1/3
f 366/1/3 362/1/3 365/1/3
f 367/6/3 359/6/3 364/6/3
f 368/1/3 365/1/3 359/1/3
f 368/6/3 359/6/3 367/6/3
f 369/1/3 365/1/3 368/1/3
f 370/1/3 365/1/3 369/1/3
f 371/5/3 369/5/3 368/5/3
f 372/5/3 369/5/3 371/5/3
f 375/5/3 374/5/3 373/5/3
f 376/5/3 374/5/3 375/5/3
f 380/5/3 378/5/3 377/5/3
f 381/1/3 379/1/3 378/1/3
f 381/5/3 378/5/3 380/5/3
f 382/1/3 379/1/3 381/1/3
f 384/1/3 383/1/3 382/1/3
f 385/1/3 383/1/3 384/1/3
f 390/5/3 386/5/3 385/5/3
f 391/5/3 386/5/3 390/5/3
f 392/1/3 388/1/3 387/1/3
f 393/1/3 388/1/3 392/1/3
f 395/1/3 390/1/3 389/1/3
f 396/1/3 390/1/3 395/1/3
f 397/1/3 395/1/3 394/1/3
f 398/1/3 395/1/3 397/1/3
f 401/5/3 400/5/3 399/5/3
f 402/5/3 400/5/3 401/5/3
f 405/5/3 404/5/3 403/5/3
f 406/5/3 404/5/3 405/5/3
f 409/6/3 408/6/3 407/6/3
f 410/6/3 408/6/3 409/6/3
f 413/1/3 412/1/3 411/1/3
f 414/1/3 412/1/3 413/1/3
f 417/1/3 416/1/3 415/1/3
f 418/1/3 416/1/3 417/1/3
f 421/4/3 420/4/3 419/4/3
f 422/4/3 420/4/3 421/4/3
f 423/4/3 420/4/3 422/4/3
f 424/4/3 420/4/3 423/4/3
f 425/4/3 420/4/3 424/4/3
f 428/1/3 427/1/3 426/1/3
f 429/1/3 427/1/3 428/1/3
f 433/1/3 431/1/3 430/1/3
f 434/1/3 431/1/3 433/1/3
f 435/1/3 433/1/3 432/1/3
f 436/1/3 433/1/3 435/1/3
f 441/1/3 440/1/3 439/1/3
f 442/1/3 440/1/3 441/1/3
f 443/1/3 438/1/3 437/1/3
f 444/1/3 438/1/3 443/1/3
f 447/1/3 446/1/3 445/1/3
f 448/1/3 446/1/3 447/1/3
f 450/1/3 449/1/3 448/1/3
f 451/1/3 449/1/3 450/1/3
f 452/1/4 453/1/4 455/1/4
f 454/1/4 455/1/4 456/1/4
f 455/1/4 453/1/4 457/1/4
f 456/1/4 455/1/4 457/1/4
f 457/1/4 453/1/4 458/1/4
f 458/1/4 453/1/4 459/1/4
f 458/1/4 459/1/4 461/1/4
f 459/1/4 460/1/4 461/1/4
f 461/1/4 460/1/4 462/1/4
f 462/1/4 460/1/4 464/1/4
f 463/1/4 464/1/4 466/1/4
f 465/1/4 466/1/4 467/1/4
f 466/1/4 464/1/4 468/1/4
f 467/1/4 466/1/4 468/1/4
f 464/1/4 460/1/4 469/1/4
f 468/1/4 464/1/4 469/1/4
f 470/3/4 471/3/4 472/3/4
f 472/3/4 471/3/4 473/3/4
f 474/3/4 475/3/4 476/3/4
f 476/3/4 475/3/4 477/3/4
f 478/5/4 479/5/4 480/5/4
f 480/5/4 479/5/4 481/5/4
f 482/1/4 483/1/4 485/1/4
f 483/6/4 484/6/4 486/6/4
f 485/1/4 483/1/4 486/1/4
f 486/6/4 484/6/4 487/6/4
f 488/5/4 489/5/4 490/5/4
f 490/5/4 489/5/4 491/5/4
f 492/5/4 493/5/4 494/5/4
f 494/5/4 493/5/4 495/5/4
f 496/1/4 497/1/4 498/1/4
f 498/1/4 497/1/4 499/1/4
f 499/1/4 500/1/4 501/1/4
f 501/1/4 500/1/4 502/1/4
f 502/5/4 503/5/4 505/5/4
f 505/5/4 503/5/4 506/5/4
f 504/1/4 505/1/4 509/1/4
f 509/1/4 505/1/4 510/1/4
f 507/5/4 508/5/4 511/5/4
f 508/1/4 509/1/4 512/1/4
f 511/5/4 508/5/4 512/5/4
f 512/1/4 509/1/4 513/1/4
f 514/1/4 515/1/4 516/1/4
f 516/1/4 515/1/4 517/1/4
f 518/5/4 519/5/4 521/5/4
f 521/5/4 519/5/4 522/5/4
f 521/1/4 522/1/4 524/1/4
f 522/1/4 523/1/4 524/1/4
f 520/6/4 521/6/4 530/6/4
f 526/4/4 527/4/4 531/4/4
f 531/4/4 527/4/4 532/4/4
f 524/1/4 525/1/4 533/1/4
f 521/1/4 524/1/4 533/1/4
f 533/1/4 525/1/4 534/1/4
f 532/4/4 527/4/4 535/4/4
f 535/4/4 527/4/4 536/4/4
f 528/1/4 529/1/4 537/1/4
f 529/6/4 530/6/4 538/6/4
f 537/1/4 529/1/4 538/1/4
f 530/6/4 521/6/4 539/6/4
f 538/6/4 530/6/4 539/6/4
f 521/1/4 533/1/4 539/1/4
f 539/1/4 533/1/4 540/1/4
f 541/1/4 542/1/4 543/1/4
f 543/1/4 542/1/4 544/1/4
f 545/4/4 546/4/4 547/4/4
f 547/4/4 546/4/4 548/4/4
f 549/1/4 550/1/4 552/1/4
f 551/1/4 552/1/4 553/1/4
f 552/1/4 550/1/4 554/1/4
f 553/1/4 552/1/4 554/1/4
f 554/1/4 550/1/4 556/1/4
f 555/1/4 556/1/4 557/1/4
f 556/1/4 550/1/4 558/1/4
f 557/1/4 556/1/4 558/1/4
f 558/1/4 550/1/4 560/1/4
f 559/1/4 560/1/4 561/1/4
f 560/1/4 550/1/4 562/1/4
f 561/1/4 560/1/4 562/1/4
f 562/1/4 550/1/4 563/1/4
f 563/1/4 550/1/4 564/1/4
f 569/1/5 566/1/5 565/1/5
f 570/1/5 566/1/5 569/1/5
f 571/1/5 568/1/5 567/1/5
f 572/1/5 568/1/5 571/1/5
f 576/6/5 574/6/5 573/6/5
f 577/6/5 574/6/5 576/6/5
f 578/6/5 574/6/5 577/6/5
f 579/6/5 576/6/5 575/6/5
f 579/6/5 577/6/5 576/6/5
f 580/6/5 577/6/5 579/6/5
f 585/5/5 582/5/5 581/5/5
f 586/5/5 582/5/5 585/5/5
f 587/5/5 584/5/5 583/5/5
f 588/5/5 584/5/5 587/5/5
f 591/5/5 590/5/5 589/5/5
f 592/5/5 590/5/5 591/5/5
f 595/5/5 594/5/5 593/5/5
f 596/5/5 594/5/5 595/5/5
f 603/1/5 598/1/5 597/1/5
f 604/1/5 598/1/5 603/1/5
f 605/1/5 600/1/5 599/1/5
f 606/1/5 600/1/5 605/1/5
f 607/1/5 602/1/5 601/1/5
f 608/1/5 602/1/5 607/1/5
f 611/5/5 610/5/5 609/5/5
f 612/5/5 610/5/5 611/5/5
f 614/5/5 611/5/5 609/5/5
f 615/5/5 611/5/5 614/5/5
f 616/5/5 610/5/5 612/5/5
f 617/1/5 614/1/5 613/1/5
f 618/5/5 615/5/5 614/5/5
f 618/1/5 614/1/5 617/1/5
f 618/5/5 616/5/5 615/5/5
f 620/5/5 616/5/5 618/5/5
f 621/5/5 616/5/5 620/5/5
f 622/5/5 616/5/5 621/5/5
f 623/5/5 610/5/5 616/5/5
f 623/5/5 616/5/5 622/5/5
f 624/5/5 610/5/5 623/5/5
f 625/5/5 610/5/5 624/5/5
f 627/1/5 620/1/5 619/1/5
f 628/1/5 620/1/5 627/1/5
f 629/1/5 622/1/5 621/1/5
f 630/1/5 622/1/5 629/1/5
f 631/1/5 624/1/5 623/1/5
f 632/1/5 624/1/5 631/1/5
f 633/1/5 626/1/5 625/1/5
f 634/1/5 626/1/5 633/1/5
f 639/3/5 636/3/5 635/3/5
f 640/3/5 636/3/5 639/3/5
f 641/3/5 638/3/5 637/3/5
f 642/3/5 638/3/5 641/3/5
f 647/5/5 644/5/5 643/5/5
f 648/5/5 644/5/5 647/5/5
f 649/5/5 646/5/5 645/5/5
f 650/5/5 646/5/5 649/5/5
f 655/1/5 652/1/5 651/1/5
f 656/1/5 652/1/5 655/1/5
f 659/1/5 654/1/5 653/1/5
f 660/1/5 654/1/5 659/1/5
f 661/1/5 658/1/5 657/1/5
f 662/1/5 658/1/5 661/1/5
f 667/1/5 664/1/5 663/1/5
f 668/1/5 664/1/5 667/1/5
f 673/1/5 666/1/5 665/1/5
f 674/1/5 666/1/5 673/1/5
f 675/3/5 668/3/5 667/3/5
f 676/3/5 668/3/5 675/3/5
f 677/3/5 670/3/5 669/3/5
f 678/3/5 670/3/5 677/3/5
f 679/3/5 672/3/5 671/3/5
f 680/3/5 672/3/5 679/3/5
f 681/3/5 674/3/5 673/3/5
f 682/3/5 674/3/5 681/3/5
f 685/1/5 684/1/5 683/1/5
f 686/1/5 684/1/5 685/1/5
f 691/1/5 688/1/5 687/1/5
f 692/1/5 688/1/5 691/1/5
f 693/1/5 690/1/5 689/1/5
f 694/1/5 690/1/5 693/1/5
f 697/1/5 696/1/5 695/1/5
f 698/1/5 696/1/5 697/1/5
f 703/1/5 700/1/5 699/1/5
f 704/1/5 700/1/5 703/1/5
f 707/1/5 702/1/5 701/1/5
f 708/1/5 702/1/5 707/1/5
f 711/3/5 706/3/5 705/3/5
f 712/3/5 706/3/5 711/3/5
f 715/1/5 710/1/5 709/1/5
f 716/1/5 710/1/5 715/1/5
f 717/1/5 714/1/5 713/1/5
f 718/1/5 714/1/5 717/1/5
f 719/3/5 716/3/5 715/3/5
f 720/3/5 716/3/5 719/3/5
f 727/1/5 722/1/5 721/1/5
f 728/1/5 722/1/5 727/1/5
f 729/1/5 724/1/5 723/1/5
f 730/1/5 724/1/5 729/1/5
f 731/1/5 724/1/5 730/1/5
f 732/1/5 726/1/5 725/1/5
f 733/1/5 726/1/5 732/1/5
f 738/1/5 735/1/5 734/1/5
f 739/1/5 735/1/5 738/1/5
f 740/1/5 737/1/5 736/1/5
f 741/1/5 737/1/5 740/1/5
f 744/4/5 743/4/5 742/4/5
f 745/4/5 743/4/5 744/4/5
f 748/1/5 747/1/5 746/1/5
f 749/1/5 747/1/5 748/1/5
f 752/4/5 751/4/5 750/4/5
f 753/4/5 751/4/5 752/4/5
f 754/1/6 755/1/6 756/1/6
f 756/1/6 755/1/6 757/1/6
f 758/1/6 759/1/6 760/1/6
f 760/1/6 759/1/6 761/1/6
f 762/5/6 763/5/6 764/5/6
f 764/5/6 763/5/6 765/5/6
f 766/5/6 767/5/6 768/5/6
f 768/5/6 767/5/6 769/5/6
f 770/1/6 771/1/6 775/1/6
f 775/1/6 771/1/6 776/1/6
f 772/1/6 773/1/6 777/1/6
f 777/1/6 773/1/6 778/1/6
f 774/1/6 775/1/6 780/1/6
f 780/1/6 775/1/6 781/1/6
f 778/1/6 779/1/6 784/1/6
f 784/1/6 779/1/6 785/1/6
f 781/1/6 782/1/6 786/1/6
f 786/1/6 782/1/6 787/1/6
f 783/1/6 784/1/6 788/1/6
f 788/1/6 784/1/6 789/1/6
f 790/1/6 791/1/6 793/1/6
f 793/1/6 791/1/6 794/1/6
f 792/1/6 793/1/6 796/1/6
f 796/1/6 793/1/6 797/1/6
f 794/1/6 795/1/6 798/1/6
f 798/1/6 795/1/6 799/1/6
f 797/1/6 798/1/6 800/1/6
f 800/1/6 798/1/6 801/1/6
f 802/3/6 803/3/6 806/3/6
f 806/3/6 803/3/6 807/3/6
f 807/3/6 803/3/6 808/3/6
f 808/3/6 803/3/6 809/3/6
f 804/3/6 805/3/6 810/3/6
f 810/3/6 805/3/6 811/3/6
f 811/3/6 805/3/6 812/3/6
f 812/3/6 805/3/6 813/3/6
f 814/4/6 815/4/6 816/4/6
f 816/4/6 815/4/6 817/4/6
f 818/3/6 819/3/6 821/3/6
f 819/3/6 820/3/6 821/3/6
f 821/3/6 820/3/6 822/3/6
f 823/4/6 824/4/6 825/4/6
f 825/4/6 824/4/6 826/4/6
f 826/4/6 824/4/6 827/4/6
f 828/4/6 829/4/6 830/4/6
f 830/4/6 829/4/6 831/4/6
f 832/1/6 833/1/6 834/1/6
f 834/1/6 833/1/6 835/1/6
