# MagicaVoxel @ ephtracy

# material
mtllib wall1.mtl
usemtl palette

# normals
vn -1 0 0
vn 1 0 0
vn 0 0 1
vn 0 0 -1
vn 0 -1 0
vn 0 1 0

# texcoords
vt 0.533203 0.5
vt 0.537109 0.5
vt 0.626953 0.5
vt 0.841797 0.5
vt 0.845703 0.5

# verts
v -8 0 8
v -8 0 -8
v -8 2 1
v -8 2 -0
v -8 3 1
v -8 3 -0
v -8 3 -1
v -8 3 -8
v -8 4 -2
v -8 4 -8
v -8 5 2
v -8 5 -1
v -8 5 -3
v -8 5 -5
v -8 6 1
v -8 6 -1
v -8 6 -3
v -8 6 -4
v -8 7 4
v -8 7 2
v -8 7 1
v -8 7 -2
v -8 7 -4
v -8 8 -1
v -8 8 -5
v -8 9 -3
v -8 9 -5
v -8 10 4
v -8 10 1
v -8 11 -3
v -8 11 -5
v -8 16 8
v -8 16 -8
v 8 0 8
v 8 0 7
v 8 0 5
v 8 0 2
v 8 0 1
v 8 0 -0
v 8 0 -1
v 8 0 -8
v 8 1 7
v 8 1 6
v 8 2 1
v 8 2 -0
v 8 3 5
v 8 3 3
v 8 3 2
v 8 3 -0
v 8 3 -3
v 8 3 -4
v 8 4 6
v 8 4 4
v 8 4 -3
v 8 4 -4
v 8 5 3
v 8 5 -0
v 8 5 -1
v 8 5 -2
v 8 6 3
v 8 6 -0
v 8 7 -0
v 8 7 -2
v 8 10 7
v 8 10 6
v 8 10 1
v 8 10 -3
v 8 11 7
v 8 11 6
v 8 11 -0
v 8 11 -2
v 8 12 -1
v 8 12 -2
v 8 13 -1
v 8 13 -3
v 8 14 3
v 8 14 1
v 8 15 4
v 8 15 1
v 8 16 8
v 8 16 1
v 8 16 -0
v 8 16 -8
v -8 0 8
v -8 16 8
v -7 9 8
v -7 12 8
v -6 10 8
v -6 11 8
v -5 6 8
v -5 8 8
v -5 9 8
v -5 10 8
v -4 8 8
v -4 11 8
v -4 12 8
v -4 16 8
v -3 6 8
v -3 7 8
v -3 8 8
v -2 2 8
v -2 6 8
v -2 8 8
v -2 16 8
v -1 3 8
v -1 5 8
v -1 13 8
v -1 14 8
v 0 4 8
v 0 5 8
v 0 13 8
v 0 14 8
v 1 4 8
v 1 6 8
v 1 10 8
v 1 12 8
v 2 3 8
v 2 7 8
v 3 2 8
v 3 8 8
v 3 10 8
v 3 12 8
v 8 0 8
v 8 16 8
v -8 0 -8
v -8 3 -8
v -8 4 -8
v -8 16 -8
v -6 0 -8
v -6 3 -8
v -5 0 -8
v -5 1 -8
v -5 3 -8
v -5 4 -8
v -4 7 -8
v -4 13 -8
v -3 5 -8
v -3 6 -8
v -3 8 -8
v -3 12 -8
v -2 5 -8
v -2 6 -8
v -2 9 -8
v -2 11 -8
v -1 9 -8
v -1 10 -8
v 0 8 -8
v 0 10 -8
v 1 7 -8
v 1 11 -8
v 2 3 -8
v 2 12 -8
v 3 1 -8
v 3 4 -8
v 3 5 -8
v 3 13 -8
v 4 5 -8
v 4 6 -8
v 4 7 -8
v 4 9 -8
v 5 4 -8
v 5 6 -8
v 6 7 -8
v 6 9 -8
v 8 0 -8
v 8 16 -8
v -8 0 8
v 8 0 8
v -1 0 7
v 8 0 7
v -5 0 5
v -3 0 5
v 0 0 5
v 8 0 5
v -7 0 3
v -5 0 3
v -3 0 3
v -6 0 2
v -5 0 2
v 2 0 2
v 3 0 2
v 4 0 2
v 8 0 2
v -6 0 1
v -4 0 1
v 2 0 1
v 3 0 1
v 5 0 1
v 8 0 1
v -7 0 -0
v -5 0 -0
v 7 0 -0
v 8 0 -0
v 7 0 -1
v 8 0 -1
v -6 0 -3
v -5 0 -3
v -4 0 -3
v -1 0 -3
v 5 0 -3
v 7 0 -3
v -5 0 -4
v 0 0 -4
v 4 0 -4
v 6 0 -4
v 3 0 -5
v 4 0 -5
v 4 0 -6
v 6 0 -6
v 3 0 -7
v 7 0 -7
v -8 0 -8
v -6 0 -8
v -5 0 -8
v 8 0 -8
v -8 16 8
v -4 16 8
v -2 16 8
v 8 16 8
v 2 16 7
v 4 16 7
v 2 16 6
v 3 16 6
v -5 16 5
v -4 16 5
v -3 16 5
v -2 16 5
v 3 16 5
v -3 16 4
v 0 16 4
v 1 16 4
v 4 16 4
v -5 16 3
v -3 16 3
v -4 16 1
v -1 16 1
v 1 16 1
v 8 16 1
v -3 16 -0
v -2 16 -0
v 1 16 -0
v 8 16 -0
v -2 16 -1
v -1 16 -1
v -3 16 -2
v 0 16 -2
v -4 16 -3
v 1 16 -3
v 4 16 -4
v 6 16 -4
v 4 16 -6
v 6 16 -6
v -8 16 -8
v 8 16 -8

# faces
f 3/2/1 2/2/1 1/2/1
f 4/2/1 2/2/1 3/2/1
f 5/2/1 3/2/1 1/2/1
f 5/4/1 4/4/1 3/4/1
f 6/2/1 2/2/1 4/2/1
f 6/4/1 4/4/1 5/4/1
f 7/2/1 2/2/1 6/2/1
f 8/2/1 2/2/1 7/2/1
f 9/3/1 8/3/1 7/3/1
f 10/3/1 8/3/1 9/3/1
f 11/2/1 5/2/1 1/2/1
f 11/2/1 6/2/1 5/2/1
f 11/2/1 7/2/1 6/2/1
f 12/3/1 9/3/1 7/3/1
f 12/2/1 7/2/1 11/2/1
f 13/2/1 10/2/1 9/2/1
f 14/2/1 10/2/1 13/2/1
f 15/3/1 12/3/1 11/3/1
f 16/3/1 9/3/1 12/3/1
f 16/3/1 12/3/1 15/3/1
f 17/2/1 13/2/1 9/2/1
f 17/3/1 14/3/1 13/3/1
f 18/3/1 14/3/1 17/3/1
f 19/2/1 11/2/1 1/2/1
f 20/3/1 15/3/1 11/3/1
f 20/2/1 11/2/1 19/2/1
f 21/2/1 16/2/1 15/2/1
f 21/3/1 15/3/1 20/3/1
f 22/3/1 9/3/1 16/3/1
f 22/2/1 17/2/1 9/2/1
f 22/2/1 18/2/1 17/2/1
f 23/3/1 14/3/1 18/3/1
f 23/2/1 18/2/1 22/2/1
f 24/3/1 22/3/1 16/3/1
f 24/2/1 16/2/1 21/2/1
f 24/3/1 23/3/1 22/3/1
f 25/3/1 14/3/1 23/3/1
f 25/3/1 23/3/1 24/3/1
f 25/2/1 10/2/1 14/2/1
f 26/2/1 25/2/1 24/2/1
f 27/2/1 10/2/1 25/2/1
f 27/2/1 25/2/1 26/2/1
f 28/2/1 19/2/1 1/2/1
f 28/4/1 20/4/1 19/4/1
f 28/4/1 21/4/1 20/4/1
f 29/2/1 24/2/1 21/2/1
f 29/4/1 21/4/1 28/4/1
f 29/2/1 26/2/1 24/2/1
f 30/4/1 27/4/1 26/4/1
f 30/2/1 26/2/1 29/2/1
f 30/2/1 29/2/1 28/2/1
f 31/2/1 10/2/1 27/2/1
f 31/4/1 27/4/1 30/4/1
f 32/2/1 30/2/1 28/2/1
f 32/2/1 28/2/1 1/2/1
f 32/2/1 31/2/1 30/2/1
f 33/2/1 10/2/1 31/2/1
f 33/2/1 31/2/1 32/2/1
f 34/2/2 35/2/2 42/2/2
f 35/3/2 36/3/2 42/3/2
f 42/3/2 36/3/2 43/3/2
f 37/3/2 38/3/2 44/3/2
f 38/2/2 39/2/2 44/2/2
f 39/3/2 40/3/2 45/3/2
f 44/2/2 39/2/2 45/2/2
f 36/2/2 37/2/2 46/2/2
f 43/3/2 36/3/2 46/3/2
f 46/2/2 37/2/2 47/2/2
f 37/3/2 44/3/2 48/3/2
f 47/2/2 37/2/2 48/2/2
f 44/3/2 45/3/2 48/3/2
f 45/3/2 40/3/2 49/3/2
f 48/3/2 45/3/2 49/3/2
f 40/2/2 41/2/2 50/2/2
f 50/2/2 41/2/2 51/2/2
f 46/3/2 47/3/2 52/3/2
f 43/3/2 46/3/2 52/3/2
f 42/2/2 43/2/2 52/2/2
f 52/3/2 47/3/2 53/3/2
f 50/5/2 51/5/2 54/5/2
f 40/2/2 50/2/2 54/2/2
f 51/2/2 41/2/2 55/2/2
f 54/5/2 51/5/2 55/5/2
f 47/2/2 48/2/2 56/2/2
f 53/3/2 47/3/2 56/3/2
f 48/2/2 49/2/2 56/2/2
f 49/3/2 40/3/2 57/3/2
f 56/2/2 49/2/2 57/2/2
f 40/2/2 54/2/2 58/2/2
f 57/3/2 40/3/2 58/3/2
f 54/2/2 55/2/2 58/2/2
f 58/2/2 55/2/2 59/2/2
f 53/3/2 56/3/2 60/3/2
f 56/3/2 57/3/2 60/3/2
f 58/5/2 59/5/2 61/5/2
f 60/3/2 57/3/2 61/3/2
f 57/5/2 58/5/2 61/5/2
f 60/2/2 61/2/2 62/2/2
f 61/5/2 59/5/2 62/5/2
f 59/2/2 55/2/2 63/2/2
f 62/5/2 59/5/2 63/5/2
f 42/2/2 52/2/2 64/2/2
f 52/2/2 53/2/2 64/2/2
f 34/2/2 42/2/2 64/2/2
f 64/2/2 53/2/2 65/2/2
f 60/2/2 62/2/2 66/2/2
f 62/2/2 63/2/2 66/2/2
f 63/2/2 55/2/2 67/2/2
f 66/2/2 63/2/2 67/2/2
f 64/5/2 65/5/2 68/5/2
f 34/2/2 64/2/2 68/2/2
f 65/2/2 53/2/2 69/2/2
f 68/5/2 65/5/2 69/5/2
f 66/3/2 67/3/2 70/3/2
f 70/3/2 67/3/2 71/3/2
f 70/2/2 71/2/2 72/2/2
f 71/3/2 67/3/2 73/3/2
f 72/2/2 71/2/2 73/2/2
f 70/2/2 72/2/2 74/2/2
f 72/3/2 73/3/2 74/3/2
f 67/2/2 55/2/2 75/2/2
f 74/3/2 73/3/2 75/3/2
f 73/3/2 67/3/2 75/3/2
f 53/3/2 60/3/2 76/3/2
f 60/2/2 66/2/2 76/2/2
f 66/3/2 70/3/2 77/3/2
f 76/2/2 66/2/2 77/2/2
f 69/2/2 53/2/2 78/2/2
f 68/2/2 69/2/2 78/2/2
f 76/3/2 77/3/2 78/3/2
f 53/3/2 76/3/2 78/3/2
f 77/3/2 70/3/2 79/3/2
f 78/3/2 77/3/2 79/3/2
f 34/2/2 68/2/2 80/2/2
f 68/2/2 78/2/2 80/2/2
f 78/2/2 79/2/2 80/2/2
f 79/3/2 70/3/2 81/3/2
f 80/2/2 79/2/2 81/2/2
f 74/2/2 75/2/2 82/2/2
f 81/3/2 70/3/2 82/3/2
f 70/2/2 74/2/2 82/2/2
f 75/2/2 55/2/2 83/2/2
f 82/2/2 75/2/2 83/2/2
f 55/2/2 41/2/2 83/2/2
f 86/2/3 85/2/3 84/2/3
f 87/2/3 85/2/3 86/2/3
f 88/3/3 87/3/3 86/3/3
f 89/3/3 87/3/3 88/3/3
f 90/2/3 86/2/3 84/2/3
f 91/2/3 86/2/3 90/2/3
f 92/3/3 88/3/3 86/3/3
f 92/2/3 86/2/3 91/2/3
f 93/2/3 89/2/3 88/2/3
f 93/3/3 88/3/3 92/3/3
f 94/5/3 91/5/3 90/5/3
f 94/2/3 92/2/3 91/2/3
f 94/2/3 93/2/3 92/2/3
f 95/3/3 87/3/3 89/3/3
f 95/2/3 93/2/3 94/2/3
f 95/2/3 89/2/3 93/2/3
f 96/2/3 85/2/3 87/2/3
f 96/3/3 87/3/3 95/3/3
f 97/2/3 85/2/3 96/2/3
f 98/5/3 94/5/3 90/5/3
f 98/2/3 90/2/3 84/2/3
f 99/5/3 94/5/3 98/5/3
f 100/3/3 95/3/3 94/3/3
f 100/5/3 94/5/3 99/5/3
f 100/3/3 97/3/3 96/3/3
f 100/3/3 96/3/3 95/3/3
f 101/2/3 99/2/3 98/2/3
f 101/2/3 98/2/3 84/2/3
f 102/2/3 99/2/3 101/2/3
f 103/3/3 97/3/3 100/3/3
f 103/3/3 100/3/3 99/3/3
f 104/3/3 97/3/3 103/3/3
f 105/3/3 102/3/3 101/3/3
f 106/3/3 102/3/3 105/3/3
f 107/2/3 104/2/3 103/2/3
f 108/2/3 104/2/3 107/2/3
f 109/2/3 106/2/3 105/2/3
f 110/3/3 102/3/3 106/3/3
f 110/2/3 106/2/3 109/2/3
f 111/2/3 107/2/3 103/2/3
f 111/5/3 108/5/3 107/5/3
f 112/2/3 104/2/3 108/2/3
f 112/5/3 108/5/3 111/5/3
f 113/2/3 109/2/3 105/2/3
f 113/3/3 110/3/3 109/3/3
f 114/2/3 99/2/3 102/2/3
f 114/3/3 110/3/3 113/3/3
f 114/3/3 102/3/3 110/3/3
f 115/2/3 111/2/3 103/2/3
f 115/2/3 112/2/3 111/2/3
f 116/2/3 112/2/3 115/2/3
f 117/2/3 113/2/3 105/2/3
f 117/3/3 105/3/3 101/3/3
f 117/2/3 114/2/3 113/2/3
f 118/3/3 103/3/3 99/3/3
f 118/2/3 114/2/3 117/2/3
f 118/2/3 99/2/3 114/2/3
f 119/2/3 101/2/3 84/2/3
f 119/3/3 117/3/3 101/3/3
f 119/3/3 118/3/3 117/3/3
f 120/3/3 103/3/3 118/3/3
f 120/3/3 118/3/3 119/3/3
f 120/2/3 115/2/3 103/2/3
f 121/5/3 116/5/3 115/5/3
f 121/2/3 115/2/3 120/2/3
f 122/2/3 112/2/3 116/2/3
f 122/5/3 116/5/3 121/5/3
f 123/2/3 121/2/3 120/2/3
f 123/2/3 119/2/3 84/2/3
f 123/2/3 122/2/3 121/2/3
f 123/2/3 120/2/3 119/2/3
f 124/2/3 112/2/3 122/2/3
f 124/2/3 122/2/3 123/2/3
f 124/2/3 104/2/3 112/2/3
f 125/2/4 126/2/4 129/2/4
f 126/3/4 127/3/4 130/3/4
f 129/2/4 126/2/4 130/2/4
f 129/3/4 130/3/4 131/3/4
f 131/3/4 130/3/4 132/3/4
f 130/3/4 127/3/4 133/3/4
f 132/3/4 130/3/4 133/3/4
f 127/2/4 128/2/4 134/2/4
f 133/3/4 127/3/4 134/3/4
f 133/2/4 134/2/4 135/2/4
f 134/2/4 128/2/4 135/2/4
f 135/2/4 128/2/4 136/2/4
f 133/2/4 135/2/4 137/2/4
f 137/2/4 135/2/4 138/2/4
f 135/3/4 136/3/4 139/3/4
f 139/3/4 136/3/4 140/3/4
f 133/2/4 137/2/4 141/2/4
f 137/4/4 138/4/4 141/4/4
f 138/2/4 135/2/4 142/2/4
f 141/4/4 138/4/4 142/4/4
f 139/2/4 140/2/4 143/2/4
f 143/2/4 140/2/4 144/2/4
f 139/2/4 143/2/4 145/2/4
f 143/3/4 144/3/4 145/3/4
f 145/3/4 144/3/4 146/3/4
f 135/3/4 139/3/4 147/3/4
f 139/2/4 145/2/4 147/2/4
f 145/2/4 146/2/4 147/2/4
f 146/3/4 144/3/4 148/3/4
f 147/2/4 146/2/4 148/2/4
f 142/2/4 135/2/4 149/2/4
f 135/3/4 147/3/4 149/3/4
f 147/3/4 148/3/4 149/3/4
f 141/2/4 142/2/4 149/2/4
f 148/3/4 144/3/4 150/3/4
f 149/3/4 148/3/4 150/3/4
f 144/2/4 140/2/4 150/2/4
f 132/3/4 133/3/4 151/3/4
f 133/2/4 141/2/4 151/2/4
f 149/2/4 150/2/4 151/2/4
f 141/2/4 149/2/4 151/2/4
f 150/2/4 140/2/4 152/2/4
f 151/2/4 150/2/4 152/2/4
f 140/3/4 136/3/4 152/3/4
f 132/3/4 151/3/4 153/3/4
f 131/2/4 132/2/4 153/2/4
f 151/3/4 152/3/4 153/3/4
f 153/3/4 152/3/4 154/3/4
f 154/3/4 152/3/4 155/3/4
f 152/3/4 136/3/4 156/3/4
f 155/3/4 152/3/4 156/3/4
f 136/2/4 128/2/4 156/2/4
f 154/3/4 155/3/4 157/3/4
f 155/2/4 156/2/4 157/2/4
f 157/2/4 156/2/4 158/2/4
f 158/2/4 156/2/4 159/2/4
f 159/2/4 156/2/4 160/2/4
f 153/2/4 154/2/4 161/2/4
f 154/3/4 157/3/4 161/3/4
f 157/3/4 158/3/4 161/3/4
f 158/2/4 159/2/4 162/2/4
f 161/3/4 158/3/4 162/3/4
f 159/4/4 160/4/4 163/4/4
f 162/2/4 159/2/4 163/2/4
f 161/2/4 162/2/4 163/2/4
f 160/2/4 156/2/4 164/2/4
f 163/4/4 160/4/4 164/4/4
f 161/2/4 163/2/4 165/2/4
f 131/2/4 153/2/4 165/2/4
f 163/2/4 164/2/4 165/2/4
f 153/2/4 161/2/4 165/2/4
f 156/2/4 128/2/4 166/2/4
f 165/2/4 164/2/4 166/2/4
f 164/2/4 156/2/4 166/2/4
f 169/2/5 168/2/5 167/2/5
f 170/2/5 168/2/5 169/2/5
f 171/2/5 169/2/5 167/2/5
f 172/2/5 169/2/5 171/2/5
f 173/3/5 170/3/5 169/3/5
f 174/3/5 170/3/5 173/3/5
f 175/2/5 171/2/5 167/2/5
f 176/4/5 172/4/5 171/4/5
f 176/2/5 171/2/5 175/2/5
f 177/2/5 169/2/5 172/2/5
f 177/4/5 172/4/5 176/4/5
f 178/3/5 176/3/5 175/3/5
f 179/2/5 177/2/5 176/2/5
f 179/3/5 176/3/5 178/3/5
f 180/2/5 174/2/5 173/2/5
f 181/2/5 174/2/5 180/2/5
f 182/2/5 174/2/5 181/2/5
f 183/2/5 174/2/5 182/2/5
f 184/3/5 178/3/5 175/3/5
f 184/2/5 179/2/5 178/2/5
f 185/2/5 177/2/5 179/2/5
f 185/2/5 179/2/5 184/2/5
f 186/2/5 180/2/5 173/2/5
f 186/4/5 181/4/5 180/4/5
f 187/2/5 182/2/5 181/2/5
f 187/4/5 181/4/5 186/4/5
f 188/3/5 183/3/5 182/3/5
f 189/3/5 183/3/5 188/3/5
f 190/2/5 175/2/5 167/2/5
f 190/3/5 184/3/5 175/3/5
f 190/3/5 185/3/5 184/3/5
f 191/3/5 185/3/5 190/3/5
f 192/2/5 189/2/5 188/2/5
f 193/2/5 189/2/5 192/2/5
f 194/2/5 192/2/5 188/2/5
f 194/3/5 193/3/5 192/3/5
f 195/3/5 193/3/5 194/3/5
f 196/2/5 191/2/5 190/2/5
f 197/3/5 185/3/5 191/3/5
f 197/2/5 191/2/5 196/2/5
f 198/2/5 177/2/5 185/2/5
f 198/3/5 185/3/5 197/3/5
f 199/2/5 169/2/5 177/2/5
f 199/2/5 177/2/5 198/2/5
f 199/3/5 173/3/5 169/3/5
f 200/2/5 195/2/5 194/2/5
f 200/3/5 188/3/5 182/3/5
f 200/2/5 194/2/5 188/2/5
f 201/2/5 195/2/5 200/2/5
f 202/3/5 198/3/5 197/3/5
f 202/3/5 197/3/5 196/3/5
f 202/3/5 199/3/5 198/3/5
f 203/3/5 173/3/5 199/3/5
f 203/3/5 199/3/5 202/3/5
f 203/2/5 186/2/5 173/2/5
f 203/2/5 187/2/5 186/2/5
f 204/2/5 182/2/5 187/2/5
f 204/2/5 187/2/5 203/2/5
f 204/3/5 201/3/5 200/3/5
f 204/3/5 200/3/5 182/3/5
f 205/3/5 201/3/5 204/3/5
f 206/2/5 203/2/5 202/2/5
f 206/2/5 204/2/5 203/2/5
f 206/2/5 205/2/5 204/2/5
f 207/2/5 205/2/5 206/2/5
f 208/3/5 207/3/5 206/3/5
f 208/2/5 205/2/5 207/2/5
f 209/3/5 201/3/5 205/3/5
f 209/2/5 205/2/5 208/2/5
f 210/3/5 208/3/5 206/3/5
f 210/2/5 206/2/5 202/2/5
f 210/3/5 209/3/5 208/3/5
f 211/2/5 195/2/5 201/2/5
f 211/3/5 209/3/5 210/3/5
f 211/3/5 201/3/5 209/3/5
f 212/2/5 196/2/5 190/2/5
f 212/2/5 190/2/5 167/2/5
f 213/3/5 202/3/5 196/3/5
f 213/2/5 196/2/5 212/2/5
f 214/2/5 210/2/5 202/2/5
f 214/3/5 202/3/5 213/3/5
f 214/2/5 211/2/5 210/2/5
f 215/2/5 195/2/5 211/2/5
f 215/2/5 211/2/5 214/2/5
f 218/2/6 219/2/6 220/2/6
f 220/2/6 219/2/6 221/2/6
f 218/2/6 220/2/6 222/2/6
f 220/3/6 221/3/6 222/3/6
f 222/3/6 221/3/6 223/3/6
f 216/2/6 217/2/6 224/2/6
f 217/3/6 218/3/6 225/3/6
f 224/2/6 217/2/6 225/2/6
f 225/3/6 218/3/6 226/3/6
f 218/2/6 222/2/6 227/2/6
f 226/3/6 218/3/6 227/3/6
f 222/2/6 223/2/6 227/2/6
f 223/3/6 221/3/6 228/3/6
f 227/2/6 223/2/6 228/2/6
f 226/3/6 227/3/6 229/3/6
f 225/5/6 226/5/6 229/5/6
f 227/3/6 228/3/6 229/3/6
f 224/5/6 225/5/6 229/5/6
f 229/3/6 228/3/6 230/3/6
f 230/3/6 228/3/6 231/3/6
f 228/3/6 221/3/6 232/3/6
f 231/3/6 228/3/6 232/3/6
f 221/2/6 219/2/6 232/2/6
f 216/2/6 224/2/6 233/2/6
f 224/5/6 229/5/6 233/5/6
f 229/2/6 230/2/6 234/2/6
f 233/5/6 229/5/6 234/5/6
f 233/2/6 234/2/6 235/2/6
f 234/2/6 230/2/6 236/2/6
f 235/2/6 234/2/6 236/2/6
f 230/3/6 231/3/6 237/3/6
f 231/2/6 232/2/6 237/2/6
f 232/2/6 219/2/6 238/2/6
f 237/2/6 232/2/6 238/2/6
f 235/3/6 236/3/6 239/3/6
f 239/3/6 236/3/6 240/3/6
f 230/3/6 237/3/6 241/3/6
f 237/3/6 238/3/6 241/3/6
f 241/3/6 238/3/6 242/3/6
f 240/3/6 236/3/6 243/3/6
f 239/2/6 240/2/6 243/2/6
f 236/2/6 230/2/6 244/2/6
f 243/3/6 236/3/6 244/3/6
f 239/2/6 243/2/6 245/2/6
f 235/3/6 239/3/6 245/3/6
f 243/2/6 244/2/6 245/2/6
f 244/2/6 230/2/6 246/2/6
f 245/2/6 244/2/6 246/2/6
f 230/3/6 241/3/6 246/3/6
f 235/3/6 245/3/6 247/3/6
f 233/2/6 235/2/6 247/2/6
f 245/3/6 246/3/6 247/3/6
f 246/3/6 241/3/6 248/3/6
f 247/3/6 246/3/6 248/3/6
f 241/2/6 242/2/6 248/2/6
f 247/2/6 248/2/6 249/2/6
f 248/2/6 242/2/6 249/2/6
f 249/2/6 242/2/6 250/2/6
f 247/2/6 249/2/6 251/2/6
f 249/5/6 250/5/6 251/5/6
f 250/2/6 242/2/6 252/2/6
f 251/5/6 250/5/6 252/5/6
f 233/2/6 247/2/6 253/2/6
f 216/2/6 233/2/6 253/2/6
f 251/2/6 252/2/6 253/2/6
f 247/2/6 251/2/6 253/2/6
f 252/2/6 242/2/6 254/2/6
f 253/2/6 252/2/6 254/2/6
