# MagicaVoxel @ ephtracy

# material
mtllib giftChocolate.mtl
usemtl palette

# normals
vn -1 0 0
vn 1 0 0
vn 0 0 1
vn 0 0 -1
vn 0 -1 0
vn 0 1 0

# texcoords
vt 0.560547 0.5
vt 0.775391 0.5
vt 0.865234 0.5
vt 0.994141 0.5

# verts
v -4 0 3
v -4 0 -3
v -4 2 3
v -4 2 -3
v -4 3 3
v -4 3 2
v -4 3 -2
v -4 3 -3
v -4 8 2
v -4 8 -2
v -1 2 2
v -1 2 1
v -1 2 -1
v -1 2 -2
v -1 3 2
v -1 3 1
v -1 3 -1
v -1 3 -2
v -1 4 2
v -1 4 1
v -1 4 -1
v -1 4 -2
v -1 7 2
v -1 7 1
v -1 7 -1
v -1 7 -2
v 3 2 2
v 3 2 1
v 3 2 -1
v 3 2 -2
v 3 3 2
v 3 3 1
v 3 3 -1
v 3 3 -2
v 3 4 2
v 3 4 1
v 3 4 -1
v 3 4 -2
v 3 6 2
v 3 6 1
v 3 6 -1
v 3 6 -2
v -3 2 2
v -3 2 1
v -3 2 -1
v -3 2 -2
v -3 3 2
v -3 3 1
v -3 3 -1
v -3 3 -2
v -3 4 2
v -3 4 1
v -3 4 -1
v -3 4 -2
v -3 7 2
v -3 7 1
v -3 7 -1
v -3 7 -2
v 1 2 2
v 1 2 1
v 1 2 -1
v 1 2 -2
v 1 3 2
v 1 3 1
v 1 3 -1
v 1 3 -2
v 1 4 2
v 1 4 1
v 1 4 -1
v 1 4 -2
v 1 7 2
v 1 7 1
v 1 7 -1
v 1 7 -2
v 2 6 1
v 2 6 -1
v 2 7 2
v 2 7 1
v 2 7 -1
v 2 7 -2
v 2 8 2
v 2 8 -2
v 4 0 3
v 4 0 -3
v 4 2 3
v 4 2 -3
v 4 3 3
v 4 3 2
v 4 3 -2
v 4 3 -3
v 4 6 2
v 4 6 -2
v -4 0 3
v -4 2 3
v -4 3 3
v 4 0 3
v 4 2 3
v 4 3 3
v -4 3 2
v -4 8 2
v -3 4 2
v -3 7 2
v -1 4 2
v -1 7 2
v 1 4 2
v 1 7 2
v 2 7 2
v 2 8 2
v 3 4 2
v 3 6 2
v 4 3 2
v 4 6 2
v -3 2 1
v -3 3 1
v -3 4 1
v -3 7 1
v -1 2 1
v -1 3 1
v -1 4 1
v -1 7 1
v 1 2 1
v 1 3 1
v 1 4 1
v 1 7 1
v 2 6 1
v 2 7 1
v 3 2 1
v 3 3 1
v 3 4 1
v 3 6 1
v -3 2 -2
v -3 3 -2
v -1 2 -2
v -1 3 -2
v 1 2 -2
v 1 3 -2
v 3 2 -2
v 3 3 -2
v -3 2 2
v -3 3 2
v -1 2 2
v -1 3 2
v 1 2 2
v 1 3 2
v 3 2 2
v 3 3 2
v -3 2 -1
v -3 3 -1
v -3 4 -1
v -3 7 -1
v -1 2 -1
v -1 3 -1
v -1 4 -1
v -1 7 -1
v 1 2 -1
v 1 3 -1
v 1 4 -1
v 1 7 -1
v 2 6 -1
v 2 7 -1
v 3 2 -1
v 3 3 -1
v 3 4 -1
v 3 6 -1
v -4 3 -2
v -4 8 -2
v -3 4 -2
v -3 7 -2
v -1 4 -2
v -1 7 -2
v 1 4 -2
v 1 7 -2
v 2 7 -2
v 2 8 -2
v 3 4 -2
v 3 6 -2
v 4 3 -2
v 4 6 -2
v -4 0 -3
v -4 2 -3
v -4 3 -3
v 4 0 -3
v 4 2 -3
v 4 3 -3
v -4 0 3
v 4 0 3
v -4 0 -3
v 4 0 -3
v -3 3 2
v -1 3 2
v 1 3 2
v 3 3 2
v -3 3 1
v -1 3 1
v 1 3 1
v 3 3 1
v -3 3 -1
v -1 3 -1
v 1 3 -1
v 3 3 -1
v -3 3 -2
v -1 3 -2
v 1 3 -2
v 3 3 -2
v -3 7 2
v -1 7 2
v 1 7 2
v 2 7 2
v -3 7 1
v -1 7 1
v 1 7 1
v 2 7 1
v -3 7 -1
v -1 7 -1
v 1 7 -1
v 2 7 -1
v -3 7 -2
v -1 7 -2
v 1 7 -2
v 2 7 -2
v -3 2 2
v -1 2 2
v 1 2 2
v 3 2 2
v -3 2 1
v -1 2 1
v 1 2 1
v 3 2 1
v -3 2 -1
v -1 2 -1
v 1 2 -1
v 3 2 -1
v -3 2 -2
v -1 2 -2
v 1 2 -2
v 3 2 -2
v -4 3 3
v 4 3 3
v -4 3 2
v 4 3 2
v -4 3 -2
v 4 3 -2
v -4 3 -3
v 4 3 -3
v -3 4 2
v -1 4 2
v 1 4 2
v 3 4 2
v -3 4 1
v -1 4 1
v 1 4 1
v 3 4 1
v -3 4 -1
v -1 4 -1
v 1 4 -1
v 3 4 -1
v -3 4 -2
v -1 4 -2
v 1 4 -2
v 3 4 -2
v 3 6 2
v 4 6 2
v 2 6 1
v 3 6 1
v 2 6 -1
v 3 6 -1
v 3 6 -2
v 4 6 -2
v -4 8 2
v 2 8 2
v -4 8 -2
v 2 8 -2

# faces
f 3/2/1 2/2/1 1/2/1
f 4/2/1 2/2/1 3/2/1
f 5/4/1 4/4/1 3/4/1
f 6/4/1 4/4/1 5/4/1
f 7/4/1 4/4/1 6/4/1
f 8/4/1 4/4/1 7/4/1
f 9/1/1 7/1/1 6/1/1
f 10/1/1 7/1/1 9/1/1
f 15/3/1 12/3/1 11/3/1
f 16/3/1 12/3/1 15/3/1
f 17/3/1 14/3/1 13/3/1
f 18/3/1 14/3/1 17/3/1
f 23/1/1 20/1/1 19/1/1
f 24/1/1 20/1/1 23/1/1
f 25/1/1 22/1/1 21/1/1
f 26/1/1 22/1/1 25/1/1
f 31/4/1 28/4/1 27/4/1
f 32/4/1 28/4/1 31/4/1
f 33/4/1 30/4/1 29/4/1
f 34/4/1 30/4/1 33/4/1
f 39/1/1 36/1/1 35/1/1
f 40/1/1 36/1/1 39/1/1
f 41/1/1 38/1/1 37/1/1
f 42/1/1 38/1/1 41/1/1
f 43/4/2 44/4/2 47/4/2
f 47/4/2 44/4/2 48/4/2
f 45/4/2 46/4/2 49/4/2
f 49/4/2 46/4/2 50/4/2
f 51/1/2 52/1/2 55/1/2
f 55/1/2 52/1/2 56/1/2
f 53/1/2 54/1/2 57/1/2
f 57/1/2 54/1/2 58/1/2
f 59/3/2 60/3/2 63/3/2
f 63/3/2 60/3/2 64/3/2
f 61/3/2 62/3/2 65/3/2
f 65/3/2 62/3/2 66/3/2
f 67/1/2 68/1/2 71/1/2
f 71/1/2 68/1/2 72/1/2
f 69/1/2 70/1/2 73/1/2
f 73/1/2 70/1/2 74/1/2
f 75/3/2 76/3/2 78/3/2
f 78/3/2 76/3/2 79/3/2
f 77/1/2 78/1/2 81/1/2
f 79/1/2 80/1/2 81/1/2
f 78/1/2 79/1/2 81/1/2
f 81/1/2 80/1/2 82/1/2
f 83/2/2 84/2/2 85/2/2
f 85/2/2 84/2/2 86/2/2
f 85/4/2 86/4/2 87/4/2
f 87/4/2 86/4/2 88/4/2
f 88/4/2 86/4/2 89/4/2
f 89/4/2 86/4/2 90/4/2
f 88/1/2 89/1/2 91/1/2
f 91/1/2 89/1/2 92/1/2
f 96/2/3 94/2/3 93/2/3
f 97/4/3 95/4/3 94/4/3
f 97/2/3 94/2/3 96/2/3
f 98/4/3 95/4/3 97/4/3
f 101/1/3 100/1/3 99/1/3
f 102/1/3 100/1/3 101/1/3
f 103/1/3 101/1/3 99/1/3
f 104/1/3 100/1/3 102/1/3
f 105/1/3 103/1/3 99/1/3
f 105/1/3 104/1/3 103/1/3
f 106/1/3 100/1/3 104/1/3
f 106/1/3 104/1/3 105/1/3
f 107/1/3 100/1/3 106/1/3
f 108/1/3 100/1/3 107/1/3
f 109/1/3 105/1/3 99/1/3
f 111/1/3 109/1/3 99/1/3
f 111/1/3 110/1/3 109/1/3
f 112/1/3 110/1/3 111/1/3
f 117/3/3 114/3/3 113/3/3
f 118/3/3 114/3/3 117/3/3
f 119/3/3 116/3/3 115/3/3
f 120/3/3 116/3/3 119/3/3
f 125/3/3 124/3/3 123/3/3
f 126/3/3 124/3/3 125/3/3
f 127/3/3 122/3/3 121/3/3
f 128/3/3 122/3/3 127/3/3
f 129/3/3 125/3/3 123/3/3
f 130/3/3 125/3/3 129/3/3
f 133/4/3 132/4/3 131/4/3
f 134/4/3 132/4/3 133/4/3
f 137/4/3 136/4/3 135/4/3
f 138/4/3 136/4/3 137/4/3
f 139/4/4 140/4/4 141/4/4
f 141/4/4 140/4/4 142/4/4
f 143/4/4 144/4/4 145/4/4
f 145/4/4 144/4/4 146/4/4
f 147/3/4 148/3/4 151/3/4
f 151/3/4 148/3/4 152/3/4
f 149/3/4 150/3/4 153/3/4
f 153/3/4 150/3/4 154/3/4
f 157/3/4 158/3/4 159/3/4
f 159/3/4 158/3/4 160/3/4
f 155/3/4 156/3/4 161/3/4
f 161/3/4 156/3/4 162/3/4
f 157/3/4 159/3/4 163/3/4
f 163/3/4 159/3/4 164/3/4
f 165/1/4 166/1/4 167/1/4
f 167/1/4 166/1/4 168/1/4
f 165/1/4 167/1/4 169/1/4
f 168/1/4 166/1/4 170/1/4
f 165/1/4 169/1/4 171/1/4
f 169/1/4 170/1/4 171/1/4
f 170/1/4 166/1/4 172/1/4
f 171/1/4 170/1/4 172/1/4
f 172/1/4 166/1/4 173/1/4
f 173/1/4 166/1/4 174/1/4
f 165/1/4 171/1/4 175/1/4
f 165/1/4 175/1/4 177/1/4
f 175/1/4 176/1/4 177/1/4
f 177/1/4 176/1/4 178/1/4
f 179/2/4 180/2/4 182/2/4
f 180/4/4 181/4/4 183/4/4
f 182/2/4 180/2/4 183/2/4
f 183/4/4 181/4/4 184/4/4
f 187/2/5 186/2/5 185/2/5
f 188/2/5 186/2/5 187/2/5
f 193/1/5 190/1/5 189/1/5
f 194/1/5 190/1/5 193/1/5
f 195/1/5 192/1/5 191/1/5
f 196/1/5 192/1/5 195/1/5
f 201/1/5 198/1/5 197/1/5
f 202/1/5 198/1/5 201/1/5
f 203/1/5 200/1/5 199/1/5
f 204/1/5 200/1/5 203/1/5
f 209/1/5 206/1/5 205/1/5
f 210/1/5 206/1/5 209/1/5
f 211/1/5 208/1/5 207/1/5
f 212/1/5 208/1/5 211/1/5
f 217/1/5 214/1/5 213/1/5
f 218/1/5 214/1/5 217/1/5
f 219/1/5 216/1/5 215/1/5
f 220/1/5 216/1/5 219/1/5
f 221/4/6 222/4/6 225/4/6
f 225/4/6 222/4/6 226/4/6
f 223/4/6 224/4/6 227/4/6
f 227/4/6 224/4/6 228/4/6
f 229/4/6 230/4/6 233/4/6
f 233/4/6 230/4/6 234/4/6
f 231/4/6 232/4/6 235/4/6
f 235/4/6 232/4/6 236/4/6
f 237/4/6 238/4/6 239/4/6
f 239/4/6 238/4/6 240/4/6
f 241/4/6 242/4/6 243/4/6
f 243/4/6 242/4/6 244/4/6
f 245/1/6 246/1/6 249/1/6
f 249/1/6 246/1/6 250/1/6
f 247/1/6 248/1/6 251/1/6
f 251/1/6 248/1/6 252/1/6
f 253/1/6 254/1/6 257/1/6
f 257/1/6 254/1/6 258/1/6
f 255/1/6 256/1/6 259/1/6
f 259/1/6 256/1/6 260/1/6
f 261/1/6 262/1/6 264/1/6
f 263/3/6 264/3/6 265/3/6
f 264/1/6 262/1/6 266/1/6
f 265/3/6 264/3/6 266/3/6
f 266/1/6 262/1/6 267/1/6
f 267/1/6 262/1/6 268/1/6
f 269/1/6 270/1/6 271/1/6
f 271/1/6 270/1/6 272/1/6
