# MagicaVoxel @ ephtracy

# material
mtllib giftFlowers.mtl
usemtl palette

# normals
vn -1 0 0
vn 1 0 0
vn 0 0 1
vn 0 0 -1
vn 0 -1 0
vn 0 1 0

# texcoords
vt 0.0449219 0.5
vt 0.0683594 0.5
vt 0.494141 0.5
vt 0.587891 0.5
vt 0.888672 0.5
vt 0.982422 0.5

# verts
v -4 1 3
v -4 1 -3
v -4 3 3
v -4 3 -3
v -3 0 2
v -3 0 -2
v -3 1 4
v -3 1 3
v -3 1 2
v -3 1 -2
v -3 1 -3
v -3 1 -4
v -3 3 4
v -3 3 3
v -3 3 -0
v -3 3 -1
v -3 3 -3
v -3 3 -4
v -3 4 -0
v -3 4 -1
v -3 4 -2
v -3 5 -1
v -3 5 -2
v -3 6 2
v -3 6 1
v -3 7 2
v -3 7 1
v -2 0 3
v -2 0 2
v -2 0 -2
v -2 0 -3
v -2 1 3
v -2 1 2
v -2 1 -2
v -2 1 -3
v -2 3 2
v -2 3 1
v -2 6 3
v -2 6 2
v -2 6 1
v -2 6 -0
v -2 7 3
v -2 7 2
v -2 7 1
v -2 7 -0
v -1 3 -0
v -1 3 -1
v -1 3 -2
v -1 3 -3
v -1 4 -2
v -1 4 -3
v -1 5 -0
v -1 5 -1
v -1 7 -2
v -1 7 -3
v -1 8 -2
v -1 8 -3
v 0 3 3
v 0 3 2
v 0 3 1
v 0 3 -0
v 0 4 3
v 0 4 2
v 0 4 1
v 0 4 -0
v 0 4 -2
v 0 4 -3
v 0 7 -1
v 0 7 -2
v 0 7 -3
v 0 7 -4
v 0 8 -1
v 0 8 -2
v 0 8 -3
v 0 8 -4
v 1 3 -0
v 1 3 -1
v 1 4 -0
v 1 5 1
v 1 5 -0
v 1 5 -1
v 1 7 1
v 1 7 -0
v 2 3 1
v 2 3 -0
v 2 4 1
v 2 4 -0
v -2 3 -0
v -2 3 -1
v -2 4 -0
v -2 4 -1
v -2 4 -2
v -2 5 -1
v -2 5 -2
v -1 4 2
v -1 4 1
v -1 6 3
v -1 6 2
v -1 6 1
v -1 6 -0
v -1 7 3
v -1 7 2
v -1 7 1
v -1 7 -0
v 0 3 -0
v 0 3 -1
v 0 4 -0
v 0 5 -0
v 0 5 -1
v 0 6 2
v 0 6 1
v 0 7 2
v 0 7 1
v 1 3 3
v 1 3 2
v 1 3 1
v 1 3 -0
v 1 3 -2
v 1 3 -3
v 1 4 3
v 1 4 2
v 1 4 1
v 1 4 -0
v 1 7 -1
v 1 7 -2
v 1 7 -3
v 1 7 -4
v 1 8 -1
v 1 8 -2
v 1 8 -3
v 1 8 -4
v 2 0 3
v 2 0 2
v 2 0 -2
v 2 0 -3
v 2 1 3
v 2 1 2
v 2 1 -2
v 2 1 -3
v 2 3 2
v 2 3 1
v 2 3 -0
v 2 3 -1
v 2 4 2
v 2 4 1
v 2 4 -0
v 2 5 1
v 2 5 -0
v 2 5 -1
v 2 7 1
v 2 7 -0
v 2 7 -2
v 2 7 -3
v 2 8 -2
v 2 8 -3
v 3 0 2
v 3 0 -2
v 3 1 4
v 3 1 3
v 3 1 2
v 3 1 -2
v 3 1 -3
v 3 1 -4
v 3 3 4
v 3 3 3
v 3 3 1
v 3 3 -0
v 3 3 -3
v 3 3 -4
v 3 4 1
v 3 4 -0
v 4 1 3
v 4 1 -3
v 4 3 3
v 4 3 -3
v -3 1 4
v -3 3 4
v 3 1 4
v 3 3 4
v -4 1 3
v -4 3 3
v -3 1 3
v -3 3 3
v -2 0 3
v -2 1 3
v -2 6 3
v -2 7 3
v -1 6 3
v -1 7 3
v 0 3 3
v 0 4 3
v 1 3 3
v 1 4 3
v 2 0 3
v 2 1 3
v 3 1 3
v 3 3 3
v 4 1 3
v 4 3 3
v -3 0 2
v -3 1 2
v -3 6 2
v -3 7 2
v -2 0 2
v -2 1 2
v -2 3 2
v -2 6 2
v -2 7 2
v -1 3 2
v -1 4 2
v -1 6 2
v -1 7 2
v 0 3 2
v 0 4 2
v 0 6 2
v 0 7 2
v 1 3 2
v 1 4 2
v 2 0 2
v 2 1 2
v 2 3 2
v 2 4 2
v 3 0 2
v 3 1 2
v 1 5 1
v 1 7 1
v 2 3 1
v 2 4 1
v 2 5 1
v 2 7 1
v 3 3 1
v 3 4 1
v -3 3 -0
v -3 4 -0
v -2 3 -0
v -2 4 -0
v -1 3 -0
v -1 5 -0
v 0 3 -0
v 0 4 -0
v 0 5 -0
v 1 3 -0
v 1 4 -0
v 1 5 -0
v 2 3 -0
v 2 4 -0
v 2 5 -0
v -3 4 -1
v -3 5 -1
v -2 4 -1
v -2 5 -1
v 0 7 -1
v 0 8 -1
v 1 7 -1
v 1 8 -1
v -1 3 -2
v -1 4 -2
v -1 7 -2
v -1 8 -2
v 0 4 -2
v 0 7 -2
v 0 8 -2
v 1 3 -2
v 1 7 -2
v 1 8 -2
v 2 7 -2
v 2 8 -2
v -3 6 1
v -3 7 1
v -2 3 1
v -2 6 1
v -2 7 1
v -1 3 1
v -1 4 1
v -1 6 1
v -1 7 1
v 0 3 1
v 0 4 1
v 0 6 1
v 0 7 1
v 1 3 1
v 1 4 1
v 2 3 1
v 2 4 1
v -2 6 -0
v -2 7 -0
v -1 6 -0
v -1 7 -0
v 0 3 -0
v 0 4 -0
v 1 3 -0
v 1 4 -0
v 1 5 -0
v 1 7 -0
v 2 3 -0
v 2 4 -0
v 2 5 -0
v 2 7 -0
v 3 3 -0
v 3 4 -0
v -3 3 -1
v -3 4 -1
v -2 3 -1
v -2 4 -1
v -1 3 -1
v -1 5 -1
v 0 3 -1
v 0 5 -1
v 1 3 -1
v 1 5 -1
v 2 3 -1
v 2 5 -1
v -3 0 -2
v -3 1 -2
v -3 4 -2
v -3 5 -2
v -2 0 -2
v -2 1 -2
v -2 4 -2
v -2 5 -2
v 2 0 -2
v 2 1 -2
v 3 0 -2
v 3 1 -2
v -4 1 -3
v -4 3 -3
v -3 1 -3
v -3 3 -3
v -2 0 -3
v -2 1 -3
v -1 3 -3
v -1 4 -3
v -1 7 -3
v -1 8 -3
v 0 4 -3
v 0 7 -3
v 0 8 -3
v 1 3 -3
v 1 7 -3
v 1 8 -3
v 2 0 -3
v 2 1 -3
v 2 7 -3
v 2 8 -3
v 3 1 -3
v 3 3 -3
v 4 1 -3
v 4 3 -3
v -3 1 -4
v -3 3 -4
v 0 7 -4
v 0 8 -4
v 1 7 -4
v 1 8 -4
v 3 1 -4
v 3 3 -4
v -2 0 3
v 2 0 3
v -3 0 2
v -2 0 2
v 2 0 2
v 3 0 2
v -3 0 -2
v -2 0 -2
v 2 0 -2
v 3 0 -2
v -2 0 -3
v 2 0 -3
v -3 1 4
v 3 1 4
v -4 1 3
v -3 1 3
v -2 1 3
v 2 1 3
v 3 1 3
v 4 1 3
v -3 1 2
v -2 1 2
v 2 1 2
v 3 1 2
v -3 1 -2
v -2 1 -2
v 2 1 -2
v 3 1 -2
v -4 1 -3
v -3 1 -3
v -2 1 -3
v 2 1 -3
v 3 1 -3
v 4 1 -3
v -3 1 -4
v 3 1 -4
v -3 4 -1
v -2 4 -1
v -3 4 -2
v -2 4 -2
v 1 5 1
v 2 5 1
v 1 5 -0
v 2 5 -0
v -2 6 3
v -1 6 3
v -3 6 2
v -2 6 2
v -1 6 2
v 0 6 2
v -3 6 1
v -2 6 1
v -1 6 1
v 0 6 1
v -2 6 -0
v -1 6 -0
v 0 7 -1
v 1 7 -1
v -1 7 -2
v 0 7 -2
v 1 7 -2
v 2 7 -2
v -1 7 -3
v 0 7 -3
v 1 7 -3
v 2 7 -3
v 0 7 -4
v 1 7 -4
v -3 3 4
v 3 3 4
v -4 3 3
v -3 3 3
v -2 3 3
v 0 3 3
v 1 3 3
v 2 3 3
v 3 3 3
v 4 3 3
v -3 3 2
v -2 3 2
v -1 3 2
v 0 3 2
v 1 3 2
v 2 3 2
v 3 3 2
v -2 3 1
v -1 3 1
v 0 3 1
v 1 3 1
v 2 3 1
v 3 3 1
v -3 3 -0
v -2 3 -0
v -1 3 -0
v 0 3 -0
v 1 3 -0
v 2 3 -0
v 3 3 -0
v -3 3 -1
v -2 3 -1
v -1 3 -1
v 0 3 -1
v 1 3 -1
v 2 3 -1
v -3 3 -2
v -2 3 -2
v -1 3 -2
v 1 3 -2
v 2 3 -2
v 3 3 -2
v -4 3 -3
v -3 3 -3
v -2 3 -3
v -1 3 -3
v 1 3 -3
v 2 3 -3
v 3 3 -3
v 4 3 -3
v -3 3 -4
v 3 3 -4
v 0 4 3
v 1 4 3
v -1 4 2
v 0 4 2
v 1 4 2
v 2 4 2
v -1 4 1
v 0 4 1
v 1 4 1
v 2 4 1
v 3 4 1
v -3 4 -0
v -2 4 -0
v 0 4 -0
v 1 4 -0
v 2 4 -0
v 3 4 -0
v -3 4 -1
v -2 4 -1
v -1 4 -2
v 0 4 -2
v -1 4 -3
v 0 4 -3
v -1 5 -0
v 0 5 -0
v 1 5 -0
v 2 5 -0
v -3 5 -1
v -2 5 -1
v -1 5 -1
v 0 5 -1
v 1 5 -1
v 2 5 -1
v -3 5 -2
v -2 5 -2
v -2 7 3
v -1 7 3
v -3 7 2
v -2 7 2
v -1 7 2
v 0 7 2
v -3 7 1
v -2 7 1
v -1 7 1
v 0 7 1
v 1 7 1
v 2 7 1
v -2 7 -0
v -1 7 -0
v 1 7 -0
v 2 7 -0
v 0 8 -1
v 1 8 -1
v -1 8 -2
v 0 8 -2
v 1 8 -2
v 2 8 -2
v -1 8 -3
v 0 8 -3
v 1 8 -3
v 2 8 -3
v 0 8 -4
v 1 8 -4

# faces
f 3/3/1 2/3/1 1/3/1
f 4/3/1 2/3/1 3/3/1
f 9/3/1 6/3/1 5/3/1
f 10/3/1 6/3/1 9/3/1
f 13/3/1 8/3/1 7/3/1
f 14/3/1 8/3/1 13/3/1
f 17/3/1 12/3/1 11/3/1
f 18/3/1 12/3/1 17/3/1
f 19/5/1 16/5/1 15/5/1
f 20/5/1 16/5/1 19/5/1
f 22/5/1 21/5/1 20/5/1
f 23/5/1 21/5/1 22/5/1
f 26/6/1 25/6/1 24/6/1
f 27/6/1 25/6/1 26/6/1
f 32/3/1 29/3/1 28/3/1
f 33/3/1 29/3/1 32/3/1
f 34/3/1 31/3/1 30/3/1
f 35/3/1 31/3/1 34/3/1
f 39/5/1 37/5/1 36/5/1
f 40/5/1 37/5/1 39/5/1
f 42/6/1 39/6/1 38/6/1
f 43/6/1 39/6/1 42/6/1
f 44/6/1 41/6/1 40/6/1
f 45/6/1 41/6/1 44/6/1
f 50/5/1 49/5/1 48/5/1
f 51/5/1 49/5/1 50/5/1
f 52/5/1 47/5/1 46/5/1
f 53/5/1 47/5/1 52/5/1
f 56/4/1 55/4/1 54/4/1
f 57/4/1 55/4/1 56/4/1
f 62/2/1 59/2/1 58/2/1
f 63/2/1 59/2/1 62/2/1
f 64/2/1 61/2/1 60/2/1
f 65/2/1 61/2/1 64/2/1
f 69/5/1 67/5/1 66/5/1
f 70/5/1 67/5/1 69/5/1
f 72/4/1 69/4/1 68/4/1
f 73/4/1 69/4/1 72/4/1
f 74/4/1 71/4/1 70/4/1
f 75/4/1 71/4/1 74/4/1
f 78/5/1 77/5/1 76/5/1
f 80/5/1 77/5/1 78/5/1
f 81/5/1 77/5/1 80/5/1
f 82/5/1 80/5/1 79/5/1
f 83/5/1 80/5/1 82/5/1
f 86/5/1 85/5/1 84/5/1
f 87/5/1 85/5/1 86/5/1
f 88/5/2 89/5/2 90/5/2
f 90/5/2 89/5/2 91/5/2
f 91/5/2 92/5/2 93/5/2
f 93/5/2 92/5/2 94/5/2
f 95/5/2 96/5/2 98/5/2
f 98/5/2 96/5/2 99/5/2
f 97/6/2 98/6/2 101/6/2
f 101/6/2 98/6/2 102/6/2
f 99/6/2 100/6/2 103/6/2
f 103/6/2 100/6/2 104/6/2
f 105/5/2 106/5/2 107/5/2
f 107/5/2 106/5/2 108/5/2
f 108/5/2 106/5/2 109/5/2
f 110/6/2 111/6/2 112/6/2
f 112/6/2 111/6/2 113/6/2
f 114/2/2 115/2/2 120/2/2
f 120/2/2 115/2/2 121/2/2
f 116/2/2 117/2/2 122/2/2
f 122/2/2 117/2/2 123/2/2
f 118/5/2 119/5/2 125/5/2
f 125/5/2 119/5/2 126/5/2
f 124/4/2 125/4/2 128/4/2
f 128/4/2 125/4/2 129/4/2
f 126/4/2 127/4/2 130/4/2
f 130/4/2 127/4/2 131/4/2
f 132/3/2 133/3/2 136/3/2
f 136/3/2 133/3/2 137/3/2
f 134/3/2 135/3/2 138/3/2
f 138/3/2 135/3/2 139/3/2
f 140/2/2 141/2/2 144/2/2
f 144/2/2 141/2/2 145/2/2
f 142/5/2 143/5/2 146/5/2
f 146/5/2 143/5/2 148/5/2
f 148/5/2 143/5/2 149/5/2
f 147/5/2 148/5/2 150/5/2
f 150/5/2 148/5/2 151/5/2
f 152/4/2 153/4/2 154/4/2
f 154/4/2 153/4/2 155/4/2
f 156/3/2 157/3/2 160/3/2
f 160/3/2 157/3/2 161/3/2
f 158/3/2 159/3/2 164/3/2
f 164/3/2 159/3/2 165/3/2
f 162/3/2 163/3/2 168/3/2
f 168/3/2 163/3/2 169/3/2
f 166/5/2 167/5/2 170/5/2
f 170/5/2 167/5/2 171/5/2
f 172/3/2 173/3/2 174/3/2
f 174/3/2 173/3/2 175/3/2
f 178/3/3 177/3/3 176/3/3
f 179/3/3 177/3/3 178/3/3
f 182/3/3 181/3/3 180/3/3
f 183/3/3 181/3/3 182/3/3
f 188/6/3 187/6/3 186/6/3
f 189/6/3 187/6/3 188/6/3
f 192/2/3 191/2/3 190/2/3
f 193/2/3 191/2/3 192/2/3
f 194/3/3 185/3/3 184/3/3
f 195/3/3 185/3/3 194/3/3
f 198/3/3 197/3/3 196/3/3
f 199/3/3 197/3/3 198/3/3
f 204/3/3 201/3/3 200/3/3
f 205/3/3 201/3/3 204/3/3
f 207/6/3 203/6/3 202/6/3
f 208/6/3 203/6/3 207/6/3
f 209/5/3 207/5/3 206/5/3
f 210/5/3 207/5/3 209/5/3
f 211/5/3 207/5/3 210/5/3
f 213/2/3 210/2/3 209/2/3
f 214/2/3 210/2/3 213/2/3
f 215/6/3 212/6/3 211/6/3
f 216/6/3 212/6/3 215/6/3
f 221/2/3 218/2/3 217/2/3
f 222/2/3 218/2/3 221/2/3
f 223/3/3 220/3/3 219/3/3
f 224/3/3 220/3/3 223/3/3
f 229/5/3 226/5/3 225/5/3
f 230/5/3 226/5/3 229/5/3
f 231/5/3 228/5/3 227/5/3
f 232/5/3 228/5/3 231/5/3
f 235/5/3 234/5/3 233/5/3
f 236/5/3 234/5/3 235/5/3
f 239/5/3 238/5/3 237/5/3
f 240/5/3 238/5/3 239/5/3
f 241/5/3 238/5/3 240/5/3
f 245/5/3 243/5/3 242/5/3
f 245/5/3 244/5/3 243/5/3
f 246/5/3 244/5/3 245/5/3
f 247/5/3 244/5/3 246/5/3
f 250/5/3 249/5/3 248/5/3
f 251/5/3 249/5/3 250/5/3
f 254/4/3 253/4/3 252/4/3
f 255/4/3 253/4/3 254/4/3
f 260/5/3 257/5/3 256/5/3
f 261/4/3 259/4/3 258/4/3
f 262/4/3 259/4/3 261/4/3
f 263/5/3 260/5/3 256/5/3
f 263/5/3 261/5/3 260/5/3
f 264/5/3 261/5/3 263/5/3
f 266/4/3 265/4/3 264/4/3
f 267/4/3 265/4/3 266/4/3
f 268/6/4 269/6/4 271/6/4
f 271/6/4 269/6/4 272/6/4
f 270/5/4 271/5/4 273/5/4
f 273/5/4 271/5/4 274/5/4
f 274/5/4 271/5/4 275/5/4
f 273/2/4 274/2/4 277/2/4
f 277/2/4 274/2/4 278/2/4
f 275/6/4 276/6/4 279/6/4
f 279/6/4 276/6/4 280/6/4
f 281/2/4 282/2/4 283/2/4
f 283/2/4 282/2/4 284/2/4
f 285/6/4 286/6/4 287/6/4
f 287/6/4 286/6/4 288/6/4
f 289/2/4 290/2/4 291/2/4
f 291/2/4 290/2/4 292/2/4
f 293/5/4 294/5/4 297/5/4
f 297/5/4 294/5/4 298/5/4
f 295/5/4 296/5/4 299/5/4
f 299/5/4 296/5/4 300/5/4
f 301/5/4 302/5/4 303/5/4
f 303/5/4 302/5/4 304/5/4
f 305/5/4 306/5/4 307/5/4
f 307/5/4 306/5/4 308/5/4
f 309/5/4 310/5/4 311/5/4
f 311/5/4 310/5/4 312/5/4
f 313/3/4 314/3/4 317/3/4
f 317/3/4 314/3/4 318/3/4
f 315/5/4 316/5/4 319/5/4
f 319/5/4 316/5/4 320/5/4
f 321/3/4 322/3/4 323/3/4
f 323/3/4 322/3/4 324/3/4
f 325/3/4 326/3/4 327/3/4
f 327/3/4 326/3/4 328/3/4
f 331/5/4 332/5/4 335/5/4
f 333/4/4 334/4/4 336/4/4
f 336/4/4 334/4/4 337/4/4
f 331/5/4 335/5/4 338/5/4
f 335/5/4 336/5/4 338/5/4
f 338/5/4 336/5/4 339/5/4
f 329/3/4 330/3/4 341/3/4
f 341/3/4 330/3/4 342/3/4
f 339/4/4 340/4/4 343/4/4
f 343/4/4 340/4/4 344/4/4
f 345/3/4 346/3/4 347/3/4
f 347/3/4 346/3/4 348/3/4
f 351/4/4 352/4/4 353/4/4
f 353/4/4 352/4/4 354/4/4
f 349/3/4 350/3/4 355/3/4
f 355/3/4 350/3/4 356/3/4
f 360/3/5 358/3/5 357/3/5
f 361/3/5 358/3/5 360/3/5
f 363/3/5 360/3/5 359/3/5
f 363/3/5 362/3/5 361/3/5
f 363/3/5 361/3/5 360/3/5
f 364/3/5 362/3/5 363/3/5
f 365/3/5 362/3/5 364/3/5
f 366/3/5 362/3/5 365/3/5
f 367/3/5 365/3/5 364/3/5
f 368/3/5 365/3/5 367/3/5
f 372/3/5 370/3/5 369/3/5
f 373/3/5 370/3/5 372/3/5
f 374/3/5 370/3/5 373/3/5
f 375/3/5 370/3/5 374/3/5
f 377/3/5 372/3/5 371/3/5
f 377/3/5 373/3/5 372/3/5
f 378/3/5 373/3/5 377/3/5
f 379/3/5 376/3/5 375/3/5
f 379/3/5 375/3/5 374/3/5
f 380/3/5 376/3/5 379/3/5
f 381/3/5 377/3/5 371/3/5
f 384/3/5 376/3/5 380/3/5
f 385/3/5 382/3/5 381/3/5
f 385/3/5 381/3/5 371/3/5
f 386/3/5 382/3/5 385/3/5
f 387/3/5 382/3/5 386/3/5
f 388/3/5 384/3/5 383/3/5
f 389/3/5 376/3/5 384/3/5
f 389/3/5 384/3/5 388/3/5
f 390/3/5 376/3/5 389/3/5
f 391/3/5 387/3/5 386/3/5
f 391/3/5 388/3/5 387/3/5
f 391/3/5 389/3/5 388/3/5
f 392/3/5 389/3/5 391/3/5
f 395/5/5 394/5/5 393/5/5
f 396/5/5 394/5/5 395/5/5
f 399/5/5 398/5/5 397/5/5
f 400/5/5 398/5/5 399/5/5
f 404/6/5 402/6/5 401/6/5
f 405/6/5 402/6/5 404/6/5
f 407/6/5 404/6/5 403/6/5
f 408/6/5 404/6/5 407/6/5
f 409/6/5 406/6/5 405/6/5
f 410/6/5 406/6/5 409/6/5
f 411/6/5 409/6/5 408/6/5
f 412/6/5 409/6/5 411/6/5
f 416/4/5 414/4/5 413/4/5
f 417/4/5 414/4/5 416/4/5
f 419/4/5 416/4/5 415/4/5
f 420/4/5 416/4/5 419/4/5
f 421/4/5 418/4/5 417/4/5
f 422/4/5 418/4/5 421/4/5
f 423/4/5 421/4/5 420/4/5
f 424/4/5 421/4/5 423/4/5
f 425/3/6 426/3/6 428/3/6
f 428/3/6 426/3/6 429/3/6
f 429/3/6 426/3/6 430/3/6
f 430/3/6 426/3/6 431/3/6
f 431/3/6 426/3/6 432/3/6
f 432/3/6 426/3/6 433/3/6
f 427/3/6 428/3/6 435/3/6
f 428/3/6 429/3/6 435/3/6
f 429/5/6 430/5/6 436/5/6
f 435/3/6 429/3/6 436/3/6
f 436/5/6 430/5/6 437/5/6
f 437/5/6 430/5/6 438/5/6
f 431/5/6 432/5/6 439/5/6
f 433/3/6 434/3/6 440/3/6
f 439/5/6 432/5/6 440/5/6
f 432/3/6 433/3/6 440/3/6
f 440/3/6 434/3/6 441/3/6
f 435/5/6 436/5/6 442/5/6
f 440/5/6 441/5/6 446/5/6
f 441/3/6 434/3/6 447/3/6
f 446/5/6 441/5/6 447/5/6
f 427/3/6 435/3/6 448/3/6
f 443/5/6 444/5/6 448/5/6
f 435/5/6 442/5/6 448/5/6
f 442/5/6 443/5/6 448/5/6
f 448/5/6 444/5/6 449/5/6
f 449/5/6 444/5/6 450/5/6
f 450/5/6 444/5/6 451/5/6
f 445/5/6 446/5/6 452/5/6
f 452/5/6 446/5/6 453/5/6
f 447/3/6 434/3/6 454/3/6
f 427/3/6 448/3/6 455/3/6
f 449/5/6 450/5/6 456/5/6
f 456/5/6 450/5/6 457/5/6
f 451/5/6 452/5/6 458/5/6
f 458/5/6 452/5/6 459/5/6
f 453/5/6 454/5/6 460/5/6
f 458/5/6 459/5/6 461/5/6
f 459/5/6 460/5/6 461/5/6
f 456/5/6 457/5/6 461/5/6
f 427/3/6 455/3/6 461/3/6
f 457/5/6 458/5/6 461/5/6
f 455/5/6 456/5/6 461/5/6
f 461/5/6 460/5/6 462/5/6
f 462/5/6 460/5/6 463/5/6
f 463/5/6 460/5/6 464/5/6
f 460/5/6 454/5/6 465/5/6
f 464/5/6 460/5/6 465/5/6
f 454/3/6 434/3/6 466/3/6
f 465/5/6 454/5/6 466/5/6
f 427/3/6 461/3/6 467/3/6
f 461/3/6 462/3/6 467/3/6
f 467/3/6 462/3/6 468/3/6
f 462/5/6 463/5/6 469/5/6
f 468/3/6 462/3/6 469/3/6
f 469/5/6 463/5/6 470/5/6
f 464/5/6 465/5/6 471/5/6
f 465/3/6 466/3/6 472/3/6
f 471/5/6 465/5/6 472/5/6
f 466/3/6 434/3/6 473/3/6
f 472/3/6 466/3/6 473/3/6
f 473/3/6 434/3/6 474/3/6
f 471/3/6 472/3/6 475/3/6
f 469/3/6 470/3/6 475/3/6
f 472/3/6 473/3/6 475/3/6
f 470/3/6 471/3/6 475/3/6
f 468/3/6 469/3/6 475/3/6
f 475/3/6 473/3/6 476/3/6
f 477/2/6 478/2/6 480/2/6
f 480/2/6 478/2/6 481/2/6
f 479/2/6 480/2/6 483/2/6
f 480/1/6 481/1/6 484/1/6
f 483/2/6 480/2/6 484/2/6
f 481/2/6 482/2/6 485/2/6
f 484/1/6 481/1/6 485/1/6
f 485/2/6 482/2/6 486/2/6
f 484/2/6 485/2/6 490/2/6
f 490/2/6 485/2/6 491/2/6
f 486/5/6 487/5/6 492/5/6
f 492/5/6 487/5/6 493/5/6
f 488/5/6 489/5/6 494/5/6
f 494/5/6 489/5/6 495/5/6
f 496/5/6 497/5/6 498/5/6
f 498/5/6 497/5/6 499/5/6
f 500/5/6 501/5/6 506/5/6
f 506/5/6 501/5/6 507/5/6
f 502/5/6 503/5/6 508/5/6
f 508/5/6 503/5/6 509/5/6
f 504/5/6 505/5/6 510/5/6
f 510/5/6 505/5/6 511/5/6
f 512/6/6 513/6/6 515/6/6
f 515/6/6 513/6/6 516/6/6
f 514/6/6 515/6/6 518/6/6
f 515/1/6 516/1/6 519/1/6
f 518/6/6 515/6/6 519/6/6
f 516/6/6 517/6/6 520/6/6
f 519/1/6 516/1/6 520/1/6
f 520/6/6 517/6/6 521/6/6
f 519/6/6 520/6/6 524/6/6
f 524/6/6 520/6/6 525/6/6
f 522/5/6 523/5/6 526/5/6
f 526/5/6 523/5/6 527/5/6
f 528/4/6 529/4/6 531/4/6
f 531/4/6 529/4/6 532/4/6
f 530/4/6 531/4/6 534/4/6
f 531/1/6 532/1/6 535/1/6
f 534/4/6 531/4/6 535/4/6
f 532/4/6 533/4/6 536/4/6
f 535/1/6 532/1/6 536/1/6
f 536/4/6 533/4/6 537/4/6
f 535/4/6 536/4/6 538/4/6
f 538/4/6 536/4/6 539/4/6
